M48
; DRILL file {KiCad 7.0.7} date Sat Oct  7 20:29:30 2023
; FORMAT={-:-/ absolute / metric / decimal}
; #@! TF.CreationDate,2023-10-07T20:29:30+07:00
; #@! TF.GenerationSoftware,Kicad,Pcbnew,7.0.7
; #@! TF.FileFunction,NonPlated,1,2,NPTH
FMAT,2
METRIC
; #@! TA.AperFunction,NonPlated,NPTH,ComponentDrill
T1C1.702
; #@! TA.AperFunction,NonPlated,NPTH,ComponentDrill
T2C3.000
; #@! TA.AperFunction,NonPlated,NPTH,ComponentDrill
T3C3.048
; #@! TA.AperFunction,NonPlated,NPTH,ComponentDrill
T4C3.988
%
G90
G05
T1
X28.258Y-33.337
X28.258Y-57.15
X30.639Y-95.25
X30.639Y-133.35
X33.02Y-76.2
X33.02Y-133.35
X35.401Y-95.25
X38.417Y-33.337
X38.417Y-57.15
X40.164Y-114.3
X40.799Y-95.25
X40.799Y-133.35
X43.18Y-76.2
X43.18Y-133.35
X45.561Y-95.25
X47.307Y-57.15
X50.324Y-114.3
X50.482Y-33.337
X54.451Y-133.35
X56.832Y-76.2
X56.832Y-133.35
X57.467Y-57.15
X60.642Y-33.337
X61.595Y-95.25
X64.611Y-133.35
X66.358Y-57.15
X66.992Y-76.2
X66.992Y-133.35
X69.532Y-33.337
X71.12Y-114.3
X71.755Y-95.25
X75.882Y-76.2
X76.517Y-57.15
X78.264Y-133.35
X79.692Y-33.337
X80.645Y-95.25
X80.645Y-133.35
X81.28Y-114.3
X85.407Y-57.15
X86.042Y-76.2
X88.424Y-133.35
X88.582Y-33.337
X90.17Y-114.3
X90.805Y-95.25
X90.805Y-133.35
X94.932Y-76.2
X95.567Y-57.15
X98.742Y-33.337
X99.695Y-95.25
X100.33Y-114.3
X104.457Y-57.15
X105.093Y-76.2
X107.632Y-33.337
X109.22Y-114.3
X109.855Y-95.25
X113.983Y-76.2
X114.617Y-57.15
X117.792Y-33.337
X118.745Y-95.25
X119.38Y-114.3
X123.507Y-57.15
X124.142Y-76.2
X128.27Y-114.3
X128.905Y-95.25
X129.857Y-33.337
X133.032Y-76.2
X133.667Y-57.15
X137.795Y-95.25
X138.43Y-114.3
X140.017Y-33.337
X142.558Y-57.15
X142.558Y-133.35
X143.192Y-76.2
X147.32Y-114.3
X147.955Y-95.25
X148.907Y-33.337
X149.701Y-133.35
X152.082Y-76.2
X152.718Y-57.15
X152.718Y-133.35
X156.845Y-95.25
X157.48Y-114.3
X159.067Y-33.337
X159.861Y-133.35
X161.607Y-57.15
X161.607Y-133.35
X162.243Y-76.2
X166.37Y-114.3
X167.005Y-95.25
X167.957Y-33.337
X171.132Y-76.2
X171.767Y-57.15
X171.767Y-133.35
X175.895Y-95.25
X176.53Y-114.3
X178.117Y-33.337
X180.657Y-57.15
X181.292Y-76.2
X185.42Y-114.3
X186.055Y-95.25
X187.007Y-33.337
X190.183Y-76.2
X190.817Y-57.15
X194.945Y-95.25
X195.58Y-114.3
X197.167Y-33.337
X199.707Y-57.15
X200.343Y-76.2
X204.47Y-114.3
X205.105Y-95.25
X209.232Y-33.337
X209.232Y-76.2
X209.867Y-57.15
X213.995Y-95.25
X214.63Y-114.3
X218.757Y-57.15
X218.757Y-133.35
X219.392Y-33.337
X219.392Y-76.2
X221.139Y-133.35
X223.52Y-114.3
X224.155Y-95.25
X228.282Y-33.337
X228.282Y-76.2
X228.917Y-57.15
X228.917Y-133.35
X231.299Y-133.35
X233.045Y-95.25
X233.68Y-114.3
X237.807Y-57.15
X237.807Y-133.35
X238.442Y-33.337
X238.442Y-76.2
X242.57Y-114.3
X243.205Y-95.25
X244.951Y-133.35
X247.332Y-33.337
X247.332Y-76.2
X247.968Y-57.15
X247.968Y-133.35
X252.095Y-95.25
X252.73Y-114.3
X255.111Y-133.35
X256.858Y-57.15
X256.858Y-133.35
X257.493Y-33.337
X257.493Y-76.2
X262.255Y-95.25
X266.382Y-33.337
X266.382Y-76.2
X267.017Y-57.15
X267.017Y-133.35
X268.764Y-114.3
X275.907Y-133.35
X276.542Y-33.337
X276.542Y-76.2
X278.924Y-114.3
X283.051Y-95.25
X285.433Y-57.15
X286.067Y-133.35
X290.195Y-76.2
X293.211Y-95.25
X294.957Y-114.3
X294.957Y-133.35
X295.592Y-57.15
X300.355Y-76.2
X305.118Y-114.3
X305.118Y-133.35
X314.007Y-33.337
X314.007Y-57.15
X314.007Y-76.2
X314.007Y-95.25
X314.007Y-114.3
X314.007Y-133.35
X324.167Y-33.337
X324.167Y-57.15
X324.167Y-76.2
X324.167Y-95.25
X324.167Y-114.3
X324.167Y-133.35
T2
X29.527Y-30.797
X29.527Y-54.61
X31.909Y-92.71
X31.909Y-130.81
X34.29Y-73.66
X35.56Y-138.43
X35.877Y-28.258
X35.877Y-52.07
X37.941Y-100.33
X38.259Y-90.17
X38.259Y-128.27
X40.64Y-71.12
X41.434Y-111.76
X41.91Y-135.89
X44.291Y-97.79
X47.784Y-109.22
X48.578Y-54.61
X51.752Y-30.797
X54.927Y-52.07
X55.721Y-130.81
X58.102Y-28.258
X58.102Y-73.66
X59.372Y-138.43
X62.071Y-128.27
X62.865Y-92.71
X64.453Y-71.12
X65.722Y-135.89
X67.627Y-54.61
X69.215Y-90.17
X70.802Y-30.797
X72.39Y-111.76
X73.977Y-52.07
X77.153Y-28.258
X77.153Y-73.66
X78.74Y-109.22
X79.534Y-130.81
X81.915Y-92.71
X83.185Y-138.43
X83.502Y-71.12
X85.884Y-128.27
X86.677Y-54.61
X88.265Y-90.17
X89.535Y-135.89
X89.852Y-30.797
X91.44Y-111.76
X93.027Y-52.07
X96.203Y-28.258
X96.203Y-73.66
X97.79Y-109.22
X100.965Y-92.71
X102.552Y-71.12
X105.727Y-54.61
X107.315Y-90.17
X108.902Y-30.797
X110.49Y-111.76
X112.078Y-52.07
X115.252Y-28.258
X115.252Y-73.66
X116.84Y-109.22
X120.015Y-92.71
X121.602Y-71.12
X124.777Y-54.61
X126.365Y-90.17
X129.54Y-111.76
X131.127Y-30.797
X131.127Y-52.07
X134.302Y-73.66
X135.89Y-109.22
X137.477Y-28.258
X139.065Y-92.71
X140.653Y-71.12
X143.827Y-54.61
X143.827Y-130.81
X145.415Y-90.17
X148.59Y-111.76
X150.177Y-30.797
X150.177Y-52.07
X150.177Y-128.27
X152.241Y-138.43
X153.352Y-73.66
X154.94Y-109.22
X156.528Y-28.258
X158.115Y-92.71
X158.591Y-135.89
X159.702Y-71.12
X162.877Y-54.61
X162.877Y-130.81
X164.465Y-90.17
X167.64Y-111.76
X169.227Y-30.797
X169.227Y-52.07
X169.227Y-128.27
X172.403Y-73.66
X173.99Y-109.22
X175.577Y-28.258
X177.165Y-92.71
X178.752Y-71.12
X181.927Y-54.61
X183.515Y-90.17
X186.69Y-111.76
X188.278Y-30.797
X188.278Y-52.07
X191.452Y-73.66
X193.04Y-109.22
X194.627Y-28.258
X196.215Y-92.71
X197.802Y-71.12
X200.977Y-54.61
X202.565Y-90.17
X205.74Y-111.76
X207.327Y-52.07
X210.502Y-30.797
X210.502Y-73.66
X212.09Y-109.22
X215.265Y-92.71
X216.852Y-28.258
X216.852Y-71.12
X220.028Y-54.61
X220.028Y-130.81
X221.615Y-90.17
X223.679Y-138.43
X224.79Y-111.76
X226.377Y-52.07
X226.377Y-128.27
X229.552Y-30.797
X229.552Y-73.66
X230.029Y-135.89
X231.14Y-109.22
X234.315Y-92.71
X235.903Y-28.258
X235.903Y-71.12
X239.077Y-54.61
X239.077Y-130.81
X240.665Y-90.17
X243.84Y-111.76
X245.427Y-52.07
X245.427Y-128.27
X247.491Y-138.43
X248.602Y-30.797
X248.602Y-73.66
X250.19Y-109.22
X253.365Y-92.71
X253.841Y-135.89
X254.952Y-28.258
X254.952Y-71.12
X258.127Y-54.61
X258.127Y-130.81
X259.715Y-90.17
X264.477Y-52.07
X264.477Y-128.27
X267.652Y-30.797
X267.652Y-73.66
X270.034Y-111.76
X274.002Y-28.258
X274.002Y-71.12
X276.384Y-109.22
X277.178Y-130.81
X283.527Y-128.27
X284.321Y-92.71
X286.702Y-54.61
X290.671Y-90.17
X291.465Y-73.66
X293.053Y-52.07
X296.227Y-111.76
X296.227Y-130.81
X297.815Y-71.12
X302.577Y-109.22
X302.577Y-128.27
X315.277Y-30.797
X315.277Y-54.61
X315.277Y-73.66
X315.277Y-92.71
X315.277Y-111.76
X315.277Y-130.81
X321.627Y-28.258
X321.627Y-52.07
X321.627Y-71.12
X321.627Y-90.17
X321.627Y-109.22
X321.627Y-128.27
T3
X33.306Y-107.315
X57.182Y-107.315
X104.781Y-140.335
X109.537Y-140.335
X109.537Y-140.335
X204.781Y-140.335
X204.787Y-140.335
X223.837Y-140.335
X276.193Y-88.265
X278.575Y-50.165
X300.069Y-88.265
X302.45Y-50.165
T4
X33.306Y-122.555
X33.337Y-33.337
X33.337Y-57.15
X35.719Y-95.25
X35.719Y-133.35
X38.1Y-76.2
X38.1Y-133.35
X40.481Y-95.25
X45.244Y-114.3
X52.387Y-57.15
X55.562Y-33.337
X57.182Y-122.555
X59.531Y-133.35
X61.912Y-76.2
X61.912Y-133.35
X66.675Y-95.25
X71.438Y-57.15
X74.612Y-33.337
X76.2Y-114.3
X80.962Y-76.2
X83.344Y-133.35
X85.725Y-95.25
X85.725Y-133.35
X90.487Y-57.15
X93.662Y-33.337
X95.25Y-114.3
X100.012Y-76.2
X104.775Y-95.25
X104.781Y-125.095
X109.537Y-57.15
X109.537Y-125.095
X109.537Y-125.095
X112.712Y-33.337
X114.3Y-114.3
X119.062Y-76.2
X123.825Y-95.25
X128.588Y-57.15
X133.35Y-114.3
X134.938Y-33.337
X138.112Y-76.2
X142.875Y-95.25
X147.637Y-57.15
X147.637Y-133.35
X152.4Y-114.3
X153.987Y-33.337
X154.781Y-133.35
X157.162Y-76.2
X161.925Y-95.25
X166.688Y-57.15
X166.688Y-133.35
X171.45Y-114.3
X173.037Y-33.337
X176.213Y-76.2
X180.975Y-95.25
X185.737Y-57.15
X190.5Y-114.3
X192.087Y-33.337
X195.262Y-76.2
X200.025Y-95.25
X204.781Y-125.095
X204.787Y-57.15
X204.787Y-125.095
X209.55Y-114.3
X214.312Y-33.337
X214.312Y-76.2
X219.075Y-95.25
X223.837Y-57.15
X223.837Y-125.095
X223.837Y-133.35
X226.219Y-133.35
X228.6Y-114.3
X233.362Y-33.337
X233.362Y-76.2
X238.125Y-95.25
X242.887Y-57.15
X242.887Y-133.35
X247.65Y-114.3
X250.031Y-133.35
X252.412Y-33.337
X252.412Y-76.2
X257.175Y-95.25
X261.938Y-57.15
X261.938Y-133.35
X271.462Y-33.337
X271.462Y-76.2
X273.844Y-114.3
X276.193Y-103.505
X278.575Y-65.405
X280.988Y-133.35
X288.131Y-95.25
X290.512Y-57.15
X295.275Y-76.2
X300.037Y-114.3
X300.037Y-133.35
X300.069Y-103.505
X302.45Y-65.405
X319.087Y-33.337
X319.087Y-57.15
X319.087Y-76.2
X319.087Y-95.25
X319.087Y-114.3
X319.087Y-133.35
T0
M30
