%TF.GenerationSoftware,KiCad,Pcbnew,7.0.7*%
%TF.CreationDate,2023-10-07T20:29:30+07:00*%
%TF.ProjectId,physalis,70687973-616c-4697-932e-6b696361645f,rev?*%
%TF.SameCoordinates,Original*%
%TF.FileFunction,Drillmap*%
%TF.FilePolarity,Positive*%
%FSLAX45Y45*%
G04 Gerber Fmt 4.5, Leading zero omitted, Abs format (unit mm)*
G04 Created by KiCad (PCBNEW 7.0.7) date 2023-10-07 20:29:30*
%MOMM*%
%LPD*%
G01*
G04 APERTURE LIST*
%ADD10C,0.100000*%
%ADD11C,0.200000*%
%ADD12C,0.040000*%
%ADD13C,0.080000*%
G04 APERTURE END LIST*
D10*
X25955625Y-14287500D02*
X27384375Y-14287500D01*
X32623125Y-14287500D02*
X27384375Y-14287500D01*
X2619375Y-2381250D02*
G75*
G03*
X2381250Y-2619375I0J-238125D01*
G01*
X2381250Y-14049375D02*
G75*
G03*
X2619375Y-14287500I238125J0D01*
G01*
X32861250Y-2619375D02*
X32861250Y-14049375D01*
X25955625Y-14287500D02*
X2619375Y-14287500D01*
X32623125Y-2381250D02*
X2619375Y-2381250D01*
X2381250Y-14049375D02*
X2381250Y-2619375D01*
X32623125Y-14287500D02*
G75*
G03*
X32861250Y-14049375I-5J238130D01*
G01*
X32861250Y-2619375D02*
G75*
G03*
X32623125Y-2381250I-238130J-5D01*
G01*
D11*
D12*
X2599375Y-4742500D02*
X2639375Y-4782500D01*
X2639375Y-4742500D02*
X2599375Y-4782500D01*
X2758125Y-14029375D02*
X2798125Y-14069375D01*
X2798125Y-14029375D02*
X2758125Y-14069375D01*
X4186875Y-3551875D02*
X4226875Y-3591875D01*
X4226875Y-3551875D02*
X4186875Y-3591875D01*
X4186875Y-5933125D02*
X4226875Y-5973125D01*
X4226875Y-5933125D02*
X4186875Y-5973125D01*
X4504375Y-12997500D02*
X4544375Y-13037500D01*
X4544375Y-12997500D02*
X4504375Y-13037500D01*
X4663125Y-7838125D02*
X4703125Y-7878125D01*
X4703125Y-7838125D02*
X4663125Y-7878125D01*
X4980625Y-14108750D02*
X5020625Y-14148750D01*
X5020625Y-14108750D02*
X4980625Y-14148750D01*
X5218750Y-8552500D02*
X5258750Y-8592500D01*
X5258750Y-8552500D02*
X5218750Y-8592500D01*
X5298125Y-9743125D02*
X5338125Y-9783125D01*
X5338125Y-9743125D02*
X5298125Y-9783125D01*
X5377500Y-11648125D02*
X5417500Y-11688125D01*
X5417500Y-11648125D02*
X5377500Y-11688125D01*
X6091875Y-6012500D02*
X6131875Y-6052500D01*
X6131875Y-6012500D02*
X6091875Y-6052500D01*
X6409375Y-3631250D02*
X6449375Y-3671250D01*
X6449375Y-3631250D02*
X6409375Y-3671250D01*
X7044375Y-7917500D02*
X7084375Y-7957500D01*
X7084375Y-7917500D02*
X7044375Y-7957500D01*
X7441250Y-14029375D02*
X7481250Y-14069375D01*
X7481250Y-14029375D02*
X7441250Y-14069375D01*
X7520625Y-9822500D02*
X7560625Y-9862500D01*
X7560625Y-9822500D02*
X7520625Y-9862500D01*
X7996875Y-5933125D02*
X8036875Y-5973125D01*
X8036875Y-5933125D02*
X7996875Y-5973125D01*
X8314375Y-3551875D02*
X8354375Y-3591875D01*
X8354375Y-3551875D02*
X8314375Y-3591875D01*
X8314375Y-4742500D02*
X8354375Y-4782500D01*
X8354375Y-4742500D02*
X8314375Y-4782500D01*
X8473125Y-11727500D02*
X8513125Y-11767500D01*
X8513125Y-11727500D02*
X8473125Y-11767500D01*
X8949375Y-7838125D02*
X8989375Y-7878125D01*
X8989375Y-7838125D02*
X8949375Y-7878125D01*
X9346250Y-13870625D02*
X9386250Y-13910625D01*
X9386250Y-13870625D02*
X9346250Y-13910625D01*
X9425625Y-9743125D02*
X9465625Y-9783125D01*
X9465625Y-9743125D02*
X9425625Y-9783125D01*
X9505000Y-12362500D02*
X9545000Y-12402500D01*
X9545000Y-12362500D02*
X9505000Y-12402500D01*
X9901875Y-6012500D02*
X9941875Y-6052500D01*
X9941875Y-6012500D02*
X9901875Y-6052500D01*
X10219375Y-3631250D02*
X10259375Y-3671250D01*
X10259375Y-3631250D02*
X10219375Y-3671250D01*
X10378125Y-11648125D02*
X10418125Y-11688125D01*
X10418125Y-11648125D02*
X10378125Y-11688125D01*
X10854375Y-7917500D02*
X10894375Y-7957500D01*
X10894375Y-7917500D02*
X10854375Y-7957500D01*
X11330625Y-9822500D02*
X11370625Y-9862500D01*
X11370625Y-9822500D02*
X11330625Y-9862500D01*
X11806875Y-5933125D02*
X11846875Y-5973125D01*
X11846875Y-5933125D02*
X11806875Y-5973125D01*
X12124375Y-3551875D02*
X12164375Y-3591875D01*
X12164375Y-3551875D02*
X12124375Y-3591875D01*
X12124375Y-4742500D02*
X12164375Y-4782500D01*
X12164375Y-4742500D02*
X12124375Y-4782500D01*
X12283125Y-11727500D02*
X12323125Y-11767500D01*
X12323125Y-11727500D02*
X12283125Y-11767500D01*
X12759375Y-7838125D02*
X12799375Y-7878125D01*
X12799375Y-7838125D02*
X12759375Y-7878125D01*
X13235625Y-9743125D02*
X13275625Y-9783125D01*
X13275625Y-9743125D02*
X13235625Y-9783125D01*
X13711875Y-6012500D02*
X13751875Y-6052500D01*
X13751875Y-6012500D02*
X13711875Y-6052500D01*
X14188125Y-11648125D02*
X14228125Y-11688125D01*
X14228125Y-11648125D02*
X14188125Y-11688125D01*
X14346875Y-3631250D02*
X14386875Y-3671250D01*
X14386875Y-3631250D02*
X14346875Y-3671250D01*
X14426250Y-14108750D02*
X14466250Y-14148750D01*
X14466250Y-14108750D02*
X14426250Y-14148750D01*
X14664375Y-7917500D02*
X14704375Y-7957500D01*
X14704375Y-7917500D02*
X14664375Y-7957500D01*
X15140625Y-9822500D02*
X15180625Y-9862500D01*
X15180625Y-9822500D02*
X15140625Y-9862500D01*
X15616875Y-5933125D02*
X15656875Y-5973125D01*
X15656875Y-5933125D02*
X15616875Y-5973125D01*
X15934375Y-4742500D02*
X15974375Y-4782500D01*
X15974375Y-4742500D02*
X15934375Y-4782500D01*
X16093125Y-11727500D02*
X16133125Y-11767500D01*
X16133125Y-11727500D02*
X16093125Y-11767500D01*
X16251875Y-3551875D02*
X16291875Y-3591875D01*
X16291875Y-3551875D02*
X16251875Y-3591875D01*
X16569375Y-7838125D02*
X16609375Y-7878125D01*
X16609375Y-7838125D02*
X16569375Y-7878125D01*
X17045625Y-9743125D02*
X17085625Y-9783125D01*
X17085625Y-9743125D02*
X17045625Y-9783125D01*
X17045625Y-13632500D02*
X17085625Y-13672500D01*
X17085625Y-13632500D02*
X17045625Y-13672500D01*
X17521875Y-6012500D02*
X17561875Y-6052500D01*
X17561875Y-6012500D02*
X17521875Y-6052500D01*
X17998125Y-11648125D02*
X18038125Y-11688125D01*
X18038125Y-11648125D02*
X17998125Y-11688125D01*
X18156875Y-3631250D02*
X18196875Y-3671250D01*
X18196875Y-3631250D02*
X18156875Y-3671250D01*
X18474375Y-7917500D02*
X18514375Y-7957500D01*
X18514375Y-7917500D02*
X18474375Y-7957500D01*
X18553750Y-2678750D02*
X18593750Y-2718750D01*
X18593750Y-2678750D02*
X18553750Y-2718750D01*
X18950625Y-9822500D02*
X18990625Y-9862500D01*
X18990625Y-9822500D02*
X18950625Y-9862500D01*
X19426875Y-5933125D02*
X19466875Y-5973125D01*
X19466875Y-5933125D02*
X19426875Y-5973125D01*
X19903125Y-11727500D02*
X19943125Y-11767500D01*
X19943125Y-11727500D02*
X19903125Y-11767500D01*
X20061875Y-3551875D02*
X20101875Y-3591875D01*
X20101875Y-3551875D02*
X20061875Y-3591875D01*
X20379375Y-7838125D02*
X20419375Y-7878125D01*
X20419375Y-7838125D02*
X20379375Y-7878125D01*
X20855625Y-9743125D02*
X20895625Y-9783125D01*
X20895625Y-9743125D02*
X20855625Y-9783125D01*
X21331875Y-6012500D02*
X21371875Y-6052500D01*
X21371875Y-6012500D02*
X21331875Y-6052500D01*
X21649375Y-14108750D02*
X21689375Y-14148750D01*
X21689375Y-14108750D02*
X21649375Y-14148750D01*
X21808125Y-11648125D02*
X21848125Y-11688125D01*
X21848125Y-11648125D02*
X21808125Y-11688125D01*
X22284375Y-3631250D02*
X22324375Y-3671250D01*
X22324375Y-3631250D02*
X22284375Y-3671250D01*
X22284375Y-7917500D02*
X22324375Y-7957500D01*
X22324375Y-7917500D02*
X22284375Y-7957500D01*
X22681250Y-2678750D02*
X22721250Y-2718750D01*
X22721250Y-2678750D02*
X22681250Y-2718750D01*
X22760625Y-9822500D02*
X22800625Y-9862500D01*
X22800625Y-9822500D02*
X22760625Y-9862500D01*
X23236875Y-5933125D02*
X23276875Y-5973125D01*
X23276875Y-5933125D02*
X23236875Y-5973125D01*
X23713125Y-11727500D02*
X23753125Y-11767500D01*
X23753125Y-11727500D02*
X23713125Y-11767500D01*
X23951250Y-14029375D02*
X23991250Y-14069375D01*
X23991250Y-14029375D02*
X23951250Y-14069375D01*
X24189375Y-3551875D02*
X24229375Y-3591875D01*
X24229375Y-3551875D02*
X24189375Y-3591875D01*
X24189375Y-7838125D02*
X24229375Y-7878125D01*
X24229375Y-7838125D02*
X24189375Y-7878125D01*
X24665625Y-9743125D02*
X24705625Y-9783125D01*
X24705625Y-9743125D02*
X24665625Y-9783125D01*
X25141875Y-6012500D02*
X25181875Y-6052500D01*
X25181875Y-6012500D02*
X25141875Y-6052500D01*
X25618125Y-11648125D02*
X25658125Y-11688125D01*
X25658125Y-11648125D02*
X25618125Y-11688125D01*
X25935625Y-3631250D02*
X25975625Y-3671250D01*
X25975625Y-3631250D02*
X25935625Y-3671250D01*
X26094375Y-7917500D02*
X26134375Y-7957500D01*
X26134375Y-7917500D02*
X26094375Y-7957500D01*
X26491250Y-2678750D02*
X26531250Y-2718750D01*
X26531250Y-2678750D02*
X26491250Y-2718750D01*
X26570625Y-9822500D02*
X26610625Y-9862500D01*
X26610625Y-9822500D02*
X26570625Y-9862500D01*
X27046875Y-5933125D02*
X27086875Y-5973125D01*
X27086875Y-5933125D02*
X27046875Y-5973125D01*
X27046875Y-13870625D02*
X27086875Y-13910625D01*
X27086875Y-13870625D02*
X27046875Y-13910625D01*
X27999375Y-3551875D02*
X28039375Y-3591875D01*
X28039375Y-3551875D02*
X27999375Y-3591875D01*
X27999375Y-7838125D02*
X28039375Y-7878125D01*
X28039375Y-7838125D02*
X27999375Y-7878125D01*
X28237500Y-3631250D02*
X28277500Y-3671250D01*
X28277500Y-3631250D02*
X28237500Y-3671250D01*
X28237500Y-11727500D02*
X28277500Y-11767500D01*
X28277500Y-11727500D02*
X28237500Y-11767500D01*
X28396250Y-5060000D02*
X28436250Y-5100000D01*
X28436250Y-5060000D02*
X28396250Y-5100000D01*
X28872500Y-7838125D02*
X28912500Y-7878125D01*
X28912500Y-7838125D02*
X28872500Y-7878125D01*
X28951875Y-13553125D02*
X28991875Y-13593125D01*
X28991875Y-13553125D02*
X28951875Y-13593125D01*
X29031250Y-8473125D02*
X29071250Y-8513125D01*
X29071250Y-8473125D02*
X29031250Y-8513125D01*
X29348750Y-11648125D02*
X29388750Y-11688125D01*
X29388750Y-11648125D02*
X29348750Y-11688125D01*
X29507500Y-2837500D02*
X29547500Y-2877500D01*
X29547500Y-2837500D02*
X29507500Y-2877500D01*
X29586875Y-3155000D02*
X29626875Y-3195000D01*
X29626875Y-3155000D02*
X29586875Y-3195000D01*
X29666250Y-6012500D02*
X29706250Y-6052500D01*
X29706250Y-6012500D02*
X29666250Y-6052500D01*
X29666250Y-9743125D02*
X29706250Y-9783125D01*
X29706250Y-9743125D02*
X29666250Y-9783125D01*
X30221875Y-8155625D02*
X30261875Y-8195625D01*
X30261875Y-8155625D02*
X30221875Y-8195625D01*
X30380625Y-6965000D02*
X30420625Y-7005000D01*
X30420625Y-6965000D02*
X30380625Y-7005000D01*
X30698125Y-11965625D02*
X30738125Y-12005625D01*
X30738125Y-11965625D02*
X30698125Y-12005625D01*
X30698125Y-13870625D02*
X30738125Y-13910625D01*
X30738125Y-13870625D02*
X30698125Y-13910625D01*
X30936250Y-2520000D02*
X30976250Y-2560000D01*
X30976250Y-2520000D02*
X30936250Y-2560000D01*
X31015625Y-5933125D02*
X31055625Y-5973125D01*
X31055625Y-5933125D02*
X31015625Y-5973125D01*
X31015625Y-7838125D02*
X31055625Y-7878125D01*
X31055625Y-7838125D02*
X31015625Y-7878125D01*
X31015625Y-9743125D02*
X31055625Y-9783125D01*
X31055625Y-9743125D02*
X31015625Y-9783125D01*
X31015625Y-11648125D02*
X31055625Y-11688125D01*
X31055625Y-11648125D02*
X31015625Y-11688125D01*
X32603125Y-3551875D02*
X32643125Y-3591875D01*
X32643125Y-3551875D02*
X32603125Y-3591875D01*
X32603125Y-5933125D02*
X32643125Y-5973125D01*
X32643125Y-5933125D02*
X32603125Y-5973125D01*
X32603125Y-7838125D02*
X32643125Y-7878125D01*
X32643125Y-7838125D02*
X32603125Y-7878125D01*
X32603125Y-9743125D02*
X32643125Y-9783125D01*
X32643125Y-9743125D02*
X32603125Y-9783125D01*
X32603125Y-11648125D02*
X32643125Y-11688125D01*
X32643125Y-11648125D02*
X32603125Y-11688125D01*
D13*
X28757875Y-2540000D02*
G75*
G03*
X28757875Y-2540000I-40000J0D01*
G01*
X28757875Y-2794000D02*
G75*
G03*
X28757875Y-2794000I-40000J0D01*
G01*
X28757875Y-3048000D02*
G75*
G03*
X28757875Y-3048000I-40000J0D01*
G01*
X28757875Y-3302000D02*
G75*
G03*
X28757875Y-3302000I-40000J0D01*
G01*
X28757875Y-3556000D02*
G75*
G03*
X28757875Y-3556000I-40000J0D01*
G01*
X28757875Y-3810000D02*
G75*
G03*
X28757875Y-3810000I-40000J0D01*
G01*
X28757875Y-4064000D02*
G75*
G03*
X28757875Y-4064000I-40000J0D01*
G01*
X28757875Y-4318000D02*
G75*
G03*
X28757875Y-4318000I-40000J0D01*
G01*
X28757875Y-4572000D02*
G75*
G03*
X28757875Y-4572000I-40000J0D01*
G01*
X29011875Y-4593000D02*
G75*
G03*
X29011875Y-4593000I-40000J0D01*
G01*
X29265875Y-4593000D02*
G75*
G03*
X29265875Y-4593000I-40000J0D01*
G01*
X29519875Y-4593000D02*
G75*
G03*
X29519875Y-4593000I-40000J0D01*
G01*
X29773875Y-4593000D02*
G75*
G03*
X29773875Y-4593000I-40000J0D01*
G01*
X30027875Y-4593000D02*
G75*
G03*
X30027875Y-4593000I-40000J0D01*
G01*
X30281875Y-2540000D02*
G75*
G03*
X30281875Y-2540000I-40000J0D01*
G01*
X30281875Y-2794000D02*
G75*
G03*
X30281875Y-2794000I-40000J0D01*
G01*
X30281875Y-3048000D02*
G75*
G03*
X30281875Y-3048000I-40000J0D01*
G01*
X30281875Y-3302000D02*
G75*
G03*
X30281875Y-3302000I-40000J0D01*
G01*
X30281875Y-3556000D02*
G75*
G03*
X30281875Y-3556000I-40000J0D01*
G01*
X30281875Y-3810000D02*
G75*
G03*
X30281875Y-3810000I-40000J0D01*
G01*
X30281875Y-4064000D02*
G75*
G03*
X30281875Y-4064000I-40000J0D01*
G01*
X30281875Y-4318000D02*
G75*
G03*
X30281875Y-4318000I-40000J0D01*
G01*
X30281875Y-4572000D02*
G75*
G03*
X30281875Y-4572000I-40000J0D01*
G01*
D11*
X2637027Y-14603984D02*
X2637027Y-14403984D01*
X2637027Y-14403984D02*
X2684646Y-14403984D01*
X2684646Y-14403984D02*
X2713217Y-14413508D01*
X2713217Y-14413508D02*
X2732265Y-14432555D01*
X2732265Y-14432555D02*
X2741789Y-14451603D01*
X2741789Y-14451603D02*
X2751313Y-14489698D01*
X2751313Y-14489698D02*
X2751313Y-14518269D01*
X2751313Y-14518269D02*
X2741789Y-14556365D01*
X2741789Y-14556365D02*
X2732265Y-14575412D01*
X2732265Y-14575412D02*
X2713217Y-14594460D01*
X2713217Y-14594460D02*
X2684646Y-14603984D01*
X2684646Y-14603984D02*
X2637027Y-14603984D01*
X2837027Y-14603984D02*
X2837027Y-14470650D01*
X2837027Y-14508746D02*
X2846551Y-14489698D01*
X2846551Y-14489698D02*
X2856074Y-14480174D01*
X2856074Y-14480174D02*
X2875122Y-14470650D01*
X2875122Y-14470650D02*
X2894170Y-14470650D01*
X2960836Y-14603984D02*
X2960836Y-14470650D01*
X2960836Y-14403984D02*
X2951312Y-14413508D01*
X2951312Y-14413508D02*
X2960836Y-14423031D01*
X2960836Y-14423031D02*
X2970360Y-14413508D01*
X2970360Y-14413508D02*
X2960836Y-14403984D01*
X2960836Y-14403984D02*
X2960836Y-14423031D01*
X3084646Y-14603984D02*
X3065598Y-14594460D01*
X3065598Y-14594460D02*
X3056074Y-14575412D01*
X3056074Y-14575412D02*
X3056074Y-14403984D01*
X3189408Y-14603984D02*
X3170360Y-14594460D01*
X3170360Y-14594460D02*
X3160836Y-14575412D01*
X3160836Y-14575412D02*
X3160836Y-14403984D01*
X3417979Y-14603984D02*
X3417979Y-14403984D01*
X3417979Y-14403984D02*
X3484646Y-14546841D01*
X3484646Y-14546841D02*
X3551312Y-14403984D01*
X3551312Y-14403984D02*
X3551312Y-14603984D01*
X3732265Y-14603984D02*
X3732265Y-14499222D01*
X3732265Y-14499222D02*
X3722741Y-14480174D01*
X3722741Y-14480174D02*
X3703693Y-14470650D01*
X3703693Y-14470650D02*
X3665598Y-14470650D01*
X3665598Y-14470650D02*
X3646551Y-14480174D01*
X3732265Y-14594460D02*
X3713217Y-14603984D01*
X3713217Y-14603984D02*
X3665598Y-14603984D01*
X3665598Y-14603984D02*
X3646551Y-14594460D01*
X3646551Y-14594460D02*
X3637027Y-14575412D01*
X3637027Y-14575412D02*
X3637027Y-14556365D01*
X3637027Y-14556365D02*
X3646551Y-14537317D01*
X3646551Y-14537317D02*
X3665598Y-14527793D01*
X3665598Y-14527793D02*
X3713217Y-14527793D01*
X3713217Y-14527793D02*
X3732265Y-14518269D01*
X3827503Y-14470650D02*
X3827503Y-14670650D01*
X3827503Y-14480174D02*
X3846551Y-14470650D01*
X3846551Y-14470650D02*
X3884646Y-14470650D01*
X3884646Y-14470650D02*
X3903693Y-14480174D01*
X3903693Y-14480174D02*
X3913217Y-14489698D01*
X3913217Y-14489698D02*
X3922741Y-14508746D01*
X3922741Y-14508746D02*
X3922741Y-14565888D01*
X3922741Y-14565888D02*
X3913217Y-14584936D01*
X3913217Y-14584936D02*
X3903693Y-14594460D01*
X3903693Y-14594460D02*
X3884646Y-14603984D01*
X3884646Y-14603984D02*
X3846551Y-14603984D01*
X3846551Y-14603984D02*
X3827503Y-14594460D01*
X4008455Y-14584936D02*
X4017979Y-14594460D01*
X4017979Y-14594460D02*
X4008455Y-14603984D01*
X4008455Y-14603984D02*
X3998932Y-14594460D01*
X3998932Y-14594460D02*
X4008455Y-14584936D01*
X4008455Y-14584936D02*
X4008455Y-14603984D01*
X4008455Y-14480174D02*
X4017979Y-14489698D01*
X4017979Y-14489698D02*
X4008455Y-14499222D01*
X4008455Y-14499222D02*
X3998932Y-14489698D01*
X3998932Y-14489698D02*
X4008455Y-14480174D01*
X4008455Y-14480174D02*
X4008455Y-14499222D01*
D12*
X2336250Y-14912500D02*
X2376250Y-14952500D01*
X2376250Y-14912500D02*
X2336250Y-14952500D01*
D11*
X2675122Y-14823984D02*
X2694170Y-14823984D01*
X2694170Y-14823984D02*
X2713217Y-14833508D01*
X2713217Y-14833508D02*
X2722741Y-14843031D01*
X2722741Y-14843031D02*
X2732265Y-14862079D01*
X2732265Y-14862079D02*
X2741789Y-14900174D01*
X2741789Y-14900174D02*
X2741789Y-14947793D01*
X2741789Y-14947793D02*
X2732265Y-14985888D01*
X2732265Y-14985888D02*
X2722741Y-15004936D01*
X2722741Y-15004936D02*
X2713217Y-15014460D01*
X2713217Y-15014460D02*
X2694170Y-15023984D01*
X2694170Y-15023984D02*
X2675122Y-15023984D01*
X2675122Y-15023984D02*
X2656074Y-15014460D01*
X2656074Y-15014460D02*
X2646551Y-15004936D01*
X2646551Y-15004936D02*
X2637027Y-14985888D01*
X2637027Y-14985888D02*
X2627503Y-14947793D01*
X2627503Y-14947793D02*
X2627503Y-14900174D01*
X2627503Y-14900174D02*
X2637027Y-14862079D01*
X2637027Y-14862079D02*
X2646551Y-14843031D01*
X2646551Y-14843031D02*
X2656074Y-14833508D01*
X2656074Y-14833508D02*
X2675122Y-14823984D01*
X2827503Y-15004936D02*
X2837027Y-15014460D01*
X2837027Y-15014460D02*
X2827503Y-15023984D01*
X2827503Y-15023984D02*
X2817979Y-15014460D01*
X2817979Y-15014460D02*
X2827503Y-15004936D01*
X2827503Y-15004936D02*
X2827503Y-15023984D01*
X3008455Y-14890650D02*
X3008455Y-15023984D01*
X2960836Y-14814460D02*
X2913217Y-14957317D01*
X2913217Y-14957317D02*
X3037027Y-14957317D01*
X3151312Y-14823984D02*
X3170360Y-14823984D01*
X3170360Y-14823984D02*
X3189408Y-14833508D01*
X3189408Y-14833508D02*
X3198932Y-14843031D01*
X3198932Y-14843031D02*
X3208455Y-14862079D01*
X3208455Y-14862079D02*
X3217979Y-14900174D01*
X3217979Y-14900174D02*
X3217979Y-14947793D01*
X3217979Y-14947793D02*
X3208455Y-14985888D01*
X3208455Y-14985888D02*
X3198932Y-15004936D01*
X3198932Y-15004936D02*
X3189408Y-15014460D01*
X3189408Y-15014460D02*
X3170360Y-15023984D01*
X3170360Y-15023984D02*
X3151312Y-15023984D01*
X3151312Y-15023984D02*
X3132265Y-15014460D01*
X3132265Y-15014460D02*
X3122741Y-15004936D01*
X3122741Y-15004936D02*
X3113217Y-14985888D01*
X3113217Y-14985888D02*
X3103693Y-14947793D01*
X3103693Y-14947793D02*
X3103693Y-14900174D01*
X3103693Y-14900174D02*
X3113217Y-14862079D01*
X3113217Y-14862079D02*
X3122741Y-14843031D01*
X3122741Y-14843031D02*
X3132265Y-14833508D01*
X3132265Y-14833508D02*
X3151312Y-14823984D01*
X3341789Y-14823984D02*
X3360836Y-14823984D01*
X3360836Y-14823984D02*
X3379884Y-14833508D01*
X3379884Y-14833508D02*
X3389408Y-14843031D01*
X3389408Y-14843031D02*
X3398932Y-14862079D01*
X3398932Y-14862079D02*
X3408455Y-14900174D01*
X3408455Y-14900174D02*
X3408455Y-14947793D01*
X3408455Y-14947793D02*
X3398932Y-14985888D01*
X3398932Y-14985888D02*
X3389408Y-15004936D01*
X3389408Y-15004936D02*
X3379884Y-15014460D01*
X3379884Y-15014460D02*
X3360836Y-15023984D01*
X3360836Y-15023984D02*
X3341789Y-15023984D01*
X3341789Y-15023984D02*
X3322741Y-15014460D01*
X3322741Y-15014460D02*
X3313217Y-15004936D01*
X3313217Y-15004936D02*
X3303693Y-14985888D01*
X3303693Y-14985888D02*
X3294170Y-14947793D01*
X3294170Y-14947793D02*
X3294170Y-14900174D01*
X3294170Y-14900174D02*
X3303693Y-14862079D01*
X3303693Y-14862079D02*
X3313217Y-14843031D01*
X3313217Y-14843031D02*
X3322741Y-14833508D01*
X3322741Y-14833508D02*
X3341789Y-14823984D01*
X3494170Y-15023984D02*
X3494170Y-14890650D01*
X3494170Y-14909698D02*
X3503693Y-14900174D01*
X3503693Y-14900174D02*
X3522741Y-14890650D01*
X3522741Y-14890650D02*
X3551313Y-14890650D01*
X3551313Y-14890650D02*
X3570360Y-14900174D01*
X3570360Y-14900174D02*
X3579884Y-14919222D01*
X3579884Y-14919222D02*
X3579884Y-15023984D01*
X3579884Y-14919222D02*
X3589408Y-14900174D01*
X3589408Y-14900174D02*
X3608455Y-14890650D01*
X3608455Y-14890650D02*
X3637027Y-14890650D01*
X3637027Y-14890650D02*
X3656074Y-14900174D01*
X3656074Y-14900174D02*
X3665598Y-14919222D01*
X3665598Y-14919222D02*
X3665598Y-15023984D01*
X3760836Y-15023984D02*
X3760836Y-14890650D01*
X3760836Y-14909698D02*
X3770360Y-14900174D01*
X3770360Y-14900174D02*
X3789408Y-14890650D01*
X3789408Y-14890650D02*
X3817979Y-14890650D01*
X3817979Y-14890650D02*
X3837027Y-14900174D01*
X3837027Y-14900174D02*
X3846551Y-14919222D01*
X3846551Y-14919222D02*
X3846551Y-15023984D01*
X3846551Y-14919222D02*
X3856074Y-14900174D01*
X3856074Y-14900174D02*
X3875122Y-14890650D01*
X3875122Y-14890650D02*
X3903693Y-14890650D01*
X3903693Y-14890650D02*
X3922741Y-14900174D01*
X3922741Y-14900174D02*
X3932265Y-14919222D01*
X3932265Y-14919222D02*
X3932265Y-15023984D01*
X4322741Y-14814460D02*
X4151313Y-15071603D01*
X4579884Y-14823984D02*
X4598932Y-14823984D01*
X4598932Y-14823984D02*
X4617979Y-14833508D01*
X4617979Y-14833508D02*
X4627503Y-14843031D01*
X4627503Y-14843031D02*
X4637027Y-14862079D01*
X4637027Y-14862079D02*
X4646551Y-14900174D01*
X4646551Y-14900174D02*
X4646551Y-14947793D01*
X4646551Y-14947793D02*
X4637027Y-14985888D01*
X4637027Y-14985888D02*
X4627503Y-15004936D01*
X4627503Y-15004936D02*
X4617979Y-15014460D01*
X4617979Y-15014460D02*
X4598932Y-15023984D01*
X4598932Y-15023984D02*
X4579884Y-15023984D01*
X4579884Y-15023984D02*
X4560837Y-15014460D01*
X4560837Y-15014460D02*
X4551313Y-15004936D01*
X4551313Y-15004936D02*
X4541789Y-14985888D01*
X4541789Y-14985888D02*
X4532265Y-14947793D01*
X4532265Y-14947793D02*
X4532265Y-14900174D01*
X4532265Y-14900174D02*
X4541789Y-14862079D01*
X4541789Y-14862079D02*
X4551313Y-14843031D01*
X4551313Y-14843031D02*
X4560837Y-14833508D01*
X4560837Y-14833508D02*
X4579884Y-14823984D01*
X4732265Y-15004936D02*
X4741789Y-15014460D01*
X4741789Y-15014460D02*
X4732265Y-15023984D01*
X4732265Y-15023984D02*
X4722741Y-15014460D01*
X4722741Y-15014460D02*
X4732265Y-15004936D01*
X4732265Y-15004936D02*
X4732265Y-15023984D01*
X4865598Y-14823984D02*
X4884646Y-14823984D01*
X4884646Y-14823984D02*
X4903694Y-14833508D01*
X4903694Y-14833508D02*
X4913218Y-14843031D01*
X4913218Y-14843031D02*
X4922741Y-14862079D01*
X4922741Y-14862079D02*
X4932265Y-14900174D01*
X4932265Y-14900174D02*
X4932265Y-14947793D01*
X4932265Y-14947793D02*
X4922741Y-14985888D01*
X4922741Y-14985888D02*
X4913218Y-15004936D01*
X4913218Y-15004936D02*
X4903694Y-15014460D01*
X4903694Y-15014460D02*
X4884646Y-15023984D01*
X4884646Y-15023984D02*
X4865598Y-15023984D01*
X4865598Y-15023984D02*
X4846551Y-15014460D01*
X4846551Y-15014460D02*
X4837027Y-15004936D01*
X4837027Y-15004936D02*
X4827503Y-14985888D01*
X4827503Y-14985888D02*
X4817979Y-14947793D01*
X4817979Y-14947793D02*
X4817979Y-14900174D01*
X4817979Y-14900174D02*
X4827503Y-14862079D01*
X4827503Y-14862079D02*
X4837027Y-14843031D01*
X4837027Y-14843031D02*
X4846551Y-14833508D01*
X4846551Y-14833508D02*
X4865598Y-14823984D01*
X5122741Y-15023984D02*
X5008456Y-15023984D01*
X5065598Y-15023984D02*
X5065598Y-14823984D01*
X5065598Y-14823984D02*
X5046551Y-14852555D01*
X5046551Y-14852555D02*
X5027503Y-14871603D01*
X5027503Y-14871603D02*
X5008456Y-14881127D01*
X5303694Y-14823984D02*
X5208456Y-14823984D01*
X5208456Y-14823984D02*
X5198932Y-14919222D01*
X5198932Y-14919222D02*
X5208456Y-14909698D01*
X5208456Y-14909698D02*
X5227503Y-14900174D01*
X5227503Y-14900174D02*
X5275122Y-14900174D01*
X5275122Y-14900174D02*
X5294170Y-14909698D01*
X5294170Y-14909698D02*
X5303694Y-14919222D01*
X5303694Y-14919222D02*
X5313218Y-14938269D01*
X5313218Y-14938269D02*
X5313218Y-14985888D01*
X5313218Y-14985888D02*
X5303694Y-15004936D01*
X5303694Y-15004936D02*
X5294170Y-15014460D01*
X5294170Y-15014460D02*
X5275122Y-15023984D01*
X5275122Y-15023984D02*
X5227503Y-15023984D01*
X5227503Y-15023984D02*
X5208456Y-15014460D01*
X5208456Y-15014460D02*
X5198932Y-15004936D01*
X5379884Y-14823984D02*
X5513218Y-14823984D01*
X5513218Y-14823984D02*
X5427503Y-15023984D01*
X5579884Y-14823984D02*
X5579884Y-14862079D01*
X5656075Y-14823984D02*
X5656075Y-14862079D01*
X5951313Y-15100174D02*
X5941789Y-15090650D01*
X5941789Y-15090650D02*
X5922741Y-15062079D01*
X5922741Y-15062079D02*
X5913218Y-15043031D01*
X5913218Y-15043031D02*
X5903694Y-15014460D01*
X5903694Y-15014460D02*
X5894170Y-14966841D01*
X5894170Y-14966841D02*
X5894170Y-14928746D01*
X5894170Y-14928746D02*
X5903694Y-14881127D01*
X5903694Y-14881127D02*
X5913218Y-14852555D01*
X5913218Y-14852555D02*
X5922741Y-14833508D01*
X5922741Y-14833508D02*
X5941789Y-14804936D01*
X5941789Y-14804936D02*
X5951313Y-14795412D01*
X6132265Y-15023984D02*
X6017979Y-15023984D01*
X6075122Y-15023984D02*
X6075122Y-14823984D01*
X6075122Y-14823984D02*
X6056075Y-14852555D01*
X6056075Y-14852555D02*
X6037027Y-14871603D01*
X6037027Y-14871603D02*
X6017979Y-14881127D01*
X6256075Y-14823984D02*
X6275122Y-14823984D01*
X6275122Y-14823984D02*
X6294170Y-14833508D01*
X6294170Y-14833508D02*
X6303694Y-14843031D01*
X6303694Y-14843031D02*
X6313218Y-14862079D01*
X6313218Y-14862079D02*
X6322741Y-14900174D01*
X6322741Y-14900174D02*
X6322741Y-14947793D01*
X6322741Y-14947793D02*
X6313218Y-14985888D01*
X6313218Y-14985888D02*
X6303694Y-15004936D01*
X6303694Y-15004936D02*
X6294170Y-15014460D01*
X6294170Y-15014460D02*
X6275122Y-15023984D01*
X6275122Y-15023984D02*
X6256075Y-15023984D01*
X6256075Y-15023984D02*
X6237027Y-15014460D01*
X6237027Y-15014460D02*
X6227503Y-15004936D01*
X6227503Y-15004936D02*
X6217979Y-14985888D01*
X6217979Y-14985888D02*
X6208456Y-14947793D01*
X6208456Y-14947793D02*
X6208456Y-14900174D01*
X6208456Y-14900174D02*
X6217979Y-14862079D01*
X6217979Y-14862079D02*
X6227503Y-14843031D01*
X6227503Y-14843031D02*
X6237027Y-14833508D01*
X6237027Y-14833508D02*
X6256075Y-14823984D01*
X6494170Y-14823984D02*
X6456075Y-14823984D01*
X6456075Y-14823984D02*
X6437027Y-14833508D01*
X6437027Y-14833508D02*
X6427503Y-14843031D01*
X6427503Y-14843031D02*
X6408456Y-14871603D01*
X6408456Y-14871603D02*
X6398932Y-14909698D01*
X6398932Y-14909698D02*
X6398932Y-14985888D01*
X6398932Y-14985888D02*
X6408456Y-15004936D01*
X6408456Y-15004936D02*
X6417979Y-15014460D01*
X6417979Y-15014460D02*
X6437027Y-15023984D01*
X6437027Y-15023984D02*
X6475122Y-15023984D01*
X6475122Y-15023984D02*
X6494170Y-15014460D01*
X6494170Y-15014460D02*
X6503694Y-15004936D01*
X6503694Y-15004936D02*
X6513218Y-14985888D01*
X6513218Y-14985888D02*
X6513218Y-14938269D01*
X6513218Y-14938269D02*
X6503694Y-14919222D01*
X6503694Y-14919222D02*
X6494170Y-14909698D01*
X6494170Y-14909698D02*
X6475122Y-14900174D01*
X6475122Y-14900174D02*
X6437027Y-14900174D01*
X6437027Y-14900174D02*
X6417979Y-14909698D01*
X6417979Y-14909698D02*
X6408456Y-14919222D01*
X6408456Y-14919222D02*
X6398932Y-14938269D01*
X6751313Y-15023984D02*
X6751313Y-14823984D01*
X6837027Y-15023984D02*
X6837027Y-14919222D01*
X6837027Y-14919222D02*
X6827503Y-14900174D01*
X6827503Y-14900174D02*
X6808456Y-14890650D01*
X6808456Y-14890650D02*
X6779884Y-14890650D01*
X6779884Y-14890650D02*
X6760837Y-14900174D01*
X6760837Y-14900174D02*
X6751313Y-14909698D01*
X6960837Y-15023984D02*
X6941789Y-15014460D01*
X6941789Y-15014460D02*
X6932265Y-15004936D01*
X6932265Y-15004936D02*
X6922741Y-14985888D01*
X6922741Y-14985888D02*
X6922741Y-14928746D01*
X6922741Y-14928746D02*
X6932265Y-14909698D01*
X6932265Y-14909698D02*
X6941789Y-14900174D01*
X6941789Y-14900174D02*
X6960837Y-14890650D01*
X6960837Y-14890650D02*
X6989408Y-14890650D01*
X6989408Y-14890650D02*
X7008456Y-14900174D01*
X7008456Y-14900174D02*
X7017980Y-14909698D01*
X7017980Y-14909698D02*
X7027503Y-14928746D01*
X7027503Y-14928746D02*
X7027503Y-14985888D01*
X7027503Y-14985888D02*
X7017980Y-15004936D01*
X7017980Y-15004936D02*
X7008456Y-15014460D01*
X7008456Y-15014460D02*
X6989408Y-15023984D01*
X6989408Y-15023984D02*
X6960837Y-15023984D01*
X7141789Y-15023984D02*
X7122741Y-15014460D01*
X7122741Y-15014460D02*
X7113218Y-14995412D01*
X7113218Y-14995412D02*
X7113218Y-14823984D01*
X7294170Y-15014460D02*
X7275122Y-15023984D01*
X7275122Y-15023984D02*
X7237027Y-15023984D01*
X7237027Y-15023984D02*
X7217980Y-15014460D01*
X7217980Y-15014460D02*
X7208456Y-14995412D01*
X7208456Y-14995412D02*
X7208456Y-14919222D01*
X7208456Y-14919222D02*
X7217980Y-14900174D01*
X7217980Y-14900174D02*
X7237027Y-14890650D01*
X7237027Y-14890650D02*
X7275122Y-14890650D01*
X7275122Y-14890650D02*
X7294170Y-14900174D01*
X7294170Y-14900174D02*
X7303694Y-14919222D01*
X7303694Y-14919222D02*
X7303694Y-14938269D01*
X7303694Y-14938269D02*
X7208456Y-14957317D01*
X7379884Y-15014460D02*
X7398932Y-15023984D01*
X7398932Y-15023984D02*
X7437027Y-15023984D01*
X7437027Y-15023984D02*
X7456075Y-15014460D01*
X7456075Y-15014460D02*
X7465599Y-14995412D01*
X7465599Y-14995412D02*
X7465599Y-14985888D01*
X7465599Y-14985888D02*
X7456075Y-14966841D01*
X7456075Y-14966841D02*
X7437027Y-14957317D01*
X7437027Y-14957317D02*
X7408456Y-14957317D01*
X7408456Y-14957317D02*
X7389408Y-14947793D01*
X7389408Y-14947793D02*
X7379884Y-14928746D01*
X7379884Y-14928746D02*
X7379884Y-14919222D01*
X7379884Y-14919222D02*
X7389408Y-14900174D01*
X7389408Y-14900174D02*
X7408456Y-14890650D01*
X7408456Y-14890650D02*
X7437027Y-14890650D01*
X7437027Y-14890650D02*
X7456075Y-14900174D01*
X7532265Y-15100174D02*
X7541789Y-15090650D01*
X7541789Y-15090650D02*
X7560837Y-15062079D01*
X7560837Y-15062079D02*
X7570361Y-15043031D01*
X7570361Y-15043031D02*
X7579884Y-15014460D01*
X7579884Y-15014460D02*
X7589408Y-14966841D01*
X7589408Y-14966841D02*
X7589408Y-14928746D01*
X7589408Y-14928746D02*
X7579884Y-14881127D01*
X7579884Y-14881127D02*
X7570361Y-14852555D01*
X7570361Y-14852555D02*
X7560837Y-14833508D01*
X7560837Y-14833508D02*
X7541789Y-14804936D01*
X7541789Y-14804936D02*
X7532265Y-14795412D01*
D13*
X2376250Y-15196500D02*
G75*
G03*
X2376250Y-15196500I-40000J0D01*
G01*
D11*
X2675122Y-15087984D02*
X2694170Y-15087984D01*
X2694170Y-15087984D02*
X2713217Y-15097508D01*
X2713217Y-15097508D02*
X2722741Y-15107031D01*
X2722741Y-15107031D02*
X2732265Y-15126079D01*
X2732265Y-15126079D02*
X2741789Y-15164174D01*
X2741789Y-15164174D02*
X2741789Y-15211793D01*
X2741789Y-15211793D02*
X2732265Y-15249888D01*
X2732265Y-15249888D02*
X2722741Y-15268936D01*
X2722741Y-15268936D02*
X2713217Y-15278460D01*
X2713217Y-15278460D02*
X2694170Y-15287984D01*
X2694170Y-15287984D02*
X2675122Y-15287984D01*
X2675122Y-15287984D02*
X2656074Y-15278460D01*
X2656074Y-15278460D02*
X2646551Y-15268936D01*
X2646551Y-15268936D02*
X2637027Y-15249888D01*
X2637027Y-15249888D02*
X2627503Y-15211793D01*
X2627503Y-15211793D02*
X2627503Y-15164174D01*
X2627503Y-15164174D02*
X2637027Y-15126079D01*
X2637027Y-15126079D02*
X2646551Y-15107031D01*
X2646551Y-15107031D02*
X2656074Y-15097508D01*
X2656074Y-15097508D02*
X2675122Y-15087984D01*
X2827503Y-15268936D02*
X2837027Y-15278460D01*
X2837027Y-15278460D02*
X2827503Y-15287984D01*
X2827503Y-15287984D02*
X2817979Y-15278460D01*
X2817979Y-15278460D02*
X2827503Y-15268936D01*
X2827503Y-15268936D02*
X2827503Y-15287984D01*
X2951312Y-15173698D02*
X2932265Y-15164174D01*
X2932265Y-15164174D02*
X2922741Y-15154650D01*
X2922741Y-15154650D02*
X2913217Y-15135603D01*
X2913217Y-15135603D02*
X2913217Y-15126079D01*
X2913217Y-15126079D02*
X2922741Y-15107031D01*
X2922741Y-15107031D02*
X2932265Y-15097508D01*
X2932265Y-15097508D02*
X2951312Y-15087984D01*
X2951312Y-15087984D02*
X2989408Y-15087984D01*
X2989408Y-15087984D02*
X3008455Y-15097508D01*
X3008455Y-15097508D02*
X3017979Y-15107031D01*
X3017979Y-15107031D02*
X3027503Y-15126079D01*
X3027503Y-15126079D02*
X3027503Y-15135603D01*
X3027503Y-15135603D02*
X3017979Y-15154650D01*
X3017979Y-15154650D02*
X3008455Y-15164174D01*
X3008455Y-15164174D02*
X2989408Y-15173698D01*
X2989408Y-15173698D02*
X2951312Y-15173698D01*
X2951312Y-15173698D02*
X2932265Y-15183222D01*
X2932265Y-15183222D02*
X2922741Y-15192746D01*
X2922741Y-15192746D02*
X2913217Y-15211793D01*
X2913217Y-15211793D02*
X2913217Y-15249888D01*
X2913217Y-15249888D02*
X2922741Y-15268936D01*
X2922741Y-15268936D02*
X2932265Y-15278460D01*
X2932265Y-15278460D02*
X2951312Y-15287984D01*
X2951312Y-15287984D02*
X2989408Y-15287984D01*
X2989408Y-15287984D02*
X3008455Y-15278460D01*
X3008455Y-15278460D02*
X3017979Y-15268936D01*
X3017979Y-15268936D02*
X3027503Y-15249888D01*
X3027503Y-15249888D02*
X3027503Y-15211793D01*
X3027503Y-15211793D02*
X3017979Y-15192746D01*
X3017979Y-15192746D02*
X3008455Y-15183222D01*
X3008455Y-15183222D02*
X2989408Y-15173698D01*
X3151312Y-15087984D02*
X3170360Y-15087984D01*
X3170360Y-15087984D02*
X3189408Y-15097508D01*
X3189408Y-15097508D02*
X3198932Y-15107031D01*
X3198932Y-15107031D02*
X3208455Y-15126079D01*
X3208455Y-15126079D02*
X3217979Y-15164174D01*
X3217979Y-15164174D02*
X3217979Y-15211793D01*
X3217979Y-15211793D02*
X3208455Y-15249888D01*
X3208455Y-15249888D02*
X3198932Y-15268936D01*
X3198932Y-15268936D02*
X3189408Y-15278460D01*
X3189408Y-15278460D02*
X3170360Y-15287984D01*
X3170360Y-15287984D02*
X3151312Y-15287984D01*
X3151312Y-15287984D02*
X3132265Y-15278460D01*
X3132265Y-15278460D02*
X3122741Y-15268936D01*
X3122741Y-15268936D02*
X3113217Y-15249888D01*
X3113217Y-15249888D02*
X3103693Y-15211793D01*
X3103693Y-15211793D02*
X3103693Y-15164174D01*
X3103693Y-15164174D02*
X3113217Y-15126079D01*
X3113217Y-15126079D02*
X3122741Y-15107031D01*
X3122741Y-15107031D02*
X3132265Y-15097508D01*
X3132265Y-15097508D02*
X3151312Y-15087984D01*
X3341789Y-15087984D02*
X3360836Y-15087984D01*
X3360836Y-15087984D02*
X3379884Y-15097508D01*
X3379884Y-15097508D02*
X3389408Y-15107031D01*
X3389408Y-15107031D02*
X3398932Y-15126079D01*
X3398932Y-15126079D02*
X3408455Y-15164174D01*
X3408455Y-15164174D02*
X3408455Y-15211793D01*
X3408455Y-15211793D02*
X3398932Y-15249888D01*
X3398932Y-15249888D02*
X3389408Y-15268936D01*
X3389408Y-15268936D02*
X3379884Y-15278460D01*
X3379884Y-15278460D02*
X3360836Y-15287984D01*
X3360836Y-15287984D02*
X3341789Y-15287984D01*
X3341789Y-15287984D02*
X3322741Y-15278460D01*
X3322741Y-15278460D02*
X3313217Y-15268936D01*
X3313217Y-15268936D02*
X3303693Y-15249888D01*
X3303693Y-15249888D02*
X3294170Y-15211793D01*
X3294170Y-15211793D02*
X3294170Y-15164174D01*
X3294170Y-15164174D02*
X3303693Y-15126079D01*
X3303693Y-15126079D02*
X3313217Y-15107031D01*
X3313217Y-15107031D02*
X3322741Y-15097508D01*
X3322741Y-15097508D02*
X3341789Y-15087984D01*
X3494170Y-15287984D02*
X3494170Y-15154650D01*
X3494170Y-15173698D02*
X3503693Y-15164174D01*
X3503693Y-15164174D02*
X3522741Y-15154650D01*
X3522741Y-15154650D02*
X3551313Y-15154650D01*
X3551313Y-15154650D02*
X3570360Y-15164174D01*
X3570360Y-15164174D02*
X3579884Y-15183222D01*
X3579884Y-15183222D02*
X3579884Y-15287984D01*
X3579884Y-15183222D02*
X3589408Y-15164174D01*
X3589408Y-15164174D02*
X3608455Y-15154650D01*
X3608455Y-15154650D02*
X3637027Y-15154650D01*
X3637027Y-15154650D02*
X3656074Y-15164174D01*
X3656074Y-15164174D02*
X3665598Y-15183222D01*
X3665598Y-15183222D02*
X3665598Y-15287984D01*
X3760836Y-15287984D02*
X3760836Y-15154650D01*
X3760836Y-15173698D02*
X3770360Y-15164174D01*
X3770360Y-15164174D02*
X3789408Y-15154650D01*
X3789408Y-15154650D02*
X3817979Y-15154650D01*
X3817979Y-15154650D02*
X3837027Y-15164174D01*
X3837027Y-15164174D02*
X3846551Y-15183222D01*
X3846551Y-15183222D02*
X3846551Y-15287984D01*
X3846551Y-15183222D02*
X3856074Y-15164174D01*
X3856074Y-15164174D02*
X3875122Y-15154650D01*
X3875122Y-15154650D02*
X3903693Y-15154650D01*
X3903693Y-15154650D02*
X3922741Y-15164174D01*
X3922741Y-15164174D02*
X3932265Y-15183222D01*
X3932265Y-15183222D02*
X3932265Y-15287984D01*
X4322741Y-15078460D02*
X4151313Y-15335603D01*
X4579884Y-15087984D02*
X4598932Y-15087984D01*
X4598932Y-15087984D02*
X4617979Y-15097508D01*
X4617979Y-15097508D02*
X4627503Y-15107031D01*
X4627503Y-15107031D02*
X4637027Y-15126079D01*
X4637027Y-15126079D02*
X4646551Y-15164174D01*
X4646551Y-15164174D02*
X4646551Y-15211793D01*
X4646551Y-15211793D02*
X4637027Y-15249888D01*
X4637027Y-15249888D02*
X4627503Y-15268936D01*
X4627503Y-15268936D02*
X4617979Y-15278460D01*
X4617979Y-15278460D02*
X4598932Y-15287984D01*
X4598932Y-15287984D02*
X4579884Y-15287984D01*
X4579884Y-15287984D02*
X4560837Y-15278460D01*
X4560837Y-15278460D02*
X4551313Y-15268936D01*
X4551313Y-15268936D02*
X4541789Y-15249888D01*
X4541789Y-15249888D02*
X4532265Y-15211793D01*
X4532265Y-15211793D02*
X4532265Y-15164174D01*
X4532265Y-15164174D02*
X4541789Y-15126079D01*
X4541789Y-15126079D02*
X4551313Y-15107031D01*
X4551313Y-15107031D02*
X4560837Y-15097508D01*
X4560837Y-15097508D02*
X4579884Y-15087984D01*
X4732265Y-15268936D02*
X4741789Y-15278460D01*
X4741789Y-15278460D02*
X4732265Y-15287984D01*
X4732265Y-15287984D02*
X4722741Y-15278460D01*
X4722741Y-15278460D02*
X4732265Y-15268936D01*
X4732265Y-15268936D02*
X4732265Y-15287984D01*
X4865598Y-15087984D02*
X4884646Y-15087984D01*
X4884646Y-15087984D02*
X4903694Y-15097508D01*
X4903694Y-15097508D02*
X4913218Y-15107031D01*
X4913218Y-15107031D02*
X4922741Y-15126079D01*
X4922741Y-15126079D02*
X4932265Y-15164174D01*
X4932265Y-15164174D02*
X4932265Y-15211793D01*
X4932265Y-15211793D02*
X4922741Y-15249888D01*
X4922741Y-15249888D02*
X4913218Y-15268936D01*
X4913218Y-15268936D02*
X4903694Y-15278460D01*
X4903694Y-15278460D02*
X4884646Y-15287984D01*
X4884646Y-15287984D02*
X4865598Y-15287984D01*
X4865598Y-15287984D02*
X4846551Y-15278460D01*
X4846551Y-15278460D02*
X4837027Y-15268936D01*
X4837027Y-15268936D02*
X4827503Y-15249888D01*
X4827503Y-15249888D02*
X4817979Y-15211793D01*
X4817979Y-15211793D02*
X4817979Y-15164174D01*
X4817979Y-15164174D02*
X4827503Y-15126079D01*
X4827503Y-15126079D02*
X4837027Y-15107031D01*
X4837027Y-15107031D02*
X4846551Y-15097508D01*
X4846551Y-15097508D02*
X4865598Y-15087984D01*
X4998932Y-15087984D02*
X5122741Y-15087984D01*
X5122741Y-15087984D02*
X5056075Y-15164174D01*
X5056075Y-15164174D02*
X5084646Y-15164174D01*
X5084646Y-15164174D02*
X5103694Y-15173698D01*
X5103694Y-15173698D02*
X5113218Y-15183222D01*
X5113218Y-15183222D02*
X5122741Y-15202269D01*
X5122741Y-15202269D02*
X5122741Y-15249888D01*
X5122741Y-15249888D02*
X5113218Y-15268936D01*
X5113218Y-15268936D02*
X5103694Y-15278460D01*
X5103694Y-15278460D02*
X5084646Y-15287984D01*
X5084646Y-15287984D02*
X5027503Y-15287984D01*
X5027503Y-15287984D02*
X5008456Y-15278460D01*
X5008456Y-15278460D02*
X4998932Y-15268936D01*
X5313218Y-15287984D02*
X5198932Y-15287984D01*
X5256075Y-15287984D02*
X5256075Y-15087984D01*
X5256075Y-15087984D02*
X5237027Y-15116555D01*
X5237027Y-15116555D02*
X5217979Y-15135603D01*
X5217979Y-15135603D02*
X5198932Y-15145127D01*
X5494170Y-15087984D02*
X5398932Y-15087984D01*
X5398932Y-15087984D02*
X5389408Y-15183222D01*
X5389408Y-15183222D02*
X5398932Y-15173698D01*
X5398932Y-15173698D02*
X5417979Y-15164174D01*
X5417979Y-15164174D02*
X5465599Y-15164174D01*
X5465599Y-15164174D02*
X5484646Y-15173698D01*
X5484646Y-15173698D02*
X5494170Y-15183222D01*
X5494170Y-15183222D02*
X5503694Y-15202269D01*
X5503694Y-15202269D02*
X5503694Y-15249888D01*
X5503694Y-15249888D02*
X5494170Y-15268936D01*
X5494170Y-15268936D02*
X5484646Y-15278460D01*
X5484646Y-15278460D02*
X5465599Y-15287984D01*
X5465599Y-15287984D02*
X5417979Y-15287984D01*
X5417979Y-15287984D02*
X5398932Y-15278460D01*
X5398932Y-15278460D02*
X5389408Y-15268936D01*
X5579884Y-15087984D02*
X5579884Y-15126079D01*
X5656075Y-15087984D02*
X5656075Y-15126079D01*
X5951313Y-15364174D02*
X5941789Y-15354650D01*
X5941789Y-15354650D02*
X5922741Y-15326079D01*
X5922741Y-15326079D02*
X5913218Y-15307031D01*
X5913218Y-15307031D02*
X5903694Y-15278460D01*
X5903694Y-15278460D02*
X5894170Y-15230841D01*
X5894170Y-15230841D02*
X5894170Y-15192746D01*
X5894170Y-15192746D02*
X5903694Y-15145127D01*
X5903694Y-15145127D02*
X5913218Y-15116555D01*
X5913218Y-15116555D02*
X5922741Y-15097508D01*
X5922741Y-15097508D02*
X5941789Y-15068936D01*
X5941789Y-15068936D02*
X5951313Y-15059412D01*
X6017979Y-15107031D02*
X6027503Y-15097508D01*
X6027503Y-15097508D02*
X6046551Y-15087984D01*
X6046551Y-15087984D02*
X6094170Y-15087984D01*
X6094170Y-15087984D02*
X6113218Y-15097508D01*
X6113218Y-15097508D02*
X6122741Y-15107031D01*
X6122741Y-15107031D02*
X6132265Y-15126079D01*
X6132265Y-15126079D02*
X6132265Y-15145127D01*
X6132265Y-15145127D02*
X6122741Y-15173698D01*
X6122741Y-15173698D02*
X6008456Y-15287984D01*
X6008456Y-15287984D02*
X6132265Y-15287984D01*
X6198932Y-15087984D02*
X6322741Y-15087984D01*
X6322741Y-15087984D02*
X6256075Y-15164174D01*
X6256075Y-15164174D02*
X6284646Y-15164174D01*
X6284646Y-15164174D02*
X6303694Y-15173698D01*
X6303694Y-15173698D02*
X6313218Y-15183222D01*
X6313218Y-15183222D02*
X6322741Y-15202269D01*
X6322741Y-15202269D02*
X6322741Y-15249888D01*
X6322741Y-15249888D02*
X6313218Y-15268936D01*
X6313218Y-15268936D02*
X6303694Y-15278460D01*
X6303694Y-15278460D02*
X6284646Y-15287984D01*
X6284646Y-15287984D02*
X6227503Y-15287984D01*
X6227503Y-15287984D02*
X6208456Y-15278460D01*
X6208456Y-15278460D02*
X6198932Y-15268936D01*
X6560837Y-15287984D02*
X6560837Y-15087984D01*
X6646551Y-15287984D02*
X6646551Y-15183222D01*
X6646551Y-15183222D02*
X6637027Y-15164174D01*
X6637027Y-15164174D02*
X6617980Y-15154650D01*
X6617980Y-15154650D02*
X6589408Y-15154650D01*
X6589408Y-15154650D02*
X6570360Y-15164174D01*
X6570360Y-15164174D02*
X6560837Y-15173698D01*
X6770360Y-15287984D02*
X6751313Y-15278460D01*
X6751313Y-15278460D02*
X6741789Y-15268936D01*
X6741789Y-15268936D02*
X6732265Y-15249888D01*
X6732265Y-15249888D02*
X6732265Y-15192746D01*
X6732265Y-15192746D02*
X6741789Y-15173698D01*
X6741789Y-15173698D02*
X6751313Y-15164174D01*
X6751313Y-15164174D02*
X6770360Y-15154650D01*
X6770360Y-15154650D02*
X6798932Y-15154650D01*
X6798932Y-15154650D02*
X6817980Y-15164174D01*
X6817980Y-15164174D02*
X6827503Y-15173698D01*
X6827503Y-15173698D02*
X6837027Y-15192746D01*
X6837027Y-15192746D02*
X6837027Y-15249888D01*
X6837027Y-15249888D02*
X6827503Y-15268936D01*
X6827503Y-15268936D02*
X6817980Y-15278460D01*
X6817980Y-15278460D02*
X6798932Y-15287984D01*
X6798932Y-15287984D02*
X6770360Y-15287984D01*
X6951313Y-15287984D02*
X6932265Y-15278460D01*
X6932265Y-15278460D02*
X6922741Y-15259412D01*
X6922741Y-15259412D02*
X6922741Y-15087984D01*
X7103694Y-15278460D02*
X7084646Y-15287984D01*
X7084646Y-15287984D02*
X7046551Y-15287984D01*
X7046551Y-15287984D02*
X7027503Y-15278460D01*
X7027503Y-15278460D02*
X7017980Y-15259412D01*
X7017980Y-15259412D02*
X7017980Y-15183222D01*
X7017980Y-15183222D02*
X7027503Y-15164174D01*
X7027503Y-15164174D02*
X7046551Y-15154650D01*
X7046551Y-15154650D02*
X7084646Y-15154650D01*
X7084646Y-15154650D02*
X7103694Y-15164174D01*
X7103694Y-15164174D02*
X7113218Y-15183222D01*
X7113218Y-15183222D02*
X7113218Y-15202269D01*
X7113218Y-15202269D02*
X7017980Y-15221317D01*
X7189408Y-15278460D02*
X7208456Y-15287984D01*
X7208456Y-15287984D02*
X7246551Y-15287984D01*
X7246551Y-15287984D02*
X7265599Y-15278460D01*
X7265599Y-15278460D02*
X7275122Y-15259412D01*
X7275122Y-15259412D02*
X7275122Y-15249888D01*
X7275122Y-15249888D02*
X7265599Y-15230841D01*
X7265599Y-15230841D02*
X7246551Y-15221317D01*
X7246551Y-15221317D02*
X7217980Y-15221317D01*
X7217980Y-15221317D02*
X7198932Y-15211793D01*
X7198932Y-15211793D02*
X7189408Y-15192746D01*
X7189408Y-15192746D02*
X7189408Y-15183222D01*
X7189408Y-15183222D02*
X7198932Y-15164174D01*
X7198932Y-15164174D02*
X7217980Y-15154650D01*
X7217980Y-15154650D02*
X7246551Y-15154650D01*
X7246551Y-15154650D02*
X7265599Y-15164174D01*
X7341789Y-15364174D02*
X7351313Y-15354650D01*
X7351313Y-15354650D02*
X7370361Y-15326079D01*
X7370361Y-15326079D02*
X7379884Y-15307031D01*
X7379884Y-15307031D02*
X7389408Y-15278460D01*
X7389408Y-15278460D02*
X7398932Y-15230841D01*
X7398932Y-15230841D02*
X7398932Y-15192746D01*
X7398932Y-15192746D02*
X7389408Y-15145127D01*
X7389408Y-15145127D02*
X7379884Y-15116555D01*
X7379884Y-15116555D02*
X7370361Y-15097508D01*
X7370361Y-15097508D02*
X7351313Y-15068936D01*
X7351313Y-15068936D02*
X7341789Y-15059412D01*
M02*
