%TF.GenerationSoftware,KiCad,Pcbnew,7.0.7*%
%TF.CreationDate,2023-10-07T20:29:56+07:00*%
%TF.ProjectId,physalis,70687973-616c-4697-932e-6b696361645f,rev?*%
%TF.SameCoordinates,Original*%
%TF.FileFunction,Soldermask,Bot*%
%TF.FilePolarity,Negative*%
%FSLAX46Y46*%
G04 Gerber Fmt 4.6, Leading zero omitted, Abs format (unit mm)*
G04 Created by KiCad (PCBNEW 7.0.7) date 2023-10-07 20:29:56*
%MOMM*%
%LPD*%
G01*
G04 APERTURE LIST*
G04 Aperture macros list*
%AMRoundRect*
0 Rectangle with rounded corners*
0 $1 Rounding radius*
0 $2 $3 $4 $5 $6 $7 $8 $9 X,Y pos of 4 corners*
0 Add a 4 corners polygon primitive as box body*
4,1,4,$2,$3,$4,$5,$6,$7,$8,$9,$2,$3,0*
0 Add four circle primitives for the rounded corners*
1,1,$1+$1,$2,$3*
1,1,$1+$1,$4,$5*
1,1,$1+$1,$6,$7*
1,1,$1+$1,$8,$9*
0 Add four rect primitives between the rounded corners*
20,1,$1+$1,$2,$3,$4,$5,0*
20,1,$1+$1,$4,$5,$6,$7,0*
20,1,$1+$1,$6,$7,$8,$9,0*
20,1,$1+$1,$8,$9,$2,$3,0*%
G04 Aperture macros list end*
%ADD10C,3.000000*%
%ADD11C,3.987800*%
%ADD12C,1.701800*%
%ADD13RoundRect,0.200000X1.075000X1.050000X-1.075000X1.050000X-1.075000X-1.050000X1.075000X-1.050000X0*%
%ADD14RoundRect,0.200000X-1.075000X-1.050000X1.075000X-1.050000X1.075000X1.050000X-1.075000X1.050000X0*%
%ADD15C,3.048000*%
%ADD16RoundRect,0.225000X0.375000X-0.225000X0.375000X0.225000X-0.375000X0.225000X-0.375000X-0.225000X0*%
%ADD17C,1.600000*%
G04 APERTURE END LIST*
D10*
%TO.C,SW85*%
X253841250Y-135890000D03*
D11*
X250031250Y-133350000D03*
D12*
X244951250Y-133350000D03*
D10*
X247491250Y-138430000D03*
D12*
X255111250Y-133350000D03*
D13*
X257116250Y-135890000D03*
X244189250Y-138430000D03*
%TD*%
D10*
%TO.C,SW84*%
X230028750Y-135890000D03*
D11*
X226218750Y-133350000D03*
D12*
X221138750Y-133350000D03*
D10*
X223678750Y-138430000D03*
D12*
X231298750Y-133350000D03*
D13*
X233303750Y-135890000D03*
X220376750Y-138430000D03*
%TD*%
D10*
%TO.C,SW89*%
X162877500Y-130810000D03*
D11*
X166687500Y-133350000D03*
D12*
X171767500Y-133350000D03*
D10*
X169227500Y-128270000D03*
D12*
X161607500Y-133350000D03*
D14*
X159602500Y-130810000D03*
X172529500Y-128270000D03*
D15*
X109537500Y-140335000D03*
X223837500Y-140335000D03*
D11*
X109537500Y-125095000D03*
X223837500Y-125095000D03*
%TD*%
D10*
%TO.C,SW76*%
X158591250Y-135890000D03*
D11*
X154781250Y-133350000D03*
D12*
X149701250Y-133350000D03*
D10*
X152241250Y-138430000D03*
D12*
X159861250Y-133350000D03*
D13*
X161866250Y-135890000D03*
X148939250Y-138430000D03*
D15*
X204781250Y-140335000D03*
X104781250Y-140335000D03*
D11*
X204781250Y-125095000D03*
X104781250Y-125095000D03*
%TD*%
D10*
%TO.C,SW90*%
X143827500Y-130810000D03*
D11*
X147637500Y-133350000D03*
D12*
X152717500Y-133350000D03*
D10*
X150177500Y-128270000D03*
D12*
X142557500Y-133350000D03*
D14*
X140552500Y-130810000D03*
X153479500Y-128270000D03*
%TD*%
D15*
%TO.C,S1*%
X109537500Y-140335000D03*
D11*
X204787500Y-125095000D03*
D15*
X204787500Y-140335000D03*
D11*
X109537500Y-125095000D03*
%TD*%
D10*
%TO.C,SW88*%
X89535000Y-135890000D03*
D11*
X85725000Y-133350000D03*
D12*
X80645000Y-133350000D03*
D10*
X83185000Y-138430000D03*
D12*
X90805000Y-133350000D03*
D13*
X92810000Y-135890000D03*
X79883000Y-138430000D03*
%TD*%
D10*
%TO.C,SW87*%
X65722500Y-135890000D03*
D11*
X61912500Y-133350000D03*
D12*
X56832500Y-133350000D03*
D10*
X59372500Y-138430000D03*
D12*
X66992500Y-133350000D03*
D13*
X68997500Y-135890000D03*
X56070500Y-138430000D03*
%TD*%
D10*
%TO.C,SW86*%
X41910000Y-135890000D03*
D11*
X38100000Y-133350000D03*
D12*
X33020000Y-133350000D03*
D10*
X35560000Y-138430000D03*
D12*
X43180000Y-133350000D03*
D13*
X45185000Y-135890000D03*
X32258000Y-138430000D03*
%TD*%
D10*
%TO.C,SW83*%
X31908750Y-92710000D03*
D11*
X35718750Y-95250000D03*
D12*
X40798750Y-95250000D03*
D10*
X38258750Y-90170000D03*
D12*
X30638750Y-95250000D03*
D14*
X28633750Y-92710000D03*
X41560750Y-90170000D03*
%TD*%
%TO.C,SW30*%
X43942000Y-71120000D03*
X31015000Y-73660000D03*
D12*
X43180000Y-76200000D03*
D10*
X40640000Y-71120000D03*
D11*
X38100000Y-76200000D03*
D10*
X34290000Y-73660000D03*
D12*
X33020000Y-76200000D03*
%TD*%
D14*
%TO.C,SW82*%
X267779500Y-128270000D03*
X254852500Y-130810000D03*
D12*
X256857500Y-133350000D03*
D10*
X264477500Y-128270000D03*
D12*
X267017500Y-133350000D03*
D11*
X261937500Y-133350000D03*
D10*
X258127500Y-130810000D03*
%TD*%
D14*
%TO.C,SW78*%
X248729500Y-128270000D03*
X235802500Y-130810000D03*
D12*
X237807500Y-133350000D03*
D10*
X245427500Y-128270000D03*
D12*
X247967500Y-133350000D03*
D11*
X242887500Y-133350000D03*
D10*
X239077500Y-130810000D03*
%TD*%
D14*
%TO.C,SW77*%
X229679500Y-128270000D03*
X216752500Y-130810000D03*
D12*
X218757500Y-133350000D03*
D10*
X226377500Y-128270000D03*
D12*
X228917500Y-133350000D03*
D11*
X223837500Y-133350000D03*
D10*
X220027500Y-130810000D03*
%TD*%
D16*
%TO.C,D82*%
X269875000Y-137381250D03*
X269875000Y-134081250D03*
%TD*%
D14*
%TO.C,SW18*%
X96329500Y-52070000D03*
X83402500Y-54610000D03*
D12*
X95567500Y-57150000D03*
D10*
X93027500Y-52070000D03*
D11*
X90487500Y-57150000D03*
D10*
X86677500Y-54610000D03*
D12*
X85407500Y-57150000D03*
%TD*%
D14*
%TO.C,SW20*%
X134429500Y-52070000D03*
X121502500Y-54610000D03*
D12*
X133667500Y-57150000D03*
D10*
X131127500Y-52070000D03*
D11*
X128587500Y-57150000D03*
D10*
X124777500Y-54610000D03*
D12*
X123507500Y-57150000D03*
%TD*%
D14*
%TO.C,SW5*%
X118554500Y-28257500D03*
X105627500Y-30797500D03*
D12*
X117792500Y-33337500D03*
D10*
X115252500Y-28257500D03*
D11*
X112712500Y-33337500D03*
D10*
X108902500Y-30797500D03*
D12*
X107632500Y-33337500D03*
%TD*%
D14*
%TO.C,SW39*%
X220154500Y-71120000D03*
X207227500Y-73660000D03*
D12*
X219392500Y-76200000D03*
D10*
X216852500Y-71120000D03*
D11*
X214312500Y-76200000D03*
D10*
X210502500Y-73660000D03*
D12*
X209232500Y-76200000D03*
%TD*%
D14*
%TO.C,SW56*%
X263017000Y-90170000D03*
X250090000Y-92710000D03*
D12*
X262255000Y-95250000D03*
D10*
X259715000Y-90170000D03*
D11*
X257175000Y-95250000D03*
D10*
X253365000Y-92710000D03*
D12*
X252095000Y-95250000D03*
%TD*%
D14*
%TO.C,SW9*%
X197929500Y-28257500D03*
X185002500Y-30797500D03*
D12*
X197167500Y-33337500D03*
D10*
X194627500Y-28257500D03*
D11*
X192087500Y-33337500D03*
D10*
X188277500Y-30797500D03*
D12*
X187007500Y-33337500D03*
%TD*%
D14*
%TO.C,SW73*%
X41560750Y-128270000D03*
X28633750Y-130810000D03*
D12*
X40798750Y-133350000D03*
D10*
X38258750Y-128270000D03*
D11*
X35718750Y-133350000D03*
D10*
X31908750Y-130810000D03*
D12*
X30638750Y-133350000D03*
%TD*%
D14*
%TO.C,SW52*%
X186817000Y-90170000D03*
X173890000Y-92710000D03*
D12*
X186055000Y-95250000D03*
D10*
X183515000Y-90170000D03*
D11*
X180975000Y-95250000D03*
D10*
X177165000Y-92710000D03*
D12*
X175895000Y-95250000D03*
%TD*%
D14*
%TO.C,SW42*%
X277304500Y-71120000D03*
X264377500Y-73660000D03*
D12*
X276542500Y-76200000D03*
D10*
X274002500Y-71120000D03*
D11*
X271462500Y-76200000D03*
D10*
X267652500Y-73660000D03*
D12*
X266382500Y-76200000D03*
%TD*%
D14*
%TO.C,SW48*%
X110617000Y-90170000D03*
X97690000Y-92710000D03*
D12*
X109855000Y-95250000D03*
D10*
X107315000Y-90170000D03*
D11*
X104775000Y-95250000D03*
D10*
X100965000Y-92710000D03*
D12*
X99695000Y-95250000D03*
%TD*%
D14*
%TO.C,SW81*%
X324929500Y-128270000D03*
X312002500Y-130810000D03*
D12*
X324167500Y-133350000D03*
D10*
X321627500Y-128270000D03*
D11*
X319087500Y-133350000D03*
D10*
X315277500Y-130810000D03*
D12*
X314007500Y-133350000D03*
%TD*%
D14*
%TO.C,SW37*%
X182054500Y-71120000D03*
X169127500Y-73660000D03*
D12*
X181292500Y-76200000D03*
D10*
X178752500Y-71120000D03*
D11*
X176212500Y-76200000D03*
D10*
X172402500Y-73660000D03*
D12*
X171132500Y-76200000D03*
%TD*%
D14*
%TO.C,SW6*%
X140779500Y-28257500D03*
X127852500Y-30797500D03*
D12*
X140017500Y-33337500D03*
D10*
X137477500Y-28257500D03*
D11*
X134937500Y-33337500D03*
D10*
X131127500Y-30797500D03*
D12*
X129857500Y-33337500D03*
%TD*%
D14*
%TO.C,SW3*%
X80454500Y-28257500D03*
X67527500Y-30797500D03*
D12*
X79692500Y-33337500D03*
D10*
X77152500Y-28257500D03*
D11*
X74612500Y-33337500D03*
D10*
X70802500Y-30797500D03*
D12*
X69532500Y-33337500D03*
%TD*%
D13*
%TO.C,SW45*%
X34639250Y-100330000D03*
X47566250Y-97790000D03*
D12*
X35401250Y-95250000D03*
D10*
X37941250Y-100330000D03*
D11*
X40481250Y-95250000D03*
D10*
X44291250Y-97790000D03*
D12*
X45561250Y-95250000D03*
%TD*%
D14*
%TO.C,SW80*%
X305879500Y-128270000D03*
X292952500Y-130810000D03*
D12*
X305117500Y-133350000D03*
D10*
X302577500Y-128270000D03*
D11*
X300037500Y-133350000D03*
D10*
X296227500Y-130810000D03*
D12*
X294957500Y-133350000D03*
%TD*%
D14*
%TO.C,SW28*%
X296354500Y-52070000D03*
X283427500Y-54610000D03*
D11*
X302450500Y-65405000D03*
D15*
X302450500Y-50165000D03*
D12*
X295592500Y-57150000D03*
D10*
X293052500Y-52070000D03*
D11*
X290512500Y-57150000D03*
D10*
X286702500Y-54610000D03*
D12*
X285432500Y-57150000D03*
D11*
X278574500Y-65405000D03*
D15*
X278574500Y-50165000D03*
%TD*%
D14*
%TO.C,SW69*%
X253492000Y-109220000D03*
X240565000Y-111760000D03*
D12*
X252730000Y-114300000D03*
D10*
X250190000Y-109220000D03*
D11*
X247650000Y-114300000D03*
D10*
X243840000Y-111760000D03*
D12*
X242570000Y-114300000D03*
%TD*%
D14*
%TO.C,SW71*%
X305879500Y-109220000D03*
X292952500Y-111760000D03*
D12*
X305117500Y-114300000D03*
D10*
X302577500Y-109220000D03*
D11*
X300037500Y-114300000D03*
D10*
X296227500Y-111760000D03*
D12*
X294957500Y-114300000D03*
%TD*%
D14*
%TO.C,SW58*%
X324929500Y-90170000D03*
X312002500Y-92710000D03*
D12*
X324167500Y-95250000D03*
D10*
X321627500Y-90170000D03*
D11*
X319087500Y-95250000D03*
D10*
X315277500Y-92710000D03*
D12*
X314007500Y-95250000D03*
%TD*%
D14*
%TO.C,SW74*%
X65373250Y-128270000D03*
X52446250Y-130810000D03*
D12*
X64611250Y-133350000D03*
D10*
X62071250Y-128270000D03*
D11*
X59531250Y-133350000D03*
D10*
X55721250Y-130810000D03*
D12*
X54451250Y-133350000D03*
%TD*%
D14*
%TO.C,SW13*%
X277304500Y-28257500D03*
X264377500Y-30797500D03*
D12*
X276542500Y-33337500D03*
D10*
X274002500Y-28257500D03*
D11*
X271462500Y-33337500D03*
D10*
X267652500Y-30797500D03*
D12*
X266382500Y-33337500D03*
%TD*%
D14*
%TO.C,SW25*%
X229679500Y-52070000D03*
X216752500Y-54610000D03*
D12*
X228917500Y-57150000D03*
D10*
X226377500Y-52070000D03*
D11*
X223837500Y-57150000D03*
D10*
X220027500Y-54610000D03*
D12*
X218757500Y-57150000D03*
%TD*%
D17*
%TO.C,RZ1*%
X302418750Y-25400000D03*
X302418750Y-27940000D03*
X302418750Y-30480000D03*
X302418750Y-33020000D03*
X302418750Y-35560000D03*
X302418750Y-38100000D03*
X302418750Y-40640000D03*
X302418750Y-43180000D03*
X302418750Y-45720000D03*
X299878750Y-45930000D03*
X297338750Y-45930000D03*
X294798750Y-45930000D03*
X292258750Y-45930000D03*
X289718750Y-45930000D03*
X287178750Y-45720000D03*
X287178750Y-43180000D03*
X287178750Y-40640000D03*
X287178750Y-38100000D03*
X287178750Y-35560000D03*
X287178750Y-33020000D03*
X287178750Y-30480000D03*
X287178750Y-25400000D03*
X287178750Y-27940000D03*
%TD*%
D14*
%TO.C,SW54*%
X224917000Y-90170000D03*
X211990000Y-92710000D03*
D12*
X224155000Y-95250000D03*
D10*
X221615000Y-90170000D03*
D11*
X219075000Y-95250000D03*
D10*
X215265000Y-92710000D03*
D12*
X213995000Y-95250000D03*
%TD*%
D14*
%TO.C,SW17*%
X77279500Y-52070000D03*
X64352500Y-54610000D03*
D12*
X76517500Y-57150000D03*
D10*
X73977500Y-52070000D03*
D11*
X71437500Y-57150000D03*
D10*
X67627500Y-54610000D03*
D12*
X66357500Y-57150000D03*
%TD*%
D14*
%TO.C,SW68*%
X234442000Y-109220000D03*
X221515000Y-111760000D03*
D12*
X233680000Y-114300000D03*
D10*
X231140000Y-109220000D03*
D11*
X228600000Y-114300000D03*
D10*
X224790000Y-111760000D03*
D12*
X223520000Y-114300000D03*
%TD*%
D14*
%TO.C,SW57*%
X293973250Y-90170000D03*
X281046250Y-92710000D03*
D11*
X300069250Y-103505000D03*
D15*
X300069250Y-88265000D03*
D12*
X293211250Y-95250000D03*
D10*
X290671250Y-90170000D03*
D11*
X288131250Y-95250000D03*
D10*
X284321250Y-92710000D03*
D12*
X283051250Y-95250000D03*
D11*
X276193250Y-103505000D03*
D15*
X276193250Y-88265000D03*
%TD*%
D14*
%TO.C,SW62*%
X120142000Y-109220000D03*
X107215000Y-111760000D03*
D12*
X119380000Y-114300000D03*
D10*
X116840000Y-109220000D03*
D11*
X114300000Y-114300000D03*
D10*
X110490000Y-111760000D03*
D12*
X109220000Y-114300000D03*
%TD*%
D14*
%TO.C,SW24*%
X210629500Y-52070000D03*
X197702500Y-54610000D03*
D12*
X209867500Y-57150000D03*
D10*
X207327500Y-52070000D03*
D11*
X204787500Y-57150000D03*
D10*
X200977500Y-54610000D03*
D12*
X199707500Y-57150000D03*
%TD*%
D14*
%TO.C,SW61*%
X101092000Y-109220000D03*
X88165000Y-111760000D03*
D12*
X100330000Y-114300000D03*
D10*
X97790000Y-109220000D03*
D11*
X95250000Y-114300000D03*
D10*
X91440000Y-111760000D03*
D12*
X90170000Y-114300000D03*
%TD*%
D14*
%TO.C,SW41*%
X258254500Y-71120000D03*
X245327500Y-73660000D03*
D12*
X257492500Y-76200000D03*
D10*
X254952500Y-71120000D03*
D11*
X252412500Y-76200000D03*
D10*
X248602500Y-73660000D03*
D12*
X247332500Y-76200000D03*
%TD*%
D14*
%TO.C,SW4*%
X99504500Y-28257500D03*
X86577500Y-30797500D03*
D12*
X98742500Y-33337500D03*
D10*
X96202500Y-28257500D03*
D11*
X93662500Y-33337500D03*
D10*
X89852500Y-30797500D03*
D12*
X88582500Y-33337500D03*
%TD*%
D14*
%TO.C,SW32*%
X86804500Y-71120000D03*
X73877500Y-73660000D03*
D12*
X86042500Y-76200000D03*
D10*
X83502500Y-71120000D03*
D11*
X80962500Y-76200000D03*
D10*
X77152500Y-73660000D03*
D12*
X75882500Y-76200000D03*
%TD*%
D14*
%TO.C,SW2*%
X61404500Y-28257500D03*
X48477500Y-30797500D03*
D12*
X60642500Y-33337500D03*
D10*
X58102500Y-28257500D03*
D11*
X55562500Y-33337500D03*
D10*
X51752500Y-30797500D03*
D12*
X50482500Y-33337500D03*
%TD*%
D14*
%TO.C,SW11*%
X239204500Y-28257500D03*
X226277500Y-30797500D03*
D12*
X238442500Y-33337500D03*
D10*
X235902500Y-28257500D03*
D11*
X233362500Y-33337500D03*
D10*
X229552500Y-30797500D03*
D12*
X228282500Y-33337500D03*
%TD*%
D14*
%TO.C,SW60*%
X82042000Y-109220000D03*
X69115000Y-111760000D03*
D12*
X81280000Y-114300000D03*
D10*
X78740000Y-109220000D03*
D11*
X76200000Y-114300000D03*
D10*
X72390000Y-111760000D03*
D12*
X71120000Y-114300000D03*
%TD*%
D14*
%TO.C,SW63*%
X139192000Y-109220000D03*
X126265000Y-111760000D03*
D12*
X138430000Y-114300000D03*
D10*
X135890000Y-109220000D03*
D11*
X133350000Y-114300000D03*
D10*
X129540000Y-111760000D03*
D12*
X128270000Y-114300000D03*
%TD*%
D14*
%TO.C,SW49*%
X129667000Y-90170000D03*
X116740000Y-92710000D03*
D12*
X128905000Y-95250000D03*
D10*
X126365000Y-90170000D03*
D11*
X123825000Y-95250000D03*
D10*
X120015000Y-92710000D03*
D12*
X118745000Y-95250000D03*
%TD*%
D14*
%TO.C,SW19*%
X115379500Y-52070000D03*
X102452500Y-54610000D03*
D12*
X114617500Y-57150000D03*
D10*
X112077500Y-52070000D03*
D11*
X109537500Y-57150000D03*
D10*
X105727500Y-54610000D03*
D12*
X104457500Y-57150000D03*
%TD*%
D14*
%TO.C,SW40*%
X239204500Y-71120000D03*
X226277500Y-73660000D03*
D12*
X238442500Y-76200000D03*
D10*
X235902500Y-71120000D03*
D11*
X233362500Y-76200000D03*
D10*
X229552500Y-73660000D03*
D12*
X228282500Y-76200000D03*
%TD*%
D14*
%TO.C,SW12*%
X258254500Y-28257500D03*
X245327500Y-30797500D03*
D12*
X257492500Y-33337500D03*
D10*
X254952500Y-28257500D03*
D11*
X252412500Y-33337500D03*
D10*
X248602500Y-30797500D03*
D12*
X247332500Y-33337500D03*
%TD*%
D14*
%TO.C,SW66*%
X196342000Y-109220000D03*
X183415000Y-111760000D03*
D12*
X195580000Y-114300000D03*
D10*
X193040000Y-109220000D03*
D11*
X190500000Y-114300000D03*
D10*
X186690000Y-111760000D03*
D12*
X185420000Y-114300000D03*
%TD*%
D14*
%TO.C,SW27*%
X267779500Y-52070000D03*
X254852500Y-54610000D03*
D12*
X267017500Y-57150000D03*
D10*
X264477500Y-52070000D03*
D11*
X261937500Y-57150000D03*
D10*
X258127500Y-54610000D03*
D12*
X256857500Y-57150000D03*
%TD*%
D14*
%TO.C,SW67*%
X215392000Y-109220000D03*
X202465000Y-111760000D03*
D12*
X214630000Y-114300000D03*
D10*
X212090000Y-109220000D03*
D11*
X209550000Y-114300000D03*
D10*
X205740000Y-111760000D03*
D12*
X204470000Y-114300000D03*
%TD*%
D14*
%TO.C,SW23*%
X191579500Y-52070000D03*
X178652500Y-54610000D03*
D12*
X190817500Y-57150000D03*
D10*
X188277500Y-52070000D03*
D11*
X185737500Y-57150000D03*
D10*
X181927500Y-54610000D03*
D12*
X180657500Y-57150000D03*
%TD*%
D14*
%TO.C,SW15*%
X39179500Y-52070000D03*
X26252500Y-54610000D03*
D12*
X38417500Y-57150000D03*
D10*
X35877500Y-52070000D03*
D11*
X33337500Y-57150000D03*
D10*
X29527500Y-54610000D03*
D12*
X28257500Y-57150000D03*
%TD*%
D14*
%TO.C,SW16*%
X58229500Y-52070000D03*
X45302500Y-54610000D03*
D12*
X57467500Y-57150000D03*
D10*
X54927500Y-52070000D03*
D11*
X52387500Y-57150000D03*
D10*
X48577500Y-54610000D03*
D12*
X47307500Y-57150000D03*
%TD*%
D14*
%TO.C,SW65*%
X177292000Y-109220000D03*
X164365000Y-111760000D03*
D12*
X176530000Y-114300000D03*
D10*
X173990000Y-109220000D03*
D11*
X171450000Y-114300000D03*
D10*
X167640000Y-111760000D03*
D12*
X166370000Y-114300000D03*
%TD*%
D14*
%TO.C,SW70*%
X279685750Y-109220000D03*
X266758750Y-111760000D03*
D12*
X278923750Y-114300000D03*
D10*
X276383750Y-109220000D03*
D11*
X273843750Y-114300000D03*
D10*
X270033750Y-111760000D03*
D12*
X268763750Y-114300000D03*
%TD*%
D14*
%TO.C,SW29*%
X324929500Y-52070000D03*
X312002500Y-54610000D03*
D12*
X324167500Y-57150000D03*
D10*
X321627500Y-52070000D03*
D11*
X319087500Y-57150000D03*
D10*
X315277500Y-54610000D03*
D12*
X314007500Y-57150000D03*
%TD*%
D14*
%TO.C,SW44*%
X324929500Y-71120000D03*
X312002500Y-73660000D03*
D12*
X324167500Y-76200000D03*
D10*
X321627500Y-71120000D03*
D11*
X319087500Y-76200000D03*
D10*
X315277500Y-73660000D03*
D12*
X314007500Y-76200000D03*
%TD*%
D14*
%TO.C,SW14*%
X324929500Y-28257500D03*
X312002500Y-30797500D03*
D12*
X324167500Y-33337500D03*
D10*
X321627500Y-28257500D03*
D11*
X319087500Y-33337500D03*
D10*
X315277500Y-30797500D03*
D12*
X314007500Y-33337500D03*
%TD*%
D14*
%TO.C,SW75*%
X89185750Y-128270000D03*
X76258750Y-130810000D03*
D12*
X88423750Y-133350000D03*
D10*
X85883750Y-128270000D03*
D11*
X83343750Y-133350000D03*
D10*
X79533750Y-130810000D03*
D12*
X78263750Y-133350000D03*
%TD*%
D14*
%TO.C,SW31*%
X67754500Y-71120000D03*
X54827500Y-73660000D03*
D12*
X66992500Y-76200000D03*
D10*
X64452500Y-71120000D03*
D11*
X61912500Y-76200000D03*
D10*
X58102500Y-73660000D03*
D12*
X56832500Y-76200000D03*
%TD*%
D14*
%TO.C,SW7*%
X159829500Y-28257500D03*
X146902500Y-30797500D03*
D12*
X159067500Y-33337500D03*
D10*
X156527500Y-28257500D03*
D11*
X153987500Y-33337500D03*
D10*
X150177500Y-30797500D03*
D12*
X148907500Y-33337500D03*
%TD*%
D14*
%TO.C,SW1*%
X39179500Y-28257500D03*
X26252500Y-30797500D03*
D12*
X38417500Y-33337500D03*
D10*
X35877500Y-28257500D03*
D11*
X33337500Y-33337500D03*
D10*
X29527500Y-30797500D03*
D12*
X28257500Y-33337500D03*
%TD*%
D14*
%TO.C,SW50*%
X148717000Y-90170000D03*
X135790000Y-92710000D03*
D12*
X147955000Y-95250000D03*
D10*
X145415000Y-90170000D03*
D11*
X142875000Y-95250000D03*
D10*
X139065000Y-92710000D03*
D12*
X137795000Y-95250000D03*
%TD*%
D14*
%TO.C,SW51*%
X167767000Y-90170000D03*
X154840000Y-92710000D03*
D12*
X167005000Y-95250000D03*
D10*
X164465000Y-90170000D03*
D11*
X161925000Y-95250000D03*
D10*
X158115000Y-92710000D03*
D12*
X156845000Y-95250000D03*
%TD*%
D14*
%TO.C,SW36*%
X163004500Y-71120000D03*
X150077500Y-73660000D03*
D12*
X162242500Y-76200000D03*
D10*
X159702500Y-71120000D03*
D11*
X157162500Y-76200000D03*
D10*
X153352500Y-73660000D03*
D12*
X152082500Y-76200000D03*
%TD*%
D14*
%TO.C,SW21*%
X153479500Y-52070000D03*
X140552500Y-54610000D03*
D12*
X152717500Y-57150000D03*
D10*
X150177500Y-52070000D03*
D11*
X147637500Y-57150000D03*
D10*
X143827500Y-54610000D03*
D12*
X142557500Y-57150000D03*
%TD*%
D14*
%TO.C,SW72*%
X324929500Y-109220000D03*
X312002500Y-111760000D03*
D12*
X324167500Y-114300000D03*
D10*
X321627500Y-109220000D03*
D11*
X319087500Y-114300000D03*
D10*
X315277500Y-111760000D03*
D12*
X314007500Y-114300000D03*
%TD*%
D14*
%TO.C,SW26*%
X248729500Y-52070000D03*
X235802500Y-54610000D03*
D12*
X247967500Y-57150000D03*
D10*
X245427500Y-52070000D03*
D11*
X242887500Y-57150000D03*
D10*
X239077500Y-54610000D03*
D12*
X237807500Y-57150000D03*
%TD*%
D14*
%TO.C,SW59*%
X51085750Y-109220000D03*
X38158750Y-111760000D03*
D11*
X57181750Y-122555000D03*
D15*
X57181750Y-107315000D03*
D12*
X50323750Y-114300000D03*
D10*
X47783750Y-109220000D03*
D11*
X45243750Y-114300000D03*
D10*
X41433750Y-111760000D03*
D12*
X40163750Y-114300000D03*
D11*
X33305750Y-122555000D03*
D15*
X33305750Y-107315000D03*
%TD*%
D14*
%TO.C,SW33*%
X105854500Y-71120000D03*
X92927500Y-73660000D03*
D12*
X105092500Y-76200000D03*
D10*
X102552500Y-71120000D03*
D11*
X100012500Y-76200000D03*
D10*
X96202500Y-73660000D03*
D12*
X94932500Y-76200000D03*
%TD*%
D14*
%TO.C,SW46*%
X72517000Y-90170000D03*
X59590000Y-92710000D03*
D12*
X71755000Y-95250000D03*
D10*
X69215000Y-90170000D03*
D11*
X66675000Y-95250000D03*
D10*
X62865000Y-92710000D03*
D12*
X61595000Y-95250000D03*
%TD*%
D14*
%TO.C,SW79*%
X286829500Y-128270000D03*
X273902500Y-130810000D03*
D12*
X286067500Y-133350000D03*
D10*
X283527500Y-128270000D03*
D11*
X280987500Y-133350000D03*
D10*
X277177500Y-130810000D03*
D12*
X275907500Y-133350000D03*
%TD*%
D14*
%TO.C,SW10*%
X220154500Y-28257500D03*
X207227500Y-30797500D03*
D12*
X219392500Y-33337500D03*
D10*
X216852500Y-28257500D03*
D11*
X214312500Y-33337500D03*
D10*
X210502500Y-30797500D03*
D12*
X209232500Y-33337500D03*
%TD*%
D14*
%TO.C,SW34*%
X124904500Y-71120000D03*
X111977500Y-73660000D03*
D12*
X124142500Y-76200000D03*
D10*
X121602500Y-71120000D03*
D11*
X119062500Y-76200000D03*
D10*
X115252500Y-73660000D03*
D12*
X113982500Y-76200000D03*
%TD*%
D14*
%TO.C,SW64*%
X158242000Y-109220000D03*
X145315000Y-111760000D03*
D12*
X157480000Y-114300000D03*
D10*
X154940000Y-109220000D03*
D11*
X152400000Y-114300000D03*
D10*
X148590000Y-111760000D03*
D12*
X147320000Y-114300000D03*
%TD*%
D14*
%TO.C,SW43*%
X301117000Y-71120000D03*
X288190000Y-73660000D03*
D12*
X300355000Y-76200000D03*
D10*
X297815000Y-71120000D03*
D11*
X295275000Y-76200000D03*
D10*
X291465000Y-73660000D03*
D12*
X290195000Y-76200000D03*
%TD*%
D14*
%TO.C,SW8*%
X178879500Y-28257500D03*
X165952500Y-30797500D03*
D12*
X178117500Y-33337500D03*
D10*
X175577500Y-28257500D03*
D11*
X173037500Y-33337500D03*
D10*
X169227500Y-30797500D03*
D12*
X167957500Y-33337500D03*
%TD*%
D14*
%TO.C,SW55*%
X243967000Y-90170000D03*
X231040000Y-92710000D03*
D12*
X243205000Y-95250000D03*
D10*
X240665000Y-90170000D03*
D11*
X238125000Y-95250000D03*
D10*
X234315000Y-92710000D03*
D12*
X233045000Y-95250000D03*
%TD*%
D14*
%TO.C,SW47*%
X91567000Y-90170000D03*
X78640000Y-92710000D03*
D12*
X90805000Y-95250000D03*
D10*
X88265000Y-90170000D03*
D11*
X85725000Y-95250000D03*
D10*
X81915000Y-92710000D03*
D12*
X80645000Y-95250000D03*
%TD*%
D14*
%TO.C,SW22*%
X172529500Y-52070000D03*
X159602500Y-54610000D03*
D12*
X171767500Y-57150000D03*
D10*
X169227500Y-52070000D03*
D11*
X166687500Y-57150000D03*
D10*
X162877500Y-54610000D03*
D12*
X161607500Y-57150000D03*
%TD*%
D14*
%TO.C,SW38*%
X201104500Y-71120000D03*
X188177500Y-73660000D03*
D12*
X200342500Y-76200000D03*
D10*
X197802500Y-71120000D03*
D11*
X195262500Y-76200000D03*
D10*
X191452500Y-73660000D03*
D12*
X190182500Y-76200000D03*
%TD*%
D14*
%TO.C,SW35*%
X143954500Y-71120000D03*
X131027500Y-73660000D03*
D12*
X143192500Y-76200000D03*
D10*
X140652500Y-71120000D03*
D11*
X138112500Y-76200000D03*
D10*
X134302500Y-73660000D03*
D12*
X133032500Y-76200000D03*
%TD*%
D14*
%TO.C,SW53*%
X205867000Y-90170000D03*
X192940000Y-92710000D03*
D12*
X205105000Y-95250000D03*
D10*
X202565000Y-90170000D03*
D11*
X200025000Y-95250000D03*
D10*
X196215000Y-92710000D03*
D12*
X194945000Y-95250000D03*
%TD*%
D16*
%TO.C,D30*%
X46037500Y-77056250D03*
X46037500Y-73756250D03*
%TD*%
%TO.C,D67*%
X217487500Y-115156250D03*
X217487500Y-111856250D03*
%TD*%
%TO.C,D64*%
X160337500Y-115950000D03*
X160337500Y-112650000D03*
%TD*%
%TO.C,D65*%
X179387500Y-115156250D03*
X179387500Y-111856250D03*
%TD*%
%TO.C,D58*%
X327025000Y-96106250D03*
X327025000Y-92806250D03*
%TD*%
%TO.C,D31*%
X69850000Y-77850000D03*
X69850000Y-74550000D03*
%TD*%
%TO.C,D61*%
X103187500Y-115156250D03*
X103187500Y-111856250D03*
%TD*%
%TO.C,D21*%
X155575000Y-58006250D03*
X155575000Y-54706250D03*
%TD*%
%TO.C,D62*%
X122237500Y-115950000D03*
X122237500Y-112650000D03*
%TD*%
%TO.C,D72*%
X327025000Y-115156250D03*
X327025000Y-111856250D03*
%TD*%
%TO.C,D8*%
X180975000Y-34987500D03*
X180975000Y-31687500D03*
%TD*%
%TO.C,D23*%
X193675000Y-58006250D03*
X193675000Y-54706250D03*
%TD*%
%TO.C,D46*%
X74612500Y-96900000D03*
X74612500Y-93600000D03*
%TD*%
%TO.C,D70*%
X281781250Y-115950000D03*
X281781250Y-112650000D03*
%TD*%
%TO.C,D52*%
X188912500Y-96900000D03*
X188912500Y-93600000D03*
%TD*%
%TO.C,D40*%
X241300000Y-77056250D03*
X241300000Y-73756250D03*
%TD*%
%TO.C,D5*%
X120650000Y-34193750D03*
X120650000Y-30893750D03*
%TD*%
%TO.C,D51*%
X169862500Y-96106250D03*
X169862500Y-92806250D03*
%TD*%
%TO.C,D14*%
X327025000Y-34193750D03*
X327025000Y-30893750D03*
%TD*%
%TO.C,D53*%
X207962500Y-96106250D03*
X207962500Y-92806250D03*
%TD*%
%TO.C,D17*%
X79375000Y-58006250D03*
X79375000Y-54706250D03*
%TD*%
%TO.C,D57*%
X296068750Y-96106250D03*
X296068750Y-92806250D03*
%TD*%
%TO.C,D78*%
X238918750Y-138968750D03*
X238918750Y-135668750D03*
%TD*%
%TO.C,D63*%
X141287500Y-115156250D03*
X141287500Y-111856250D03*
%TD*%
%TO.C,D9*%
X200025000Y-34193750D03*
X200025000Y-30893750D03*
%TD*%
%TO.C,D10*%
X222250000Y-34987500D03*
X222250000Y-31687500D03*
%TD*%
%TO.C,D50*%
X150812500Y-96900000D03*
X150812500Y-93600000D03*
%TD*%
%TO.C,D11*%
X241300000Y-34193750D03*
X241300000Y-30893750D03*
%TD*%
%TO.C,D43*%
X303212500Y-80231250D03*
X303212500Y-76931250D03*
%TD*%
%TO.C,D66*%
X198437500Y-115950000D03*
X198437500Y-112650000D03*
%TD*%
%TO.C,D80*%
X307975000Y-137381250D03*
X307975000Y-134081250D03*
%TD*%
%TO.C,D54*%
X227012500Y-96900000D03*
X227012500Y-93600000D03*
%TD*%
%TO.C,D27*%
X269875000Y-58006250D03*
X269875000Y-54706250D03*
%TD*%
%TO.C,D76*%
X143668750Y-139762500D03*
X143668750Y-136462500D03*
%TD*%
%TO.C,D38*%
X203200000Y-77056250D03*
X203200000Y-73756250D03*
%TD*%
%TO.C,D39*%
X222250000Y-77850000D03*
X222250000Y-74550000D03*
%TD*%
%TO.C,D34*%
X127000000Y-77056250D03*
X127000000Y-73756250D03*
%TD*%
%TO.C,D45*%
X52387500Y-96106250D03*
X52387500Y-92806250D03*
%TD*%
%TO.C,D79*%
X288925000Y-134206250D03*
X288925000Y-130906250D03*
%TD*%
%TO.C,D75*%
X73818750Y-138968750D03*
X73818750Y-135668750D03*
%TD*%
%TO.C,D47*%
X93662500Y-96106250D03*
X93662500Y-92806250D03*
%TD*%
%TO.C,D18*%
X98425000Y-58800000D03*
X98425000Y-55500000D03*
%TD*%
%TO.C,D15*%
X41275000Y-58006250D03*
X41275000Y-54706250D03*
%TD*%
%TO.C,D22*%
X174625000Y-58800000D03*
X174625000Y-55500000D03*
%TD*%
%TO.C,D81*%
X327025000Y-134206250D03*
X327025000Y-130906250D03*
%TD*%
%TO.C,D71*%
X307975000Y-118331250D03*
X307975000Y-115031250D03*
%TD*%
%TO.C,D68*%
X236537500Y-115950000D03*
X236537500Y-112650000D03*
%TD*%
%TO.C,D29*%
X327025000Y-58006250D03*
X327025000Y-54706250D03*
%TD*%
%TO.C,D42*%
X279400000Y-77056250D03*
X279400000Y-73756250D03*
%TD*%
%TO.C,D37*%
X184150000Y-77850000D03*
X184150000Y-74550000D03*
%TD*%
%TO.C,D77*%
X215900000Y-139762500D03*
X215900000Y-136462500D03*
%TD*%
%TO.C,D55*%
X246062500Y-96106250D03*
X246062500Y-92806250D03*
%TD*%
%TO.C,D59*%
X53181250Y-115156250D03*
X53181250Y-111856250D03*
%TD*%
%TO.C,D48*%
X112712500Y-96900000D03*
X112712500Y-93600000D03*
%TD*%
%TO.C,D33*%
X107950000Y-77850000D03*
X107950000Y-74550000D03*
%TD*%
%TO.C,D6*%
X142875000Y-34987500D03*
X142875000Y-31687500D03*
%TD*%
%TO.C,D60*%
X84137500Y-115950000D03*
X84137500Y-112650000D03*
%TD*%
%TO.C,D36*%
X165100000Y-77056250D03*
X165100000Y-73756250D03*
%TD*%
%TO.C,D20*%
X136525000Y-58800000D03*
X136525000Y-55500000D03*
%TD*%
%TO.C,D25*%
X231775000Y-58006250D03*
X231775000Y-54706250D03*
%TD*%
%TO.C,D44*%
X327025000Y-77056250D03*
X327025000Y-73756250D03*
%TD*%
%TO.C,D41*%
X260350000Y-77850000D03*
X260350000Y-74550000D03*
%TD*%
%TO.C,D7*%
X161925000Y-34193750D03*
X161925000Y-30893750D03*
%TD*%
%TO.C,D74*%
X49212500Y-139762500D03*
X49212500Y-136462500D03*
%TD*%
%TO.C,D1*%
X41275000Y-34193750D03*
X41275000Y-30893750D03*
%TD*%
%TO.C,D4*%
X101600000Y-34925000D03*
X101600000Y-31625000D03*
%TD*%
%TO.C,D28*%
X299243750Y-61181250D03*
X299243750Y-57881250D03*
%TD*%
%TO.C,D19*%
X117475000Y-58006250D03*
X117475000Y-54706250D03*
%TD*%
%TO.C,D49*%
X131762500Y-96106250D03*
X131762500Y-92806250D03*
%TD*%
%TO.C,D69*%
X255587500Y-115156250D03*
X255587500Y-111856250D03*
%TD*%
%TO.C,D16*%
X60325000Y-58737500D03*
X60325000Y-55437500D03*
%TD*%
%TO.C,D13*%
X279400000Y-34193750D03*
X279400000Y-30893750D03*
%TD*%
%TO.C,D3*%
X82550000Y-34193750D03*
X82550000Y-30893750D03*
%TD*%
%TO.C,D73*%
X26987500Y-138968750D03*
X26987500Y-135668750D03*
%TD*%
%TO.C,D56*%
X265112500Y-96900000D03*
X265112500Y-93600000D03*
%TD*%
%TO.C,D2*%
X63500000Y-34987500D03*
X63500000Y-31687500D03*
%TD*%
%TO.C,D24*%
X212725000Y-58800000D03*
X212725000Y-55500000D03*
%TD*%
%TO.C,D12*%
X260350000Y-34987500D03*
X260350000Y-31687500D03*
%TD*%
%TO.C,D35*%
X146050000Y-77850000D03*
X146050000Y-74550000D03*
%TD*%
%TO.C,D26*%
X250825000Y-58800000D03*
X250825000Y-55500000D03*
%TD*%
%TO.C,D32*%
X88900000Y-77056250D03*
X88900000Y-73756250D03*
%TD*%
M02*
