M48
; DRILL file {KiCad 7.0.7} date Sat Oct  7 20:29:30 2023
; FORMAT={-:-/ absolute / metric / decimal}
; #@! TF.CreationDate,2023-10-07T20:29:30+07:00
; #@! TF.GenerationSoftware,Kicad,Pcbnew,7.0.7
; #@! TF.FileFunction,Plated,1,2,PTH
FMAT,2
METRIC
; #@! TA.AperFunction,Plated,PTH,ViaDrill
T1C0.400
; #@! TA.AperFunction,Plated,PTH,ComponentDrill
T2C0.800
%
G90
G05
T1
X26.194Y-47.625
X27.781Y-140.494
X42.069Y-35.719
X42.069Y-59.531
X45.244Y-130.175
X46.831Y-78.581
X50.006Y-141.287
X52.387Y-85.725
X53.181Y-97.631
X53.975Y-116.681
X61.119Y-60.325
X64.294Y-36.512
X70.644Y-79.375
X74.612Y-140.494
X75.406Y-98.425
X80.169Y-59.531
X83.344Y-35.719
X83.344Y-47.625
X84.931Y-117.475
X89.694Y-78.581
X93.662Y-138.906
X94.456Y-97.631
X95.25Y-123.825
X99.219Y-60.325
X102.394Y-36.512
X103.981Y-116.681
X108.744Y-79.375
X113.506Y-98.425
X118.269Y-59.531
X121.444Y-35.719
X121.444Y-47.625
X123.031Y-117.475
X127.794Y-78.581
X132.556Y-97.631
X137.319Y-60.325
X142.081Y-116.681
X143.669Y-36.512
X144.463Y-141.287
X146.844Y-79.375
X151.606Y-98.425
X156.369Y-59.531
X159.544Y-47.625
X161.131Y-117.475
X162.719Y-35.719
X165.894Y-78.581
X170.656Y-97.631
X170.656Y-136.525
X175.419Y-60.325
X180.181Y-116.681
X181.769Y-36.512
X184.944Y-79.375
X185.737Y-26.987
X189.706Y-98.425
X194.469Y-59.531
X199.231Y-117.475
X200.819Y-35.719
X203.994Y-78.581
X208.756Y-97.631
X213.519Y-60.325
X216.694Y-141.287
X218.281Y-116.681
X223.044Y-36.512
X223.044Y-79.375
X227.012Y-26.987
X227.806Y-98.425
X232.569Y-59.531
X237.331Y-117.475
X239.712Y-140.494
X242.094Y-35.719
X242.094Y-78.581
X246.856Y-97.631
X251.619Y-60.325
X256.381Y-116.681
X259.556Y-36.512
X261.144Y-79.375
X265.113Y-26.987
X265.906Y-98.425
X270.669Y-59.531
X270.669Y-138.906
X280.194Y-35.719
X280.194Y-78.581
X282.575Y-36.512
X282.575Y-117.475
X284.162Y-50.8
X288.925Y-78.581
X289.719Y-135.731
X290.512Y-84.931
X293.688Y-116.681
X295.275Y-28.575
X296.069Y-31.75
X296.863Y-60.325
X296.863Y-97.631
X302.419Y-81.756
X304.006Y-69.85
X307.181Y-119.856
X307.181Y-138.906
X309.562Y-25.4
X310.356Y-59.531
X310.356Y-78.581
X310.356Y-97.631
X310.356Y-116.681
X326.231Y-35.719
X326.231Y-59.531
X326.231Y-78.581
X326.231Y-97.631
X326.231Y-116.681
T2
X287.179Y-25.4
X287.179Y-27.94
X287.179Y-30.48
X287.179Y-33.02
X287.179Y-35.56
X287.179Y-38.1
X287.179Y-40.64
X287.179Y-43.18
X287.179Y-45.72
X289.719Y-45.93
X292.259Y-45.93
X294.799Y-45.93
X297.339Y-45.93
X299.879Y-45.93
X302.419Y-25.4
X302.419Y-27.94
X302.419Y-30.48
X302.419Y-33.02
X302.419Y-35.56
X302.419Y-38.1
X302.419Y-40.64
X302.419Y-43.18
X302.419Y-45.72
T0
M30
