%TF.GenerationSoftware,KiCad,Pcbnew,7.0.7*%
%TF.CreationDate,2023-10-07T20:29:30+07:00*%
%TF.ProjectId,physalis,70687973-616c-4697-932e-6b696361645f,rev?*%
%TF.SameCoordinates,Original*%
%TF.FileFunction,Drillmap*%
%TF.FilePolarity,Positive*%
%FSLAX45Y45*%
G04 Gerber Fmt 4.5, Leading zero omitted, Abs format (unit mm)*
G04 Created by KiCad (PCBNEW 7.0.7) date 2023-10-07 20:29:30*
%MOMM*%
%LPD*%
G01*
G04 APERTURE LIST*
%ADD10C,0.100000*%
%ADD11C,0.200000*%
%ADD12C,0.170180*%
%ADD13C,0.300000*%
%ADD14C,0.304800*%
%ADD15C,0.398780*%
G04 APERTURE END LIST*
D10*
X25955625Y-14287500D02*
X27384375Y-14287500D01*
X32623125Y-14287500D02*
X27384375Y-14287500D01*
X2619375Y-2381250D02*
G75*
G03*
X2381250Y-2619375I0J-238125D01*
G01*
X2381250Y-14049375D02*
G75*
G03*
X2619375Y-14287500I238125J0D01*
G01*
X32861250Y-2619375D02*
X32861250Y-14049375D01*
X25955625Y-14287500D02*
X2619375Y-14287500D01*
X32623125Y-2381250D02*
X2619375Y-2381250D01*
X2381250Y-14049375D02*
X2381250Y-2619375D01*
X32623125Y-14287500D02*
G75*
G03*
X32861250Y-14049375I-5J238130D01*
G01*
X32861250Y-2619375D02*
G75*
G03*
X32623125Y-2381250I-238130J-5D01*
G01*
D11*
D12*
X2740660Y-3248660D02*
X2910840Y-3418840D01*
X2910840Y-3248660D02*
X2740660Y-3418840D01*
X2740660Y-5629910D02*
X2910840Y-5800090D01*
X2910840Y-5629910D02*
X2740660Y-5800090D01*
X2978785Y-9439910D02*
X3148965Y-9610090D01*
X3148965Y-9439910D02*
X2978785Y-9610090D01*
X2978785Y-13249910D02*
X3148965Y-13420090D01*
X3148965Y-13249910D02*
X2978785Y-13420090D01*
X3216910Y-7534910D02*
X3387090Y-7705090D01*
X3387090Y-7534910D02*
X3216910Y-7705090D01*
X3216910Y-13249910D02*
X3387090Y-13420090D01*
X3387090Y-13249910D02*
X3216910Y-13420090D01*
X3455035Y-9439910D02*
X3625215Y-9610090D01*
X3625215Y-9439910D02*
X3455035Y-9610090D01*
X3756660Y-3248660D02*
X3926840Y-3418840D01*
X3926840Y-3248660D02*
X3756660Y-3418840D01*
X3756660Y-5629910D02*
X3926840Y-5800090D01*
X3926840Y-5629910D02*
X3756660Y-5800090D01*
X3931285Y-11344910D02*
X4101465Y-11515090D01*
X4101465Y-11344910D02*
X3931285Y-11515090D01*
X3994785Y-9439910D02*
X4164965Y-9610090D01*
X4164965Y-9439910D02*
X3994785Y-9610090D01*
X3994785Y-13249910D02*
X4164965Y-13420090D01*
X4164965Y-13249910D02*
X3994785Y-13420090D01*
X4232910Y-7534910D02*
X4403090Y-7705090D01*
X4403090Y-7534910D02*
X4232910Y-7705090D01*
X4232910Y-13249910D02*
X4403090Y-13420090D01*
X4403090Y-13249910D02*
X4232910Y-13420090D01*
X4471035Y-9439910D02*
X4641215Y-9610090D01*
X4641215Y-9439910D02*
X4471035Y-9610090D01*
X4645660Y-5629910D02*
X4815840Y-5800090D01*
X4815840Y-5629910D02*
X4645660Y-5800090D01*
X4947285Y-11344910D02*
X5117465Y-11515090D01*
X5117465Y-11344910D02*
X4947285Y-11515090D01*
X4963160Y-3248660D02*
X5133340Y-3418840D01*
X5133340Y-3248660D02*
X4963160Y-3418840D01*
X5360035Y-13249910D02*
X5530215Y-13420090D01*
X5530215Y-13249910D02*
X5360035Y-13420090D01*
X5598160Y-7534910D02*
X5768340Y-7705090D01*
X5768340Y-7534910D02*
X5598160Y-7705090D01*
X5598160Y-13249910D02*
X5768340Y-13420090D01*
X5768340Y-13249910D02*
X5598160Y-13420090D01*
X5661660Y-5629910D02*
X5831840Y-5800090D01*
X5831840Y-5629910D02*
X5661660Y-5800090D01*
X5979160Y-3248660D02*
X6149340Y-3418840D01*
X6149340Y-3248660D02*
X5979160Y-3418840D01*
X6074410Y-9439910D02*
X6244590Y-9610090D01*
X6244590Y-9439910D02*
X6074410Y-9610090D01*
X6376035Y-13249910D02*
X6546215Y-13420090D01*
X6546215Y-13249910D02*
X6376035Y-13420090D01*
X6550660Y-5629910D02*
X6720840Y-5800090D01*
X6720840Y-5629910D02*
X6550660Y-5800090D01*
X6614160Y-7534910D02*
X6784340Y-7705090D01*
X6784340Y-7534910D02*
X6614160Y-7705090D01*
X6614160Y-13249910D02*
X6784340Y-13420090D01*
X6784340Y-13249910D02*
X6614160Y-13420090D01*
X6868160Y-3248660D02*
X7038340Y-3418840D01*
X7038340Y-3248660D02*
X6868160Y-3418840D01*
X7026910Y-11344910D02*
X7197090Y-11515090D01*
X7197090Y-11344910D02*
X7026910Y-11515090D01*
X7090410Y-9439910D02*
X7260590Y-9610090D01*
X7260590Y-9439910D02*
X7090410Y-9610090D01*
X7503160Y-7534910D02*
X7673340Y-7705090D01*
X7673340Y-7534910D02*
X7503160Y-7705090D01*
X7566660Y-5629910D02*
X7736840Y-5800090D01*
X7736840Y-5629910D02*
X7566660Y-5800090D01*
X7741285Y-13249910D02*
X7911465Y-13420090D01*
X7911465Y-13249910D02*
X7741285Y-13420090D01*
X7884160Y-3248660D02*
X8054340Y-3418840D01*
X8054340Y-3248660D02*
X7884160Y-3418840D01*
X7979410Y-9439910D02*
X8149590Y-9610090D01*
X8149590Y-9439910D02*
X7979410Y-9610090D01*
X7979410Y-13249910D02*
X8149590Y-13420090D01*
X8149590Y-13249910D02*
X7979410Y-13420090D01*
X8042910Y-11344910D02*
X8213090Y-11515090D01*
X8213090Y-11344910D02*
X8042910Y-11515090D01*
X8455660Y-5629910D02*
X8625840Y-5800090D01*
X8625840Y-5629910D02*
X8455660Y-5800090D01*
X8519160Y-7534910D02*
X8689340Y-7705090D01*
X8689340Y-7534910D02*
X8519160Y-7705090D01*
X8757285Y-13249910D02*
X8927465Y-13420090D01*
X8927465Y-13249910D02*
X8757285Y-13420090D01*
X8773160Y-3248660D02*
X8943340Y-3418840D01*
X8943340Y-3248660D02*
X8773160Y-3418840D01*
X8931910Y-11344910D02*
X9102090Y-11515090D01*
X9102090Y-11344910D02*
X8931910Y-11515090D01*
X8995410Y-9439910D02*
X9165590Y-9610090D01*
X9165590Y-9439910D02*
X8995410Y-9610090D01*
X8995410Y-13249910D02*
X9165590Y-13420090D01*
X9165590Y-13249910D02*
X8995410Y-13420090D01*
X9408160Y-7534910D02*
X9578340Y-7705090D01*
X9578340Y-7534910D02*
X9408160Y-7705090D01*
X9471660Y-5629910D02*
X9641840Y-5800090D01*
X9641840Y-5629910D02*
X9471660Y-5800090D01*
X9789160Y-3248660D02*
X9959340Y-3418840D01*
X9959340Y-3248660D02*
X9789160Y-3418840D01*
X9884410Y-9439910D02*
X10054590Y-9610090D01*
X10054590Y-9439910D02*
X9884410Y-9610090D01*
X9947910Y-11344910D02*
X10118090Y-11515090D01*
X10118090Y-11344910D02*
X9947910Y-11515090D01*
X10360660Y-5629910D02*
X10530840Y-5800090D01*
X10530840Y-5629910D02*
X10360660Y-5800090D01*
X10424160Y-7534910D02*
X10594340Y-7705090D01*
X10594340Y-7534910D02*
X10424160Y-7705090D01*
X10678160Y-3248660D02*
X10848340Y-3418840D01*
X10848340Y-3248660D02*
X10678160Y-3418840D01*
X10836910Y-11344910D02*
X11007090Y-11515090D01*
X11007090Y-11344910D02*
X10836910Y-11515090D01*
X10900410Y-9439910D02*
X11070590Y-9610090D01*
X11070590Y-9439910D02*
X10900410Y-9610090D01*
X11313160Y-7534910D02*
X11483340Y-7705090D01*
X11483340Y-7534910D02*
X11313160Y-7705090D01*
X11376660Y-5629910D02*
X11546840Y-5800090D01*
X11546840Y-5629910D02*
X11376660Y-5800090D01*
X11694160Y-3248660D02*
X11864340Y-3418840D01*
X11864340Y-3248660D02*
X11694160Y-3418840D01*
X11789410Y-9439910D02*
X11959590Y-9610090D01*
X11959590Y-9439910D02*
X11789410Y-9610090D01*
X11852910Y-11344910D02*
X12023090Y-11515090D01*
X12023090Y-11344910D02*
X11852910Y-11515090D01*
X12265660Y-5629910D02*
X12435840Y-5800090D01*
X12435840Y-5629910D02*
X12265660Y-5800090D01*
X12329160Y-7534910D02*
X12499340Y-7705090D01*
X12499340Y-7534910D02*
X12329160Y-7705090D01*
X12741910Y-11344910D02*
X12912090Y-11515090D01*
X12912090Y-11344910D02*
X12741910Y-11515090D01*
X12805410Y-9439910D02*
X12975590Y-9610090D01*
X12975590Y-9439910D02*
X12805410Y-9610090D01*
X12900660Y-3248660D02*
X13070840Y-3418840D01*
X13070840Y-3248660D02*
X12900660Y-3418840D01*
X13218160Y-7534910D02*
X13388340Y-7705090D01*
X13388340Y-7534910D02*
X13218160Y-7705090D01*
X13281660Y-5629910D02*
X13451840Y-5800090D01*
X13451840Y-5629910D02*
X13281660Y-5800090D01*
X13694410Y-9439910D02*
X13864590Y-9610090D01*
X13864590Y-9439910D02*
X13694410Y-9610090D01*
X13757910Y-11344910D02*
X13928090Y-11515090D01*
X13928090Y-11344910D02*
X13757910Y-11515090D01*
X13916660Y-3248660D02*
X14086840Y-3418840D01*
X14086840Y-3248660D02*
X13916660Y-3418840D01*
X14170660Y-5629910D02*
X14340840Y-5800090D01*
X14340840Y-5629910D02*
X14170660Y-5800090D01*
X14170660Y-13249910D02*
X14340840Y-13420090D01*
X14340840Y-13249910D02*
X14170660Y-13420090D01*
X14234160Y-7534910D02*
X14404340Y-7705090D01*
X14404340Y-7534910D02*
X14234160Y-7705090D01*
X14646910Y-11344910D02*
X14817090Y-11515090D01*
X14817090Y-11344910D02*
X14646910Y-11515090D01*
X14710410Y-9439910D02*
X14880590Y-9610090D01*
X14880590Y-9439910D02*
X14710410Y-9610090D01*
X14805660Y-3248660D02*
X14975840Y-3418840D01*
X14975840Y-3248660D02*
X14805660Y-3418840D01*
X14885035Y-13249910D02*
X15055215Y-13420090D01*
X15055215Y-13249910D02*
X14885035Y-13420090D01*
X15123160Y-7534910D02*
X15293340Y-7705090D01*
X15293340Y-7534910D02*
X15123160Y-7705090D01*
X15186660Y-5629910D02*
X15356840Y-5800090D01*
X15356840Y-5629910D02*
X15186660Y-5800090D01*
X15186660Y-13249910D02*
X15356840Y-13420090D01*
X15356840Y-13249910D02*
X15186660Y-13420090D01*
X15599410Y-9439910D02*
X15769590Y-9610090D01*
X15769590Y-9439910D02*
X15599410Y-9610090D01*
X15662910Y-11344910D02*
X15833090Y-11515090D01*
X15833090Y-11344910D02*
X15662910Y-11515090D01*
X15821660Y-3248660D02*
X15991840Y-3418840D01*
X15991840Y-3248660D02*
X15821660Y-3418840D01*
X15901035Y-13249910D02*
X16071215Y-13420090D01*
X16071215Y-13249910D02*
X15901035Y-13420090D01*
X16075660Y-5629910D02*
X16245840Y-5800090D01*
X16245840Y-5629910D02*
X16075660Y-5800090D01*
X16075660Y-13249910D02*
X16245840Y-13420090D01*
X16245840Y-13249910D02*
X16075660Y-13420090D01*
X16139160Y-7534910D02*
X16309340Y-7705090D01*
X16309340Y-7534910D02*
X16139160Y-7705090D01*
X16551910Y-11344910D02*
X16722090Y-11515090D01*
X16722090Y-11344910D02*
X16551910Y-11515090D01*
X16615410Y-9439910D02*
X16785590Y-9610090D01*
X16785590Y-9439910D02*
X16615410Y-9610090D01*
X16710660Y-3248660D02*
X16880840Y-3418840D01*
X16880840Y-3248660D02*
X16710660Y-3418840D01*
X17028160Y-7534910D02*
X17198340Y-7705090D01*
X17198340Y-7534910D02*
X17028160Y-7705090D01*
X17091660Y-5629910D02*
X17261840Y-5800090D01*
X17261840Y-5629910D02*
X17091660Y-5800090D01*
X17091660Y-13249910D02*
X17261840Y-13420090D01*
X17261840Y-13249910D02*
X17091660Y-13420090D01*
X17504410Y-9439910D02*
X17674590Y-9610090D01*
X17674590Y-9439910D02*
X17504410Y-9610090D01*
X17567910Y-11344910D02*
X17738090Y-11515090D01*
X17738090Y-11344910D02*
X17567910Y-11515090D01*
X17726660Y-3248660D02*
X17896840Y-3418840D01*
X17896840Y-3248660D02*
X17726660Y-3418840D01*
X17980660Y-5629910D02*
X18150840Y-5800090D01*
X18150840Y-5629910D02*
X17980660Y-5800090D01*
X18044160Y-7534910D02*
X18214340Y-7705090D01*
X18214340Y-7534910D02*
X18044160Y-7705090D01*
X18456910Y-11344910D02*
X18627090Y-11515090D01*
X18627090Y-11344910D02*
X18456910Y-11515090D01*
X18520410Y-9439910D02*
X18690590Y-9610090D01*
X18690590Y-9439910D02*
X18520410Y-9610090D01*
X18615660Y-3248660D02*
X18785840Y-3418840D01*
X18785840Y-3248660D02*
X18615660Y-3418840D01*
X18933160Y-7534910D02*
X19103340Y-7705090D01*
X19103340Y-7534910D02*
X18933160Y-7705090D01*
X18996660Y-5629910D02*
X19166840Y-5800090D01*
X19166840Y-5629910D02*
X18996660Y-5800090D01*
X19409410Y-9439910D02*
X19579590Y-9610090D01*
X19579590Y-9439910D02*
X19409410Y-9610090D01*
X19472910Y-11344910D02*
X19643090Y-11515090D01*
X19643090Y-11344910D02*
X19472910Y-11515090D01*
X19631660Y-3248660D02*
X19801840Y-3418840D01*
X19801840Y-3248660D02*
X19631660Y-3418840D01*
X19885660Y-5629910D02*
X20055840Y-5800090D01*
X20055840Y-5629910D02*
X19885660Y-5800090D01*
X19949160Y-7534910D02*
X20119340Y-7705090D01*
X20119340Y-7534910D02*
X19949160Y-7705090D01*
X20361910Y-11344910D02*
X20532090Y-11515090D01*
X20532090Y-11344910D02*
X20361910Y-11515090D01*
X20425410Y-9439910D02*
X20595590Y-9610090D01*
X20595590Y-9439910D02*
X20425410Y-9610090D01*
X20838160Y-3248660D02*
X21008340Y-3418840D01*
X21008340Y-3248660D02*
X20838160Y-3418840D01*
X20838160Y-7534910D02*
X21008340Y-7705090D01*
X21008340Y-7534910D02*
X20838160Y-7705090D01*
X20901660Y-5629910D02*
X21071840Y-5800090D01*
X21071840Y-5629910D02*
X20901660Y-5800090D01*
X21314410Y-9439910D02*
X21484590Y-9610090D01*
X21484590Y-9439910D02*
X21314410Y-9610090D01*
X21377910Y-11344910D02*
X21548090Y-11515090D01*
X21548090Y-11344910D02*
X21377910Y-11515090D01*
X21790660Y-5629910D02*
X21960840Y-5800090D01*
X21960840Y-5629910D02*
X21790660Y-5800090D01*
X21790660Y-13249910D02*
X21960840Y-13420090D01*
X21960840Y-13249910D02*
X21790660Y-13420090D01*
X21854160Y-3248660D02*
X22024340Y-3418840D01*
X22024340Y-3248660D02*
X21854160Y-3418840D01*
X21854160Y-7534910D02*
X22024340Y-7705090D01*
X22024340Y-7534910D02*
X21854160Y-7705090D01*
X22028785Y-13249910D02*
X22198965Y-13420090D01*
X22198965Y-13249910D02*
X22028785Y-13420090D01*
X22266910Y-11344910D02*
X22437090Y-11515090D01*
X22437090Y-11344910D02*
X22266910Y-11515090D01*
X22330410Y-9439910D02*
X22500590Y-9610090D01*
X22500590Y-9439910D02*
X22330410Y-9610090D01*
X22743160Y-3248660D02*
X22913340Y-3418840D01*
X22913340Y-3248660D02*
X22743160Y-3418840D01*
X22743160Y-7534910D02*
X22913340Y-7705090D01*
X22913340Y-7534910D02*
X22743160Y-7705090D01*
X22806660Y-5629910D02*
X22976840Y-5800090D01*
X22976840Y-5629910D02*
X22806660Y-5800090D01*
X22806660Y-13249910D02*
X22976840Y-13420090D01*
X22976840Y-13249910D02*
X22806660Y-13420090D01*
X23044785Y-13249910D02*
X23214965Y-13420090D01*
X23214965Y-13249910D02*
X23044785Y-13420090D01*
X23219410Y-9439910D02*
X23389590Y-9610090D01*
X23389590Y-9439910D02*
X23219410Y-9610090D01*
X23282910Y-11344910D02*
X23453090Y-11515090D01*
X23453090Y-11344910D02*
X23282910Y-11515090D01*
X23695660Y-5629910D02*
X23865840Y-5800090D01*
X23865840Y-5629910D02*
X23695660Y-5800090D01*
X23695660Y-13249910D02*
X23865840Y-13420090D01*
X23865840Y-13249910D02*
X23695660Y-13420090D01*
X23759160Y-3248660D02*
X23929340Y-3418840D01*
X23929340Y-3248660D02*
X23759160Y-3418840D01*
X23759160Y-7534910D02*
X23929340Y-7705090D01*
X23929340Y-7534910D02*
X23759160Y-7705090D01*
X24171910Y-11344910D02*
X24342090Y-11515090D01*
X24342090Y-11344910D02*
X24171910Y-11515090D01*
X24235410Y-9439910D02*
X24405590Y-9610090D01*
X24405590Y-9439910D02*
X24235410Y-9610090D01*
X24410035Y-13249910D02*
X24580215Y-13420090D01*
X24580215Y-13249910D02*
X24410035Y-13420090D01*
X24648160Y-3248660D02*
X24818340Y-3418840D01*
X24818340Y-3248660D02*
X24648160Y-3418840D01*
X24648160Y-7534910D02*
X24818340Y-7705090D01*
X24818340Y-7534910D02*
X24648160Y-7705090D01*
X24711660Y-5629910D02*
X24881840Y-5800090D01*
X24881840Y-5629910D02*
X24711660Y-5800090D01*
X24711660Y-13249910D02*
X24881840Y-13420090D01*
X24881840Y-13249910D02*
X24711660Y-13420090D01*
X25124410Y-9439910D02*
X25294590Y-9610090D01*
X25294590Y-9439910D02*
X25124410Y-9610090D01*
X25187910Y-11344910D02*
X25358090Y-11515090D01*
X25358090Y-11344910D02*
X25187910Y-11515090D01*
X25426035Y-13249910D02*
X25596215Y-13420090D01*
X25596215Y-13249910D02*
X25426035Y-13420090D01*
X25600660Y-5629910D02*
X25770840Y-5800090D01*
X25770840Y-5629910D02*
X25600660Y-5800090D01*
X25600660Y-13249910D02*
X25770840Y-13420090D01*
X25770840Y-13249910D02*
X25600660Y-13420090D01*
X25664160Y-3248660D02*
X25834340Y-3418840D01*
X25834340Y-3248660D02*
X25664160Y-3418840D01*
X25664160Y-7534910D02*
X25834340Y-7705090D01*
X25834340Y-7534910D02*
X25664160Y-7705090D01*
X26140410Y-9439910D02*
X26310590Y-9610090D01*
X26310590Y-9439910D02*
X26140410Y-9610090D01*
X26553160Y-3248660D02*
X26723340Y-3418840D01*
X26723340Y-3248660D02*
X26553160Y-3418840D01*
X26553160Y-7534910D02*
X26723340Y-7705090D01*
X26723340Y-7534910D02*
X26553160Y-7705090D01*
X26616660Y-5629910D02*
X26786840Y-5800090D01*
X26786840Y-5629910D02*
X26616660Y-5800090D01*
X26616660Y-13249910D02*
X26786840Y-13420090D01*
X26786840Y-13249910D02*
X26616660Y-13420090D01*
X26791285Y-11344910D02*
X26961465Y-11515090D01*
X26961465Y-11344910D02*
X26791285Y-11515090D01*
X27505660Y-13249910D02*
X27675840Y-13420090D01*
X27675840Y-13249910D02*
X27505660Y-13420090D01*
X27569160Y-3248660D02*
X27739340Y-3418840D01*
X27739340Y-3248660D02*
X27569160Y-3418840D01*
X27569160Y-7534910D02*
X27739340Y-7705090D01*
X27739340Y-7534910D02*
X27569160Y-7705090D01*
X27807285Y-11344910D02*
X27977465Y-11515090D01*
X27977465Y-11344910D02*
X27807285Y-11515090D01*
X28220035Y-9439910D02*
X28390215Y-9610090D01*
X28390215Y-9439910D02*
X28220035Y-9610090D01*
X28458160Y-5629910D02*
X28628340Y-5800090D01*
X28628340Y-5629910D02*
X28458160Y-5800090D01*
X28521660Y-13249910D02*
X28691840Y-13420090D01*
X28691840Y-13249910D02*
X28521660Y-13420090D01*
X28934410Y-7534910D02*
X29104590Y-7705090D01*
X29104590Y-7534910D02*
X28934410Y-7705090D01*
X29236035Y-9439910D02*
X29406215Y-9610090D01*
X29406215Y-9439910D02*
X29236035Y-9610090D01*
X29410660Y-11344910D02*
X29580840Y-11515090D01*
X29580840Y-11344910D02*
X29410660Y-11515090D01*
X29410660Y-13249910D02*
X29580840Y-13420090D01*
X29580840Y-13249910D02*
X29410660Y-13420090D01*
X29474160Y-5629910D02*
X29644340Y-5800090D01*
X29644340Y-5629910D02*
X29474160Y-5800090D01*
X29950410Y-7534910D02*
X30120590Y-7705090D01*
X30120590Y-7534910D02*
X29950410Y-7705090D01*
X30426660Y-11344910D02*
X30596840Y-11515090D01*
X30596840Y-11344910D02*
X30426660Y-11515090D01*
X30426660Y-13249910D02*
X30596840Y-13420090D01*
X30596840Y-13249910D02*
X30426660Y-13420090D01*
X31315660Y-3248660D02*
X31485840Y-3418840D01*
X31485840Y-3248660D02*
X31315660Y-3418840D01*
X31315660Y-5629910D02*
X31485840Y-5800090D01*
X31485840Y-5629910D02*
X31315660Y-5800090D01*
X31315660Y-7534910D02*
X31485840Y-7705090D01*
X31485840Y-7534910D02*
X31315660Y-7705090D01*
X31315660Y-9439910D02*
X31485840Y-9610090D01*
X31485840Y-9439910D02*
X31315660Y-9610090D01*
X31315660Y-11344910D02*
X31485840Y-11515090D01*
X31485840Y-11344910D02*
X31315660Y-11515090D01*
X31315660Y-13249910D02*
X31485840Y-13420090D01*
X31485840Y-13249910D02*
X31315660Y-13420090D01*
X32331660Y-3248660D02*
X32501840Y-3418840D01*
X32501840Y-3248660D02*
X32331660Y-3418840D01*
X32331660Y-5629910D02*
X32501840Y-5800090D01*
X32501840Y-5629910D02*
X32331660Y-5800090D01*
X32331660Y-7534910D02*
X32501840Y-7705090D01*
X32501840Y-7534910D02*
X32331660Y-7705090D01*
X32331660Y-9439910D02*
X32501840Y-9610090D01*
X32501840Y-9439910D02*
X32331660Y-9610090D01*
X32331660Y-11344910D02*
X32501840Y-11515090D01*
X32501840Y-11344910D02*
X32331660Y-11515090D01*
X32331660Y-13249910D02*
X32501840Y-13420090D01*
X32501840Y-13249910D02*
X32331660Y-13420090D01*
D13*
X3102750Y-3079750D02*
G75*
G03*
X3102750Y-3079750I-150000J0D01*
G01*
X3102750Y-5461000D02*
G75*
G03*
X3102750Y-5461000I-150000J0D01*
G01*
X3340875Y-9271000D02*
G75*
G03*
X3340875Y-9271000I-150000J0D01*
G01*
X3340875Y-13081000D02*
G75*
G03*
X3340875Y-13081000I-150000J0D01*
G01*
X3579000Y-7366000D02*
G75*
G03*
X3579000Y-7366000I-150000J0D01*
G01*
X3706000Y-13843000D02*
G75*
G03*
X3706000Y-13843000I-150000J0D01*
G01*
X3737750Y-2825750D02*
G75*
G03*
X3737750Y-2825750I-150000J0D01*
G01*
X3737750Y-5207000D02*
G75*
G03*
X3737750Y-5207000I-150000J0D01*
G01*
X3944125Y-10033000D02*
G75*
G03*
X3944125Y-10033000I-150000J0D01*
G01*
X3975875Y-9017000D02*
G75*
G03*
X3975875Y-9017000I-150000J0D01*
G01*
X3975875Y-12827000D02*
G75*
G03*
X3975875Y-12827000I-150000J0D01*
G01*
X4214000Y-7112000D02*
G75*
G03*
X4214000Y-7112000I-150000J0D01*
G01*
X4293375Y-11176000D02*
G75*
G03*
X4293375Y-11176000I-150000J0D01*
G01*
X4341000Y-13589000D02*
G75*
G03*
X4341000Y-13589000I-150000J0D01*
G01*
X4579125Y-9779000D02*
G75*
G03*
X4579125Y-9779000I-150000J0D01*
G01*
X4928375Y-10922000D02*
G75*
G03*
X4928375Y-10922000I-150000J0D01*
G01*
X5007750Y-5461000D02*
G75*
G03*
X5007750Y-5461000I-150000J0D01*
G01*
X5325250Y-3079750D02*
G75*
G03*
X5325250Y-3079750I-150000J0D01*
G01*
X5642750Y-5207000D02*
G75*
G03*
X5642750Y-5207000I-150000J0D01*
G01*
X5722125Y-13081000D02*
G75*
G03*
X5722125Y-13081000I-150000J0D01*
G01*
X5960250Y-2825750D02*
G75*
G03*
X5960250Y-2825750I-150000J0D01*
G01*
X5960250Y-7366000D02*
G75*
G03*
X5960250Y-7366000I-150000J0D01*
G01*
X6087250Y-13843000D02*
G75*
G03*
X6087250Y-13843000I-150000J0D01*
G01*
X6357125Y-12827000D02*
G75*
G03*
X6357125Y-12827000I-150000J0D01*
G01*
X6436500Y-9271000D02*
G75*
G03*
X6436500Y-9271000I-150000J0D01*
G01*
X6595250Y-7112000D02*
G75*
G03*
X6595250Y-7112000I-150000J0D01*
G01*
X6722250Y-13589000D02*
G75*
G03*
X6722250Y-13589000I-150000J0D01*
G01*
X6912750Y-5461000D02*
G75*
G03*
X6912750Y-5461000I-150000J0D01*
G01*
X7071500Y-9017000D02*
G75*
G03*
X7071500Y-9017000I-150000J0D01*
G01*
X7230250Y-3079750D02*
G75*
G03*
X7230250Y-3079750I-150000J0D01*
G01*
X7389000Y-11176000D02*
G75*
G03*
X7389000Y-11176000I-150000J0D01*
G01*
X7547750Y-5207000D02*
G75*
G03*
X7547750Y-5207000I-150000J0D01*
G01*
X7865250Y-2825750D02*
G75*
G03*
X7865250Y-2825750I-150000J0D01*
G01*
X7865250Y-7366000D02*
G75*
G03*
X7865250Y-7366000I-150000J0D01*
G01*
X8024000Y-10922000D02*
G75*
G03*
X8024000Y-10922000I-150000J0D01*
G01*
X8103375Y-13081000D02*
G75*
G03*
X8103375Y-13081000I-150000J0D01*
G01*
X8341500Y-9271000D02*
G75*
G03*
X8341500Y-9271000I-150000J0D01*
G01*
X8468500Y-13843000D02*
G75*
G03*
X8468500Y-13843000I-150000J0D01*
G01*
X8500250Y-7112000D02*
G75*
G03*
X8500250Y-7112000I-150000J0D01*
G01*
X8738375Y-12827000D02*
G75*
G03*
X8738375Y-12827000I-150000J0D01*
G01*
X8817750Y-5461000D02*
G75*
G03*
X8817750Y-5461000I-150000J0D01*
G01*
X8976500Y-9017000D02*
G75*
G03*
X8976500Y-9017000I-150000J0D01*
G01*
X9103500Y-13589000D02*
G75*
G03*
X9103500Y-13589000I-150000J0D01*
G01*
X9135250Y-3079750D02*
G75*
G03*
X9135250Y-3079750I-150000J0D01*
G01*
X9294000Y-11176000D02*
G75*
G03*
X9294000Y-11176000I-150000J0D01*
G01*
X9452750Y-5207000D02*
G75*
G03*
X9452750Y-5207000I-150000J0D01*
G01*
X9770250Y-2825750D02*
G75*
G03*
X9770250Y-2825750I-150000J0D01*
G01*
X9770250Y-7366000D02*
G75*
G03*
X9770250Y-7366000I-150000J0D01*
G01*
X9929000Y-10922000D02*
G75*
G03*
X9929000Y-10922000I-150000J0D01*
G01*
X10246500Y-9271000D02*
G75*
G03*
X10246500Y-9271000I-150000J0D01*
G01*
X10405250Y-7112000D02*
G75*
G03*
X10405250Y-7112000I-150000J0D01*
G01*
X10722750Y-5461000D02*
G75*
G03*
X10722750Y-5461000I-150000J0D01*
G01*
X10881500Y-9017000D02*
G75*
G03*
X10881500Y-9017000I-150000J0D01*
G01*
X11040250Y-3079750D02*
G75*
G03*
X11040250Y-3079750I-150000J0D01*
G01*
X11199000Y-11176000D02*
G75*
G03*
X11199000Y-11176000I-150000J0D01*
G01*
X11357750Y-5207000D02*
G75*
G03*
X11357750Y-5207000I-150000J0D01*
G01*
X11675250Y-2825750D02*
G75*
G03*
X11675250Y-2825750I-150000J0D01*
G01*
X11675250Y-7366000D02*
G75*
G03*
X11675250Y-7366000I-150000J0D01*
G01*
X11834000Y-10922000D02*
G75*
G03*
X11834000Y-10922000I-150000J0D01*
G01*
X12151500Y-9271000D02*
G75*
G03*
X12151500Y-9271000I-150000J0D01*
G01*
X12310250Y-7112000D02*
G75*
G03*
X12310250Y-7112000I-150000J0D01*
G01*
X12627750Y-5461000D02*
G75*
G03*
X12627750Y-5461000I-150000J0D01*
G01*
X12786500Y-9017000D02*
G75*
G03*
X12786500Y-9017000I-150000J0D01*
G01*
X13104000Y-11176000D02*
G75*
G03*
X13104000Y-11176000I-150000J0D01*
G01*
X13262750Y-3079750D02*
G75*
G03*
X13262750Y-3079750I-150000J0D01*
G01*
X13262750Y-5207000D02*
G75*
G03*
X13262750Y-5207000I-150000J0D01*
G01*
X13580250Y-7366000D02*
G75*
G03*
X13580250Y-7366000I-150000J0D01*
G01*
X13739000Y-10922000D02*
G75*
G03*
X13739000Y-10922000I-150000J0D01*
G01*
X13897750Y-2825750D02*
G75*
G03*
X13897750Y-2825750I-150000J0D01*
G01*
X14056500Y-9271000D02*
G75*
G03*
X14056500Y-9271000I-150000J0D01*
G01*
X14215250Y-7112000D02*
G75*
G03*
X14215250Y-7112000I-150000J0D01*
G01*
X14532750Y-5461000D02*
G75*
G03*
X14532750Y-5461000I-150000J0D01*
G01*
X14532750Y-13081000D02*
G75*
G03*
X14532750Y-13081000I-150000J0D01*
G01*
X14691500Y-9017000D02*
G75*
G03*
X14691500Y-9017000I-150000J0D01*
G01*
X15009000Y-11176000D02*
G75*
G03*
X15009000Y-11176000I-150000J0D01*
G01*
X15167750Y-3079750D02*
G75*
G03*
X15167750Y-3079750I-150000J0D01*
G01*
X15167750Y-5207000D02*
G75*
G03*
X15167750Y-5207000I-150000J0D01*
G01*
X15167750Y-12827000D02*
G75*
G03*
X15167750Y-12827000I-150000J0D01*
G01*
X15374125Y-13843000D02*
G75*
G03*
X15374125Y-13843000I-150000J0D01*
G01*
X15485250Y-7366000D02*
G75*
G03*
X15485250Y-7366000I-150000J0D01*
G01*
X15644000Y-10922000D02*
G75*
G03*
X15644000Y-10922000I-150000J0D01*
G01*
X15802750Y-2825750D02*
G75*
G03*
X15802750Y-2825750I-150000J0D01*
G01*
X15961500Y-9271000D02*
G75*
G03*
X15961500Y-9271000I-150000J0D01*
G01*
X16009125Y-13589000D02*
G75*
G03*
X16009125Y-13589000I-150000J0D01*
G01*
X16120250Y-7112000D02*
G75*
G03*
X16120250Y-7112000I-150000J0D01*
G01*
X16437750Y-5461000D02*
G75*
G03*
X16437750Y-5461000I-150000J0D01*
G01*
X16437750Y-13081000D02*
G75*
G03*
X16437750Y-13081000I-150000J0D01*
G01*
X16596500Y-9017000D02*
G75*
G03*
X16596500Y-9017000I-150000J0D01*
G01*
X16914000Y-11176000D02*
G75*
G03*
X16914000Y-11176000I-150000J0D01*
G01*
X17072750Y-3079750D02*
G75*
G03*
X17072750Y-3079750I-150000J0D01*
G01*
X17072750Y-5207000D02*
G75*
G03*
X17072750Y-5207000I-150000J0D01*
G01*
X17072750Y-12827000D02*
G75*
G03*
X17072750Y-12827000I-150000J0D01*
G01*
X17390250Y-7366000D02*
G75*
G03*
X17390250Y-7366000I-150000J0D01*
G01*
X17549000Y-10922000D02*
G75*
G03*
X17549000Y-10922000I-150000J0D01*
G01*
X17707750Y-2825750D02*
G75*
G03*
X17707750Y-2825750I-150000J0D01*
G01*
X17866500Y-9271000D02*
G75*
G03*
X17866500Y-9271000I-150000J0D01*
G01*
X18025250Y-7112000D02*
G75*
G03*
X18025250Y-7112000I-150000J0D01*
G01*
X18342750Y-5461000D02*
G75*
G03*
X18342750Y-5461000I-150000J0D01*
G01*
X18501500Y-9017000D02*
G75*
G03*
X18501500Y-9017000I-150000J0D01*
G01*
X18819000Y-11176000D02*
G75*
G03*
X18819000Y-11176000I-150000J0D01*
G01*
X18977750Y-3079750D02*
G75*
G03*
X18977750Y-3079750I-150000J0D01*
G01*
X18977750Y-5207000D02*
G75*
G03*
X18977750Y-5207000I-150000J0D01*
G01*
X19295250Y-7366000D02*
G75*
G03*
X19295250Y-7366000I-150000J0D01*
G01*
X19454000Y-10922000D02*
G75*
G03*
X19454000Y-10922000I-150000J0D01*
G01*
X19612750Y-2825750D02*
G75*
G03*
X19612750Y-2825750I-150000J0D01*
G01*
X19771500Y-9271000D02*
G75*
G03*
X19771500Y-9271000I-150000J0D01*
G01*
X19930250Y-7112000D02*
G75*
G03*
X19930250Y-7112000I-150000J0D01*
G01*
X20247750Y-5461000D02*
G75*
G03*
X20247750Y-5461000I-150000J0D01*
G01*
X20406500Y-9017000D02*
G75*
G03*
X20406500Y-9017000I-150000J0D01*
G01*
X20724000Y-11176000D02*
G75*
G03*
X20724000Y-11176000I-150000J0D01*
G01*
X20882750Y-5207000D02*
G75*
G03*
X20882750Y-5207000I-150000J0D01*
G01*
X21200250Y-3079750D02*
G75*
G03*
X21200250Y-3079750I-150000J0D01*
G01*
X21200250Y-7366000D02*
G75*
G03*
X21200250Y-7366000I-150000J0D01*
G01*
X21359000Y-10922000D02*
G75*
G03*
X21359000Y-10922000I-150000J0D01*
G01*
X21676500Y-9271000D02*
G75*
G03*
X21676500Y-9271000I-150000J0D01*
G01*
X21835250Y-2825750D02*
G75*
G03*
X21835250Y-2825750I-150000J0D01*
G01*
X21835250Y-7112000D02*
G75*
G03*
X21835250Y-7112000I-150000J0D01*
G01*
X22152750Y-5461000D02*
G75*
G03*
X22152750Y-5461000I-150000J0D01*
G01*
X22152750Y-13081000D02*
G75*
G03*
X22152750Y-13081000I-150000J0D01*
G01*
X22311500Y-9017000D02*
G75*
G03*
X22311500Y-9017000I-150000J0D01*
G01*
X22517875Y-13843000D02*
G75*
G03*
X22517875Y-13843000I-150000J0D01*
G01*
X22629000Y-11176000D02*
G75*
G03*
X22629000Y-11176000I-150000J0D01*
G01*
X22787750Y-5207000D02*
G75*
G03*
X22787750Y-5207000I-150000J0D01*
G01*
X22787750Y-12827000D02*
G75*
G03*
X22787750Y-12827000I-150000J0D01*
G01*
X23105250Y-3079750D02*
G75*
G03*
X23105250Y-3079750I-150000J0D01*
G01*
X23105250Y-7366000D02*
G75*
G03*
X23105250Y-7366000I-150000J0D01*
G01*
X23152875Y-13589000D02*
G75*
G03*
X23152875Y-13589000I-150000J0D01*
G01*
X23264000Y-10922000D02*
G75*
G03*
X23264000Y-10922000I-150000J0D01*
G01*
X23581500Y-9271000D02*
G75*
G03*
X23581500Y-9271000I-150000J0D01*
G01*
X23740250Y-2825750D02*
G75*
G03*
X23740250Y-2825750I-150000J0D01*
G01*
X23740250Y-7112000D02*
G75*
G03*
X23740250Y-7112000I-150000J0D01*
G01*
X24057750Y-5461000D02*
G75*
G03*
X24057750Y-5461000I-150000J0D01*
G01*
X24057750Y-13081000D02*
G75*
G03*
X24057750Y-13081000I-150000J0D01*
G01*
X24216500Y-9017000D02*
G75*
G03*
X24216500Y-9017000I-150000J0D01*
G01*
X24534000Y-11176000D02*
G75*
G03*
X24534000Y-11176000I-150000J0D01*
G01*
X24692750Y-5207000D02*
G75*
G03*
X24692750Y-5207000I-150000J0D01*
G01*
X24692750Y-12827000D02*
G75*
G03*
X24692750Y-12827000I-150000J0D01*
G01*
X24899125Y-13843000D02*
G75*
G03*
X24899125Y-13843000I-150000J0D01*
G01*
X25010250Y-3079750D02*
G75*
G03*
X25010250Y-3079750I-150000J0D01*
G01*
X25010250Y-7366000D02*
G75*
G03*
X25010250Y-7366000I-150000J0D01*
G01*
X25169000Y-10922000D02*
G75*
G03*
X25169000Y-10922000I-150000J0D01*
G01*
X25486500Y-9271000D02*
G75*
G03*
X25486500Y-9271000I-150000J0D01*
G01*
X25534125Y-13589000D02*
G75*
G03*
X25534125Y-13589000I-150000J0D01*
G01*
X25645250Y-2825750D02*
G75*
G03*
X25645250Y-2825750I-150000J0D01*
G01*
X25645250Y-7112000D02*
G75*
G03*
X25645250Y-7112000I-150000J0D01*
G01*
X25962750Y-5461000D02*
G75*
G03*
X25962750Y-5461000I-150000J0D01*
G01*
X25962750Y-13081000D02*
G75*
G03*
X25962750Y-13081000I-150000J0D01*
G01*
X26121500Y-9017000D02*
G75*
G03*
X26121500Y-9017000I-150000J0D01*
G01*
X26597750Y-5207000D02*
G75*
G03*
X26597750Y-5207000I-150000J0D01*
G01*
X26597750Y-12827000D02*
G75*
G03*
X26597750Y-12827000I-150000J0D01*
G01*
X26915250Y-3079750D02*
G75*
G03*
X26915250Y-3079750I-150000J0D01*
G01*
X26915250Y-7366000D02*
G75*
G03*
X26915250Y-7366000I-150000J0D01*
G01*
X27153375Y-11176000D02*
G75*
G03*
X27153375Y-11176000I-150000J0D01*
G01*
X27550250Y-2825750D02*
G75*
G03*
X27550250Y-2825750I-150000J0D01*
G01*
X27550250Y-7112000D02*
G75*
G03*
X27550250Y-7112000I-150000J0D01*
G01*
X27788375Y-10922000D02*
G75*
G03*
X27788375Y-10922000I-150000J0D01*
G01*
X27867750Y-13081000D02*
G75*
G03*
X27867750Y-13081000I-150000J0D01*
G01*
X28502750Y-12827000D02*
G75*
G03*
X28502750Y-12827000I-150000J0D01*
G01*
X28582125Y-9271000D02*
G75*
G03*
X28582125Y-9271000I-150000J0D01*
G01*
X28820250Y-5461000D02*
G75*
G03*
X28820250Y-5461000I-150000J0D01*
G01*
X29217125Y-9017000D02*
G75*
G03*
X29217125Y-9017000I-150000J0D01*
G01*
X29296500Y-7366000D02*
G75*
G03*
X29296500Y-7366000I-150000J0D01*
G01*
X29455250Y-5207000D02*
G75*
G03*
X29455250Y-5207000I-150000J0D01*
G01*
X29772750Y-11176000D02*
G75*
G03*
X29772750Y-11176000I-150000J0D01*
G01*
X29772750Y-13081000D02*
G75*
G03*
X29772750Y-13081000I-150000J0D01*
G01*
X29931500Y-7112000D02*
G75*
G03*
X29931500Y-7112000I-150000J0D01*
G01*
X30407750Y-10922000D02*
G75*
G03*
X30407750Y-10922000I-150000J0D01*
G01*
X30407750Y-12827000D02*
G75*
G03*
X30407750Y-12827000I-150000J0D01*
G01*
X31677750Y-3079750D02*
G75*
G03*
X31677750Y-3079750I-150000J0D01*
G01*
X31677750Y-5461000D02*
G75*
G03*
X31677750Y-5461000I-150000J0D01*
G01*
X31677750Y-7366000D02*
G75*
G03*
X31677750Y-7366000I-150000J0D01*
G01*
X31677750Y-9271000D02*
G75*
G03*
X31677750Y-9271000I-150000J0D01*
G01*
X31677750Y-11176000D02*
G75*
G03*
X31677750Y-11176000I-150000J0D01*
G01*
X31677750Y-13081000D02*
G75*
G03*
X31677750Y-13081000I-150000J0D01*
G01*
X32312750Y-2825750D02*
G75*
G03*
X32312750Y-2825750I-150000J0D01*
G01*
X32312750Y-5207000D02*
G75*
G03*
X32312750Y-5207000I-150000J0D01*
G01*
X32312750Y-7112000D02*
G75*
G03*
X32312750Y-7112000I-150000J0D01*
G01*
X32312750Y-9017000D02*
G75*
G03*
X32312750Y-9017000I-150000J0D01*
G01*
X32312750Y-10922000D02*
G75*
G03*
X32312750Y-10922000I-150000J0D01*
G01*
X32312750Y-12827000D02*
G75*
G03*
X32312750Y-12827000I-150000J0D01*
G01*
D14*
X3330575Y-10579100D02*
X3330575Y-10883900D01*
X3178175Y-10731500D02*
X3482975Y-10731500D01*
X5718175Y-10579100D02*
X5718175Y-10883900D01*
X5565775Y-10731500D02*
X5870575Y-10731500D01*
X10478125Y-13881100D02*
X10478125Y-14185900D01*
X10325725Y-14033500D02*
X10630525Y-14033500D01*
X10953750Y-13881100D02*
X10953750Y-14185900D01*
X10801350Y-14033500D02*
X11106150Y-14033500D01*
X10953750Y-13881100D02*
X10953750Y-14185900D01*
X10801350Y-14033500D02*
X11106150Y-14033500D01*
X20478125Y-13881100D02*
X20478125Y-14185900D01*
X20325725Y-14033500D02*
X20630525Y-14033500D01*
X20478750Y-13881100D02*
X20478750Y-14185900D01*
X20326350Y-14033500D02*
X20631150Y-14033500D01*
X22383750Y-13881100D02*
X22383750Y-14185900D01*
X22231350Y-14033500D02*
X22536150Y-14033500D01*
X27619325Y-8674100D02*
X27619325Y-8978900D01*
X27466925Y-8826500D02*
X27771725Y-8826500D01*
X27857450Y-4864100D02*
X27857450Y-5168900D01*
X27705050Y-5016500D02*
X28009850Y-5016500D01*
X30006925Y-8674100D02*
X30006925Y-8978900D01*
X29854525Y-8826500D02*
X30159325Y-8826500D01*
X30245050Y-4864100D02*
X30245050Y-5168900D01*
X30092650Y-5016500D02*
X30397450Y-5016500D01*
D15*
X3471566Y-12396491D02*
X3471566Y-12114509D01*
X3189584Y-12114509D01*
X3189584Y-12396491D01*
X3471566Y-12396491D01*
X3474741Y-3474741D02*
X3474741Y-3192759D01*
X3192759Y-3192759D01*
X3192759Y-3474741D01*
X3474741Y-3474741D01*
X3474741Y-5855991D02*
X3474741Y-5574009D01*
X3192759Y-5574009D01*
X3192759Y-5855991D01*
X3474741Y-5855991D01*
X3712866Y-9665991D02*
X3712866Y-9384009D01*
X3430884Y-9384009D01*
X3430884Y-9665991D01*
X3712866Y-9665991D01*
X3712866Y-13475991D02*
X3712866Y-13194009D01*
X3430884Y-13194009D01*
X3430884Y-13475991D01*
X3712866Y-13475991D01*
X3950991Y-7760991D02*
X3950991Y-7479009D01*
X3669009Y-7479009D01*
X3669009Y-7760991D01*
X3950991Y-7760991D01*
X3950991Y-13475991D02*
X3950991Y-13194009D01*
X3669009Y-13194009D01*
X3669009Y-13475991D01*
X3950991Y-13475991D01*
X4189116Y-9665991D02*
X4189116Y-9384009D01*
X3907134Y-9384009D01*
X3907134Y-9665991D01*
X4189116Y-9665991D01*
X4665366Y-11570991D02*
X4665366Y-11289009D01*
X4383384Y-11289009D01*
X4383384Y-11570991D01*
X4665366Y-11570991D01*
X5379741Y-5855991D02*
X5379741Y-5574009D01*
X5097759Y-5574009D01*
X5097759Y-5855991D01*
X5379741Y-5855991D01*
X5697241Y-3474741D02*
X5697241Y-3192759D01*
X5415259Y-3192759D01*
X5415259Y-3474741D01*
X5697241Y-3474741D01*
X5859166Y-12396491D02*
X5859166Y-12114509D01*
X5577184Y-12114509D01*
X5577184Y-12396491D01*
X5859166Y-12396491D01*
X6094116Y-13475991D02*
X6094116Y-13194009D01*
X5812134Y-13194009D01*
X5812134Y-13475991D01*
X6094116Y-13475991D01*
X6332241Y-7760991D02*
X6332241Y-7479009D01*
X6050259Y-7479009D01*
X6050259Y-7760991D01*
X6332241Y-7760991D01*
X6332241Y-13475991D02*
X6332241Y-13194009D01*
X6050259Y-13194009D01*
X6050259Y-13475991D01*
X6332241Y-13475991D01*
X6808491Y-9665991D02*
X6808491Y-9384009D01*
X6526509Y-9384009D01*
X6526509Y-9665991D01*
X6808491Y-9665991D01*
X7284741Y-5855991D02*
X7284741Y-5574009D01*
X7002759Y-5574009D01*
X7002759Y-5855991D01*
X7284741Y-5855991D01*
X7602241Y-3474741D02*
X7602241Y-3192759D01*
X7320259Y-3192759D01*
X7320259Y-3474741D01*
X7602241Y-3474741D01*
X7760991Y-11570991D02*
X7760991Y-11289009D01*
X7479009Y-11289009D01*
X7479009Y-11570991D01*
X7760991Y-11570991D01*
X8237241Y-7760991D02*
X8237241Y-7479009D01*
X7955259Y-7479009D01*
X7955259Y-7760991D01*
X8237241Y-7760991D01*
X8475366Y-13475991D02*
X8475366Y-13194009D01*
X8193384Y-13194009D01*
X8193384Y-13475991D01*
X8475366Y-13475991D01*
X8713491Y-9665991D02*
X8713491Y-9384009D01*
X8431509Y-9384009D01*
X8431509Y-9665991D01*
X8713491Y-9665991D01*
X8713491Y-13475991D02*
X8713491Y-13194009D01*
X8431509Y-13194009D01*
X8431509Y-13475991D01*
X8713491Y-13475991D01*
X9189741Y-5855991D02*
X9189741Y-5574009D01*
X8907759Y-5574009D01*
X8907759Y-5855991D01*
X9189741Y-5855991D01*
X9507241Y-3474741D02*
X9507241Y-3192759D01*
X9225259Y-3192759D01*
X9225259Y-3474741D01*
X9507241Y-3474741D01*
X9665991Y-11570991D02*
X9665991Y-11289009D01*
X9384009Y-11289009D01*
X9384009Y-11570991D01*
X9665991Y-11570991D01*
X10142241Y-7760991D02*
X10142241Y-7479009D01*
X9860259Y-7479009D01*
X9860259Y-7760991D01*
X10142241Y-7760991D01*
X10618491Y-9665991D02*
X10618491Y-9384009D01*
X10336509Y-9384009D01*
X10336509Y-9665991D01*
X10618491Y-9665991D01*
X10619116Y-12650491D02*
X10619116Y-12368509D01*
X10337134Y-12368509D01*
X10337134Y-12650491D01*
X10619116Y-12650491D01*
X11094741Y-5855991D02*
X11094741Y-5574009D01*
X10812759Y-5574009D01*
X10812759Y-5855991D01*
X11094741Y-5855991D01*
X11094741Y-12650491D02*
X11094741Y-12368509D01*
X10812759Y-12368509D01*
X10812759Y-12650491D01*
X11094741Y-12650491D01*
X11094741Y-12650491D02*
X11094741Y-12368509D01*
X10812759Y-12368509D01*
X10812759Y-12650491D01*
X11094741Y-12650491D01*
X11412241Y-3474741D02*
X11412241Y-3192759D01*
X11130259Y-3192759D01*
X11130259Y-3474741D01*
X11412241Y-3474741D01*
X11570991Y-11570991D02*
X11570991Y-11289009D01*
X11289009Y-11289009D01*
X11289009Y-11570991D01*
X11570991Y-11570991D01*
X12047241Y-7760991D02*
X12047241Y-7479009D01*
X11765259Y-7479009D01*
X11765259Y-7760991D01*
X12047241Y-7760991D01*
X12523491Y-9665991D02*
X12523491Y-9384009D01*
X12241509Y-9384009D01*
X12241509Y-9665991D01*
X12523491Y-9665991D01*
X12999741Y-5855991D02*
X12999741Y-5574009D01*
X12717759Y-5574009D01*
X12717759Y-5855991D01*
X12999741Y-5855991D01*
X13475991Y-11570991D02*
X13475991Y-11289009D01*
X13194009Y-11289009D01*
X13194009Y-11570991D01*
X13475991Y-11570991D01*
X13634741Y-3474741D02*
X13634741Y-3192759D01*
X13352759Y-3192759D01*
X13352759Y-3474741D01*
X13634741Y-3474741D01*
X13952241Y-7760991D02*
X13952241Y-7479009D01*
X13670259Y-7479009D01*
X13670259Y-7760991D01*
X13952241Y-7760991D01*
X14428491Y-9665991D02*
X14428491Y-9384009D01*
X14146509Y-9384009D01*
X14146509Y-9665991D01*
X14428491Y-9665991D01*
X14904741Y-5855991D02*
X14904741Y-5574009D01*
X14622759Y-5574009D01*
X14622759Y-5855991D01*
X14904741Y-5855991D01*
X14904741Y-13475991D02*
X14904741Y-13194009D01*
X14622759Y-13194009D01*
X14622759Y-13475991D01*
X14904741Y-13475991D01*
X15380991Y-11570991D02*
X15380991Y-11289009D01*
X15099009Y-11289009D01*
X15099009Y-11570991D01*
X15380991Y-11570991D01*
X15539741Y-3474741D02*
X15539741Y-3192759D01*
X15257759Y-3192759D01*
X15257759Y-3474741D01*
X15539741Y-3474741D01*
X15619116Y-13475991D02*
X15619116Y-13194009D01*
X15337134Y-13194009D01*
X15337134Y-13475991D01*
X15619116Y-13475991D01*
X15857241Y-7760991D02*
X15857241Y-7479009D01*
X15575259Y-7479009D01*
X15575259Y-7760991D01*
X15857241Y-7760991D01*
X16333491Y-9665991D02*
X16333491Y-9384009D01*
X16051509Y-9384009D01*
X16051509Y-9665991D01*
X16333491Y-9665991D01*
X16809741Y-5855991D02*
X16809741Y-5574009D01*
X16527759Y-5574009D01*
X16527759Y-5855991D01*
X16809741Y-5855991D01*
X16809741Y-13475991D02*
X16809741Y-13194009D01*
X16527759Y-13194009D01*
X16527759Y-13475991D01*
X16809741Y-13475991D01*
X17285991Y-11570991D02*
X17285991Y-11289009D01*
X17004009Y-11289009D01*
X17004009Y-11570991D01*
X17285991Y-11570991D01*
X17444741Y-3474741D02*
X17444741Y-3192759D01*
X17162759Y-3192759D01*
X17162759Y-3474741D01*
X17444741Y-3474741D01*
X17762241Y-7760991D02*
X17762241Y-7479009D01*
X17480259Y-7479009D01*
X17480259Y-7760991D01*
X17762241Y-7760991D01*
X18238491Y-9665991D02*
X18238491Y-9384009D01*
X17956509Y-9384009D01*
X17956509Y-9665991D01*
X18238491Y-9665991D01*
X18714741Y-5855991D02*
X18714741Y-5574009D01*
X18432759Y-5574009D01*
X18432759Y-5855991D01*
X18714741Y-5855991D01*
X19190991Y-11570991D02*
X19190991Y-11289009D01*
X18909009Y-11289009D01*
X18909009Y-11570991D01*
X19190991Y-11570991D01*
X19349741Y-3474741D02*
X19349741Y-3192759D01*
X19067759Y-3192759D01*
X19067759Y-3474741D01*
X19349741Y-3474741D01*
X19667241Y-7760991D02*
X19667241Y-7479009D01*
X19385259Y-7479009D01*
X19385259Y-7760991D01*
X19667241Y-7760991D01*
X20143491Y-9665991D02*
X20143491Y-9384009D01*
X19861509Y-9384009D01*
X19861509Y-9665991D01*
X20143491Y-9665991D01*
X20619116Y-12650491D02*
X20619116Y-12368509D01*
X20337134Y-12368509D01*
X20337134Y-12650491D01*
X20619116Y-12650491D01*
X20619741Y-5855991D02*
X20619741Y-5574009D01*
X20337759Y-5574009D01*
X20337759Y-5855991D01*
X20619741Y-5855991D01*
X20619741Y-12650491D02*
X20619741Y-12368509D01*
X20337759Y-12368509D01*
X20337759Y-12650491D01*
X20619741Y-12650491D01*
X21095991Y-11570991D02*
X21095991Y-11289009D01*
X20814009Y-11289009D01*
X20814009Y-11570991D01*
X21095991Y-11570991D01*
X21572241Y-3474741D02*
X21572241Y-3192759D01*
X21290259Y-3192759D01*
X21290259Y-3474741D01*
X21572241Y-3474741D01*
X21572241Y-7760991D02*
X21572241Y-7479009D01*
X21290259Y-7479009D01*
X21290259Y-7760991D01*
X21572241Y-7760991D01*
X22048491Y-9665991D02*
X22048491Y-9384009D01*
X21766509Y-9384009D01*
X21766509Y-9665991D01*
X22048491Y-9665991D01*
X22524741Y-5855991D02*
X22524741Y-5574009D01*
X22242759Y-5574009D01*
X22242759Y-5855991D01*
X22524741Y-5855991D01*
X22524741Y-12650491D02*
X22524741Y-12368509D01*
X22242759Y-12368509D01*
X22242759Y-12650491D01*
X22524741Y-12650491D01*
X22524741Y-13475991D02*
X22524741Y-13194009D01*
X22242759Y-13194009D01*
X22242759Y-13475991D01*
X22524741Y-13475991D01*
X22762866Y-13475991D02*
X22762866Y-13194009D01*
X22480884Y-13194009D01*
X22480884Y-13475991D01*
X22762866Y-13475991D01*
X23000991Y-11570991D02*
X23000991Y-11289009D01*
X22719009Y-11289009D01*
X22719009Y-11570991D01*
X23000991Y-11570991D01*
X23477241Y-3474741D02*
X23477241Y-3192759D01*
X23195259Y-3192759D01*
X23195259Y-3474741D01*
X23477241Y-3474741D01*
X23477241Y-7760991D02*
X23477241Y-7479009D01*
X23195259Y-7479009D01*
X23195259Y-7760991D01*
X23477241Y-7760991D01*
X23953491Y-9665991D02*
X23953491Y-9384009D01*
X23671509Y-9384009D01*
X23671509Y-9665991D01*
X23953491Y-9665991D01*
X24429741Y-5855991D02*
X24429741Y-5574009D01*
X24147759Y-5574009D01*
X24147759Y-5855991D01*
X24429741Y-5855991D01*
X24429741Y-13475991D02*
X24429741Y-13194009D01*
X24147759Y-13194009D01*
X24147759Y-13475991D01*
X24429741Y-13475991D01*
X24905991Y-11570991D02*
X24905991Y-11289009D01*
X24624009Y-11289009D01*
X24624009Y-11570991D01*
X24905991Y-11570991D01*
X25144116Y-13475991D02*
X25144116Y-13194009D01*
X24862134Y-13194009D01*
X24862134Y-13475991D01*
X25144116Y-13475991D01*
X25382241Y-3474741D02*
X25382241Y-3192759D01*
X25100259Y-3192759D01*
X25100259Y-3474741D01*
X25382241Y-3474741D01*
X25382241Y-7760991D02*
X25382241Y-7479009D01*
X25100259Y-7479009D01*
X25100259Y-7760991D01*
X25382241Y-7760991D01*
X25858491Y-9665991D02*
X25858491Y-9384009D01*
X25576509Y-9384009D01*
X25576509Y-9665991D01*
X25858491Y-9665991D01*
X26334741Y-5855991D02*
X26334741Y-5574009D01*
X26052759Y-5574009D01*
X26052759Y-5855991D01*
X26334741Y-5855991D01*
X26334741Y-13475991D02*
X26334741Y-13194009D01*
X26052759Y-13194009D01*
X26052759Y-13475991D01*
X26334741Y-13475991D01*
X27287241Y-3474741D02*
X27287241Y-3192759D01*
X27005259Y-3192759D01*
X27005259Y-3474741D01*
X27287241Y-3474741D01*
X27287241Y-7760991D02*
X27287241Y-7479009D01*
X27005259Y-7479009D01*
X27005259Y-7760991D01*
X27287241Y-7760991D01*
X27525366Y-11570991D02*
X27525366Y-11289009D01*
X27243384Y-11289009D01*
X27243384Y-11570991D01*
X27525366Y-11570991D01*
X27760316Y-10491491D02*
X27760316Y-10209509D01*
X27478334Y-10209509D01*
X27478334Y-10491491D01*
X27760316Y-10491491D01*
X27998441Y-6681491D02*
X27998441Y-6399509D01*
X27716459Y-6399509D01*
X27716459Y-6681491D01*
X27998441Y-6681491D01*
X28239741Y-13475991D02*
X28239741Y-13194009D01*
X27957759Y-13194009D01*
X27957759Y-13475991D01*
X28239741Y-13475991D01*
X28954116Y-9665991D02*
X28954116Y-9384009D01*
X28672134Y-9384009D01*
X28672134Y-9665991D01*
X28954116Y-9665991D01*
X29192241Y-5855991D02*
X29192241Y-5574009D01*
X28910259Y-5574009D01*
X28910259Y-5855991D01*
X29192241Y-5855991D01*
X29668491Y-7760991D02*
X29668491Y-7479009D01*
X29386509Y-7479009D01*
X29386509Y-7760991D01*
X29668491Y-7760991D01*
X30144741Y-11570991D02*
X30144741Y-11289009D01*
X29862759Y-11289009D01*
X29862759Y-11570991D01*
X30144741Y-11570991D01*
X30144741Y-13475991D02*
X30144741Y-13194009D01*
X29862759Y-13194009D01*
X29862759Y-13475991D01*
X30144741Y-13475991D01*
X30147916Y-10491491D02*
X30147916Y-10209509D01*
X29865934Y-10209509D01*
X29865934Y-10491491D01*
X30147916Y-10491491D01*
X30386041Y-6681491D02*
X30386041Y-6399509D01*
X30104059Y-6399509D01*
X30104059Y-6681491D01*
X30386041Y-6681491D01*
X32049741Y-3474741D02*
X32049741Y-3192759D01*
X31767759Y-3192759D01*
X31767759Y-3474741D01*
X32049741Y-3474741D01*
X32049741Y-5855991D02*
X32049741Y-5574009D01*
X31767759Y-5574009D01*
X31767759Y-5855991D01*
X32049741Y-5855991D01*
X32049741Y-7760991D02*
X32049741Y-7479009D01*
X31767759Y-7479009D01*
X31767759Y-7760991D01*
X32049741Y-7760991D01*
X32049741Y-9665991D02*
X32049741Y-9384009D01*
X31767759Y-9384009D01*
X31767759Y-9665991D01*
X32049741Y-9665991D01*
X32049741Y-11570991D02*
X32049741Y-11289009D01*
X31767759Y-11289009D01*
X31767759Y-11570991D01*
X32049741Y-11570991D01*
X32049741Y-13475991D02*
X32049741Y-13194009D01*
X31767759Y-13194009D01*
X31767759Y-13475991D01*
X32049741Y-13475991D01*
D11*
X2637027Y-14603984D02*
X2637027Y-14403984D01*
X2637027Y-14403984D02*
X2684646Y-14403984D01*
X2684646Y-14403984D02*
X2713217Y-14413508D01*
X2713217Y-14413508D02*
X2732265Y-14432555D01*
X2732265Y-14432555D02*
X2741789Y-14451603D01*
X2741789Y-14451603D02*
X2751313Y-14489698D01*
X2751313Y-14489698D02*
X2751313Y-14518269D01*
X2751313Y-14518269D02*
X2741789Y-14556365D01*
X2741789Y-14556365D02*
X2732265Y-14575412D01*
X2732265Y-14575412D02*
X2713217Y-14594460D01*
X2713217Y-14594460D02*
X2684646Y-14603984D01*
X2684646Y-14603984D02*
X2637027Y-14603984D01*
X2837027Y-14603984D02*
X2837027Y-14470650D01*
X2837027Y-14508746D02*
X2846551Y-14489698D01*
X2846551Y-14489698D02*
X2856074Y-14480174D01*
X2856074Y-14480174D02*
X2875122Y-14470650D01*
X2875122Y-14470650D02*
X2894170Y-14470650D01*
X2960836Y-14603984D02*
X2960836Y-14470650D01*
X2960836Y-14403984D02*
X2951312Y-14413508D01*
X2951312Y-14413508D02*
X2960836Y-14423031D01*
X2960836Y-14423031D02*
X2970360Y-14413508D01*
X2970360Y-14413508D02*
X2960836Y-14403984D01*
X2960836Y-14403984D02*
X2960836Y-14423031D01*
X3084646Y-14603984D02*
X3065598Y-14594460D01*
X3065598Y-14594460D02*
X3056074Y-14575412D01*
X3056074Y-14575412D02*
X3056074Y-14403984D01*
X3189408Y-14603984D02*
X3170360Y-14594460D01*
X3170360Y-14594460D02*
X3160836Y-14575412D01*
X3160836Y-14575412D02*
X3160836Y-14403984D01*
X3417979Y-14603984D02*
X3417979Y-14403984D01*
X3417979Y-14403984D02*
X3484646Y-14546841D01*
X3484646Y-14546841D02*
X3551312Y-14403984D01*
X3551312Y-14403984D02*
X3551312Y-14603984D01*
X3732265Y-14603984D02*
X3732265Y-14499222D01*
X3732265Y-14499222D02*
X3722741Y-14480174D01*
X3722741Y-14480174D02*
X3703693Y-14470650D01*
X3703693Y-14470650D02*
X3665598Y-14470650D01*
X3665598Y-14470650D02*
X3646551Y-14480174D01*
X3732265Y-14594460D02*
X3713217Y-14603984D01*
X3713217Y-14603984D02*
X3665598Y-14603984D01*
X3665598Y-14603984D02*
X3646551Y-14594460D01*
X3646551Y-14594460D02*
X3637027Y-14575412D01*
X3637027Y-14575412D02*
X3637027Y-14556365D01*
X3637027Y-14556365D02*
X3646551Y-14537317D01*
X3646551Y-14537317D02*
X3665598Y-14527793D01*
X3665598Y-14527793D02*
X3713217Y-14527793D01*
X3713217Y-14527793D02*
X3732265Y-14518269D01*
X3827503Y-14470650D02*
X3827503Y-14670650D01*
X3827503Y-14480174D02*
X3846551Y-14470650D01*
X3846551Y-14470650D02*
X3884646Y-14470650D01*
X3884646Y-14470650D02*
X3903693Y-14480174D01*
X3903693Y-14480174D02*
X3913217Y-14489698D01*
X3913217Y-14489698D02*
X3922741Y-14508746D01*
X3922741Y-14508746D02*
X3922741Y-14565888D01*
X3922741Y-14565888D02*
X3913217Y-14584936D01*
X3913217Y-14584936D02*
X3903693Y-14594460D01*
X3903693Y-14594460D02*
X3884646Y-14603984D01*
X3884646Y-14603984D02*
X3846551Y-14603984D01*
X3846551Y-14603984D02*
X3827503Y-14594460D01*
X4008455Y-14584936D02*
X4017979Y-14594460D01*
X4017979Y-14594460D02*
X4008455Y-14603984D01*
X4008455Y-14603984D02*
X3998932Y-14594460D01*
X3998932Y-14594460D02*
X4008455Y-14584936D01*
X4008455Y-14584936D02*
X4008455Y-14603984D01*
X4008455Y-14480174D02*
X4017979Y-14489698D01*
X4017979Y-14489698D02*
X4008455Y-14499222D01*
X4008455Y-14499222D02*
X3998932Y-14489698D01*
X3998932Y-14489698D02*
X4008455Y-14480174D01*
X4008455Y-14480174D02*
X4008455Y-14499222D01*
D12*
X2206070Y-14847410D02*
X2376250Y-15017590D01*
X2376250Y-14847410D02*
X2206070Y-15017590D01*
D11*
X2741789Y-15023984D02*
X2627503Y-15023984D01*
X2684646Y-15023984D02*
X2684646Y-14823984D01*
X2684646Y-14823984D02*
X2665598Y-14852555D01*
X2665598Y-14852555D02*
X2646551Y-14871603D01*
X2646551Y-14871603D02*
X2627503Y-14881127D01*
X2827503Y-15004936D02*
X2837027Y-15014460D01*
X2837027Y-15014460D02*
X2827503Y-15023984D01*
X2827503Y-15023984D02*
X2817979Y-15014460D01*
X2817979Y-15014460D02*
X2827503Y-15004936D01*
X2827503Y-15004936D02*
X2827503Y-15023984D01*
X2903693Y-14823984D02*
X3037027Y-14823984D01*
X3037027Y-14823984D02*
X2951312Y-15023984D01*
X3151312Y-14823984D02*
X3170360Y-14823984D01*
X3170360Y-14823984D02*
X3189408Y-14833508D01*
X3189408Y-14833508D02*
X3198932Y-14843031D01*
X3198932Y-14843031D02*
X3208455Y-14862079D01*
X3208455Y-14862079D02*
X3217979Y-14900174D01*
X3217979Y-14900174D02*
X3217979Y-14947793D01*
X3217979Y-14947793D02*
X3208455Y-14985888D01*
X3208455Y-14985888D02*
X3198932Y-15004936D01*
X3198932Y-15004936D02*
X3189408Y-15014460D01*
X3189408Y-15014460D02*
X3170360Y-15023984D01*
X3170360Y-15023984D02*
X3151312Y-15023984D01*
X3151312Y-15023984D02*
X3132265Y-15014460D01*
X3132265Y-15014460D02*
X3122741Y-15004936D01*
X3122741Y-15004936D02*
X3113217Y-14985888D01*
X3113217Y-14985888D02*
X3103693Y-14947793D01*
X3103693Y-14947793D02*
X3103693Y-14900174D01*
X3103693Y-14900174D02*
X3113217Y-14862079D01*
X3113217Y-14862079D02*
X3122741Y-14843031D01*
X3122741Y-14843031D02*
X3132265Y-14833508D01*
X3132265Y-14833508D02*
X3151312Y-14823984D01*
X3294170Y-14843031D02*
X3303693Y-14833508D01*
X3303693Y-14833508D02*
X3322741Y-14823984D01*
X3322741Y-14823984D02*
X3370360Y-14823984D01*
X3370360Y-14823984D02*
X3389408Y-14833508D01*
X3389408Y-14833508D02*
X3398932Y-14843031D01*
X3398932Y-14843031D02*
X3408455Y-14862079D01*
X3408455Y-14862079D02*
X3408455Y-14881127D01*
X3408455Y-14881127D02*
X3398932Y-14909698D01*
X3398932Y-14909698D02*
X3284646Y-15023984D01*
X3284646Y-15023984D02*
X3408455Y-15023984D01*
X3494170Y-15023984D02*
X3494170Y-14890650D01*
X3494170Y-14909698D02*
X3503693Y-14900174D01*
X3503693Y-14900174D02*
X3522741Y-14890650D01*
X3522741Y-14890650D02*
X3551313Y-14890650D01*
X3551313Y-14890650D02*
X3570360Y-14900174D01*
X3570360Y-14900174D02*
X3579884Y-14919222D01*
X3579884Y-14919222D02*
X3579884Y-15023984D01*
X3579884Y-14919222D02*
X3589408Y-14900174D01*
X3589408Y-14900174D02*
X3608455Y-14890650D01*
X3608455Y-14890650D02*
X3637027Y-14890650D01*
X3637027Y-14890650D02*
X3656074Y-14900174D01*
X3656074Y-14900174D02*
X3665598Y-14919222D01*
X3665598Y-14919222D02*
X3665598Y-15023984D01*
X3760836Y-15023984D02*
X3760836Y-14890650D01*
X3760836Y-14909698D02*
X3770360Y-14900174D01*
X3770360Y-14900174D02*
X3789408Y-14890650D01*
X3789408Y-14890650D02*
X3817979Y-14890650D01*
X3817979Y-14890650D02*
X3837027Y-14900174D01*
X3837027Y-14900174D02*
X3846551Y-14919222D01*
X3846551Y-14919222D02*
X3846551Y-15023984D01*
X3846551Y-14919222D02*
X3856074Y-14900174D01*
X3856074Y-14900174D02*
X3875122Y-14890650D01*
X3875122Y-14890650D02*
X3903693Y-14890650D01*
X3903693Y-14890650D02*
X3922741Y-14900174D01*
X3922741Y-14900174D02*
X3932265Y-14919222D01*
X3932265Y-14919222D02*
X3932265Y-15023984D01*
X4322741Y-14814460D02*
X4151313Y-15071603D01*
X4579884Y-14823984D02*
X4598932Y-14823984D01*
X4598932Y-14823984D02*
X4617979Y-14833508D01*
X4617979Y-14833508D02*
X4627503Y-14843031D01*
X4627503Y-14843031D02*
X4637027Y-14862079D01*
X4637027Y-14862079D02*
X4646551Y-14900174D01*
X4646551Y-14900174D02*
X4646551Y-14947793D01*
X4646551Y-14947793D02*
X4637027Y-14985888D01*
X4637027Y-14985888D02*
X4627503Y-15004936D01*
X4627503Y-15004936D02*
X4617979Y-15014460D01*
X4617979Y-15014460D02*
X4598932Y-15023984D01*
X4598932Y-15023984D02*
X4579884Y-15023984D01*
X4579884Y-15023984D02*
X4560837Y-15014460D01*
X4560837Y-15014460D02*
X4551313Y-15004936D01*
X4551313Y-15004936D02*
X4541789Y-14985888D01*
X4541789Y-14985888D02*
X4532265Y-14947793D01*
X4532265Y-14947793D02*
X4532265Y-14900174D01*
X4532265Y-14900174D02*
X4541789Y-14862079D01*
X4541789Y-14862079D02*
X4551313Y-14843031D01*
X4551313Y-14843031D02*
X4560837Y-14833508D01*
X4560837Y-14833508D02*
X4579884Y-14823984D01*
X4732265Y-15004936D02*
X4741789Y-15014460D01*
X4741789Y-15014460D02*
X4732265Y-15023984D01*
X4732265Y-15023984D02*
X4722741Y-15014460D01*
X4722741Y-15014460D02*
X4732265Y-15004936D01*
X4732265Y-15004936D02*
X4732265Y-15023984D01*
X4865598Y-14823984D02*
X4884646Y-14823984D01*
X4884646Y-14823984D02*
X4903694Y-14833508D01*
X4903694Y-14833508D02*
X4913218Y-14843031D01*
X4913218Y-14843031D02*
X4922741Y-14862079D01*
X4922741Y-14862079D02*
X4932265Y-14900174D01*
X4932265Y-14900174D02*
X4932265Y-14947793D01*
X4932265Y-14947793D02*
X4922741Y-14985888D01*
X4922741Y-14985888D02*
X4913218Y-15004936D01*
X4913218Y-15004936D02*
X4903694Y-15014460D01*
X4903694Y-15014460D02*
X4884646Y-15023984D01*
X4884646Y-15023984D02*
X4865598Y-15023984D01*
X4865598Y-15023984D02*
X4846551Y-15014460D01*
X4846551Y-15014460D02*
X4837027Y-15004936D01*
X4837027Y-15004936D02*
X4827503Y-14985888D01*
X4827503Y-14985888D02*
X4817979Y-14947793D01*
X4817979Y-14947793D02*
X4817979Y-14900174D01*
X4817979Y-14900174D02*
X4827503Y-14862079D01*
X4827503Y-14862079D02*
X4837027Y-14843031D01*
X4837027Y-14843031D02*
X4846551Y-14833508D01*
X4846551Y-14833508D02*
X4865598Y-14823984D01*
X5103694Y-14823984D02*
X5065598Y-14823984D01*
X5065598Y-14823984D02*
X5046551Y-14833508D01*
X5046551Y-14833508D02*
X5037027Y-14843031D01*
X5037027Y-14843031D02*
X5017979Y-14871603D01*
X5017979Y-14871603D02*
X5008456Y-14909698D01*
X5008456Y-14909698D02*
X5008456Y-14985888D01*
X5008456Y-14985888D02*
X5017979Y-15004936D01*
X5017979Y-15004936D02*
X5027503Y-15014460D01*
X5027503Y-15014460D02*
X5046551Y-15023984D01*
X5046551Y-15023984D02*
X5084646Y-15023984D01*
X5084646Y-15023984D02*
X5103694Y-15014460D01*
X5103694Y-15014460D02*
X5113218Y-15004936D01*
X5113218Y-15004936D02*
X5122741Y-14985888D01*
X5122741Y-14985888D02*
X5122741Y-14938269D01*
X5122741Y-14938269D02*
X5113218Y-14919222D01*
X5113218Y-14919222D02*
X5103694Y-14909698D01*
X5103694Y-14909698D02*
X5084646Y-14900174D01*
X5084646Y-14900174D02*
X5046551Y-14900174D01*
X5046551Y-14900174D02*
X5027503Y-14909698D01*
X5027503Y-14909698D02*
X5017979Y-14919222D01*
X5017979Y-14919222D02*
X5008456Y-14938269D01*
X5189408Y-14823984D02*
X5322741Y-14823984D01*
X5322741Y-14823984D02*
X5237027Y-15023984D01*
X5437027Y-14823984D02*
X5456075Y-14823984D01*
X5456075Y-14823984D02*
X5475122Y-14833508D01*
X5475122Y-14833508D02*
X5484646Y-14843031D01*
X5484646Y-14843031D02*
X5494170Y-14862079D01*
X5494170Y-14862079D02*
X5503694Y-14900174D01*
X5503694Y-14900174D02*
X5503694Y-14947793D01*
X5503694Y-14947793D02*
X5494170Y-14985888D01*
X5494170Y-14985888D02*
X5484646Y-15004936D01*
X5484646Y-15004936D02*
X5475122Y-15014460D01*
X5475122Y-15014460D02*
X5456075Y-15023984D01*
X5456075Y-15023984D02*
X5437027Y-15023984D01*
X5437027Y-15023984D02*
X5417979Y-15014460D01*
X5417979Y-15014460D02*
X5408456Y-15004936D01*
X5408456Y-15004936D02*
X5398932Y-14985888D01*
X5398932Y-14985888D02*
X5389408Y-14947793D01*
X5389408Y-14947793D02*
X5389408Y-14900174D01*
X5389408Y-14900174D02*
X5398932Y-14862079D01*
X5398932Y-14862079D02*
X5408456Y-14843031D01*
X5408456Y-14843031D02*
X5417979Y-14833508D01*
X5417979Y-14833508D02*
X5437027Y-14823984D01*
X5579884Y-14823984D02*
X5579884Y-14862079D01*
X5656075Y-14823984D02*
X5656075Y-14862079D01*
X5951313Y-15100174D02*
X5941789Y-15090650D01*
X5941789Y-15090650D02*
X5922741Y-15062079D01*
X5922741Y-15062079D02*
X5913218Y-15043031D01*
X5913218Y-15043031D02*
X5903694Y-15014460D01*
X5903694Y-15014460D02*
X5894170Y-14966841D01*
X5894170Y-14966841D02*
X5894170Y-14928746D01*
X5894170Y-14928746D02*
X5903694Y-14881127D01*
X5903694Y-14881127D02*
X5913218Y-14852555D01*
X5913218Y-14852555D02*
X5922741Y-14833508D01*
X5922741Y-14833508D02*
X5941789Y-14804936D01*
X5941789Y-14804936D02*
X5951313Y-14795412D01*
X6132265Y-15023984D02*
X6017979Y-15023984D01*
X6075122Y-15023984D02*
X6075122Y-14823984D01*
X6075122Y-14823984D02*
X6056075Y-14852555D01*
X6056075Y-14852555D02*
X6037027Y-14871603D01*
X6037027Y-14871603D02*
X6017979Y-14881127D01*
X6246551Y-14909698D02*
X6227503Y-14900174D01*
X6227503Y-14900174D02*
X6217979Y-14890650D01*
X6217979Y-14890650D02*
X6208456Y-14871603D01*
X6208456Y-14871603D02*
X6208456Y-14862079D01*
X6208456Y-14862079D02*
X6217979Y-14843031D01*
X6217979Y-14843031D02*
X6227503Y-14833508D01*
X6227503Y-14833508D02*
X6246551Y-14823984D01*
X6246551Y-14823984D02*
X6284646Y-14823984D01*
X6284646Y-14823984D02*
X6303694Y-14833508D01*
X6303694Y-14833508D02*
X6313218Y-14843031D01*
X6313218Y-14843031D02*
X6322741Y-14862079D01*
X6322741Y-14862079D02*
X6322741Y-14871603D01*
X6322741Y-14871603D02*
X6313218Y-14890650D01*
X6313218Y-14890650D02*
X6303694Y-14900174D01*
X6303694Y-14900174D02*
X6284646Y-14909698D01*
X6284646Y-14909698D02*
X6246551Y-14909698D01*
X6246551Y-14909698D02*
X6227503Y-14919222D01*
X6227503Y-14919222D02*
X6217979Y-14928746D01*
X6217979Y-14928746D02*
X6208456Y-14947793D01*
X6208456Y-14947793D02*
X6208456Y-14985888D01*
X6208456Y-14985888D02*
X6217979Y-15004936D01*
X6217979Y-15004936D02*
X6227503Y-15014460D01*
X6227503Y-15014460D02*
X6246551Y-15023984D01*
X6246551Y-15023984D02*
X6284646Y-15023984D01*
X6284646Y-15023984D02*
X6303694Y-15014460D01*
X6303694Y-15014460D02*
X6313218Y-15004936D01*
X6313218Y-15004936D02*
X6322741Y-14985888D01*
X6322741Y-14985888D02*
X6322741Y-14947793D01*
X6322741Y-14947793D02*
X6313218Y-14928746D01*
X6313218Y-14928746D02*
X6303694Y-14919222D01*
X6303694Y-14919222D02*
X6284646Y-14909698D01*
X6446551Y-14823984D02*
X6465599Y-14823984D01*
X6465599Y-14823984D02*
X6484646Y-14833508D01*
X6484646Y-14833508D02*
X6494170Y-14843031D01*
X6494170Y-14843031D02*
X6503694Y-14862079D01*
X6503694Y-14862079D02*
X6513218Y-14900174D01*
X6513218Y-14900174D02*
X6513218Y-14947793D01*
X6513218Y-14947793D02*
X6503694Y-14985888D01*
X6503694Y-14985888D02*
X6494170Y-15004936D01*
X6494170Y-15004936D02*
X6484646Y-15014460D01*
X6484646Y-15014460D02*
X6465599Y-15023984D01*
X6465599Y-15023984D02*
X6446551Y-15023984D01*
X6446551Y-15023984D02*
X6427503Y-15014460D01*
X6427503Y-15014460D02*
X6417979Y-15004936D01*
X6417979Y-15004936D02*
X6408456Y-14985888D01*
X6408456Y-14985888D02*
X6398932Y-14947793D01*
X6398932Y-14947793D02*
X6398932Y-14900174D01*
X6398932Y-14900174D02*
X6408456Y-14862079D01*
X6408456Y-14862079D02*
X6417979Y-14843031D01*
X6417979Y-14843031D02*
X6427503Y-14833508D01*
X6427503Y-14833508D02*
X6446551Y-14823984D01*
X6751313Y-15023984D02*
X6751313Y-14823984D01*
X6837027Y-15023984D02*
X6837027Y-14919222D01*
X6837027Y-14919222D02*
X6827503Y-14900174D01*
X6827503Y-14900174D02*
X6808456Y-14890650D01*
X6808456Y-14890650D02*
X6779884Y-14890650D01*
X6779884Y-14890650D02*
X6760837Y-14900174D01*
X6760837Y-14900174D02*
X6751313Y-14909698D01*
X6960837Y-15023984D02*
X6941789Y-15014460D01*
X6941789Y-15014460D02*
X6932265Y-15004936D01*
X6932265Y-15004936D02*
X6922741Y-14985888D01*
X6922741Y-14985888D02*
X6922741Y-14928746D01*
X6922741Y-14928746D02*
X6932265Y-14909698D01*
X6932265Y-14909698D02*
X6941789Y-14900174D01*
X6941789Y-14900174D02*
X6960837Y-14890650D01*
X6960837Y-14890650D02*
X6989408Y-14890650D01*
X6989408Y-14890650D02*
X7008456Y-14900174D01*
X7008456Y-14900174D02*
X7017980Y-14909698D01*
X7017980Y-14909698D02*
X7027503Y-14928746D01*
X7027503Y-14928746D02*
X7027503Y-14985888D01*
X7027503Y-14985888D02*
X7017980Y-15004936D01*
X7017980Y-15004936D02*
X7008456Y-15014460D01*
X7008456Y-15014460D02*
X6989408Y-15023984D01*
X6989408Y-15023984D02*
X6960837Y-15023984D01*
X7141789Y-15023984D02*
X7122741Y-15014460D01*
X7122741Y-15014460D02*
X7113218Y-14995412D01*
X7113218Y-14995412D02*
X7113218Y-14823984D01*
X7294170Y-15014460D02*
X7275122Y-15023984D01*
X7275122Y-15023984D02*
X7237027Y-15023984D01*
X7237027Y-15023984D02*
X7217980Y-15014460D01*
X7217980Y-15014460D02*
X7208456Y-14995412D01*
X7208456Y-14995412D02*
X7208456Y-14919222D01*
X7208456Y-14919222D02*
X7217980Y-14900174D01*
X7217980Y-14900174D02*
X7237027Y-14890650D01*
X7237027Y-14890650D02*
X7275122Y-14890650D01*
X7275122Y-14890650D02*
X7294170Y-14900174D01*
X7294170Y-14900174D02*
X7303694Y-14919222D01*
X7303694Y-14919222D02*
X7303694Y-14938269D01*
X7303694Y-14938269D02*
X7208456Y-14957317D01*
X7379884Y-15014460D02*
X7398932Y-15023984D01*
X7398932Y-15023984D02*
X7437027Y-15023984D01*
X7437027Y-15023984D02*
X7456075Y-15014460D01*
X7456075Y-15014460D02*
X7465599Y-14995412D01*
X7465599Y-14995412D02*
X7465599Y-14985888D01*
X7465599Y-14985888D02*
X7456075Y-14966841D01*
X7456075Y-14966841D02*
X7437027Y-14957317D01*
X7437027Y-14957317D02*
X7408456Y-14957317D01*
X7408456Y-14957317D02*
X7389408Y-14947793D01*
X7389408Y-14947793D02*
X7379884Y-14928746D01*
X7379884Y-14928746D02*
X7379884Y-14919222D01*
X7379884Y-14919222D02*
X7389408Y-14900174D01*
X7389408Y-14900174D02*
X7408456Y-14890650D01*
X7408456Y-14890650D02*
X7437027Y-14890650D01*
X7437027Y-14890650D02*
X7456075Y-14900174D01*
X7532265Y-15100174D02*
X7541789Y-15090650D01*
X7541789Y-15090650D02*
X7560837Y-15062079D01*
X7560837Y-15062079D02*
X7570361Y-15043031D01*
X7570361Y-15043031D02*
X7579884Y-15014460D01*
X7579884Y-15014460D02*
X7589408Y-14966841D01*
X7589408Y-14966841D02*
X7589408Y-14928746D01*
X7589408Y-14928746D02*
X7579884Y-14881127D01*
X7579884Y-14881127D02*
X7570361Y-14852555D01*
X7570361Y-14852555D02*
X7560837Y-14833508D01*
X7560837Y-14833508D02*
X7541789Y-14804936D01*
X7541789Y-14804936D02*
X7532265Y-14795412D01*
X7894170Y-15100174D02*
X7884646Y-15090650D01*
X7884646Y-15090650D02*
X7865599Y-15062079D01*
X7865599Y-15062079D02*
X7856075Y-15043031D01*
X7856075Y-15043031D02*
X7846551Y-15014460D01*
X7846551Y-15014460D02*
X7837027Y-14966841D01*
X7837027Y-14966841D02*
X7837027Y-14928746D01*
X7837027Y-14928746D02*
X7846551Y-14881127D01*
X7846551Y-14881127D02*
X7856075Y-14852555D01*
X7856075Y-14852555D02*
X7865599Y-14833508D01*
X7865599Y-14833508D02*
X7884646Y-14804936D01*
X7884646Y-14804936D02*
X7894170Y-14795412D01*
X7970361Y-14890650D02*
X7970361Y-15023984D01*
X7970361Y-14909698D02*
X7979884Y-14900174D01*
X7979884Y-14900174D02*
X7998932Y-14890650D01*
X7998932Y-14890650D02*
X8027503Y-14890650D01*
X8027503Y-14890650D02*
X8046551Y-14900174D01*
X8046551Y-14900174D02*
X8056075Y-14919222D01*
X8056075Y-14919222D02*
X8056075Y-15023984D01*
X8179884Y-15023984D02*
X8160837Y-15014460D01*
X8160837Y-15014460D02*
X8151313Y-15004936D01*
X8151313Y-15004936D02*
X8141789Y-14985888D01*
X8141789Y-14985888D02*
X8141789Y-14928746D01*
X8141789Y-14928746D02*
X8151313Y-14909698D01*
X8151313Y-14909698D02*
X8160837Y-14900174D01*
X8160837Y-14900174D02*
X8179884Y-14890650D01*
X8179884Y-14890650D02*
X8208456Y-14890650D01*
X8208456Y-14890650D02*
X8227503Y-14900174D01*
X8227503Y-14900174D02*
X8237027Y-14909698D01*
X8237027Y-14909698D02*
X8246551Y-14928746D01*
X8246551Y-14928746D02*
X8246551Y-14985888D01*
X8246551Y-14985888D02*
X8237027Y-15004936D01*
X8237027Y-15004936D02*
X8227503Y-15014460D01*
X8227503Y-15014460D02*
X8208456Y-15023984D01*
X8208456Y-15023984D02*
X8179884Y-15023984D01*
X8303694Y-14890650D02*
X8379884Y-14890650D01*
X8332265Y-14823984D02*
X8332265Y-14995412D01*
X8332265Y-14995412D02*
X8341789Y-15014460D01*
X8341789Y-15014460D02*
X8360837Y-15023984D01*
X8360837Y-15023984D02*
X8379884Y-15023984D01*
X8598932Y-14890650D02*
X8598932Y-15090650D01*
X8598932Y-14900174D02*
X8617980Y-14890650D01*
X8617980Y-14890650D02*
X8656075Y-14890650D01*
X8656075Y-14890650D02*
X8675123Y-14900174D01*
X8675123Y-14900174D02*
X8684646Y-14909698D01*
X8684646Y-14909698D02*
X8694170Y-14928746D01*
X8694170Y-14928746D02*
X8694170Y-14985888D01*
X8694170Y-14985888D02*
X8684646Y-15004936D01*
X8684646Y-15004936D02*
X8675123Y-15014460D01*
X8675123Y-15014460D02*
X8656075Y-15023984D01*
X8656075Y-15023984D02*
X8617980Y-15023984D01*
X8617980Y-15023984D02*
X8598932Y-15014460D01*
X8808456Y-15023984D02*
X8789408Y-15014460D01*
X8789408Y-15014460D02*
X8779885Y-14995412D01*
X8779885Y-14995412D02*
X8779885Y-14823984D01*
X8970361Y-15023984D02*
X8970361Y-14919222D01*
X8970361Y-14919222D02*
X8960837Y-14900174D01*
X8960837Y-14900174D02*
X8941789Y-14890650D01*
X8941789Y-14890650D02*
X8903694Y-14890650D01*
X8903694Y-14890650D02*
X8884646Y-14900174D01*
X8970361Y-15014460D02*
X8951313Y-15023984D01*
X8951313Y-15023984D02*
X8903694Y-15023984D01*
X8903694Y-15023984D02*
X8884646Y-15014460D01*
X8884646Y-15014460D02*
X8875123Y-14995412D01*
X8875123Y-14995412D02*
X8875123Y-14976365D01*
X8875123Y-14976365D02*
X8884646Y-14957317D01*
X8884646Y-14957317D02*
X8903694Y-14947793D01*
X8903694Y-14947793D02*
X8951313Y-14947793D01*
X8951313Y-14947793D02*
X8970361Y-14938269D01*
X9037027Y-14890650D02*
X9113218Y-14890650D01*
X9065599Y-14823984D02*
X9065599Y-14995412D01*
X9065599Y-14995412D02*
X9075123Y-15014460D01*
X9075123Y-15014460D02*
X9094170Y-15023984D01*
X9094170Y-15023984D02*
X9113218Y-15023984D01*
X9256075Y-15014460D02*
X9237027Y-15023984D01*
X9237027Y-15023984D02*
X9198932Y-15023984D01*
X9198932Y-15023984D02*
X9179885Y-15014460D01*
X9179885Y-15014460D02*
X9170361Y-14995412D01*
X9170361Y-14995412D02*
X9170361Y-14919222D01*
X9170361Y-14919222D02*
X9179885Y-14900174D01*
X9179885Y-14900174D02*
X9198932Y-14890650D01*
X9198932Y-14890650D02*
X9237027Y-14890650D01*
X9237027Y-14890650D02*
X9256075Y-14900174D01*
X9256075Y-14900174D02*
X9265599Y-14919222D01*
X9265599Y-14919222D02*
X9265599Y-14938269D01*
X9265599Y-14938269D02*
X9170361Y-14957317D01*
X9437027Y-15023984D02*
X9437027Y-14823984D01*
X9437027Y-15014460D02*
X9417980Y-15023984D01*
X9417980Y-15023984D02*
X9379885Y-15023984D01*
X9379885Y-15023984D02*
X9360837Y-15014460D01*
X9360837Y-15014460D02*
X9351313Y-15004936D01*
X9351313Y-15004936D02*
X9341789Y-14985888D01*
X9341789Y-14985888D02*
X9341789Y-14928746D01*
X9341789Y-14928746D02*
X9351313Y-14909698D01*
X9351313Y-14909698D02*
X9360837Y-14900174D01*
X9360837Y-14900174D02*
X9379885Y-14890650D01*
X9379885Y-14890650D02*
X9417980Y-14890650D01*
X9417980Y-14890650D02*
X9437027Y-14900174D01*
X9513218Y-15100174D02*
X9522742Y-15090650D01*
X9522742Y-15090650D02*
X9541789Y-15062079D01*
X9541789Y-15062079D02*
X9551313Y-15043031D01*
X9551313Y-15043031D02*
X9560837Y-15014460D01*
X9560837Y-15014460D02*
X9570361Y-14966841D01*
X9570361Y-14966841D02*
X9570361Y-14928746D01*
X9570361Y-14928746D02*
X9560837Y-14881127D01*
X9560837Y-14881127D02*
X9551313Y-14852555D01*
X9551313Y-14852555D02*
X9541789Y-14833508D01*
X9541789Y-14833508D02*
X9522742Y-14804936D01*
X9522742Y-14804936D02*
X9513218Y-14795412D01*
X2376250Y-15222680D02*
G75*
G03*
X2376250Y-15222680I-100000J0D01*
G01*
X2617979Y-15114164D02*
X2741789Y-15114164D01*
X2741789Y-15114164D02*
X2675122Y-15190354D01*
X2675122Y-15190354D02*
X2703694Y-15190354D01*
X2703694Y-15190354D02*
X2722741Y-15199878D01*
X2722741Y-15199878D02*
X2732265Y-15209402D01*
X2732265Y-15209402D02*
X2741789Y-15228449D01*
X2741789Y-15228449D02*
X2741789Y-15276068D01*
X2741789Y-15276068D02*
X2732265Y-15295116D01*
X2732265Y-15295116D02*
X2722741Y-15304640D01*
X2722741Y-15304640D02*
X2703694Y-15314164D01*
X2703694Y-15314164D02*
X2646551Y-15314164D01*
X2646551Y-15314164D02*
X2627503Y-15304640D01*
X2627503Y-15304640D02*
X2617979Y-15295116D01*
X2827503Y-15295116D02*
X2837027Y-15304640D01*
X2837027Y-15304640D02*
X2827503Y-15314164D01*
X2827503Y-15314164D02*
X2817979Y-15304640D01*
X2817979Y-15304640D02*
X2827503Y-15295116D01*
X2827503Y-15295116D02*
X2827503Y-15314164D01*
X2960836Y-15114164D02*
X2979884Y-15114164D01*
X2979884Y-15114164D02*
X2998932Y-15123688D01*
X2998932Y-15123688D02*
X3008455Y-15133211D01*
X3008455Y-15133211D02*
X3017979Y-15152259D01*
X3017979Y-15152259D02*
X3027503Y-15190354D01*
X3027503Y-15190354D02*
X3027503Y-15237973D01*
X3027503Y-15237973D02*
X3017979Y-15276068D01*
X3017979Y-15276068D02*
X3008455Y-15295116D01*
X3008455Y-15295116D02*
X2998932Y-15304640D01*
X2998932Y-15304640D02*
X2979884Y-15314164D01*
X2979884Y-15314164D02*
X2960836Y-15314164D01*
X2960836Y-15314164D02*
X2941789Y-15304640D01*
X2941789Y-15304640D02*
X2932265Y-15295116D01*
X2932265Y-15295116D02*
X2922741Y-15276068D01*
X2922741Y-15276068D02*
X2913217Y-15237973D01*
X2913217Y-15237973D02*
X2913217Y-15190354D01*
X2913217Y-15190354D02*
X2922741Y-15152259D01*
X2922741Y-15152259D02*
X2932265Y-15133211D01*
X2932265Y-15133211D02*
X2941789Y-15123688D01*
X2941789Y-15123688D02*
X2960836Y-15114164D01*
X3151312Y-15114164D02*
X3170360Y-15114164D01*
X3170360Y-15114164D02*
X3189408Y-15123688D01*
X3189408Y-15123688D02*
X3198932Y-15133211D01*
X3198932Y-15133211D02*
X3208455Y-15152259D01*
X3208455Y-15152259D02*
X3217979Y-15190354D01*
X3217979Y-15190354D02*
X3217979Y-15237973D01*
X3217979Y-15237973D02*
X3208455Y-15276068D01*
X3208455Y-15276068D02*
X3198932Y-15295116D01*
X3198932Y-15295116D02*
X3189408Y-15304640D01*
X3189408Y-15304640D02*
X3170360Y-15314164D01*
X3170360Y-15314164D02*
X3151312Y-15314164D01*
X3151312Y-15314164D02*
X3132265Y-15304640D01*
X3132265Y-15304640D02*
X3122741Y-15295116D01*
X3122741Y-15295116D02*
X3113217Y-15276068D01*
X3113217Y-15276068D02*
X3103693Y-15237973D01*
X3103693Y-15237973D02*
X3103693Y-15190354D01*
X3103693Y-15190354D02*
X3113217Y-15152259D01*
X3113217Y-15152259D02*
X3122741Y-15133211D01*
X3122741Y-15133211D02*
X3132265Y-15123688D01*
X3132265Y-15123688D02*
X3151312Y-15114164D01*
X3341789Y-15114164D02*
X3360836Y-15114164D01*
X3360836Y-15114164D02*
X3379884Y-15123688D01*
X3379884Y-15123688D02*
X3389408Y-15133211D01*
X3389408Y-15133211D02*
X3398932Y-15152259D01*
X3398932Y-15152259D02*
X3408455Y-15190354D01*
X3408455Y-15190354D02*
X3408455Y-15237973D01*
X3408455Y-15237973D02*
X3398932Y-15276068D01*
X3398932Y-15276068D02*
X3389408Y-15295116D01*
X3389408Y-15295116D02*
X3379884Y-15304640D01*
X3379884Y-15304640D02*
X3360836Y-15314164D01*
X3360836Y-15314164D02*
X3341789Y-15314164D01*
X3341789Y-15314164D02*
X3322741Y-15304640D01*
X3322741Y-15304640D02*
X3313217Y-15295116D01*
X3313217Y-15295116D02*
X3303693Y-15276068D01*
X3303693Y-15276068D02*
X3294170Y-15237973D01*
X3294170Y-15237973D02*
X3294170Y-15190354D01*
X3294170Y-15190354D02*
X3303693Y-15152259D01*
X3303693Y-15152259D02*
X3313217Y-15133211D01*
X3313217Y-15133211D02*
X3322741Y-15123688D01*
X3322741Y-15123688D02*
X3341789Y-15114164D01*
X3494170Y-15314164D02*
X3494170Y-15180830D01*
X3494170Y-15199878D02*
X3503693Y-15190354D01*
X3503693Y-15190354D02*
X3522741Y-15180830D01*
X3522741Y-15180830D02*
X3551313Y-15180830D01*
X3551313Y-15180830D02*
X3570360Y-15190354D01*
X3570360Y-15190354D02*
X3579884Y-15209402D01*
X3579884Y-15209402D02*
X3579884Y-15314164D01*
X3579884Y-15209402D02*
X3589408Y-15190354D01*
X3589408Y-15190354D02*
X3608455Y-15180830D01*
X3608455Y-15180830D02*
X3637027Y-15180830D01*
X3637027Y-15180830D02*
X3656074Y-15190354D01*
X3656074Y-15190354D02*
X3665598Y-15209402D01*
X3665598Y-15209402D02*
X3665598Y-15314164D01*
X3760836Y-15314164D02*
X3760836Y-15180830D01*
X3760836Y-15199878D02*
X3770360Y-15190354D01*
X3770360Y-15190354D02*
X3789408Y-15180830D01*
X3789408Y-15180830D02*
X3817979Y-15180830D01*
X3817979Y-15180830D02*
X3837027Y-15190354D01*
X3837027Y-15190354D02*
X3846551Y-15209402D01*
X3846551Y-15209402D02*
X3846551Y-15314164D01*
X3846551Y-15209402D02*
X3856074Y-15190354D01*
X3856074Y-15190354D02*
X3875122Y-15180830D01*
X3875122Y-15180830D02*
X3903693Y-15180830D01*
X3903693Y-15180830D02*
X3922741Y-15190354D01*
X3922741Y-15190354D02*
X3932265Y-15209402D01*
X3932265Y-15209402D02*
X3932265Y-15314164D01*
X4322741Y-15104640D02*
X4151313Y-15361783D01*
X4579884Y-15114164D02*
X4598932Y-15114164D01*
X4598932Y-15114164D02*
X4617979Y-15123688D01*
X4617979Y-15123688D02*
X4627503Y-15133211D01*
X4627503Y-15133211D02*
X4637027Y-15152259D01*
X4637027Y-15152259D02*
X4646551Y-15190354D01*
X4646551Y-15190354D02*
X4646551Y-15237973D01*
X4646551Y-15237973D02*
X4637027Y-15276068D01*
X4637027Y-15276068D02*
X4627503Y-15295116D01*
X4627503Y-15295116D02*
X4617979Y-15304640D01*
X4617979Y-15304640D02*
X4598932Y-15314164D01*
X4598932Y-15314164D02*
X4579884Y-15314164D01*
X4579884Y-15314164D02*
X4560837Y-15304640D01*
X4560837Y-15304640D02*
X4551313Y-15295116D01*
X4551313Y-15295116D02*
X4541789Y-15276068D01*
X4541789Y-15276068D02*
X4532265Y-15237973D01*
X4532265Y-15237973D02*
X4532265Y-15190354D01*
X4532265Y-15190354D02*
X4541789Y-15152259D01*
X4541789Y-15152259D02*
X4551313Y-15133211D01*
X4551313Y-15133211D02*
X4560837Y-15123688D01*
X4560837Y-15123688D02*
X4579884Y-15114164D01*
X4732265Y-15295116D02*
X4741789Y-15304640D01*
X4741789Y-15304640D02*
X4732265Y-15314164D01*
X4732265Y-15314164D02*
X4722741Y-15304640D01*
X4722741Y-15304640D02*
X4732265Y-15295116D01*
X4732265Y-15295116D02*
X4732265Y-15314164D01*
X4932265Y-15314164D02*
X4817979Y-15314164D01*
X4875122Y-15314164D02*
X4875122Y-15114164D01*
X4875122Y-15114164D02*
X4856075Y-15142735D01*
X4856075Y-15142735D02*
X4837027Y-15161783D01*
X4837027Y-15161783D02*
X4817979Y-15171307D01*
X5122741Y-15314164D02*
X5008456Y-15314164D01*
X5065598Y-15314164D02*
X5065598Y-15114164D01*
X5065598Y-15114164D02*
X5046551Y-15142735D01*
X5046551Y-15142735D02*
X5027503Y-15161783D01*
X5027503Y-15161783D02*
X5008456Y-15171307D01*
X5237027Y-15199878D02*
X5217979Y-15190354D01*
X5217979Y-15190354D02*
X5208456Y-15180830D01*
X5208456Y-15180830D02*
X5198932Y-15161783D01*
X5198932Y-15161783D02*
X5198932Y-15152259D01*
X5198932Y-15152259D02*
X5208456Y-15133211D01*
X5208456Y-15133211D02*
X5217979Y-15123688D01*
X5217979Y-15123688D02*
X5237027Y-15114164D01*
X5237027Y-15114164D02*
X5275122Y-15114164D01*
X5275122Y-15114164D02*
X5294170Y-15123688D01*
X5294170Y-15123688D02*
X5303694Y-15133211D01*
X5303694Y-15133211D02*
X5313218Y-15152259D01*
X5313218Y-15152259D02*
X5313218Y-15161783D01*
X5313218Y-15161783D02*
X5303694Y-15180830D01*
X5303694Y-15180830D02*
X5294170Y-15190354D01*
X5294170Y-15190354D02*
X5275122Y-15199878D01*
X5275122Y-15199878D02*
X5237027Y-15199878D01*
X5237027Y-15199878D02*
X5217979Y-15209402D01*
X5217979Y-15209402D02*
X5208456Y-15218926D01*
X5208456Y-15218926D02*
X5198932Y-15237973D01*
X5198932Y-15237973D02*
X5198932Y-15276068D01*
X5198932Y-15276068D02*
X5208456Y-15295116D01*
X5208456Y-15295116D02*
X5217979Y-15304640D01*
X5217979Y-15304640D02*
X5237027Y-15314164D01*
X5237027Y-15314164D02*
X5275122Y-15314164D01*
X5275122Y-15314164D02*
X5294170Y-15304640D01*
X5294170Y-15304640D02*
X5303694Y-15295116D01*
X5303694Y-15295116D02*
X5313218Y-15276068D01*
X5313218Y-15276068D02*
X5313218Y-15237973D01*
X5313218Y-15237973D02*
X5303694Y-15218926D01*
X5303694Y-15218926D02*
X5294170Y-15209402D01*
X5294170Y-15209402D02*
X5275122Y-15199878D01*
X5503694Y-15314164D02*
X5389408Y-15314164D01*
X5446551Y-15314164D02*
X5446551Y-15114164D01*
X5446551Y-15114164D02*
X5427503Y-15142735D01*
X5427503Y-15142735D02*
X5408456Y-15161783D01*
X5408456Y-15161783D02*
X5389408Y-15171307D01*
X5579884Y-15114164D02*
X5579884Y-15152259D01*
X5656075Y-15114164D02*
X5656075Y-15152259D01*
X5951313Y-15390354D02*
X5941789Y-15380830D01*
X5941789Y-15380830D02*
X5922741Y-15352259D01*
X5922741Y-15352259D02*
X5913218Y-15333211D01*
X5913218Y-15333211D02*
X5903694Y-15304640D01*
X5903694Y-15304640D02*
X5894170Y-15257021D01*
X5894170Y-15257021D02*
X5894170Y-15218926D01*
X5894170Y-15218926D02*
X5903694Y-15171307D01*
X5903694Y-15171307D02*
X5913218Y-15142735D01*
X5913218Y-15142735D02*
X5922741Y-15123688D01*
X5922741Y-15123688D02*
X5941789Y-15095116D01*
X5941789Y-15095116D02*
X5951313Y-15085592D01*
X6132265Y-15314164D02*
X6017979Y-15314164D01*
X6075122Y-15314164D02*
X6075122Y-15114164D01*
X6075122Y-15114164D02*
X6056075Y-15142735D01*
X6056075Y-15142735D02*
X6037027Y-15161783D01*
X6037027Y-15161783D02*
X6017979Y-15171307D01*
X6246551Y-15199878D02*
X6227503Y-15190354D01*
X6227503Y-15190354D02*
X6217979Y-15180830D01*
X6217979Y-15180830D02*
X6208456Y-15161783D01*
X6208456Y-15161783D02*
X6208456Y-15152259D01*
X6208456Y-15152259D02*
X6217979Y-15133211D01*
X6217979Y-15133211D02*
X6227503Y-15123688D01*
X6227503Y-15123688D02*
X6246551Y-15114164D01*
X6246551Y-15114164D02*
X6284646Y-15114164D01*
X6284646Y-15114164D02*
X6303694Y-15123688D01*
X6303694Y-15123688D02*
X6313218Y-15133211D01*
X6313218Y-15133211D02*
X6322741Y-15152259D01*
X6322741Y-15152259D02*
X6322741Y-15161783D01*
X6322741Y-15161783D02*
X6313218Y-15180830D01*
X6313218Y-15180830D02*
X6303694Y-15190354D01*
X6303694Y-15190354D02*
X6284646Y-15199878D01*
X6284646Y-15199878D02*
X6246551Y-15199878D01*
X6246551Y-15199878D02*
X6227503Y-15209402D01*
X6227503Y-15209402D02*
X6217979Y-15218926D01*
X6217979Y-15218926D02*
X6208456Y-15237973D01*
X6208456Y-15237973D02*
X6208456Y-15276068D01*
X6208456Y-15276068D02*
X6217979Y-15295116D01*
X6217979Y-15295116D02*
X6227503Y-15304640D01*
X6227503Y-15304640D02*
X6246551Y-15314164D01*
X6246551Y-15314164D02*
X6284646Y-15314164D01*
X6284646Y-15314164D02*
X6303694Y-15304640D01*
X6303694Y-15304640D02*
X6313218Y-15295116D01*
X6313218Y-15295116D02*
X6322741Y-15276068D01*
X6322741Y-15276068D02*
X6322741Y-15237973D01*
X6322741Y-15237973D02*
X6313218Y-15218926D01*
X6313218Y-15218926D02*
X6303694Y-15209402D01*
X6303694Y-15209402D02*
X6284646Y-15199878D01*
X6446551Y-15114164D02*
X6465599Y-15114164D01*
X6465599Y-15114164D02*
X6484646Y-15123688D01*
X6484646Y-15123688D02*
X6494170Y-15133211D01*
X6494170Y-15133211D02*
X6503694Y-15152259D01*
X6503694Y-15152259D02*
X6513218Y-15190354D01*
X6513218Y-15190354D02*
X6513218Y-15237973D01*
X6513218Y-15237973D02*
X6503694Y-15276068D01*
X6503694Y-15276068D02*
X6494170Y-15295116D01*
X6494170Y-15295116D02*
X6484646Y-15304640D01*
X6484646Y-15304640D02*
X6465599Y-15314164D01*
X6465599Y-15314164D02*
X6446551Y-15314164D01*
X6446551Y-15314164D02*
X6427503Y-15304640D01*
X6427503Y-15304640D02*
X6417979Y-15295116D01*
X6417979Y-15295116D02*
X6408456Y-15276068D01*
X6408456Y-15276068D02*
X6398932Y-15237973D01*
X6398932Y-15237973D02*
X6398932Y-15190354D01*
X6398932Y-15190354D02*
X6408456Y-15152259D01*
X6408456Y-15152259D02*
X6417979Y-15133211D01*
X6417979Y-15133211D02*
X6427503Y-15123688D01*
X6427503Y-15123688D02*
X6446551Y-15114164D01*
X6751313Y-15314164D02*
X6751313Y-15114164D01*
X6837027Y-15314164D02*
X6837027Y-15209402D01*
X6837027Y-15209402D02*
X6827503Y-15190354D01*
X6827503Y-15190354D02*
X6808456Y-15180830D01*
X6808456Y-15180830D02*
X6779884Y-15180830D01*
X6779884Y-15180830D02*
X6760837Y-15190354D01*
X6760837Y-15190354D02*
X6751313Y-15199878D01*
X6960837Y-15314164D02*
X6941789Y-15304640D01*
X6941789Y-15304640D02*
X6932265Y-15295116D01*
X6932265Y-15295116D02*
X6922741Y-15276068D01*
X6922741Y-15276068D02*
X6922741Y-15218926D01*
X6922741Y-15218926D02*
X6932265Y-15199878D01*
X6932265Y-15199878D02*
X6941789Y-15190354D01*
X6941789Y-15190354D02*
X6960837Y-15180830D01*
X6960837Y-15180830D02*
X6989408Y-15180830D01*
X6989408Y-15180830D02*
X7008456Y-15190354D01*
X7008456Y-15190354D02*
X7017980Y-15199878D01*
X7017980Y-15199878D02*
X7027503Y-15218926D01*
X7027503Y-15218926D02*
X7027503Y-15276068D01*
X7027503Y-15276068D02*
X7017980Y-15295116D01*
X7017980Y-15295116D02*
X7008456Y-15304640D01*
X7008456Y-15304640D02*
X6989408Y-15314164D01*
X6989408Y-15314164D02*
X6960837Y-15314164D01*
X7141789Y-15314164D02*
X7122741Y-15304640D01*
X7122741Y-15304640D02*
X7113218Y-15285592D01*
X7113218Y-15285592D02*
X7113218Y-15114164D01*
X7294170Y-15304640D02*
X7275122Y-15314164D01*
X7275122Y-15314164D02*
X7237027Y-15314164D01*
X7237027Y-15314164D02*
X7217980Y-15304640D01*
X7217980Y-15304640D02*
X7208456Y-15285592D01*
X7208456Y-15285592D02*
X7208456Y-15209402D01*
X7208456Y-15209402D02*
X7217980Y-15190354D01*
X7217980Y-15190354D02*
X7237027Y-15180830D01*
X7237027Y-15180830D02*
X7275122Y-15180830D01*
X7275122Y-15180830D02*
X7294170Y-15190354D01*
X7294170Y-15190354D02*
X7303694Y-15209402D01*
X7303694Y-15209402D02*
X7303694Y-15228449D01*
X7303694Y-15228449D02*
X7208456Y-15247497D01*
X7379884Y-15304640D02*
X7398932Y-15314164D01*
X7398932Y-15314164D02*
X7437027Y-15314164D01*
X7437027Y-15314164D02*
X7456075Y-15304640D01*
X7456075Y-15304640D02*
X7465599Y-15285592D01*
X7465599Y-15285592D02*
X7465599Y-15276068D01*
X7465599Y-15276068D02*
X7456075Y-15257021D01*
X7456075Y-15257021D02*
X7437027Y-15247497D01*
X7437027Y-15247497D02*
X7408456Y-15247497D01*
X7408456Y-15247497D02*
X7389408Y-15237973D01*
X7389408Y-15237973D02*
X7379884Y-15218926D01*
X7379884Y-15218926D02*
X7379884Y-15209402D01*
X7379884Y-15209402D02*
X7389408Y-15190354D01*
X7389408Y-15190354D02*
X7408456Y-15180830D01*
X7408456Y-15180830D02*
X7437027Y-15180830D01*
X7437027Y-15180830D02*
X7456075Y-15190354D01*
X7532265Y-15390354D02*
X7541789Y-15380830D01*
X7541789Y-15380830D02*
X7560837Y-15352259D01*
X7560837Y-15352259D02*
X7570361Y-15333211D01*
X7570361Y-15333211D02*
X7579884Y-15304640D01*
X7579884Y-15304640D02*
X7589408Y-15257021D01*
X7589408Y-15257021D02*
X7589408Y-15218926D01*
X7589408Y-15218926D02*
X7579884Y-15171307D01*
X7579884Y-15171307D02*
X7570361Y-15142735D01*
X7570361Y-15142735D02*
X7560837Y-15123688D01*
X7560837Y-15123688D02*
X7541789Y-15095116D01*
X7541789Y-15095116D02*
X7532265Y-15085592D01*
X7894170Y-15390354D02*
X7884646Y-15380830D01*
X7884646Y-15380830D02*
X7865599Y-15352259D01*
X7865599Y-15352259D02*
X7856075Y-15333211D01*
X7856075Y-15333211D02*
X7846551Y-15304640D01*
X7846551Y-15304640D02*
X7837027Y-15257021D01*
X7837027Y-15257021D02*
X7837027Y-15218926D01*
X7837027Y-15218926D02*
X7846551Y-15171307D01*
X7846551Y-15171307D02*
X7856075Y-15142735D01*
X7856075Y-15142735D02*
X7865599Y-15123688D01*
X7865599Y-15123688D02*
X7884646Y-15095116D01*
X7884646Y-15095116D02*
X7894170Y-15085592D01*
X7970361Y-15180830D02*
X7970361Y-15314164D01*
X7970361Y-15199878D02*
X7979884Y-15190354D01*
X7979884Y-15190354D02*
X7998932Y-15180830D01*
X7998932Y-15180830D02*
X8027503Y-15180830D01*
X8027503Y-15180830D02*
X8046551Y-15190354D01*
X8046551Y-15190354D02*
X8056075Y-15209402D01*
X8056075Y-15209402D02*
X8056075Y-15314164D01*
X8179884Y-15314164D02*
X8160837Y-15304640D01*
X8160837Y-15304640D02*
X8151313Y-15295116D01*
X8151313Y-15295116D02*
X8141789Y-15276068D01*
X8141789Y-15276068D02*
X8141789Y-15218926D01*
X8141789Y-15218926D02*
X8151313Y-15199878D01*
X8151313Y-15199878D02*
X8160837Y-15190354D01*
X8160837Y-15190354D02*
X8179884Y-15180830D01*
X8179884Y-15180830D02*
X8208456Y-15180830D01*
X8208456Y-15180830D02*
X8227503Y-15190354D01*
X8227503Y-15190354D02*
X8237027Y-15199878D01*
X8237027Y-15199878D02*
X8246551Y-15218926D01*
X8246551Y-15218926D02*
X8246551Y-15276068D01*
X8246551Y-15276068D02*
X8237027Y-15295116D01*
X8237027Y-15295116D02*
X8227503Y-15304640D01*
X8227503Y-15304640D02*
X8208456Y-15314164D01*
X8208456Y-15314164D02*
X8179884Y-15314164D01*
X8303694Y-15180830D02*
X8379884Y-15180830D01*
X8332265Y-15114164D02*
X8332265Y-15285592D01*
X8332265Y-15285592D02*
X8341789Y-15304640D01*
X8341789Y-15304640D02*
X8360837Y-15314164D01*
X8360837Y-15314164D02*
X8379884Y-15314164D01*
X8598932Y-15180830D02*
X8598932Y-15380830D01*
X8598932Y-15190354D02*
X8617980Y-15180830D01*
X8617980Y-15180830D02*
X8656075Y-15180830D01*
X8656075Y-15180830D02*
X8675123Y-15190354D01*
X8675123Y-15190354D02*
X8684646Y-15199878D01*
X8684646Y-15199878D02*
X8694170Y-15218926D01*
X8694170Y-15218926D02*
X8694170Y-15276068D01*
X8694170Y-15276068D02*
X8684646Y-15295116D01*
X8684646Y-15295116D02*
X8675123Y-15304640D01*
X8675123Y-15304640D02*
X8656075Y-15314164D01*
X8656075Y-15314164D02*
X8617980Y-15314164D01*
X8617980Y-15314164D02*
X8598932Y-15304640D01*
X8808456Y-15314164D02*
X8789408Y-15304640D01*
X8789408Y-15304640D02*
X8779885Y-15285592D01*
X8779885Y-15285592D02*
X8779885Y-15114164D01*
X8970361Y-15314164D02*
X8970361Y-15209402D01*
X8970361Y-15209402D02*
X8960837Y-15190354D01*
X8960837Y-15190354D02*
X8941789Y-15180830D01*
X8941789Y-15180830D02*
X8903694Y-15180830D01*
X8903694Y-15180830D02*
X8884646Y-15190354D01*
X8970361Y-15304640D02*
X8951313Y-15314164D01*
X8951313Y-15314164D02*
X8903694Y-15314164D01*
X8903694Y-15314164D02*
X8884646Y-15304640D01*
X8884646Y-15304640D02*
X8875123Y-15285592D01*
X8875123Y-15285592D02*
X8875123Y-15266545D01*
X8875123Y-15266545D02*
X8884646Y-15247497D01*
X8884646Y-15247497D02*
X8903694Y-15237973D01*
X8903694Y-15237973D02*
X8951313Y-15237973D01*
X8951313Y-15237973D02*
X8970361Y-15228449D01*
X9037027Y-15180830D02*
X9113218Y-15180830D01*
X9065599Y-15114164D02*
X9065599Y-15285592D01*
X9065599Y-15285592D02*
X9075123Y-15304640D01*
X9075123Y-15304640D02*
X9094170Y-15314164D01*
X9094170Y-15314164D02*
X9113218Y-15314164D01*
X9256075Y-15304640D02*
X9237027Y-15314164D01*
X9237027Y-15314164D02*
X9198932Y-15314164D01*
X9198932Y-15314164D02*
X9179885Y-15304640D01*
X9179885Y-15304640D02*
X9170361Y-15285592D01*
X9170361Y-15285592D02*
X9170361Y-15209402D01*
X9170361Y-15209402D02*
X9179885Y-15190354D01*
X9179885Y-15190354D02*
X9198932Y-15180830D01*
X9198932Y-15180830D02*
X9237027Y-15180830D01*
X9237027Y-15180830D02*
X9256075Y-15190354D01*
X9256075Y-15190354D02*
X9265599Y-15209402D01*
X9265599Y-15209402D02*
X9265599Y-15228449D01*
X9265599Y-15228449D02*
X9170361Y-15247497D01*
X9437027Y-15314164D02*
X9437027Y-15114164D01*
X9437027Y-15304640D02*
X9417980Y-15314164D01*
X9417980Y-15314164D02*
X9379885Y-15314164D01*
X9379885Y-15314164D02*
X9360837Y-15304640D01*
X9360837Y-15304640D02*
X9351313Y-15295116D01*
X9351313Y-15295116D02*
X9341789Y-15276068D01*
X9341789Y-15276068D02*
X9341789Y-15218926D01*
X9341789Y-15218926D02*
X9351313Y-15199878D01*
X9351313Y-15199878D02*
X9360837Y-15190354D01*
X9360837Y-15190354D02*
X9379885Y-15180830D01*
X9379885Y-15180830D02*
X9417980Y-15180830D01*
X9417980Y-15180830D02*
X9437027Y-15190354D01*
X9513218Y-15390354D02*
X9522742Y-15380830D01*
X9522742Y-15380830D02*
X9541789Y-15352259D01*
X9541789Y-15352259D02*
X9551313Y-15333211D01*
X9551313Y-15333211D02*
X9560837Y-15304640D01*
X9560837Y-15304640D02*
X9570361Y-15257021D01*
X9570361Y-15257021D02*
X9570361Y-15218926D01*
X9570361Y-15218926D02*
X9560837Y-15171307D01*
X9560837Y-15171307D02*
X9551313Y-15142735D01*
X9551313Y-15142735D02*
X9541789Y-15123688D01*
X9541789Y-15123688D02*
X9522742Y-15095116D01*
X9522742Y-15095116D02*
X9513218Y-15085592D01*
X2276250Y-15442680D02*
X2276250Y-15642680D01*
X2176250Y-15542680D02*
X2376250Y-15542680D01*
X2617979Y-15434164D02*
X2741789Y-15434164D01*
X2741789Y-15434164D02*
X2675122Y-15510354D01*
X2675122Y-15510354D02*
X2703694Y-15510354D01*
X2703694Y-15510354D02*
X2722741Y-15519878D01*
X2722741Y-15519878D02*
X2732265Y-15529402D01*
X2732265Y-15529402D02*
X2741789Y-15548449D01*
X2741789Y-15548449D02*
X2741789Y-15596068D01*
X2741789Y-15596068D02*
X2732265Y-15615116D01*
X2732265Y-15615116D02*
X2722741Y-15624640D01*
X2722741Y-15624640D02*
X2703694Y-15634164D01*
X2703694Y-15634164D02*
X2646551Y-15634164D01*
X2646551Y-15634164D02*
X2627503Y-15624640D01*
X2627503Y-15624640D02*
X2617979Y-15615116D01*
X2827503Y-15615116D02*
X2837027Y-15624640D01*
X2837027Y-15624640D02*
X2827503Y-15634164D01*
X2827503Y-15634164D02*
X2817979Y-15624640D01*
X2817979Y-15624640D02*
X2827503Y-15615116D01*
X2827503Y-15615116D02*
X2827503Y-15634164D01*
X2960836Y-15434164D02*
X2979884Y-15434164D01*
X2979884Y-15434164D02*
X2998932Y-15443688D01*
X2998932Y-15443688D02*
X3008455Y-15453211D01*
X3008455Y-15453211D02*
X3017979Y-15472259D01*
X3017979Y-15472259D02*
X3027503Y-15510354D01*
X3027503Y-15510354D02*
X3027503Y-15557973D01*
X3027503Y-15557973D02*
X3017979Y-15596068D01*
X3017979Y-15596068D02*
X3008455Y-15615116D01*
X3008455Y-15615116D02*
X2998932Y-15624640D01*
X2998932Y-15624640D02*
X2979884Y-15634164D01*
X2979884Y-15634164D02*
X2960836Y-15634164D01*
X2960836Y-15634164D02*
X2941789Y-15624640D01*
X2941789Y-15624640D02*
X2932265Y-15615116D01*
X2932265Y-15615116D02*
X2922741Y-15596068D01*
X2922741Y-15596068D02*
X2913217Y-15557973D01*
X2913217Y-15557973D02*
X2913217Y-15510354D01*
X2913217Y-15510354D02*
X2922741Y-15472259D01*
X2922741Y-15472259D02*
X2932265Y-15453211D01*
X2932265Y-15453211D02*
X2941789Y-15443688D01*
X2941789Y-15443688D02*
X2960836Y-15434164D01*
X3198932Y-15500830D02*
X3198932Y-15634164D01*
X3151312Y-15424640D02*
X3103693Y-15567497D01*
X3103693Y-15567497D02*
X3227503Y-15567497D01*
X3332265Y-15519878D02*
X3313217Y-15510354D01*
X3313217Y-15510354D02*
X3303693Y-15500830D01*
X3303693Y-15500830D02*
X3294170Y-15481783D01*
X3294170Y-15481783D02*
X3294170Y-15472259D01*
X3294170Y-15472259D02*
X3303693Y-15453211D01*
X3303693Y-15453211D02*
X3313217Y-15443688D01*
X3313217Y-15443688D02*
X3332265Y-15434164D01*
X3332265Y-15434164D02*
X3370360Y-15434164D01*
X3370360Y-15434164D02*
X3389408Y-15443688D01*
X3389408Y-15443688D02*
X3398932Y-15453211D01*
X3398932Y-15453211D02*
X3408455Y-15472259D01*
X3408455Y-15472259D02*
X3408455Y-15481783D01*
X3408455Y-15481783D02*
X3398932Y-15500830D01*
X3398932Y-15500830D02*
X3389408Y-15510354D01*
X3389408Y-15510354D02*
X3370360Y-15519878D01*
X3370360Y-15519878D02*
X3332265Y-15519878D01*
X3332265Y-15519878D02*
X3313217Y-15529402D01*
X3313217Y-15529402D02*
X3303693Y-15538926D01*
X3303693Y-15538926D02*
X3294170Y-15557973D01*
X3294170Y-15557973D02*
X3294170Y-15596068D01*
X3294170Y-15596068D02*
X3303693Y-15615116D01*
X3303693Y-15615116D02*
X3313217Y-15624640D01*
X3313217Y-15624640D02*
X3332265Y-15634164D01*
X3332265Y-15634164D02*
X3370360Y-15634164D01*
X3370360Y-15634164D02*
X3389408Y-15624640D01*
X3389408Y-15624640D02*
X3398932Y-15615116D01*
X3398932Y-15615116D02*
X3408455Y-15596068D01*
X3408455Y-15596068D02*
X3408455Y-15557973D01*
X3408455Y-15557973D02*
X3398932Y-15538926D01*
X3398932Y-15538926D02*
X3389408Y-15529402D01*
X3389408Y-15529402D02*
X3370360Y-15519878D01*
X3494170Y-15634164D02*
X3494170Y-15500830D01*
X3494170Y-15519878D02*
X3503693Y-15510354D01*
X3503693Y-15510354D02*
X3522741Y-15500830D01*
X3522741Y-15500830D02*
X3551313Y-15500830D01*
X3551313Y-15500830D02*
X3570360Y-15510354D01*
X3570360Y-15510354D02*
X3579884Y-15529402D01*
X3579884Y-15529402D02*
X3579884Y-15634164D01*
X3579884Y-15529402D02*
X3589408Y-15510354D01*
X3589408Y-15510354D02*
X3608455Y-15500830D01*
X3608455Y-15500830D02*
X3637027Y-15500830D01*
X3637027Y-15500830D02*
X3656074Y-15510354D01*
X3656074Y-15510354D02*
X3665598Y-15529402D01*
X3665598Y-15529402D02*
X3665598Y-15634164D01*
X3760836Y-15634164D02*
X3760836Y-15500830D01*
X3760836Y-15519878D02*
X3770360Y-15510354D01*
X3770360Y-15510354D02*
X3789408Y-15500830D01*
X3789408Y-15500830D02*
X3817979Y-15500830D01*
X3817979Y-15500830D02*
X3837027Y-15510354D01*
X3837027Y-15510354D02*
X3846551Y-15529402D01*
X3846551Y-15529402D02*
X3846551Y-15634164D01*
X3846551Y-15529402D02*
X3856074Y-15510354D01*
X3856074Y-15510354D02*
X3875122Y-15500830D01*
X3875122Y-15500830D02*
X3903693Y-15500830D01*
X3903693Y-15500830D02*
X3922741Y-15510354D01*
X3922741Y-15510354D02*
X3932265Y-15529402D01*
X3932265Y-15529402D02*
X3932265Y-15634164D01*
X4322741Y-15424640D02*
X4151313Y-15681783D01*
X4579884Y-15434164D02*
X4598932Y-15434164D01*
X4598932Y-15434164D02*
X4617979Y-15443688D01*
X4617979Y-15443688D02*
X4627503Y-15453211D01*
X4627503Y-15453211D02*
X4637027Y-15472259D01*
X4637027Y-15472259D02*
X4646551Y-15510354D01*
X4646551Y-15510354D02*
X4646551Y-15557973D01*
X4646551Y-15557973D02*
X4637027Y-15596068D01*
X4637027Y-15596068D02*
X4627503Y-15615116D01*
X4627503Y-15615116D02*
X4617979Y-15624640D01*
X4617979Y-15624640D02*
X4598932Y-15634164D01*
X4598932Y-15634164D02*
X4579884Y-15634164D01*
X4579884Y-15634164D02*
X4560837Y-15624640D01*
X4560837Y-15624640D02*
X4551313Y-15615116D01*
X4551313Y-15615116D02*
X4541789Y-15596068D01*
X4541789Y-15596068D02*
X4532265Y-15557973D01*
X4532265Y-15557973D02*
X4532265Y-15510354D01*
X4532265Y-15510354D02*
X4541789Y-15472259D01*
X4541789Y-15472259D02*
X4551313Y-15453211D01*
X4551313Y-15453211D02*
X4560837Y-15443688D01*
X4560837Y-15443688D02*
X4579884Y-15434164D01*
X4732265Y-15615116D02*
X4741789Y-15624640D01*
X4741789Y-15624640D02*
X4732265Y-15634164D01*
X4732265Y-15634164D02*
X4722741Y-15624640D01*
X4722741Y-15624640D02*
X4732265Y-15615116D01*
X4732265Y-15615116D02*
X4732265Y-15634164D01*
X4932265Y-15634164D02*
X4817979Y-15634164D01*
X4875122Y-15634164D02*
X4875122Y-15434164D01*
X4875122Y-15434164D02*
X4856075Y-15462735D01*
X4856075Y-15462735D02*
X4837027Y-15481783D01*
X4837027Y-15481783D02*
X4817979Y-15491307D01*
X5008456Y-15453211D02*
X5017979Y-15443688D01*
X5017979Y-15443688D02*
X5037027Y-15434164D01*
X5037027Y-15434164D02*
X5084646Y-15434164D01*
X5084646Y-15434164D02*
X5103694Y-15443688D01*
X5103694Y-15443688D02*
X5113218Y-15453211D01*
X5113218Y-15453211D02*
X5122741Y-15472259D01*
X5122741Y-15472259D02*
X5122741Y-15491307D01*
X5122741Y-15491307D02*
X5113218Y-15519878D01*
X5113218Y-15519878D02*
X4998932Y-15634164D01*
X4998932Y-15634164D02*
X5122741Y-15634164D01*
X5246551Y-15434164D02*
X5265599Y-15434164D01*
X5265599Y-15434164D02*
X5284646Y-15443688D01*
X5284646Y-15443688D02*
X5294170Y-15453211D01*
X5294170Y-15453211D02*
X5303694Y-15472259D01*
X5303694Y-15472259D02*
X5313218Y-15510354D01*
X5313218Y-15510354D02*
X5313218Y-15557973D01*
X5313218Y-15557973D02*
X5303694Y-15596068D01*
X5303694Y-15596068D02*
X5294170Y-15615116D01*
X5294170Y-15615116D02*
X5284646Y-15624640D01*
X5284646Y-15624640D02*
X5265599Y-15634164D01*
X5265599Y-15634164D02*
X5246551Y-15634164D01*
X5246551Y-15634164D02*
X5227503Y-15624640D01*
X5227503Y-15624640D02*
X5217979Y-15615116D01*
X5217979Y-15615116D02*
X5208456Y-15596068D01*
X5208456Y-15596068D02*
X5198932Y-15557973D01*
X5198932Y-15557973D02*
X5198932Y-15510354D01*
X5198932Y-15510354D02*
X5208456Y-15472259D01*
X5208456Y-15472259D02*
X5217979Y-15453211D01*
X5217979Y-15453211D02*
X5227503Y-15443688D01*
X5227503Y-15443688D02*
X5246551Y-15434164D01*
X5437027Y-15434164D02*
X5456075Y-15434164D01*
X5456075Y-15434164D02*
X5475122Y-15443688D01*
X5475122Y-15443688D02*
X5484646Y-15453211D01*
X5484646Y-15453211D02*
X5494170Y-15472259D01*
X5494170Y-15472259D02*
X5503694Y-15510354D01*
X5503694Y-15510354D02*
X5503694Y-15557973D01*
X5503694Y-15557973D02*
X5494170Y-15596068D01*
X5494170Y-15596068D02*
X5484646Y-15615116D01*
X5484646Y-15615116D02*
X5475122Y-15624640D01*
X5475122Y-15624640D02*
X5456075Y-15634164D01*
X5456075Y-15634164D02*
X5437027Y-15634164D01*
X5437027Y-15634164D02*
X5417979Y-15624640D01*
X5417979Y-15624640D02*
X5408456Y-15615116D01*
X5408456Y-15615116D02*
X5398932Y-15596068D01*
X5398932Y-15596068D02*
X5389408Y-15557973D01*
X5389408Y-15557973D02*
X5389408Y-15510354D01*
X5389408Y-15510354D02*
X5398932Y-15472259D01*
X5398932Y-15472259D02*
X5408456Y-15453211D01*
X5408456Y-15453211D02*
X5417979Y-15443688D01*
X5417979Y-15443688D02*
X5437027Y-15434164D01*
X5579884Y-15434164D02*
X5579884Y-15472259D01*
X5656075Y-15434164D02*
X5656075Y-15472259D01*
X5951313Y-15710354D02*
X5941789Y-15700830D01*
X5941789Y-15700830D02*
X5922741Y-15672259D01*
X5922741Y-15672259D02*
X5913218Y-15653211D01*
X5913218Y-15653211D02*
X5903694Y-15624640D01*
X5903694Y-15624640D02*
X5894170Y-15577021D01*
X5894170Y-15577021D02*
X5894170Y-15538926D01*
X5894170Y-15538926D02*
X5903694Y-15491307D01*
X5903694Y-15491307D02*
X5913218Y-15462735D01*
X5913218Y-15462735D02*
X5922741Y-15443688D01*
X5922741Y-15443688D02*
X5941789Y-15415116D01*
X5941789Y-15415116D02*
X5951313Y-15405592D01*
X6132265Y-15634164D02*
X6017979Y-15634164D01*
X6075122Y-15634164D02*
X6075122Y-15434164D01*
X6075122Y-15434164D02*
X6056075Y-15462735D01*
X6056075Y-15462735D02*
X6037027Y-15481783D01*
X6037027Y-15481783D02*
X6017979Y-15491307D01*
X6208456Y-15453211D02*
X6217979Y-15443688D01*
X6217979Y-15443688D02*
X6237027Y-15434164D01*
X6237027Y-15434164D02*
X6284646Y-15434164D01*
X6284646Y-15434164D02*
X6303694Y-15443688D01*
X6303694Y-15443688D02*
X6313218Y-15453211D01*
X6313218Y-15453211D02*
X6322741Y-15472259D01*
X6322741Y-15472259D02*
X6322741Y-15491307D01*
X6322741Y-15491307D02*
X6313218Y-15519878D01*
X6313218Y-15519878D02*
X6198932Y-15634164D01*
X6198932Y-15634164D02*
X6322741Y-15634164D01*
X6560837Y-15634164D02*
X6560837Y-15434164D01*
X6646551Y-15634164D02*
X6646551Y-15529402D01*
X6646551Y-15529402D02*
X6637027Y-15510354D01*
X6637027Y-15510354D02*
X6617980Y-15500830D01*
X6617980Y-15500830D02*
X6589408Y-15500830D01*
X6589408Y-15500830D02*
X6570360Y-15510354D01*
X6570360Y-15510354D02*
X6560837Y-15519878D01*
X6770360Y-15634164D02*
X6751313Y-15624640D01*
X6751313Y-15624640D02*
X6741789Y-15615116D01*
X6741789Y-15615116D02*
X6732265Y-15596068D01*
X6732265Y-15596068D02*
X6732265Y-15538926D01*
X6732265Y-15538926D02*
X6741789Y-15519878D01*
X6741789Y-15519878D02*
X6751313Y-15510354D01*
X6751313Y-15510354D02*
X6770360Y-15500830D01*
X6770360Y-15500830D02*
X6798932Y-15500830D01*
X6798932Y-15500830D02*
X6817980Y-15510354D01*
X6817980Y-15510354D02*
X6827503Y-15519878D01*
X6827503Y-15519878D02*
X6837027Y-15538926D01*
X6837027Y-15538926D02*
X6837027Y-15596068D01*
X6837027Y-15596068D02*
X6827503Y-15615116D01*
X6827503Y-15615116D02*
X6817980Y-15624640D01*
X6817980Y-15624640D02*
X6798932Y-15634164D01*
X6798932Y-15634164D02*
X6770360Y-15634164D01*
X6951313Y-15634164D02*
X6932265Y-15624640D01*
X6932265Y-15624640D02*
X6922741Y-15605592D01*
X6922741Y-15605592D02*
X6922741Y-15434164D01*
X7103694Y-15624640D02*
X7084646Y-15634164D01*
X7084646Y-15634164D02*
X7046551Y-15634164D01*
X7046551Y-15634164D02*
X7027503Y-15624640D01*
X7027503Y-15624640D02*
X7017980Y-15605592D01*
X7017980Y-15605592D02*
X7017980Y-15529402D01*
X7017980Y-15529402D02*
X7027503Y-15510354D01*
X7027503Y-15510354D02*
X7046551Y-15500830D01*
X7046551Y-15500830D02*
X7084646Y-15500830D01*
X7084646Y-15500830D02*
X7103694Y-15510354D01*
X7103694Y-15510354D02*
X7113218Y-15529402D01*
X7113218Y-15529402D02*
X7113218Y-15548449D01*
X7113218Y-15548449D02*
X7017980Y-15567497D01*
X7189408Y-15624640D02*
X7208456Y-15634164D01*
X7208456Y-15634164D02*
X7246551Y-15634164D01*
X7246551Y-15634164D02*
X7265599Y-15624640D01*
X7265599Y-15624640D02*
X7275122Y-15605592D01*
X7275122Y-15605592D02*
X7275122Y-15596068D01*
X7275122Y-15596068D02*
X7265599Y-15577021D01*
X7265599Y-15577021D02*
X7246551Y-15567497D01*
X7246551Y-15567497D02*
X7217980Y-15567497D01*
X7217980Y-15567497D02*
X7198932Y-15557973D01*
X7198932Y-15557973D02*
X7189408Y-15538926D01*
X7189408Y-15538926D02*
X7189408Y-15529402D01*
X7189408Y-15529402D02*
X7198932Y-15510354D01*
X7198932Y-15510354D02*
X7217980Y-15500830D01*
X7217980Y-15500830D02*
X7246551Y-15500830D01*
X7246551Y-15500830D02*
X7265599Y-15510354D01*
X7341789Y-15710354D02*
X7351313Y-15700830D01*
X7351313Y-15700830D02*
X7370361Y-15672259D01*
X7370361Y-15672259D02*
X7379884Y-15653211D01*
X7379884Y-15653211D02*
X7389408Y-15624640D01*
X7389408Y-15624640D02*
X7398932Y-15577021D01*
X7398932Y-15577021D02*
X7398932Y-15538926D01*
X7398932Y-15538926D02*
X7389408Y-15491307D01*
X7389408Y-15491307D02*
X7379884Y-15462735D01*
X7379884Y-15462735D02*
X7370361Y-15443688D01*
X7370361Y-15443688D02*
X7351313Y-15415116D01*
X7351313Y-15415116D02*
X7341789Y-15405592D01*
X7703694Y-15710354D02*
X7694170Y-15700830D01*
X7694170Y-15700830D02*
X7675122Y-15672259D01*
X7675122Y-15672259D02*
X7665599Y-15653211D01*
X7665599Y-15653211D02*
X7656075Y-15624640D01*
X7656075Y-15624640D02*
X7646551Y-15577021D01*
X7646551Y-15577021D02*
X7646551Y-15538926D01*
X7646551Y-15538926D02*
X7656075Y-15491307D01*
X7656075Y-15491307D02*
X7665599Y-15462735D01*
X7665599Y-15462735D02*
X7675122Y-15443688D01*
X7675122Y-15443688D02*
X7694170Y-15415116D01*
X7694170Y-15415116D02*
X7703694Y-15405592D01*
X7779884Y-15500830D02*
X7779884Y-15634164D01*
X7779884Y-15519878D02*
X7789408Y-15510354D01*
X7789408Y-15510354D02*
X7808456Y-15500830D01*
X7808456Y-15500830D02*
X7837027Y-15500830D01*
X7837027Y-15500830D02*
X7856075Y-15510354D01*
X7856075Y-15510354D02*
X7865599Y-15529402D01*
X7865599Y-15529402D02*
X7865599Y-15634164D01*
X7989408Y-15634164D02*
X7970361Y-15624640D01*
X7970361Y-15624640D02*
X7960837Y-15615116D01*
X7960837Y-15615116D02*
X7951313Y-15596068D01*
X7951313Y-15596068D02*
X7951313Y-15538926D01*
X7951313Y-15538926D02*
X7960837Y-15519878D01*
X7960837Y-15519878D02*
X7970361Y-15510354D01*
X7970361Y-15510354D02*
X7989408Y-15500830D01*
X7989408Y-15500830D02*
X8017980Y-15500830D01*
X8017980Y-15500830D02*
X8037027Y-15510354D01*
X8037027Y-15510354D02*
X8046551Y-15519878D01*
X8046551Y-15519878D02*
X8056075Y-15538926D01*
X8056075Y-15538926D02*
X8056075Y-15596068D01*
X8056075Y-15596068D02*
X8046551Y-15615116D01*
X8046551Y-15615116D02*
X8037027Y-15624640D01*
X8037027Y-15624640D02*
X8017980Y-15634164D01*
X8017980Y-15634164D02*
X7989408Y-15634164D01*
X8113218Y-15500830D02*
X8189408Y-15500830D01*
X8141789Y-15434164D02*
X8141789Y-15605592D01*
X8141789Y-15605592D02*
X8151313Y-15624640D01*
X8151313Y-15624640D02*
X8170361Y-15634164D01*
X8170361Y-15634164D02*
X8189408Y-15634164D01*
X8408456Y-15500830D02*
X8408456Y-15700830D01*
X8408456Y-15510354D02*
X8427504Y-15500830D01*
X8427504Y-15500830D02*
X8465599Y-15500830D01*
X8465599Y-15500830D02*
X8484646Y-15510354D01*
X8484646Y-15510354D02*
X8494170Y-15519878D01*
X8494170Y-15519878D02*
X8503694Y-15538926D01*
X8503694Y-15538926D02*
X8503694Y-15596068D01*
X8503694Y-15596068D02*
X8494170Y-15615116D01*
X8494170Y-15615116D02*
X8484646Y-15624640D01*
X8484646Y-15624640D02*
X8465599Y-15634164D01*
X8465599Y-15634164D02*
X8427504Y-15634164D01*
X8427504Y-15634164D02*
X8408456Y-15624640D01*
X8617980Y-15634164D02*
X8598932Y-15624640D01*
X8598932Y-15624640D02*
X8589408Y-15605592D01*
X8589408Y-15605592D02*
X8589408Y-15434164D01*
X8779885Y-15634164D02*
X8779885Y-15529402D01*
X8779885Y-15529402D02*
X8770361Y-15510354D01*
X8770361Y-15510354D02*
X8751313Y-15500830D01*
X8751313Y-15500830D02*
X8713218Y-15500830D01*
X8713218Y-15500830D02*
X8694170Y-15510354D01*
X8779885Y-15624640D02*
X8760837Y-15634164D01*
X8760837Y-15634164D02*
X8713218Y-15634164D01*
X8713218Y-15634164D02*
X8694170Y-15624640D01*
X8694170Y-15624640D02*
X8684646Y-15605592D01*
X8684646Y-15605592D02*
X8684646Y-15586545D01*
X8684646Y-15586545D02*
X8694170Y-15567497D01*
X8694170Y-15567497D02*
X8713218Y-15557973D01*
X8713218Y-15557973D02*
X8760837Y-15557973D01*
X8760837Y-15557973D02*
X8779885Y-15548449D01*
X8846551Y-15500830D02*
X8922742Y-15500830D01*
X8875123Y-15434164D02*
X8875123Y-15605592D01*
X8875123Y-15605592D02*
X8884646Y-15624640D01*
X8884646Y-15624640D02*
X8903694Y-15634164D01*
X8903694Y-15634164D02*
X8922742Y-15634164D01*
X9065599Y-15624640D02*
X9046551Y-15634164D01*
X9046551Y-15634164D02*
X9008456Y-15634164D01*
X9008456Y-15634164D02*
X8989408Y-15624640D01*
X8989408Y-15624640D02*
X8979885Y-15605592D01*
X8979885Y-15605592D02*
X8979885Y-15529402D01*
X8979885Y-15529402D02*
X8989408Y-15510354D01*
X8989408Y-15510354D02*
X9008456Y-15500830D01*
X9008456Y-15500830D02*
X9046551Y-15500830D01*
X9046551Y-15500830D02*
X9065599Y-15510354D01*
X9065599Y-15510354D02*
X9075123Y-15529402D01*
X9075123Y-15529402D02*
X9075123Y-15548449D01*
X9075123Y-15548449D02*
X8979885Y-15567497D01*
X9246551Y-15634164D02*
X9246551Y-15434164D01*
X9246551Y-15624640D02*
X9227504Y-15634164D01*
X9227504Y-15634164D02*
X9189408Y-15634164D01*
X9189408Y-15634164D02*
X9170361Y-15624640D01*
X9170361Y-15624640D02*
X9160837Y-15615116D01*
X9160837Y-15615116D02*
X9151313Y-15596068D01*
X9151313Y-15596068D02*
X9151313Y-15538926D01*
X9151313Y-15538926D02*
X9160837Y-15519878D01*
X9160837Y-15519878D02*
X9170361Y-15510354D01*
X9170361Y-15510354D02*
X9189408Y-15500830D01*
X9189408Y-15500830D02*
X9227504Y-15500830D01*
X9227504Y-15500830D02*
X9246551Y-15510354D01*
X9322742Y-15710354D02*
X9332266Y-15700830D01*
X9332266Y-15700830D02*
X9351313Y-15672259D01*
X9351313Y-15672259D02*
X9360837Y-15653211D01*
X9360837Y-15653211D02*
X9370361Y-15624640D01*
X9370361Y-15624640D02*
X9379885Y-15577021D01*
X9379885Y-15577021D02*
X9379885Y-15538926D01*
X9379885Y-15538926D02*
X9370361Y-15491307D01*
X9370361Y-15491307D02*
X9360837Y-15462735D01*
X9360837Y-15462735D02*
X9351313Y-15443688D01*
X9351313Y-15443688D02*
X9332266Y-15415116D01*
X9332266Y-15415116D02*
X9322742Y-15405592D01*
X2346961Y-15933391D02*
X2346961Y-15791969D01*
X2205539Y-15791969D01*
X2205539Y-15933391D01*
X2346961Y-15933391D01*
X2617979Y-15754164D02*
X2741789Y-15754164D01*
X2741789Y-15754164D02*
X2675122Y-15830354D01*
X2675122Y-15830354D02*
X2703694Y-15830354D01*
X2703694Y-15830354D02*
X2722741Y-15839878D01*
X2722741Y-15839878D02*
X2732265Y-15849402D01*
X2732265Y-15849402D02*
X2741789Y-15868449D01*
X2741789Y-15868449D02*
X2741789Y-15916068D01*
X2741789Y-15916068D02*
X2732265Y-15935116D01*
X2732265Y-15935116D02*
X2722741Y-15944640D01*
X2722741Y-15944640D02*
X2703694Y-15954164D01*
X2703694Y-15954164D02*
X2646551Y-15954164D01*
X2646551Y-15954164D02*
X2627503Y-15944640D01*
X2627503Y-15944640D02*
X2617979Y-15935116D01*
X2827503Y-15935116D02*
X2837027Y-15944640D01*
X2837027Y-15944640D02*
X2827503Y-15954164D01*
X2827503Y-15954164D02*
X2817979Y-15944640D01*
X2817979Y-15944640D02*
X2827503Y-15935116D01*
X2827503Y-15935116D02*
X2827503Y-15954164D01*
X2932265Y-15954164D02*
X2970360Y-15954164D01*
X2970360Y-15954164D02*
X2989408Y-15944640D01*
X2989408Y-15944640D02*
X2998932Y-15935116D01*
X2998932Y-15935116D02*
X3017979Y-15906545D01*
X3017979Y-15906545D02*
X3027503Y-15868449D01*
X3027503Y-15868449D02*
X3027503Y-15792259D01*
X3027503Y-15792259D02*
X3017979Y-15773211D01*
X3017979Y-15773211D02*
X3008455Y-15763688D01*
X3008455Y-15763688D02*
X2989408Y-15754164D01*
X2989408Y-15754164D02*
X2951312Y-15754164D01*
X2951312Y-15754164D02*
X2932265Y-15763688D01*
X2932265Y-15763688D02*
X2922741Y-15773211D01*
X2922741Y-15773211D02*
X2913217Y-15792259D01*
X2913217Y-15792259D02*
X2913217Y-15839878D01*
X2913217Y-15839878D02*
X2922741Y-15858926D01*
X2922741Y-15858926D02*
X2932265Y-15868449D01*
X2932265Y-15868449D02*
X2951312Y-15877973D01*
X2951312Y-15877973D02*
X2989408Y-15877973D01*
X2989408Y-15877973D02*
X3008455Y-15868449D01*
X3008455Y-15868449D02*
X3017979Y-15858926D01*
X3017979Y-15858926D02*
X3027503Y-15839878D01*
X3141789Y-15839878D02*
X3122741Y-15830354D01*
X3122741Y-15830354D02*
X3113217Y-15820830D01*
X3113217Y-15820830D02*
X3103693Y-15801783D01*
X3103693Y-15801783D02*
X3103693Y-15792259D01*
X3103693Y-15792259D02*
X3113217Y-15773211D01*
X3113217Y-15773211D02*
X3122741Y-15763688D01*
X3122741Y-15763688D02*
X3141789Y-15754164D01*
X3141789Y-15754164D02*
X3179884Y-15754164D01*
X3179884Y-15754164D02*
X3198932Y-15763688D01*
X3198932Y-15763688D02*
X3208455Y-15773211D01*
X3208455Y-15773211D02*
X3217979Y-15792259D01*
X3217979Y-15792259D02*
X3217979Y-15801783D01*
X3217979Y-15801783D02*
X3208455Y-15820830D01*
X3208455Y-15820830D02*
X3198932Y-15830354D01*
X3198932Y-15830354D02*
X3179884Y-15839878D01*
X3179884Y-15839878D02*
X3141789Y-15839878D01*
X3141789Y-15839878D02*
X3122741Y-15849402D01*
X3122741Y-15849402D02*
X3113217Y-15858926D01*
X3113217Y-15858926D02*
X3103693Y-15877973D01*
X3103693Y-15877973D02*
X3103693Y-15916068D01*
X3103693Y-15916068D02*
X3113217Y-15935116D01*
X3113217Y-15935116D02*
X3122741Y-15944640D01*
X3122741Y-15944640D02*
X3141789Y-15954164D01*
X3141789Y-15954164D02*
X3179884Y-15954164D01*
X3179884Y-15954164D02*
X3198932Y-15944640D01*
X3198932Y-15944640D02*
X3208455Y-15935116D01*
X3208455Y-15935116D02*
X3217979Y-15916068D01*
X3217979Y-15916068D02*
X3217979Y-15877973D01*
X3217979Y-15877973D02*
X3208455Y-15858926D01*
X3208455Y-15858926D02*
X3198932Y-15849402D01*
X3198932Y-15849402D02*
X3179884Y-15839878D01*
X3332265Y-15839878D02*
X3313217Y-15830354D01*
X3313217Y-15830354D02*
X3303693Y-15820830D01*
X3303693Y-15820830D02*
X3294170Y-15801783D01*
X3294170Y-15801783D02*
X3294170Y-15792259D01*
X3294170Y-15792259D02*
X3303693Y-15773211D01*
X3303693Y-15773211D02*
X3313217Y-15763688D01*
X3313217Y-15763688D02*
X3332265Y-15754164D01*
X3332265Y-15754164D02*
X3370360Y-15754164D01*
X3370360Y-15754164D02*
X3389408Y-15763688D01*
X3389408Y-15763688D02*
X3398932Y-15773211D01*
X3398932Y-15773211D02*
X3408455Y-15792259D01*
X3408455Y-15792259D02*
X3408455Y-15801783D01*
X3408455Y-15801783D02*
X3398932Y-15820830D01*
X3398932Y-15820830D02*
X3389408Y-15830354D01*
X3389408Y-15830354D02*
X3370360Y-15839878D01*
X3370360Y-15839878D02*
X3332265Y-15839878D01*
X3332265Y-15839878D02*
X3313217Y-15849402D01*
X3313217Y-15849402D02*
X3303693Y-15858926D01*
X3303693Y-15858926D02*
X3294170Y-15877973D01*
X3294170Y-15877973D02*
X3294170Y-15916068D01*
X3294170Y-15916068D02*
X3303693Y-15935116D01*
X3303693Y-15935116D02*
X3313217Y-15944640D01*
X3313217Y-15944640D02*
X3332265Y-15954164D01*
X3332265Y-15954164D02*
X3370360Y-15954164D01*
X3370360Y-15954164D02*
X3389408Y-15944640D01*
X3389408Y-15944640D02*
X3398932Y-15935116D01*
X3398932Y-15935116D02*
X3408455Y-15916068D01*
X3408455Y-15916068D02*
X3408455Y-15877973D01*
X3408455Y-15877973D02*
X3398932Y-15858926D01*
X3398932Y-15858926D02*
X3389408Y-15849402D01*
X3389408Y-15849402D02*
X3370360Y-15839878D01*
X3494170Y-15954164D02*
X3494170Y-15820830D01*
X3494170Y-15839878D02*
X3503693Y-15830354D01*
X3503693Y-15830354D02*
X3522741Y-15820830D01*
X3522741Y-15820830D02*
X3551313Y-15820830D01*
X3551313Y-15820830D02*
X3570360Y-15830354D01*
X3570360Y-15830354D02*
X3579884Y-15849402D01*
X3579884Y-15849402D02*
X3579884Y-15954164D01*
X3579884Y-15849402D02*
X3589408Y-15830354D01*
X3589408Y-15830354D02*
X3608455Y-15820830D01*
X3608455Y-15820830D02*
X3637027Y-15820830D01*
X3637027Y-15820830D02*
X3656074Y-15830354D01*
X3656074Y-15830354D02*
X3665598Y-15849402D01*
X3665598Y-15849402D02*
X3665598Y-15954164D01*
X3760836Y-15954164D02*
X3760836Y-15820830D01*
X3760836Y-15839878D02*
X3770360Y-15830354D01*
X3770360Y-15830354D02*
X3789408Y-15820830D01*
X3789408Y-15820830D02*
X3817979Y-15820830D01*
X3817979Y-15820830D02*
X3837027Y-15830354D01*
X3837027Y-15830354D02*
X3846551Y-15849402D01*
X3846551Y-15849402D02*
X3846551Y-15954164D01*
X3846551Y-15849402D02*
X3856074Y-15830354D01*
X3856074Y-15830354D02*
X3875122Y-15820830D01*
X3875122Y-15820830D02*
X3903693Y-15820830D01*
X3903693Y-15820830D02*
X3922741Y-15830354D01*
X3922741Y-15830354D02*
X3932265Y-15849402D01*
X3932265Y-15849402D02*
X3932265Y-15954164D01*
X4322741Y-15744640D02*
X4151313Y-16001783D01*
X4579884Y-15754164D02*
X4598932Y-15754164D01*
X4598932Y-15754164D02*
X4617979Y-15763688D01*
X4617979Y-15763688D02*
X4627503Y-15773211D01*
X4627503Y-15773211D02*
X4637027Y-15792259D01*
X4637027Y-15792259D02*
X4646551Y-15830354D01*
X4646551Y-15830354D02*
X4646551Y-15877973D01*
X4646551Y-15877973D02*
X4637027Y-15916068D01*
X4637027Y-15916068D02*
X4627503Y-15935116D01*
X4627503Y-15935116D02*
X4617979Y-15944640D01*
X4617979Y-15944640D02*
X4598932Y-15954164D01*
X4598932Y-15954164D02*
X4579884Y-15954164D01*
X4579884Y-15954164D02*
X4560837Y-15944640D01*
X4560837Y-15944640D02*
X4551313Y-15935116D01*
X4551313Y-15935116D02*
X4541789Y-15916068D01*
X4541789Y-15916068D02*
X4532265Y-15877973D01*
X4532265Y-15877973D02*
X4532265Y-15830354D01*
X4532265Y-15830354D02*
X4541789Y-15792259D01*
X4541789Y-15792259D02*
X4551313Y-15773211D01*
X4551313Y-15773211D02*
X4560837Y-15763688D01*
X4560837Y-15763688D02*
X4579884Y-15754164D01*
X4732265Y-15935116D02*
X4741789Y-15944640D01*
X4741789Y-15944640D02*
X4732265Y-15954164D01*
X4732265Y-15954164D02*
X4722741Y-15944640D01*
X4722741Y-15944640D02*
X4732265Y-15935116D01*
X4732265Y-15935116D02*
X4732265Y-15954164D01*
X4932265Y-15954164D02*
X4817979Y-15954164D01*
X4875122Y-15954164D02*
X4875122Y-15754164D01*
X4875122Y-15754164D02*
X4856075Y-15782735D01*
X4856075Y-15782735D02*
X4837027Y-15801783D01*
X4837027Y-15801783D02*
X4817979Y-15811307D01*
X5113218Y-15754164D02*
X5017979Y-15754164D01*
X5017979Y-15754164D02*
X5008456Y-15849402D01*
X5008456Y-15849402D02*
X5017979Y-15839878D01*
X5017979Y-15839878D02*
X5037027Y-15830354D01*
X5037027Y-15830354D02*
X5084646Y-15830354D01*
X5084646Y-15830354D02*
X5103694Y-15839878D01*
X5103694Y-15839878D02*
X5113218Y-15849402D01*
X5113218Y-15849402D02*
X5122741Y-15868449D01*
X5122741Y-15868449D02*
X5122741Y-15916068D01*
X5122741Y-15916068D02*
X5113218Y-15935116D01*
X5113218Y-15935116D02*
X5103694Y-15944640D01*
X5103694Y-15944640D02*
X5084646Y-15954164D01*
X5084646Y-15954164D02*
X5037027Y-15954164D01*
X5037027Y-15954164D02*
X5017979Y-15944640D01*
X5017979Y-15944640D02*
X5008456Y-15935116D01*
X5189408Y-15754164D02*
X5322741Y-15754164D01*
X5322741Y-15754164D02*
X5237027Y-15954164D01*
X5437027Y-15754164D02*
X5456075Y-15754164D01*
X5456075Y-15754164D02*
X5475122Y-15763688D01*
X5475122Y-15763688D02*
X5484646Y-15773211D01*
X5484646Y-15773211D02*
X5494170Y-15792259D01*
X5494170Y-15792259D02*
X5503694Y-15830354D01*
X5503694Y-15830354D02*
X5503694Y-15877973D01*
X5503694Y-15877973D02*
X5494170Y-15916068D01*
X5494170Y-15916068D02*
X5484646Y-15935116D01*
X5484646Y-15935116D02*
X5475122Y-15944640D01*
X5475122Y-15944640D02*
X5456075Y-15954164D01*
X5456075Y-15954164D02*
X5437027Y-15954164D01*
X5437027Y-15954164D02*
X5417979Y-15944640D01*
X5417979Y-15944640D02*
X5408456Y-15935116D01*
X5408456Y-15935116D02*
X5398932Y-15916068D01*
X5398932Y-15916068D02*
X5389408Y-15877973D01*
X5389408Y-15877973D02*
X5389408Y-15830354D01*
X5389408Y-15830354D02*
X5398932Y-15792259D01*
X5398932Y-15792259D02*
X5408456Y-15773211D01*
X5408456Y-15773211D02*
X5417979Y-15763688D01*
X5417979Y-15763688D02*
X5437027Y-15754164D01*
X5579884Y-15754164D02*
X5579884Y-15792259D01*
X5656075Y-15754164D02*
X5656075Y-15792259D01*
X5951313Y-16030354D02*
X5941789Y-16020830D01*
X5941789Y-16020830D02*
X5922741Y-15992259D01*
X5922741Y-15992259D02*
X5913218Y-15973211D01*
X5913218Y-15973211D02*
X5903694Y-15944640D01*
X5903694Y-15944640D02*
X5894170Y-15897021D01*
X5894170Y-15897021D02*
X5894170Y-15858926D01*
X5894170Y-15858926D02*
X5903694Y-15811307D01*
X5903694Y-15811307D02*
X5913218Y-15782735D01*
X5913218Y-15782735D02*
X5922741Y-15763688D01*
X5922741Y-15763688D02*
X5941789Y-15735116D01*
X5941789Y-15735116D02*
X5951313Y-15725592D01*
X6132265Y-15954164D02*
X6017979Y-15954164D01*
X6075122Y-15954164D02*
X6075122Y-15754164D01*
X6075122Y-15754164D02*
X6056075Y-15782735D01*
X6056075Y-15782735D02*
X6037027Y-15801783D01*
X6037027Y-15801783D02*
X6017979Y-15811307D01*
X6256075Y-15754164D02*
X6275122Y-15754164D01*
X6275122Y-15754164D02*
X6294170Y-15763688D01*
X6294170Y-15763688D02*
X6303694Y-15773211D01*
X6303694Y-15773211D02*
X6313218Y-15792259D01*
X6313218Y-15792259D02*
X6322741Y-15830354D01*
X6322741Y-15830354D02*
X6322741Y-15877973D01*
X6322741Y-15877973D02*
X6313218Y-15916068D01*
X6313218Y-15916068D02*
X6303694Y-15935116D01*
X6303694Y-15935116D02*
X6294170Y-15944640D01*
X6294170Y-15944640D02*
X6275122Y-15954164D01*
X6275122Y-15954164D02*
X6256075Y-15954164D01*
X6256075Y-15954164D02*
X6237027Y-15944640D01*
X6237027Y-15944640D02*
X6227503Y-15935116D01*
X6227503Y-15935116D02*
X6217979Y-15916068D01*
X6217979Y-15916068D02*
X6208456Y-15877973D01*
X6208456Y-15877973D02*
X6208456Y-15830354D01*
X6208456Y-15830354D02*
X6217979Y-15792259D01*
X6217979Y-15792259D02*
X6227503Y-15773211D01*
X6227503Y-15773211D02*
X6237027Y-15763688D01*
X6237027Y-15763688D02*
X6256075Y-15754164D01*
X6398932Y-15773211D02*
X6408456Y-15763688D01*
X6408456Y-15763688D02*
X6427503Y-15754164D01*
X6427503Y-15754164D02*
X6475122Y-15754164D01*
X6475122Y-15754164D02*
X6494170Y-15763688D01*
X6494170Y-15763688D02*
X6503694Y-15773211D01*
X6503694Y-15773211D02*
X6513218Y-15792259D01*
X6513218Y-15792259D02*
X6513218Y-15811307D01*
X6513218Y-15811307D02*
X6503694Y-15839878D01*
X6503694Y-15839878D02*
X6389408Y-15954164D01*
X6389408Y-15954164D02*
X6513218Y-15954164D01*
X6751313Y-15954164D02*
X6751313Y-15754164D01*
X6837027Y-15954164D02*
X6837027Y-15849402D01*
X6837027Y-15849402D02*
X6827503Y-15830354D01*
X6827503Y-15830354D02*
X6808456Y-15820830D01*
X6808456Y-15820830D02*
X6779884Y-15820830D01*
X6779884Y-15820830D02*
X6760837Y-15830354D01*
X6760837Y-15830354D02*
X6751313Y-15839878D01*
X6960837Y-15954164D02*
X6941789Y-15944640D01*
X6941789Y-15944640D02*
X6932265Y-15935116D01*
X6932265Y-15935116D02*
X6922741Y-15916068D01*
X6922741Y-15916068D02*
X6922741Y-15858926D01*
X6922741Y-15858926D02*
X6932265Y-15839878D01*
X6932265Y-15839878D02*
X6941789Y-15830354D01*
X6941789Y-15830354D02*
X6960837Y-15820830D01*
X6960837Y-15820830D02*
X6989408Y-15820830D01*
X6989408Y-15820830D02*
X7008456Y-15830354D01*
X7008456Y-15830354D02*
X7017980Y-15839878D01*
X7017980Y-15839878D02*
X7027503Y-15858926D01*
X7027503Y-15858926D02*
X7027503Y-15916068D01*
X7027503Y-15916068D02*
X7017980Y-15935116D01*
X7017980Y-15935116D02*
X7008456Y-15944640D01*
X7008456Y-15944640D02*
X6989408Y-15954164D01*
X6989408Y-15954164D02*
X6960837Y-15954164D01*
X7141789Y-15954164D02*
X7122741Y-15944640D01*
X7122741Y-15944640D02*
X7113218Y-15925592D01*
X7113218Y-15925592D02*
X7113218Y-15754164D01*
X7294170Y-15944640D02*
X7275122Y-15954164D01*
X7275122Y-15954164D02*
X7237027Y-15954164D01*
X7237027Y-15954164D02*
X7217980Y-15944640D01*
X7217980Y-15944640D02*
X7208456Y-15925592D01*
X7208456Y-15925592D02*
X7208456Y-15849402D01*
X7208456Y-15849402D02*
X7217980Y-15830354D01*
X7217980Y-15830354D02*
X7237027Y-15820830D01*
X7237027Y-15820830D02*
X7275122Y-15820830D01*
X7275122Y-15820830D02*
X7294170Y-15830354D01*
X7294170Y-15830354D02*
X7303694Y-15849402D01*
X7303694Y-15849402D02*
X7303694Y-15868449D01*
X7303694Y-15868449D02*
X7208456Y-15887497D01*
X7379884Y-15944640D02*
X7398932Y-15954164D01*
X7398932Y-15954164D02*
X7437027Y-15954164D01*
X7437027Y-15954164D02*
X7456075Y-15944640D01*
X7456075Y-15944640D02*
X7465599Y-15925592D01*
X7465599Y-15925592D02*
X7465599Y-15916068D01*
X7465599Y-15916068D02*
X7456075Y-15897021D01*
X7456075Y-15897021D02*
X7437027Y-15887497D01*
X7437027Y-15887497D02*
X7408456Y-15887497D01*
X7408456Y-15887497D02*
X7389408Y-15877973D01*
X7389408Y-15877973D02*
X7379884Y-15858926D01*
X7379884Y-15858926D02*
X7379884Y-15849402D01*
X7379884Y-15849402D02*
X7389408Y-15830354D01*
X7389408Y-15830354D02*
X7408456Y-15820830D01*
X7408456Y-15820830D02*
X7437027Y-15820830D01*
X7437027Y-15820830D02*
X7456075Y-15830354D01*
X7532265Y-16030354D02*
X7541789Y-16020830D01*
X7541789Y-16020830D02*
X7560837Y-15992259D01*
X7560837Y-15992259D02*
X7570361Y-15973211D01*
X7570361Y-15973211D02*
X7579884Y-15944640D01*
X7579884Y-15944640D02*
X7589408Y-15897021D01*
X7589408Y-15897021D02*
X7589408Y-15858926D01*
X7589408Y-15858926D02*
X7579884Y-15811307D01*
X7579884Y-15811307D02*
X7570361Y-15782735D01*
X7570361Y-15782735D02*
X7560837Y-15763688D01*
X7560837Y-15763688D02*
X7541789Y-15735116D01*
X7541789Y-15735116D02*
X7532265Y-15725592D01*
X7894170Y-16030354D02*
X7884646Y-16020830D01*
X7884646Y-16020830D02*
X7865599Y-15992259D01*
X7865599Y-15992259D02*
X7856075Y-15973211D01*
X7856075Y-15973211D02*
X7846551Y-15944640D01*
X7846551Y-15944640D02*
X7837027Y-15897021D01*
X7837027Y-15897021D02*
X7837027Y-15858926D01*
X7837027Y-15858926D02*
X7846551Y-15811307D01*
X7846551Y-15811307D02*
X7856075Y-15782735D01*
X7856075Y-15782735D02*
X7865599Y-15763688D01*
X7865599Y-15763688D02*
X7884646Y-15735116D01*
X7884646Y-15735116D02*
X7894170Y-15725592D01*
X7970361Y-15820830D02*
X7970361Y-15954164D01*
X7970361Y-15839878D02*
X7979884Y-15830354D01*
X7979884Y-15830354D02*
X7998932Y-15820830D01*
X7998932Y-15820830D02*
X8027503Y-15820830D01*
X8027503Y-15820830D02*
X8046551Y-15830354D01*
X8046551Y-15830354D02*
X8056075Y-15849402D01*
X8056075Y-15849402D02*
X8056075Y-15954164D01*
X8179884Y-15954164D02*
X8160837Y-15944640D01*
X8160837Y-15944640D02*
X8151313Y-15935116D01*
X8151313Y-15935116D02*
X8141789Y-15916068D01*
X8141789Y-15916068D02*
X8141789Y-15858926D01*
X8141789Y-15858926D02*
X8151313Y-15839878D01*
X8151313Y-15839878D02*
X8160837Y-15830354D01*
X8160837Y-15830354D02*
X8179884Y-15820830D01*
X8179884Y-15820830D02*
X8208456Y-15820830D01*
X8208456Y-15820830D02*
X8227503Y-15830354D01*
X8227503Y-15830354D02*
X8237027Y-15839878D01*
X8237027Y-15839878D02*
X8246551Y-15858926D01*
X8246551Y-15858926D02*
X8246551Y-15916068D01*
X8246551Y-15916068D02*
X8237027Y-15935116D01*
X8237027Y-15935116D02*
X8227503Y-15944640D01*
X8227503Y-15944640D02*
X8208456Y-15954164D01*
X8208456Y-15954164D02*
X8179884Y-15954164D01*
X8303694Y-15820830D02*
X8379884Y-15820830D01*
X8332265Y-15754164D02*
X8332265Y-15925592D01*
X8332265Y-15925592D02*
X8341789Y-15944640D01*
X8341789Y-15944640D02*
X8360837Y-15954164D01*
X8360837Y-15954164D02*
X8379884Y-15954164D01*
X8598932Y-15820830D02*
X8598932Y-16020830D01*
X8598932Y-15830354D02*
X8617980Y-15820830D01*
X8617980Y-15820830D02*
X8656075Y-15820830D01*
X8656075Y-15820830D02*
X8675123Y-15830354D01*
X8675123Y-15830354D02*
X8684646Y-15839878D01*
X8684646Y-15839878D02*
X8694170Y-15858926D01*
X8694170Y-15858926D02*
X8694170Y-15916068D01*
X8694170Y-15916068D02*
X8684646Y-15935116D01*
X8684646Y-15935116D02*
X8675123Y-15944640D01*
X8675123Y-15944640D02*
X8656075Y-15954164D01*
X8656075Y-15954164D02*
X8617980Y-15954164D01*
X8617980Y-15954164D02*
X8598932Y-15944640D01*
X8808456Y-15954164D02*
X8789408Y-15944640D01*
X8789408Y-15944640D02*
X8779885Y-15925592D01*
X8779885Y-15925592D02*
X8779885Y-15754164D01*
X8970361Y-15954164D02*
X8970361Y-15849402D01*
X8970361Y-15849402D02*
X8960837Y-15830354D01*
X8960837Y-15830354D02*
X8941789Y-15820830D01*
X8941789Y-15820830D02*
X8903694Y-15820830D01*
X8903694Y-15820830D02*
X8884646Y-15830354D01*
X8970361Y-15944640D02*
X8951313Y-15954164D01*
X8951313Y-15954164D02*
X8903694Y-15954164D01*
X8903694Y-15954164D02*
X8884646Y-15944640D01*
X8884646Y-15944640D02*
X8875123Y-15925592D01*
X8875123Y-15925592D02*
X8875123Y-15906545D01*
X8875123Y-15906545D02*
X8884646Y-15887497D01*
X8884646Y-15887497D02*
X8903694Y-15877973D01*
X8903694Y-15877973D02*
X8951313Y-15877973D01*
X8951313Y-15877973D02*
X8970361Y-15868449D01*
X9037027Y-15820830D02*
X9113218Y-15820830D01*
X9065599Y-15754164D02*
X9065599Y-15925592D01*
X9065599Y-15925592D02*
X9075123Y-15944640D01*
X9075123Y-15944640D02*
X9094170Y-15954164D01*
X9094170Y-15954164D02*
X9113218Y-15954164D01*
X9256075Y-15944640D02*
X9237027Y-15954164D01*
X9237027Y-15954164D02*
X9198932Y-15954164D01*
X9198932Y-15954164D02*
X9179885Y-15944640D01*
X9179885Y-15944640D02*
X9170361Y-15925592D01*
X9170361Y-15925592D02*
X9170361Y-15849402D01*
X9170361Y-15849402D02*
X9179885Y-15830354D01*
X9179885Y-15830354D02*
X9198932Y-15820830D01*
X9198932Y-15820830D02*
X9237027Y-15820830D01*
X9237027Y-15820830D02*
X9256075Y-15830354D01*
X9256075Y-15830354D02*
X9265599Y-15849402D01*
X9265599Y-15849402D02*
X9265599Y-15868449D01*
X9265599Y-15868449D02*
X9170361Y-15887497D01*
X9437027Y-15954164D02*
X9437027Y-15754164D01*
X9437027Y-15944640D02*
X9417980Y-15954164D01*
X9417980Y-15954164D02*
X9379885Y-15954164D01*
X9379885Y-15954164D02*
X9360837Y-15944640D01*
X9360837Y-15944640D02*
X9351313Y-15935116D01*
X9351313Y-15935116D02*
X9341789Y-15916068D01*
X9341789Y-15916068D02*
X9341789Y-15858926D01*
X9341789Y-15858926D02*
X9351313Y-15839878D01*
X9351313Y-15839878D02*
X9360837Y-15830354D01*
X9360837Y-15830354D02*
X9379885Y-15820830D01*
X9379885Y-15820830D02*
X9417980Y-15820830D01*
X9417980Y-15820830D02*
X9437027Y-15830354D01*
X9513218Y-16030354D02*
X9522742Y-16020830D01*
X9522742Y-16020830D02*
X9541789Y-15992259D01*
X9541789Y-15992259D02*
X9551313Y-15973211D01*
X9551313Y-15973211D02*
X9560837Y-15944640D01*
X9560837Y-15944640D02*
X9570361Y-15897021D01*
X9570361Y-15897021D02*
X9570361Y-15858926D01*
X9570361Y-15858926D02*
X9560837Y-15811307D01*
X9560837Y-15811307D02*
X9551313Y-15782735D01*
X9551313Y-15782735D02*
X9541789Y-15763688D01*
X9541789Y-15763688D02*
X9522742Y-15735116D01*
X9522742Y-15735116D02*
X9513218Y-15725592D01*
M02*
