%TF.GenerationSoftware,KiCad,Pcbnew,7.0.7*%
%TF.CreationDate,2023-10-07T20:29:56+07:00*%
%TF.ProjectId,physalis,70687973-616c-4697-932e-6b696361645f,rev?*%
%TF.SameCoordinates,Original*%
%TF.FileFunction,Legend,Top*%
%TF.FilePolarity,Positive*%
%FSLAX46Y46*%
G04 Gerber Fmt 4.6, Leading zero omitted, Abs format (unit mm)*
G04 Created by KiCad (PCBNEW 7.0.7) date 2023-10-07 20:29:56*
%MOMM*%
%LPD*%
G01*
G04 APERTURE LIST*
%ADD10C,0.240000*%
%ADD11C,1.000000*%
%ADD12C,0.120000*%
G04 APERTURE END LIST*
D10*
X295439144Y-123665662D02*
X295439144Y-122465662D01*
X295439144Y-123608520D02*
X295324858Y-123665662D01*
X295324858Y-123665662D02*
X295096286Y-123665662D01*
X295096286Y-123665662D02*
X294982001Y-123608520D01*
X294982001Y-123608520D02*
X294924858Y-123551377D01*
X294924858Y-123551377D02*
X294867715Y-123437091D01*
X294867715Y-123437091D02*
X294867715Y-123094234D01*
X294867715Y-123094234D02*
X294924858Y-122979948D01*
X294924858Y-122979948D02*
X294982001Y-122922805D01*
X294982001Y-122922805D02*
X295096286Y-122865662D01*
X295096286Y-122865662D02*
X295324858Y-122865662D01*
X295324858Y-122865662D02*
X295439144Y-122922805D01*
X296467715Y-123608520D02*
X296353429Y-123665662D01*
X296353429Y-123665662D02*
X296124858Y-123665662D01*
X296124858Y-123665662D02*
X296010572Y-123608520D01*
X296010572Y-123608520D02*
X295953429Y-123494234D01*
X295953429Y-123494234D02*
X295953429Y-123037091D01*
X295953429Y-123037091D02*
X296010572Y-122922805D01*
X296010572Y-122922805D02*
X296124858Y-122865662D01*
X296124858Y-122865662D02*
X296353429Y-122865662D01*
X296353429Y-122865662D02*
X296467715Y-122922805D01*
X296467715Y-122922805D02*
X296524858Y-123037091D01*
X296524858Y-123037091D02*
X296524858Y-123151377D01*
X296524858Y-123151377D02*
X295953429Y-123265662D01*
X296982000Y-123608520D02*
X297096286Y-123665662D01*
X297096286Y-123665662D02*
X297324857Y-123665662D01*
X297324857Y-123665662D02*
X297439143Y-123608520D01*
X297439143Y-123608520D02*
X297496286Y-123494234D01*
X297496286Y-123494234D02*
X297496286Y-123437091D01*
X297496286Y-123437091D02*
X297439143Y-123322805D01*
X297439143Y-123322805D02*
X297324857Y-123265662D01*
X297324857Y-123265662D02*
X297153429Y-123265662D01*
X297153429Y-123265662D02*
X297039143Y-123208520D01*
X297039143Y-123208520D02*
X296982000Y-123094234D01*
X296982000Y-123094234D02*
X296982000Y-123037091D01*
X296982000Y-123037091D02*
X297039143Y-122922805D01*
X297039143Y-122922805D02*
X297153429Y-122865662D01*
X297153429Y-122865662D02*
X297324857Y-122865662D01*
X297324857Y-122865662D02*
X297439143Y-122922805D01*
X298010572Y-123665662D02*
X298010572Y-122865662D01*
X298010572Y-122465662D02*
X297953429Y-122522805D01*
X297953429Y-122522805D02*
X298010572Y-122579948D01*
X298010572Y-122579948D02*
X298067715Y-122522805D01*
X298067715Y-122522805D02*
X298010572Y-122465662D01*
X298010572Y-122465662D02*
X298010572Y-122579948D01*
X299096287Y-122865662D02*
X299096287Y-123837091D01*
X299096287Y-123837091D02*
X299039144Y-123951377D01*
X299039144Y-123951377D02*
X298982001Y-124008520D01*
X298982001Y-124008520D02*
X298867715Y-124065662D01*
X298867715Y-124065662D02*
X298696287Y-124065662D01*
X298696287Y-124065662D02*
X298582001Y-124008520D01*
X299096287Y-123608520D02*
X298982001Y-123665662D01*
X298982001Y-123665662D02*
X298753429Y-123665662D01*
X298753429Y-123665662D02*
X298639144Y-123608520D01*
X298639144Y-123608520D02*
X298582001Y-123551377D01*
X298582001Y-123551377D02*
X298524858Y-123437091D01*
X298524858Y-123437091D02*
X298524858Y-123094234D01*
X298524858Y-123094234D02*
X298582001Y-122979948D01*
X298582001Y-122979948D02*
X298639144Y-122922805D01*
X298639144Y-122922805D02*
X298753429Y-122865662D01*
X298753429Y-122865662D02*
X298982001Y-122865662D01*
X298982001Y-122865662D02*
X299096287Y-122922805D01*
X299667715Y-122865662D02*
X299667715Y-123665662D01*
X299667715Y-122979948D02*
X299724858Y-122922805D01*
X299724858Y-122922805D02*
X299839143Y-122865662D01*
X299839143Y-122865662D02*
X300010572Y-122865662D01*
X300010572Y-122865662D02*
X300124858Y-122922805D01*
X300124858Y-122922805D02*
X300182001Y-123037091D01*
X300182001Y-123037091D02*
X300182001Y-123665662D01*
X301667715Y-123665662D02*
X301667715Y-122465662D01*
X301667715Y-122922805D02*
X301782001Y-122865662D01*
X301782001Y-122865662D02*
X302010572Y-122865662D01*
X302010572Y-122865662D02*
X302124858Y-122922805D01*
X302124858Y-122922805D02*
X302182001Y-122979948D01*
X302182001Y-122979948D02*
X302239143Y-123094234D01*
X302239143Y-123094234D02*
X302239143Y-123437091D01*
X302239143Y-123437091D02*
X302182001Y-123551377D01*
X302182001Y-123551377D02*
X302124858Y-123608520D01*
X302124858Y-123608520D02*
X302010572Y-123665662D01*
X302010572Y-123665662D02*
X301782001Y-123665662D01*
X301782001Y-123665662D02*
X301667715Y-123608520D01*
X302639143Y-122865662D02*
X302924857Y-123665662D01*
X303210572Y-122865662D02*
X302924857Y-123665662D01*
X302924857Y-123665662D02*
X302810572Y-123951377D01*
X302810572Y-123951377D02*
X302753429Y-124008520D01*
X302753429Y-124008520D02*
X302639143Y-124065662D01*
X305096287Y-123665662D02*
X305096287Y-122465662D01*
X305096287Y-123608520D02*
X304982001Y-123665662D01*
X304982001Y-123665662D02*
X304753429Y-123665662D01*
X304753429Y-123665662D02*
X304639144Y-123608520D01*
X304639144Y-123608520D02*
X304582001Y-123551377D01*
X304582001Y-123551377D02*
X304524858Y-123437091D01*
X304524858Y-123437091D02*
X304524858Y-123094234D01*
X304524858Y-123094234D02*
X304582001Y-122979948D01*
X304582001Y-122979948D02*
X304639144Y-122922805D01*
X304639144Y-122922805D02*
X304753429Y-122865662D01*
X304753429Y-122865662D02*
X304982001Y-122865662D01*
X304982001Y-122865662D02*
X305096287Y-122922805D01*
X305553429Y-122865662D02*
X306182001Y-122865662D01*
X306182001Y-122865662D02*
X305553429Y-123665662D01*
X305553429Y-123665662D02*
X306182001Y-123665662D01*
X306639144Y-123665662D02*
X306639144Y-122465662D01*
X306753430Y-123208520D02*
X307096287Y-123665662D01*
X307096287Y-122865662D02*
X306639144Y-123322805D01*
X324122179Y-140721912D02*
X324522179Y-141921912D01*
X324522179Y-141921912D02*
X324922179Y-140721912D01*
X325950750Y-141921912D02*
X325265036Y-141921912D01*
X325607893Y-141921912D02*
X325607893Y-140721912D01*
X325607893Y-140721912D02*
X325493607Y-140893341D01*
X325493607Y-140893341D02*
X325379322Y-141007627D01*
X325379322Y-141007627D02*
X325265036Y-141064770D01*
X326465036Y-141807627D02*
X326522179Y-141864770D01*
X326522179Y-141864770D02*
X326465036Y-141921912D01*
X326465036Y-141921912D02*
X326407893Y-141864770D01*
X326407893Y-141864770D02*
X326465036Y-141807627D01*
X326465036Y-141807627D02*
X326465036Y-141921912D01*
X327265036Y-140721912D02*
X327379322Y-140721912D01*
X327379322Y-140721912D02*
X327493608Y-140779055D01*
X327493608Y-140779055D02*
X327550751Y-140836198D01*
X327550751Y-140836198D02*
X327607893Y-140950484D01*
X327607893Y-140950484D02*
X327665036Y-141179055D01*
X327665036Y-141179055D02*
X327665036Y-141464770D01*
X327665036Y-141464770D02*
X327607893Y-141693341D01*
X327607893Y-141693341D02*
X327550751Y-141807627D01*
X327550751Y-141807627D02*
X327493608Y-141864770D01*
X327493608Y-141864770D02*
X327379322Y-141921912D01*
X327379322Y-141921912D02*
X327265036Y-141921912D01*
X327265036Y-141921912D02*
X327150751Y-141864770D01*
X327150751Y-141864770D02*
X327093608Y-141807627D01*
X327093608Y-141807627D02*
X327036465Y-141693341D01*
X327036465Y-141693341D02*
X326979322Y-141464770D01*
X326979322Y-141464770D02*
X326979322Y-141179055D01*
X326979322Y-141179055D02*
X327036465Y-140950484D01*
X327036465Y-140950484D02*
X327093608Y-140836198D01*
X327093608Y-140836198D02*
X327150751Y-140779055D01*
X327150751Y-140779055D02*
X327265036Y-140721912D01*
D11*
X231004024Y-123283476D02*
X231004024Y-119283476D01*
X231004024Y-119283476D02*
X232527834Y-119283476D01*
X232527834Y-119283476D02*
X232908786Y-119473952D01*
X232908786Y-119473952D02*
X233099263Y-119664428D01*
X233099263Y-119664428D02*
X233289739Y-120045380D01*
X233289739Y-120045380D02*
X233289739Y-120616809D01*
X233289739Y-120616809D02*
X233099263Y-120997761D01*
X233099263Y-120997761D02*
X232908786Y-121188238D01*
X232908786Y-121188238D02*
X232527834Y-121378714D01*
X232527834Y-121378714D02*
X231004024Y-121378714D01*
X235004024Y-123283476D02*
X235004024Y-119283476D01*
X235004024Y-121188238D02*
X237289739Y-121188238D01*
X237289739Y-123283476D02*
X237289739Y-119283476D01*
X239956405Y-121378714D02*
X239956405Y-123283476D01*
X238623072Y-119283476D02*
X239956405Y-121378714D01*
X239956405Y-121378714D02*
X241289739Y-119283476D01*
X242432595Y-123093000D02*
X243004024Y-123283476D01*
X243004024Y-123283476D02*
X243956405Y-123283476D01*
X243956405Y-123283476D02*
X244337357Y-123093000D01*
X244337357Y-123093000D02*
X244527833Y-122902523D01*
X244527833Y-122902523D02*
X244718310Y-122521571D01*
X244718310Y-122521571D02*
X244718310Y-122140619D01*
X244718310Y-122140619D02*
X244527833Y-121759666D01*
X244527833Y-121759666D02*
X244337357Y-121569190D01*
X244337357Y-121569190D02*
X243956405Y-121378714D01*
X243956405Y-121378714D02*
X243194500Y-121188238D01*
X243194500Y-121188238D02*
X242813548Y-120997761D01*
X242813548Y-120997761D02*
X242623071Y-120807285D01*
X242623071Y-120807285D02*
X242432595Y-120426333D01*
X242432595Y-120426333D02*
X242432595Y-120045380D01*
X242432595Y-120045380D02*
X242623071Y-119664428D01*
X242623071Y-119664428D02*
X242813548Y-119473952D01*
X242813548Y-119473952D02*
X243194500Y-119283476D01*
X243194500Y-119283476D02*
X244146881Y-119283476D01*
X244146881Y-119283476D02*
X244718310Y-119473952D01*
X246242119Y-122140619D02*
X248146881Y-122140619D01*
X245861167Y-123283476D02*
X247194500Y-119283476D01*
X247194500Y-119283476D02*
X248527834Y-123283476D01*
X251765928Y-123283476D02*
X249861166Y-123283476D01*
X249861166Y-123283476D02*
X249861166Y-119283476D01*
X253099261Y-123283476D02*
X253099261Y-119283476D01*
X254813547Y-123093000D02*
X255384976Y-123283476D01*
X255384976Y-123283476D02*
X256337357Y-123283476D01*
X256337357Y-123283476D02*
X256718309Y-123093000D01*
X256718309Y-123093000D02*
X256908785Y-122902523D01*
X256908785Y-122902523D02*
X257099262Y-122521571D01*
X257099262Y-122521571D02*
X257099262Y-122140619D01*
X257099262Y-122140619D02*
X256908785Y-121759666D01*
X256908785Y-121759666D02*
X256718309Y-121569190D01*
X256718309Y-121569190D02*
X256337357Y-121378714D01*
X256337357Y-121378714D02*
X255575452Y-121188238D01*
X255575452Y-121188238D02*
X255194500Y-120997761D01*
X255194500Y-120997761D02*
X255004023Y-120807285D01*
X255004023Y-120807285D02*
X254813547Y-120426333D01*
X254813547Y-120426333D02*
X254813547Y-120045380D01*
X254813547Y-120045380D02*
X255004023Y-119664428D01*
X255004023Y-119664428D02*
X255194500Y-119473952D01*
X255194500Y-119473952D02*
X255575452Y-119283476D01*
X255575452Y-119283476D02*
X256527833Y-119283476D01*
X256527833Y-119283476D02*
X257099262Y-119473952D01*
%TO.C,G\u002A\u002A\u002A*%
G36*
X193459256Y-129194856D02*
G01*
X193459256Y-129726266D01*
X192468025Y-131385902D01*
X192364267Y-131559713D01*
X192263512Y-131728665D01*
X192166311Y-131891824D01*
X192073217Y-132048258D01*
X191984782Y-132197032D01*
X191901558Y-132337214D01*
X191824098Y-132467869D01*
X191752953Y-132588065D01*
X191688676Y-132696869D01*
X191631820Y-132793346D01*
X191582935Y-132876564D01*
X191542575Y-132945588D01*
X191511291Y-132999486D01*
X191489636Y-133037325D01*
X191478163Y-133058170D01*
X191476390Y-133062083D01*
X191481732Y-133072942D01*
X191497477Y-133101370D01*
X191523077Y-133146427D01*
X191557981Y-133207172D01*
X191601641Y-133282666D01*
X191653507Y-133371967D01*
X191713029Y-133474135D01*
X191779659Y-133588231D01*
X191852846Y-133713313D01*
X191932042Y-133848442D01*
X192016697Y-133992677D01*
X192106261Y-134145078D01*
X192200186Y-134304705D01*
X192297921Y-134470618D01*
X192398918Y-134641875D01*
X192450277Y-134728891D01*
X192553020Y-134902919D01*
X192653023Y-135072305D01*
X192749718Y-135236089D01*
X192842540Y-135393313D01*
X192930922Y-135543017D01*
X193014298Y-135684242D01*
X193092101Y-135816029D01*
X193163766Y-135937418D01*
X193228726Y-136047451D01*
X193286415Y-136145168D01*
X193336266Y-136229611D01*
X193377714Y-136299819D01*
X193410191Y-136354834D01*
X193433133Y-136393696D01*
X193445971Y-136415447D01*
X193448351Y-136419480D01*
X193472134Y-136459806D01*
X192735959Y-136459806D01*
X191999784Y-136459806D01*
X191366606Y-135384446D01*
X191284398Y-135244909D01*
X191205206Y-135110650D01*
X191129715Y-134982820D01*
X191058608Y-134862572D01*
X190992571Y-134751058D01*
X190932287Y-134649430D01*
X190878441Y-134558840D01*
X190831718Y-134480441D01*
X190792802Y-134415384D01*
X190762378Y-134364821D01*
X190741129Y-134329905D01*
X190729740Y-134311788D01*
X190727947Y-134309387D01*
X190720924Y-134318266D01*
X190704976Y-134342643D01*
X190682026Y-134379449D01*
X190653999Y-134425611D01*
X190631928Y-134462626D01*
X190607924Y-134502887D01*
X190573728Y-134559815D01*
X190530366Y-134631725D01*
X190478860Y-134716933D01*
X190420235Y-134813752D01*
X190355514Y-134920499D01*
X190285721Y-135035489D01*
X190211881Y-135157036D01*
X190135016Y-135283456D01*
X190056150Y-135413064D01*
X189976308Y-135544175D01*
X189896514Y-135675104D01*
X189817790Y-135804166D01*
X189741160Y-135929676D01*
X189667650Y-136049950D01*
X189634011Y-136104937D01*
X189420139Y-136454429D01*
X188920667Y-136456105D01*
X188799472Y-136456419D01*
X188697401Y-136456431D01*
X188612070Y-136456075D01*
X188541098Y-136455282D01*
X188482103Y-136453984D01*
X188432701Y-136452115D01*
X188390510Y-136449605D01*
X188353147Y-136446387D01*
X188318232Y-136442393D01*
X188286775Y-136438056D01*
X188027174Y-136391235D01*
X187782510Y-136329112D01*
X187552505Y-136251588D01*
X187336884Y-136158564D01*
X187135369Y-136049941D01*
X187044734Y-135992999D01*
X186942541Y-135922848D01*
X186853136Y-135854698D01*
X186769327Y-135782595D01*
X186683918Y-135700589D01*
X186651780Y-135667894D01*
X186512304Y-135511319D01*
X186388918Y-135345090D01*
X186281089Y-135168034D01*
X186188284Y-134978975D01*
X186109969Y-134776742D01*
X186045610Y-134560162D01*
X185994674Y-134328059D01*
X185967881Y-134163913D01*
X185965138Y-134143023D01*
X185962664Y-134119951D01*
X185960439Y-134093494D01*
X185958445Y-134062450D01*
X185956664Y-134025615D01*
X185955077Y-133981786D01*
X185953665Y-133929761D01*
X185952412Y-133868338D01*
X185951297Y-133796313D01*
X185950302Y-133712483D01*
X185949410Y-133615647D01*
X185948601Y-133504601D01*
X185947858Y-133378142D01*
X185947161Y-133235068D01*
X185946492Y-133074176D01*
X185945833Y-132894263D01*
X185945165Y-132694126D01*
X185945120Y-132679916D01*
X185944628Y-132508141D01*
X187189862Y-132508141D01*
X187189874Y-132660808D01*
X187190027Y-132812471D01*
X187190324Y-132961400D01*
X187190762Y-133105862D01*
X187191343Y-133244127D01*
X187192067Y-133374463D01*
X187192933Y-133495138D01*
X187193941Y-133604421D01*
X187195092Y-133700581D01*
X187196385Y-133781885D01*
X187197821Y-133846602D01*
X187199399Y-133893001D01*
X187200837Y-133916580D01*
X187225494Y-134102252D01*
X187264116Y-134272495D01*
X187317326Y-134428751D01*
X187385745Y-134572461D01*
X187469998Y-134705064D01*
X187570707Y-134828003D01*
X187614589Y-134873650D01*
X187735069Y-134980596D01*
X187866831Y-135071953D01*
X188011648Y-135148700D01*
X188171299Y-135211815D01*
X188295854Y-135249215D01*
X188356992Y-135263866D01*
X188427391Y-135278200D01*
X188501415Y-135291311D01*
X188573425Y-135302293D01*
X188637784Y-135310239D01*
X188688854Y-135314245D01*
X188702415Y-135314548D01*
X188708015Y-135305449D01*
X188724259Y-135278629D01*
X188750717Y-135234804D01*
X188786958Y-135174691D01*
X188832552Y-135099004D01*
X188887068Y-135008459D01*
X188950075Y-134903773D01*
X189021145Y-134785661D01*
X189099844Y-134654839D01*
X189185744Y-134512023D01*
X189278414Y-134357929D01*
X189377423Y-134193272D01*
X189482340Y-134018768D01*
X189592736Y-133835134D01*
X189708179Y-133643084D01*
X189828239Y-133443336D01*
X189952486Y-133236604D01*
X190080489Y-133023604D01*
X190211817Y-132805053D01*
X190346041Y-132581666D01*
X190350404Y-132574404D01*
X190484725Y-132350830D01*
X190616152Y-132132037D01*
X190744258Y-131918742D01*
X190868610Y-131711664D01*
X190988779Y-131511519D01*
X191104334Y-131319026D01*
X191214846Y-131134901D01*
X191319884Y-130959861D01*
X191419018Y-130794625D01*
X191511817Y-130639910D01*
X191597852Y-130496432D01*
X191676691Y-130364911D01*
X191747906Y-130246062D01*
X191811065Y-130140603D01*
X191865738Y-130049252D01*
X191911496Y-129972726D01*
X191947907Y-129911742D01*
X191974542Y-129867019D01*
X191990970Y-129839273D01*
X191996761Y-129829222D01*
X191996766Y-129829201D01*
X191986203Y-129828660D01*
X191955278Y-129828182D01*
X191905134Y-129827765D01*
X191836917Y-129827413D01*
X191751770Y-129827125D01*
X191650839Y-129826902D01*
X191535267Y-129826746D01*
X191406199Y-129826657D01*
X191264779Y-129826636D01*
X191112153Y-129826685D01*
X190949464Y-129826803D01*
X190777857Y-129826992D01*
X190598476Y-129827254D01*
X190412466Y-129827588D01*
X190295009Y-129827830D01*
X190071225Y-129828318D01*
X189867891Y-129828777D01*
X189683952Y-129829223D01*
X189518351Y-129829670D01*
X189370032Y-129830135D01*
X189237938Y-129830633D01*
X189121014Y-129831179D01*
X189018203Y-129831791D01*
X188928449Y-129832481D01*
X188850695Y-129833268D01*
X188783885Y-129834165D01*
X188726963Y-129835190D01*
X188678872Y-129836356D01*
X188638556Y-129837681D01*
X188604960Y-129839178D01*
X188577025Y-129840865D01*
X188553698Y-129842757D01*
X188533920Y-129844869D01*
X188516635Y-129847216D01*
X188500788Y-129849815D01*
X188485322Y-129852682D01*
X188474963Y-129854697D01*
X188298163Y-129895186D01*
X188139259Y-129944293D01*
X187995999Y-130003107D01*
X187866131Y-130072719D01*
X187747404Y-130154217D01*
X187637567Y-130248692D01*
X187614589Y-130271110D01*
X187507292Y-130390669D01*
X187416694Y-130519331D01*
X187342172Y-130658536D01*
X187283103Y-130809727D01*
X187238865Y-130974343D01*
X187208834Y-131153825D01*
X187200837Y-131228180D01*
X187199139Y-131257825D01*
X187197583Y-131307244D01*
X187196170Y-131374708D01*
X187194900Y-131458483D01*
X187193772Y-131556839D01*
X187192786Y-131668044D01*
X187191942Y-131790367D01*
X187191242Y-131922076D01*
X187190683Y-132061439D01*
X187190267Y-132206726D01*
X187189994Y-132356203D01*
X187189862Y-132508141D01*
X185944628Y-132508141D01*
X185944464Y-132450658D01*
X185944038Y-132242243D01*
X185943845Y-132054006D01*
X185943889Y-131885286D01*
X185944173Y-131735417D01*
X185944701Y-131603737D01*
X185945476Y-131489583D01*
X185946502Y-131392290D01*
X185947782Y-131311196D01*
X185949319Y-131245636D01*
X185951118Y-131194948D01*
X185953182Y-131158468D01*
X185953196Y-131158282D01*
X185981503Y-130901003D01*
X186026988Y-130656577D01*
X186089434Y-130425210D01*
X186168623Y-130207106D01*
X186264338Y-130002470D01*
X186376362Y-129811508D01*
X186504479Y-129634424D01*
X186648471Y-129471424D01*
X186808120Y-129322712D01*
X186983211Y-129188494D01*
X187173525Y-129068974D01*
X187378845Y-128964358D01*
X187598955Y-128874851D01*
X187833637Y-128800657D01*
X188082675Y-128741982D01*
X188345850Y-128699030D01*
X188583107Y-128674840D01*
X188614524Y-128673334D01*
X188667361Y-128671933D01*
X188741531Y-128670637D01*
X188836946Y-128669448D01*
X188953518Y-128668364D01*
X189091162Y-128667387D01*
X189249790Y-128666518D01*
X189429314Y-128665755D01*
X189629647Y-128665101D01*
X189850702Y-128664555D01*
X190092392Y-128664117D01*
X190354630Y-128663789D01*
X190637328Y-128663570D01*
X190940400Y-128663460D01*
X191096761Y-128663447D01*
X193459256Y-128663447D01*
X193459256Y-129194856D01*
G37*
D12*
%TO.C,RZ1*%
X285798750Y-23810000D02*
X285798750Y-47310000D01*
X285798750Y-47310000D02*
X303798750Y-47310000D01*
X303798750Y-23810000D02*
X285798750Y-23810000D01*
X303798750Y-47310000D02*
X303798750Y-23810000D01*
%TD*%
M02*
