%TF.GenerationSoftware,KiCad,Pcbnew,7.0.7*%
%TF.CreationDate,2023-10-07T20:29:56+07:00*%
%TF.ProjectId,physalis,70687973-616c-4697-932e-6b696361645f,rev?*%
%TF.SameCoordinates,Original*%
%TF.FileFunction,Legend,Bot*%
%TF.FilePolarity,Positive*%
%FSLAX46Y46*%
G04 Gerber Fmt 4.6, Leading zero omitted, Abs format (unit mm)*
G04 Created by KiCad (PCBNEW 7.0.7) date 2023-10-07 20:29:56*
%MOMM*%
%LPD*%
G01*
G04 APERTURE LIST*
%ADD10C,0.240000*%
%ADD11C,1.000000*%
%ADD12C,0.150000*%
%ADD13C,0.120000*%
G04 APERTURE END LIST*
D10*
X327546570Y-140721912D02*
X327146570Y-141921912D01*
X327146570Y-141921912D02*
X326746570Y-140721912D01*
X325717999Y-141921912D02*
X326403713Y-141921912D01*
X326060856Y-141921912D02*
X326060856Y-140721912D01*
X326060856Y-140721912D02*
X326175142Y-140893341D01*
X326175142Y-140893341D02*
X326289427Y-141007627D01*
X326289427Y-141007627D02*
X326403713Y-141064770D01*
X325203713Y-141807627D02*
X325146570Y-141864770D01*
X325146570Y-141864770D02*
X325203713Y-141921912D01*
X325203713Y-141921912D02*
X325260856Y-141864770D01*
X325260856Y-141864770D02*
X325203713Y-141807627D01*
X325203713Y-141807627D02*
X325203713Y-141921912D01*
X324403713Y-140721912D02*
X324289427Y-140721912D01*
X324289427Y-140721912D02*
X324175141Y-140779055D01*
X324175141Y-140779055D02*
X324117999Y-140836198D01*
X324117999Y-140836198D02*
X324060856Y-140950484D01*
X324060856Y-140950484D02*
X324003713Y-141179055D01*
X324003713Y-141179055D02*
X324003713Y-141464770D01*
X324003713Y-141464770D02*
X324060856Y-141693341D01*
X324060856Y-141693341D02*
X324117999Y-141807627D01*
X324117999Y-141807627D02*
X324175141Y-141864770D01*
X324175141Y-141864770D02*
X324289427Y-141921912D01*
X324289427Y-141921912D02*
X324403713Y-141921912D01*
X324403713Y-141921912D02*
X324517999Y-141864770D01*
X324517999Y-141864770D02*
X324575141Y-141807627D01*
X324575141Y-141807627D02*
X324632284Y-141693341D01*
X324632284Y-141693341D02*
X324689427Y-141464770D01*
X324689427Y-141464770D02*
X324689427Y-141179055D01*
X324689427Y-141179055D02*
X324632284Y-140950484D01*
X324632284Y-140950484D02*
X324575141Y-140836198D01*
X324575141Y-140836198D02*
X324517999Y-140779055D01*
X324517999Y-140779055D02*
X324403713Y-140721912D01*
D11*
X256358475Y-123283476D02*
X256358475Y-119283476D01*
X256358475Y-119283476D02*
X254834665Y-119283476D01*
X254834665Y-119283476D02*
X254453713Y-119473952D01*
X254453713Y-119473952D02*
X254263236Y-119664428D01*
X254263236Y-119664428D02*
X254072760Y-120045380D01*
X254072760Y-120045380D02*
X254072760Y-120616809D01*
X254072760Y-120616809D02*
X254263236Y-120997761D01*
X254263236Y-120997761D02*
X254453713Y-121188238D01*
X254453713Y-121188238D02*
X254834665Y-121378714D01*
X254834665Y-121378714D02*
X256358475Y-121378714D01*
X252358475Y-123283476D02*
X252358475Y-119283476D01*
X252358475Y-121188238D02*
X250072760Y-121188238D01*
X250072760Y-123283476D02*
X250072760Y-119283476D01*
X247406094Y-121378714D02*
X247406094Y-123283476D01*
X248739427Y-119283476D02*
X247406094Y-121378714D01*
X247406094Y-121378714D02*
X246072760Y-119283476D01*
X244929904Y-123093000D02*
X244358475Y-123283476D01*
X244358475Y-123283476D02*
X243406094Y-123283476D01*
X243406094Y-123283476D02*
X243025142Y-123093000D01*
X243025142Y-123093000D02*
X242834666Y-122902523D01*
X242834666Y-122902523D02*
X242644189Y-122521571D01*
X242644189Y-122521571D02*
X242644189Y-122140619D01*
X242644189Y-122140619D02*
X242834666Y-121759666D01*
X242834666Y-121759666D02*
X243025142Y-121569190D01*
X243025142Y-121569190D02*
X243406094Y-121378714D01*
X243406094Y-121378714D02*
X244167999Y-121188238D01*
X244167999Y-121188238D02*
X244548951Y-120997761D01*
X244548951Y-120997761D02*
X244739428Y-120807285D01*
X244739428Y-120807285D02*
X244929904Y-120426333D01*
X244929904Y-120426333D02*
X244929904Y-120045380D01*
X244929904Y-120045380D02*
X244739428Y-119664428D01*
X244739428Y-119664428D02*
X244548951Y-119473952D01*
X244548951Y-119473952D02*
X244167999Y-119283476D01*
X244167999Y-119283476D02*
X243215618Y-119283476D01*
X243215618Y-119283476D02*
X242644189Y-119473952D01*
X241120380Y-122140619D02*
X239215618Y-122140619D01*
X241501332Y-123283476D02*
X240167999Y-119283476D01*
X240167999Y-119283476D02*
X238834665Y-123283476D01*
X235596571Y-123283476D02*
X237501333Y-123283476D01*
X237501333Y-123283476D02*
X237501333Y-119283476D01*
X234263238Y-123283476D02*
X234263238Y-119283476D01*
X232548952Y-123093000D02*
X231977523Y-123283476D01*
X231977523Y-123283476D02*
X231025142Y-123283476D01*
X231025142Y-123283476D02*
X230644190Y-123093000D01*
X230644190Y-123093000D02*
X230453714Y-122902523D01*
X230453714Y-122902523D02*
X230263237Y-122521571D01*
X230263237Y-122521571D02*
X230263237Y-122140619D01*
X230263237Y-122140619D02*
X230453714Y-121759666D01*
X230453714Y-121759666D02*
X230644190Y-121569190D01*
X230644190Y-121569190D02*
X231025142Y-121378714D01*
X231025142Y-121378714D02*
X231787047Y-121188238D01*
X231787047Y-121188238D02*
X232167999Y-120997761D01*
X232167999Y-120997761D02*
X232358476Y-120807285D01*
X232358476Y-120807285D02*
X232548952Y-120426333D01*
X232548952Y-120426333D02*
X232548952Y-120045380D01*
X232548952Y-120045380D02*
X232358476Y-119664428D01*
X232358476Y-119664428D02*
X232167999Y-119473952D01*
X232167999Y-119473952D02*
X231787047Y-119283476D01*
X231787047Y-119283476D02*
X230834666Y-119283476D01*
X230834666Y-119283476D02*
X230263237Y-119473952D01*
D10*
X306223356Y-123665662D02*
X306223356Y-122465662D01*
X306223356Y-123608520D02*
X306337641Y-123665662D01*
X306337641Y-123665662D02*
X306566213Y-123665662D01*
X306566213Y-123665662D02*
X306680498Y-123608520D01*
X306680498Y-123608520D02*
X306737641Y-123551377D01*
X306737641Y-123551377D02*
X306794784Y-123437091D01*
X306794784Y-123437091D02*
X306794784Y-123094234D01*
X306794784Y-123094234D02*
X306737641Y-122979948D01*
X306737641Y-122979948D02*
X306680498Y-122922805D01*
X306680498Y-122922805D02*
X306566213Y-122865662D01*
X306566213Y-122865662D02*
X306337641Y-122865662D01*
X306337641Y-122865662D02*
X306223356Y-122922805D01*
X305194784Y-123608520D02*
X305309070Y-123665662D01*
X305309070Y-123665662D02*
X305537642Y-123665662D01*
X305537642Y-123665662D02*
X305651927Y-123608520D01*
X305651927Y-123608520D02*
X305709070Y-123494234D01*
X305709070Y-123494234D02*
X305709070Y-123037091D01*
X305709070Y-123037091D02*
X305651927Y-122922805D01*
X305651927Y-122922805D02*
X305537642Y-122865662D01*
X305537642Y-122865662D02*
X305309070Y-122865662D01*
X305309070Y-122865662D02*
X305194784Y-122922805D01*
X305194784Y-122922805D02*
X305137642Y-123037091D01*
X305137642Y-123037091D02*
X305137642Y-123151377D01*
X305137642Y-123151377D02*
X305709070Y-123265662D01*
X304680499Y-123608520D02*
X304566213Y-123665662D01*
X304566213Y-123665662D02*
X304337642Y-123665662D01*
X304337642Y-123665662D02*
X304223356Y-123608520D01*
X304223356Y-123608520D02*
X304166213Y-123494234D01*
X304166213Y-123494234D02*
X304166213Y-123437091D01*
X304166213Y-123437091D02*
X304223356Y-123322805D01*
X304223356Y-123322805D02*
X304337642Y-123265662D01*
X304337642Y-123265662D02*
X304509071Y-123265662D01*
X304509071Y-123265662D02*
X304623356Y-123208520D01*
X304623356Y-123208520D02*
X304680499Y-123094234D01*
X304680499Y-123094234D02*
X304680499Y-123037091D01*
X304680499Y-123037091D02*
X304623356Y-122922805D01*
X304623356Y-122922805D02*
X304509071Y-122865662D01*
X304509071Y-122865662D02*
X304337642Y-122865662D01*
X304337642Y-122865662D02*
X304223356Y-122922805D01*
X303651927Y-123665662D02*
X303651927Y-122865662D01*
X303651927Y-122465662D02*
X303709070Y-122522805D01*
X303709070Y-122522805D02*
X303651927Y-122579948D01*
X303651927Y-122579948D02*
X303594784Y-122522805D01*
X303594784Y-122522805D02*
X303651927Y-122465662D01*
X303651927Y-122465662D02*
X303651927Y-122579948D01*
X302566213Y-122865662D02*
X302566213Y-123837091D01*
X302566213Y-123837091D02*
X302623355Y-123951377D01*
X302623355Y-123951377D02*
X302680498Y-124008520D01*
X302680498Y-124008520D02*
X302794784Y-124065662D01*
X302794784Y-124065662D02*
X302966213Y-124065662D01*
X302966213Y-124065662D02*
X303080498Y-124008520D01*
X302566213Y-123608520D02*
X302680498Y-123665662D01*
X302680498Y-123665662D02*
X302909070Y-123665662D01*
X302909070Y-123665662D02*
X303023355Y-123608520D01*
X303023355Y-123608520D02*
X303080498Y-123551377D01*
X303080498Y-123551377D02*
X303137641Y-123437091D01*
X303137641Y-123437091D02*
X303137641Y-123094234D01*
X303137641Y-123094234D02*
X303080498Y-122979948D01*
X303080498Y-122979948D02*
X303023355Y-122922805D01*
X303023355Y-122922805D02*
X302909070Y-122865662D01*
X302909070Y-122865662D02*
X302680498Y-122865662D01*
X302680498Y-122865662D02*
X302566213Y-122922805D01*
X301994784Y-122865662D02*
X301994784Y-123665662D01*
X301994784Y-122979948D02*
X301937641Y-122922805D01*
X301937641Y-122922805D02*
X301823356Y-122865662D01*
X301823356Y-122865662D02*
X301651927Y-122865662D01*
X301651927Y-122865662D02*
X301537641Y-122922805D01*
X301537641Y-122922805D02*
X301480499Y-123037091D01*
X301480499Y-123037091D02*
X301480499Y-123665662D01*
X299994784Y-123665662D02*
X299994784Y-122465662D01*
X299994784Y-122922805D02*
X299880499Y-122865662D01*
X299880499Y-122865662D02*
X299651927Y-122865662D01*
X299651927Y-122865662D02*
X299537641Y-122922805D01*
X299537641Y-122922805D02*
X299480499Y-122979948D01*
X299480499Y-122979948D02*
X299423356Y-123094234D01*
X299423356Y-123094234D02*
X299423356Y-123437091D01*
X299423356Y-123437091D02*
X299480499Y-123551377D01*
X299480499Y-123551377D02*
X299537641Y-123608520D01*
X299537641Y-123608520D02*
X299651927Y-123665662D01*
X299651927Y-123665662D02*
X299880499Y-123665662D01*
X299880499Y-123665662D02*
X299994784Y-123608520D01*
X299023356Y-122865662D02*
X298737642Y-123665662D01*
X298451927Y-122865662D02*
X298737642Y-123665662D01*
X298737642Y-123665662D02*
X298851927Y-123951377D01*
X298851927Y-123951377D02*
X298909070Y-124008520D01*
X298909070Y-124008520D02*
X299023356Y-124065662D01*
X296566213Y-123665662D02*
X296566213Y-122465662D01*
X296566213Y-123608520D02*
X296680498Y-123665662D01*
X296680498Y-123665662D02*
X296909070Y-123665662D01*
X296909070Y-123665662D02*
X297023355Y-123608520D01*
X297023355Y-123608520D02*
X297080498Y-123551377D01*
X297080498Y-123551377D02*
X297137641Y-123437091D01*
X297137641Y-123437091D02*
X297137641Y-123094234D01*
X297137641Y-123094234D02*
X297080498Y-122979948D01*
X297080498Y-122979948D02*
X297023355Y-122922805D01*
X297023355Y-122922805D02*
X296909070Y-122865662D01*
X296909070Y-122865662D02*
X296680498Y-122865662D01*
X296680498Y-122865662D02*
X296566213Y-122922805D01*
X296109070Y-122865662D02*
X295480499Y-122865662D01*
X295480499Y-122865662D02*
X296109070Y-123665662D01*
X296109070Y-123665662D02*
X295480499Y-123665662D01*
X295023355Y-123665662D02*
X295023355Y-122465662D01*
X294909070Y-123208520D02*
X294566212Y-123665662D01*
X294566212Y-122865662D02*
X295023355Y-123322805D01*
D12*
X272329819Y-134516964D02*
X271329819Y-134516964D01*
X271329819Y-134516964D02*
X271329819Y-134755059D01*
X271329819Y-134755059D02*
X271377438Y-134897916D01*
X271377438Y-134897916D02*
X271472676Y-134993154D01*
X271472676Y-134993154D02*
X271567914Y-135040773D01*
X271567914Y-135040773D02*
X271758390Y-135088392D01*
X271758390Y-135088392D02*
X271901247Y-135088392D01*
X271901247Y-135088392D02*
X272091723Y-135040773D01*
X272091723Y-135040773D02*
X272186961Y-134993154D01*
X272186961Y-134993154D02*
X272282200Y-134897916D01*
X272282200Y-134897916D02*
X272329819Y-134755059D01*
X272329819Y-134755059D02*
X272329819Y-134516964D01*
X271758390Y-135659821D02*
X271710771Y-135564583D01*
X271710771Y-135564583D02*
X271663152Y-135516964D01*
X271663152Y-135516964D02*
X271567914Y-135469345D01*
X271567914Y-135469345D02*
X271520295Y-135469345D01*
X271520295Y-135469345D02*
X271425057Y-135516964D01*
X271425057Y-135516964D02*
X271377438Y-135564583D01*
X271377438Y-135564583D02*
X271329819Y-135659821D01*
X271329819Y-135659821D02*
X271329819Y-135850297D01*
X271329819Y-135850297D02*
X271377438Y-135945535D01*
X271377438Y-135945535D02*
X271425057Y-135993154D01*
X271425057Y-135993154D02*
X271520295Y-136040773D01*
X271520295Y-136040773D02*
X271567914Y-136040773D01*
X271567914Y-136040773D02*
X271663152Y-135993154D01*
X271663152Y-135993154D02*
X271710771Y-135945535D01*
X271710771Y-135945535D02*
X271758390Y-135850297D01*
X271758390Y-135850297D02*
X271758390Y-135659821D01*
X271758390Y-135659821D02*
X271806009Y-135564583D01*
X271806009Y-135564583D02*
X271853628Y-135516964D01*
X271853628Y-135516964D02*
X271948866Y-135469345D01*
X271948866Y-135469345D02*
X272139342Y-135469345D01*
X272139342Y-135469345D02*
X272234580Y-135516964D01*
X272234580Y-135516964D02*
X272282200Y-135564583D01*
X272282200Y-135564583D02*
X272329819Y-135659821D01*
X272329819Y-135659821D02*
X272329819Y-135850297D01*
X272329819Y-135850297D02*
X272282200Y-135945535D01*
X272282200Y-135945535D02*
X272234580Y-135993154D01*
X272234580Y-135993154D02*
X272139342Y-136040773D01*
X272139342Y-136040773D02*
X271948866Y-136040773D01*
X271948866Y-136040773D02*
X271853628Y-135993154D01*
X271853628Y-135993154D02*
X271806009Y-135945535D01*
X271806009Y-135945535D02*
X271758390Y-135850297D01*
X271425057Y-136421726D02*
X271377438Y-136469345D01*
X271377438Y-136469345D02*
X271329819Y-136564583D01*
X271329819Y-136564583D02*
X271329819Y-136802678D01*
X271329819Y-136802678D02*
X271377438Y-136897916D01*
X271377438Y-136897916D02*
X271425057Y-136945535D01*
X271425057Y-136945535D02*
X271520295Y-136993154D01*
X271520295Y-136993154D02*
X271615533Y-136993154D01*
X271615533Y-136993154D02*
X271758390Y-136945535D01*
X271758390Y-136945535D02*
X272329819Y-136374107D01*
X272329819Y-136374107D02*
X272329819Y-136993154D01*
X48492319Y-74191964D02*
X47492319Y-74191964D01*
X47492319Y-74191964D02*
X47492319Y-74430059D01*
X47492319Y-74430059D02*
X47539938Y-74572916D01*
X47539938Y-74572916D02*
X47635176Y-74668154D01*
X47635176Y-74668154D02*
X47730414Y-74715773D01*
X47730414Y-74715773D02*
X47920890Y-74763392D01*
X47920890Y-74763392D02*
X48063747Y-74763392D01*
X48063747Y-74763392D02*
X48254223Y-74715773D01*
X48254223Y-74715773D02*
X48349461Y-74668154D01*
X48349461Y-74668154D02*
X48444700Y-74572916D01*
X48444700Y-74572916D02*
X48492319Y-74430059D01*
X48492319Y-74430059D02*
X48492319Y-74191964D01*
X47492319Y-75096726D02*
X47492319Y-75715773D01*
X47492319Y-75715773D02*
X47873271Y-75382440D01*
X47873271Y-75382440D02*
X47873271Y-75525297D01*
X47873271Y-75525297D02*
X47920890Y-75620535D01*
X47920890Y-75620535D02*
X47968509Y-75668154D01*
X47968509Y-75668154D02*
X48063747Y-75715773D01*
X48063747Y-75715773D02*
X48301842Y-75715773D01*
X48301842Y-75715773D02*
X48397080Y-75668154D01*
X48397080Y-75668154D02*
X48444700Y-75620535D01*
X48444700Y-75620535D02*
X48492319Y-75525297D01*
X48492319Y-75525297D02*
X48492319Y-75239583D01*
X48492319Y-75239583D02*
X48444700Y-75144345D01*
X48444700Y-75144345D02*
X48397080Y-75096726D01*
X47492319Y-76334821D02*
X47492319Y-76430059D01*
X47492319Y-76430059D02*
X47539938Y-76525297D01*
X47539938Y-76525297D02*
X47587557Y-76572916D01*
X47587557Y-76572916D02*
X47682795Y-76620535D01*
X47682795Y-76620535D02*
X47873271Y-76668154D01*
X47873271Y-76668154D02*
X48111366Y-76668154D01*
X48111366Y-76668154D02*
X48301842Y-76620535D01*
X48301842Y-76620535D02*
X48397080Y-76572916D01*
X48397080Y-76572916D02*
X48444700Y-76525297D01*
X48444700Y-76525297D02*
X48492319Y-76430059D01*
X48492319Y-76430059D02*
X48492319Y-76334821D01*
X48492319Y-76334821D02*
X48444700Y-76239583D01*
X48444700Y-76239583D02*
X48397080Y-76191964D01*
X48397080Y-76191964D02*
X48301842Y-76144345D01*
X48301842Y-76144345D02*
X48111366Y-76096726D01*
X48111366Y-76096726D02*
X47873271Y-76096726D01*
X47873271Y-76096726D02*
X47682795Y-76144345D01*
X47682795Y-76144345D02*
X47587557Y-76191964D01*
X47587557Y-76191964D02*
X47539938Y-76239583D01*
X47539938Y-76239583D02*
X47492319Y-76334821D01*
X219942319Y-112291964D02*
X218942319Y-112291964D01*
X218942319Y-112291964D02*
X218942319Y-112530059D01*
X218942319Y-112530059D02*
X218989938Y-112672916D01*
X218989938Y-112672916D02*
X219085176Y-112768154D01*
X219085176Y-112768154D02*
X219180414Y-112815773D01*
X219180414Y-112815773D02*
X219370890Y-112863392D01*
X219370890Y-112863392D02*
X219513747Y-112863392D01*
X219513747Y-112863392D02*
X219704223Y-112815773D01*
X219704223Y-112815773D02*
X219799461Y-112768154D01*
X219799461Y-112768154D02*
X219894700Y-112672916D01*
X219894700Y-112672916D02*
X219942319Y-112530059D01*
X219942319Y-112530059D02*
X219942319Y-112291964D01*
X218942319Y-113720535D02*
X218942319Y-113530059D01*
X218942319Y-113530059D02*
X218989938Y-113434821D01*
X218989938Y-113434821D02*
X219037557Y-113387202D01*
X219037557Y-113387202D02*
X219180414Y-113291964D01*
X219180414Y-113291964D02*
X219370890Y-113244345D01*
X219370890Y-113244345D02*
X219751842Y-113244345D01*
X219751842Y-113244345D02*
X219847080Y-113291964D01*
X219847080Y-113291964D02*
X219894700Y-113339583D01*
X219894700Y-113339583D02*
X219942319Y-113434821D01*
X219942319Y-113434821D02*
X219942319Y-113625297D01*
X219942319Y-113625297D02*
X219894700Y-113720535D01*
X219894700Y-113720535D02*
X219847080Y-113768154D01*
X219847080Y-113768154D02*
X219751842Y-113815773D01*
X219751842Y-113815773D02*
X219513747Y-113815773D01*
X219513747Y-113815773D02*
X219418509Y-113768154D01*
X219418509Y-113768154D02*
X219370890Y-113720535D01*
X219370890Y-113720535D02*
X219323271Y-113625297D01*
X219323271Y-113625297D02*
X219323271Y-113434821D01*
X219323271Y-113434821D02*
X219370890Y-113339583D01*
X219370890Y-113339583D02*
X219418509Y-113291964D01*
X219418509Y-113291964D02*
X219513747Y-113244345D01*
X218942319Y-114149107D02*
X218942319Y-114815773D01*
X218942319Y-114815773D02*
X219942319Y-114387202D01*
X162792319Y-113085714D02*
X161792319Y-113085714D01*
X161792319Y-113085714D02*
X161792319Y-113323809D01*
X161792319Y-113323809D02*
X161839938Y-113466666D01*
X161839938Y-113466666D02*
X161935176Y-113561904D01*
X161935176Y-113561904D02*
X162030414Y-113609523D01*
X162030414Y-113609523D02*
X162220890Y-113657142D01*
X162220890Y-113657142D02*
X162363747Y-113657142D01*
X162363747Y-113657142D02*
X162554223Y-113609523D01*
X162554223Y-113609523D02*
X162649461Y-113561904D01*
X162649461Y-113561904D02*
X162744700Y-113466666D01*
X162744700Y-113466666D02*
X162792319Y-113323809D01*
X162792319Y-113323809D02*
X162792319Y-113085714D01*
X161792319Y-114514285D02*
X161792319Y-114323809D01*
X161792319Y-114323809D02*
X161839938Y-114228571D01*
X161839938Y-114228571D02*
X161887557Y-114180952D01*
X161887557Y-114180952D02*
X162030414Y-114085714D01*
X162030414Y-114085714D02*
X162220890Y-114038095D01*
X162220890Y-114038095D02*
X162601842Y-114038095D01*
X162601842Y-114038095D02*
X162697080Y-114085714D01*
X162697080Y-114085714D02*
X162744700Y-114133333D01*
X162744700Y-114133333D02*
X162792319Y-114228571D01*
X162792319Y-114228571D02*
X162792319Y-114419047D01*
X162792319Y-114419047D02*
X162744700Y-114514285D01*
X162744700Y-114514285D02*
X162697080Y-114561904D01*
X162697080Y-114561904D02*
X162601842Y-114609523D01*
X162601842Y-114609523D02*
X162363747Y-114609523D01*
X162363747Y-114609523D02*
X162268509Y-114561904D01*
X162268509Y-114561904D02*
X162220890Y-114514285D01*
X162220890Y-114514285D02*
X162173271Y-114419047D01*
X162173271Y-114419047D02*
X162173271Y-114228571D01*
X162173271Y-114228571D02*
X162220890Y-114133333D01*
X162220890Y-114133333D02*
X162268509Y-114085714D01*
X162268509Y-114085714D02*
X162363747Y-114038095D01*
X162125652Y-115466666D02*
X162792319Y-115466666D01*
X161744700Y-115228571D02*
X162458985Y-114990476D01*
X162458985Y-114990476D02*
X162458985Y-115609523D01*
X181842319Y-112291964D02*
X180842319Y-112291964D01*
X180842319Y-112291964D02*
X180842319Y-112530059D01*
X180842319Y-112530059D02*
X180889938Y-112672916D01*
X180889938Y-112672916D02*
X180985176Y-112768154D01*
X180985176Y-112768154D02*
X181080414Y-112815773D01*
X181080414Y-112815773D02*
X181270890Y-112863392D01*
X181270890Y-112863392D02*
X181413747Y-112863392D01*
X181413747Y-112863392D02*
X181604223Y-112815773D01*
X181604223Y-112815773D02*
X181699461Y-112768154D01*
X181699461Y-112768154D02*
X181794700Y-112672916D01*
X181794700Y-112672916D02*
X181842319Y-112530059D01*
X181842319Y-112530059D02*
X181842319Y-112291964D01*
X180842319Y-113720535D02*
X180842319Y-113530059D01*
X180842319Y-113530059D02*
X180889938Y-113434821D01*
X180889938Y-113434821D02*
X180937557Y-113387202D01*
X180937557Y-113387202D02*
X181080414Y-113291964D01*
X181080414Y-113291964D02*
X181270890Y-113244345D01*
X181270890Y-113244345D02*
X181651842Y-113244345D01*
X181651842Y-113244345D02*
X181747080Y-113291964D01*
X181747080Y-113291964D02*
X181794700Y-113339583D01*
X181794700Y-113339583D02*
X181842319Y-113434821D01*
X181842319Y-113434821D02*
X181842319Y-113625297D01*
X181842319Y-113625297D02*
X181794700Y-113720535D01*
X181794700Y-113720535D02*
X181747080Y-113768154D01*
X181747080Y-113768154D02*
X181651842Y-113815773D01*
X181651842Y-113815773D02*
X181413747Y-113815773D01*
X181413747Y-113815773D02*
X181318509Y-113768154D01*
X181318509Y-113768154D02*
X181270890Y-113720535D01*
X181270890Y-113720535D02*
X181223271Y-113625297D01*
X181223271Y-113625297D02*
X181223271Y-113434821D01*
X181223271Y-113434821D02*
X181270890Y-113339583D01*
X181270890Y-113339583D02*
X181318509Y-113291964D01*
X181318509Y-113291964D02*
X181413747Y-113244345D01*
X180842319Y-114720535D02*
X180842319Y-114244345D01*
X180842319Y-114244345D02*
X181318509Y-114196726D01*
X181318509Y-114196726D02*
X181270890Y-114244345D01*
X181270890Y-114244345D02*
X181223271Y-114339583D01*
X181223271Y-114339583D02*
X181223271Y-114577678D01*
X181223271Y-114577678D02*
X181270890Y-114672916D01*
X181270890Y-114672916D02*
X181318509Y-114720535D01*
X181318509Y-114720535D02*
X181413747Y-114768154D01*
X181413747Y-114768154D02*
X181651842Y-114768154D01*
X181651842Y-114768154D02*
X181747080Y-114720535D01*
X181747080Y-114720535D02*
X181794700Y-114672916D01*
X181794700Y-114672916D02*
X181842319Y-114577678D01*
X181842319Y-114577678D02*
X181842319Y-114339583D01*
X181842319Y-114339583D02*
X181794700Y-114244345D01*
X181794700Y-114244345D02*
X181747080Y-114196726D01*
X327479819Y-93241964D02*
X326479819Y-93241964D01*
X326479819Y-93241964D02*
X326479819Y-93480059D01*
X326479819Y-93480059D02*
X326527438Y-93622916D01*
X326527438Y-93622916D02*
X326622676Y-93718154D01*
X326622676Y-93718154D02*
X326717914Y-93765773D01*
X326717914Y-93765773D02*
X326908390Y-93813392D01*
X326908390Y-93813392D02*
X327051247Y-93813392D01*
X327051247Y-93813392D02*
X327241723Y-93765773D01*
X327241723Y-93765773D02*
X327336961Y-93718154D01*
X327336961Y-93718154D02*
X327432200Y-93622916D01*
X327432200Y-93622916D02*
X327479819Y-93480059D01*
X327479819Y-93480059D02*
X327479819Y-93241964D01*
X326479819Y-94718154D02*
X326479819Y-94241964D01*
X326479819Y-94241964D02*
X326956009Y-94194345D01*
X326956009Y-94194345D02*
X326908390Y-94241964D01*
X326908390Y-94241964D02*
X326860771Y-94337202D01*
X326860771Y-94337202D02*
X326860771Y-94575297D01*
X326860771Y-94575297D02*
X326908390Y-94670535D01*
X326908390Y-94670535D02*
X326956009Y-94718154D01*
X326956009Y-94718154D02*
X327051247Y-94765773D01*
X327051247Y-94765773D02*
X327289342Y-94765773D01*
X327289342Y-94765773D02*
X327384580Y-94718154D01*
X327384580Y-94718154D02*
X327432200Y-94670535D01*
X327432200Y-94670535D02*
X327479819Y-94575297D01*
X327479819Y-94575297D02*
X327479819Y-94337202D01*
X327479819Y-94337202D02*
X327432200Y-94241964D01*
X327432200Y-94241964D02*
X327384580Y-94194345D01*
X326908390Y-95337202D02*
X326860771Y-95241964D01*
X326860771Y-95241964D02*
X326813152Y-95194345D01*
X326813152Y-95194345D02*
X326717914Y-95146726D01*
X326717914Y-95146726D02*
X326670295Y-95146726D01*
X326670295Y-95146726D02*
X326575057Y-95194345D01*
X326575057Y-95194345D02*
X326527438Y-95241964D01*
X326527438Y-95241964D02*
X326479819Y-95337202D01*
X326479819Y-95337202D02*
X326479819Y-95527678D01*
X326479819Y-95527678D02*
X326527438Y-95622916D01*
X326527438Y-95622916D02*
X326575057Y-95670535D01*
X326575057Y-95670535D02*
X326670295Y-95718154D01*
X326670295Y-95718154D02*
X326717914Y-95718154D01*
X326717914Y-95718154D02*
X326813152Y-95670535D01*
X326813152Y-95670535D02*
X326860771Y-95622916D01*
X326860771Y-95622916D02*
X326908390Y-95527678D01*
X326908390Y-95527678D02*
X326908390Y-95337202D01*
X326908390Y-95337202D02*
X326956009Y-95241964D01*
X326956009Y-95241964D02*
X327003628Y-95194345D01*
X327003628Y-95194345D02*
X327098866Y-95146726D01*
X327098866Y-95146726D02*
X327289342Y-95146726D01*
X327289342Y-95146726D02*
X327384580Y-95194345D01*
X327384580Y-95194345D02*
X327432200Y-95241964D01*
X327432200Y-95241964D02*
X327479819Y-95337202D01*
X327479819Y-95337202D02*
X327479819Y-95527678D01*
X327479819Y-95527678D02*
X327432200Y-95622916D01*
X327432200Y-95622916D02*
X327384580Y-95670535D01*
X327384580Y-95670535D02*
X327289342Y-95718154D01*
X327289342Y-95718154D02*
X327098866Y-95718154D01*
X327098866Y-95718154D02*
X327003628Y-95670535D01*
X327003628Y-95670535D02*
X326956009Y-95622916D01*
X326956009Y-95622916D02*
X326908390Y-95527678D01*
X72304819Y-74985714D02*
X71304819Y-74985714D01*
X71304819Y-74985714D02*
X71304819Y-75223809D01*
X71304819Y-75223809D02*
X71352438Y-75366666D01*
X71352438Y-75366666D02*
X71447676Y-75461904D01*
X71447676Y-75461904D02*
X71542914Y-75509523D01*
X71542914Y-75509523D02*
X71733390Y-75557142D01*
X71733390Y-75557142D02*
X71876247Y-75557142D01*
X71876247Y-75557142D02*
X72066723Y-75509523D01*
X72066723Y-75509523D02*
X72161961Y-75461904D01*
X72161961Y-75461904D02*
X72257200Y-75366666D01*
X72257200Y-75366666D02*
X72304819Y-75223809D01*
X72304819Y-75223809D02*
X72304819Y-74985714D01*
X71304819Y-75890476D02*
X71304819Y-76509523D01*
X71304819Y-76509523D02*
X71685771Y-76176190D01*
X71685771Y-76176190D02*
X71685771Y-76319047D01*
X71685771Y-76319047D02*
X71733390Y-76414285D01*
X71733390Y-76414285D02*
X71781009Y-76461904D01*
X71781009Y-76461904D02*
X71876247Y-76509523D01*
X71876247Y-76509523D02*
X72114342Y-76509523D01*
X72114342Y-76509523D02*
X72209580Y-76461904D01*
X72209580Y-76461904D02*
X72257200Y-76414285D01*
X72257200Y-76414285D02*
X72304819Y-76319047D01*
X72304819Y-76319047D02*
X72304819Y-76033333D01*
X72304819Y-76033333D02*
X72257200Y-75938095D01*
X72257200Y-75938095D02*
X72209580Y-75890476D01*
X72304819Y-77461904D02*
X72304819Y-76890476D01*
X72304819Y-77176190D02*
X71304819Y-77176190D01*
X71304819Y-77176190D02*
X71447676Y-77080952D01*
X71447676Y-77080952D02*
X71542914Y-76985714D01*
X71542914Y-76985714D02*
X71590533Y-76890476D01*
X105642319Y-112291964D02*
X104642319Y-112291964D01*
X104642319Y-112291964D02*
X104642319Y-112530059D01*
X104642319Y-112530059D02*
X104689938Y-112672916D01*
X104689938Y-112672916D02*
X104785176Y-112768154D01*
X104785176Y-112768154D02*
X104880414Y-112815773D01*
X104880414Y-112815773D02*
X105070890Y-112863392D01*
X105070890Y-112863392D02*
X105213747Y-112863392D01*
X105213747Y-112863392D02*
X105404223Y-112815773D01*
X105404223Y-112815773D02*
X105499461Y-112768154D01*
X105499461Y-112768154D02*
X105594700Y-112672916D01*
X105594700Y-112672916D02*
X105642319Y-112530059D01*
X105642319Y-112530059D02*
X105642319Y-112291964D01*
X104642319Y-113720535D02*
X104642319Y-113530059D01*
X104642319Y-113530059D02*
X104689938Y-113434821D01*
X104689938Y-113434821D02*
X104737557Y-113387202D01*
X104737557Y-113387202D02*
X104880414Y-113291964D01*
X104880414Y-113291964D02*
X105070890Y-113244345D01*
X105070890Y-113244345D02*
X105451842Y-113244345D01*
X105451842Y-113244345D02*
X105547080Y-113291964D01*
X105547080Y-113291964D02*
X105594700Y-113339583D01*
X105594700Y-113339583D02*
X105642319Y-113434821D01*
X105642319Y-113434821D02*
X105642319Y-113625297D01*
X105642319Y-113625297D02*
X105594700Y-113720535D01*
X105594700Y-113720535D02*
X105547080Y-113768154D01*
X105547080Y-113768154D02*
X105451842Y-113815773D01*
X105451842Y-113815773D02*
X105213747Y-113815773D01*
X105213747Y-113815773D02*
X105118509Y-113768154D01*
X105118509Y-113768154D02*
X105070890Y-113720535D01*
X105070890Y-113720535D02*
X105023271Y-113625297D01*
X105023271Y-113625297D02*
X105023271Y-113434821D01*
X105023271Y-113434821D02*
X105070890Y-113339583D01*
X105070890Y-113339583D02*
X105118509Y-113291964D01*
X105118509Y-113291964D02*
X105213747Y-113244345D01*
X105642319Y-114768154D02*
X105642319Y-114196726D01*
X105642319Y-114482440D02*
X104642319Y-114482440D01*
X104642319Y-114482440D02*
X104785176Y-114387202D01*
X104785176Y-114387202D02*
X104880414Y-114291964D01*
X104880414Y-114291964D02*
X104928033Y-114196726D01*
X158029819Y-55141964D02*
X157029819Y-55141964D01*
X157029819Y-55141964D02*
X157029819Y-55380059D01*
X157029819Y-55380059D02*
X157077438Y-55522916D01*
X157077438Y-55522916D02*
X157172676Y-55618154D01*
X157172676Y-55618154D02*
X157267914Y-55665773D01*
X157267914Y-55665773D02*
X157458390Y-55713392D01*
X157458390Y-55713392D02*
X157601247Y-55713392D01*
X157601247Y-55713392D02*
X157791723Y-55665773D01*
X157791723Y-55665773D02*
X157886961Y-55618154D01*
X157886961Y-55618154D02*
X157982200Y-55522916D01*
X157982200Y-55522916D02*
X158029819Y-55380059D01*
X158029819Y-55380059D02*
X158029819Y-55141964D01*
X157125057Y-56094345D02*
X157077438Y-56141964D01*
X157077438Y-56141964D02*
X157029819Y-56237202D01*
X157029819Y-56237202D02*
X157029819Y-56475297D01*
X157029819Y-56475297D02*
X157077438Y-56570535D01*
X157077438Y-56570535D02*
X157125057Y-56618154D01*
X157125057Y-56618154D02*
X157220295Y-56665773D01*
X157220295Y-56665773D02*
X157315533Y-56665773D01*
X157315533Y-56665773D02*
X157458390Y-56618154D01*
X157458390Y-56618154D02*
X158029819Y-56046726D01*
X158029819Y-56046726D02*
X158029819Y-56665773D01*
X158029819Y-57618154D02*
X158029819Y-57046726D01*
X158029819Y-57332440D02*
X157029819Y-57332440D01*
X157029819Y-57332440D02*
X157172676Y-57237202D01*
X157172676Y-57237202D02*
X157267914Y-57141964D01*
X157267914Y-57141964D02*
X157315533Y-57046726D01*
X124692319Y-113085714D02*
X123692319Y-113085714D01*
X123692319Y-113085714D02*
X123692319Y-113323809D01*
X123692319Y-113323809D02*
X123739938Y-113466666D01*
X123739938Y-113466666D02*
X123835176Y-113561904D01*
X123835176Y-113561904D02*
X123930414Y-113609523D01*
X123930414Y-113609523D02*
X124120890Y-113657142D01*
X124120890Y-113657142D02*
X124263747Y-113657142D01*
X124263747Y-113657142D02*
X124454223Y-113609523D01*
X124454223Y-113609523D02*
X124549461Y-113561904D01*
X124549461Y-113561904D02*
X124644700Y-113466666D01*
X124644700Y-113466666D02*
X124692319Y-113323809D01*
X124692319Y-113323809D02*
X124692319Y-113085714D01*
X123692319Y-114514285D02*
X123692319Y-114323809D01*
X123692319Y-114323809D02*
X123739938Y-114228571D01*
X123739938Y-114228571D02*
X123787557Y-114180952D01*
X123787557Y-114180952D02*
X123930414Y-114085714D01*
X123930414Y-114085714D02*
X124120890Y-114038095D01*
X124120890Y-114038095D02*
X124501842Y-114038095D01*
X124501842Y-114038095D02*
X124597080Y-114085714D01*
X124597080Y-114085714D02*
X124644700Y-114133333D01*
X124644700Y-114133333D02*
X124692319Y-114228571D01*
X124692319Y-114228571D02*
X124692319Y-114419047D01*
X124692319Y-114419047D02*
X124644700Y-114514285D01*
X124644700Y-114514285D02*
X124597080Y-114561904D01*
X124597080Y-114561904D02*
X124501842Y-114609523D01*
X124501842Y-114609523D02*
X124263747Y-114609523D01*
X124263747Y-114609523D02*
X124168509Y-114561904D01*
X124168509Y-114561904D02*
X124120890Y-114514285D01*
X124120890Y-114514285D02*
X124073271Y-114419047D01*
X124073271Y-114419047D02*
X124073271Y-114228571D01*
X124073271Y-114228571D02*
X124120890Y-114133333D01*
X124120890Y-114133333D02*
X124168509Y-114085714D01*
X124168509Y-114085714D02*
X124263747Y-114038095D01*
X123787557Y-114990476D02*
X123739938Y-115038095D01*
X123739938Y-115038095D02*
X123692319Y-115133333D01*
X123692319Y-115133333D02*
X123692319Y-115371428D01*
X123692319Y-115371428D02*
X123739938Y-115466666D01*
X123739938Y-115466666D02*
X123787557Y-115514285D01*
X123787557Y-115514285D02*
X123882795Y-115561904D01*
X123882795Y-115561904D02*
X123978033Y-115561904D01*
X123978033Y-115561904D02*
X124120890Y-115514285D01*
X124120890Y-115514285D02*
X124692319Y-114942857D01*
X124692319Y-114942857D02*
X124692319Y-115561904D01*
X329479819Y-112291964D02*
X328479819Y-112291964D01*
X328479819Y-112291964D02*
X328479819Y-112530059D01*
X328479819Y-112530059D02*
X328527438Y-112672916D01*
X328527438Y-112672916D02*
X328622676Y-112768154D01*
X328622676Y-112768154D02*
X328717914Y-112815773D01*
X328717914Y-112815773D02*
X328908390Y-112863392D01*
X328908390Y-112863392D02*
X329051247Y-112863392D01*
X329051247Y-112863392D02*
X329241723Y-112815773D01*
X329241723Y-112815773D02*
X329336961Y-112768154D01*
X329336961Y-112768154D02*
X329432200Y-112672916D01*
X329432200Y-112672916D02*
X329479819Y-112530059D01*
X329479819Y-112530059D02*
X329479819Y-112291964D01*
X328479819Y-113196726D02*
X328479819Y-113863392D01*
X328479819Y-113863392D02*
X329479819Y-113434821D01*
X328575057Y-114196726D02*
X328527438Y-114244345D01*
X328527438Y-114244345D02*
X328479819Y-114339583D01*
X328479819Y-114339583D02*
X328479819Y-114577678D01*
X328479819Y-114577678D02*
X328527438Y-114672916D01*
X328527438Y-114672916D02*
X328575057Y-114720535D01*
X328575057Y-114720535D02*
X328670295Y-114768154D01*
X328670295Y-114768154D02*
X328765533Y-114768154D01*
X328765533Y-114768154D02*
X328908390Y-114720535D01*
X328908390Y-114720535D02*
X329479819Y-114149107D01*
X329479819Y-114149107D02*
X329479819Y-114768154D01*
X183429819Y-32599405D02*
X182429819Y-32599405D01*
X182429819Y-32599405D02*
X182429819Y-32837500D01*
X182429819Y-32837500D02*
X182477438Y-32980357D01*
X182477438Y-32980357D02*
X182572676Y-33075595D01*
X182572676Y-33075595D02*
X182667914Y-33123214D01*
X182667914Y-33123214D02*
X182858390Y-33170833D01*
X182858390Y-33170833D02*
X183001247Y-33170833D01*
X183001247Y-33170833D02*
X183191723Y-33123214D01*
X183191723Y-33123214D02*
X183286961Y-33075595D01*
X183286961Y-33075595D02*
X183382200Y-32980357D01*
X183382200Y-32980357D02*
X183429819Y-32837500D01*
X183429819Y-32837500D02*
X183429819Y-32599405D01*
X182858390Y-33742262D02*
X182810771Y-33647024D01*
X182810771Y-33647024D02*
X182763152Y-33599405D01*
X182763152Y-33599405D02*
X182667914Y-33551786D01*
X182667914Y-33551786D02*
X182620295Y-33551786D01*
X182620295Y-33551786D02*
X182525057Y-33599405D01*
X182525057Y-33599405D02*
X182477438Y-33647024D01*
X182477438Y-33647024D02*
X182429819Y-33742262D01*
X182429819Y-33742262D02*
X182429819Y-33932738D01*
X182429819Y-33932738D02*
X182477438Y-34027976D01*
X182477438Y-34027976D02*
X182525057Y-34075595D01*
X182525057Y-34075595D02*
X182620295Y-34123214D01*
X182620295Y-34123214D02*
X182667914Y-34123214D01*
X182667914Y-34123214D02*
X182763152Y-34075595D01*
X182763152Y-34075595D02*
X182810771Y-34027976D01*
X182810771Y-34027976D02*
X182858390Y-33932738D01*
X182858390Y-33932738D02*
X182858390Y-33742262D01*
X182858390Y-33742262D02*
X182906009Y-33647024D01*
X182906009Y-33647024D02*
X182953628Y-33599405D01*
X182953628Y-33599405D02*
X183048866Y-33551786D01*
X183048866Y-33551786D02*
X183239342Y-33551786D01*
X183239342Y-33551786D02*
X183334580Y-33599405D01*
X183334580Y-33599405D02*
X183382200Y-33647024D01*
X183382200Y-33647024D02*
X183429819Y-33742262D01*
X183429819Y-33742262D02*
X183429819Y-33932738D01*
X183429819Y-33932738D02*
X183382200Y-34027976D01*
X183382200Y-34027976D02*
X183334580Y-34075595D01*
X183334580Y-34075595D02*
X183239342Y-34123214D01*
X183239342Y-34123214D02*
X183048866Y-34123214D01*
X183048866Y-34123214D02*
X182953628Y-34075595D01*
X182953628Y-34075595D02*
X182906009Y-34027976D01*
X182906009Y-34027976D02*
X182858390Y-33932738D01*
X196129819Y-55141964D02*
X195129819Y-55141964D01*
X195129819Y-55141964D02*
X195129819Y-55380059D01*
X195129819Y-55380059D02*
X195177438Y-55522916D01*
X195177438Y-55522916D02*
X195272676Y-55618154D01*
X195272676Y-55618154D02*
X195367914Y-55665773D01*
X195367914Y-55665773D02*
X195558390Y-55713392D01*
X195558390Y-55713392D02*
X195701247Y-55713392D01*
X195701247Y-55713392D02*
X195891723Y-55665773D01*
X195891723Y-55665773D02*
X195986961Y-55618154D01*
X195986961Y-55618154D02*
X196082200Y-55522916D01*
X196082200Y-55522916D02*
X196129819Y-55380059D01*
X196129819Y-55380059D02*
X196129819Y-55141964D01*
X195225057Y-56094345D02*
X195177438Y-56141964D01*
X195177438Y-56141964D02*
X195129819Y-56237202D01*
X195129819Y-56237202D02*
X195129819Y-56475297D01*
X195129819Y-56475297D02*
X195177438Y-56570535D01*
X195177438Y-56570535D02*
X195225057Y-56618154D01*
X195225057Y-56618154D02*
X195320295Y-56665773D01*
X195320295Y-56665773D02*
X195415533Y-56665773D01*
X195415533Y-56665773D02*
X195558390Y-56618154D01*
X195558390Y-56618154D02*
X196129819Y-56046726D01*
X196129819Y-56046726D02*
X196129819Y-56665773D01*
X195129819Y-56999107D02*
X195129819Y-57618154D01*
X195129819Y-57618154D02*
X195510771Y-57284821D01*
X195510771Y-57284821D02*
X195510771Y-57427678D01*
X195510771Y-57427678D02*
X195558390Y-57522916D01*
X195558390Y-57522916D02*
X195606009Y-57570535D01*
X195606009Y-57570535D02*
X195701247Y-57618154D01*
X195701247Y-57618154D02*
X195939342Y-57618154D01*
X195939342Y-57618154D02*
X196034580Y-57570535D01*
X196034580Y-57570535D02*
X196082200Y-57522916D01*
X196082200Y-57522916D02*
X196129819Y-57427678D01*
X196129819Y-57427678D02*
X196129819Y-57141964D01*
X196129819Y-57141964D02*
X196082200Y-57046726D01*
X196082200Y-57046726D02*
X196034580Y-56999107D01*
X77067319Y-94035714D02*
X76067319Y-94035714D01*
X76067319Y-94035714D02*
X76067319Y-94273809D01*
X76067319Y-94273809D02*
X76114938Y-94416666D01*
X76114938Y-94416666D02*
X76210176Y-94511904D01*
X76210176Y-94511904D02*
X76305414Y-94559523D01*
X76305414Y-94559523D02*
X76495890Y-94607142D01*
X76495890Y-94607142D02*
X76638747Y-94607142D01*
X76638747Y-94607142D02*
X76829223Y-94559523D01*
X76829223Y-94559523D02*
X76924461Y-94511904D01*
X76924461Y-94511904D02*
X77019700Y-94416666D01*
X77019700Y-94416666D02*
X77067319Y-94273809D01*
X77067319Y-94273809D02*
X77067319Y-94035714D01*
X76400652Y-95464285D02*
X77067319Y-95464285D01*
X76019700Y-95226190D02*
X76733985Y-94988095D01*
X76733985Y-94988095D02*
X76733985Y-95607142D01*
X76067319Y-96416666D02*
X76067319Y-96226190D01*
X76067319Y-96226190D02*
X76114938Y-96130952D01*
X76114938Y-96130952D02*
X76162557Y-96083333D01*
X76162557Y-96083333D02*
X76305414Y-95988095D01*
X76305414Y-95988095D02*
X76495890Y-95940476D01*
X76495890Y-95940476D02*
X76876842Y-95940476D01*
X76876842Y-95940476D02*
X76972080Y-95988095D01*
X76972080Y-95988095D02*
X77019700Y-96035714D01*
X77019700Y-96035714D02*
X77067319Y-96130952D01*
X77067319Y-96130952D02*
X77067319Y-96321428D01*
X77067319Y-96321428D02*
X77019700Y-96416666D01*
X77019700Y-96416666D02*
X76972080Y-96464285D01*
X76972080Y-96464285D02*
X76876842Y-96511904D01*
X76876842Y-96511904D02*
X76638747Y-96511904D01*
X76638747Y-96511904D02*
X76543509Y-96464285D01*
X76543509Y-96464285D02*
X76495890Y-96416666D01*
X76495890Y-96416666D02*
X76448271Y-96321428D01*
X76448271Y-96321428D02*
X76448271Y-96130952D01*
X76448271Y-96130952D02*
X76495890Y-96035714D01*
X76495890Y-96035714D02*
X76543509Y-95988095D01*
X76543509Y-95988095D02*
X76638747Y-95940476D01*
X284236069Y-113085714D02*
X283236069Y-113085714D01*
X283236069Y-113085714D02*
X283236069Y-113323809D01*
X283236069Y-113323809D02*
X283283688Y-113466666D01*
X283283688Y-113466666D02*
X283378926Y-113561904D01*
X283378926Y-113561904D02*
X283474164Y-113609523D01*
X283474164Y-113609523D02*
X283664640Y-113657142D01*
X283664640Y-113657142D02*
X283807497Y-113657142D01*
X283807497Y-113657142D02*
X283997973Y-113609523D01*
X283997973Y-113609523D02*
X284093211Y-113561904D01*
X284093211Y-113561904D02*
X284188450Y-113466666D01*
X284188450Y-113466666D02*
X284236069Y-113323809D01*
X284236069Y-113323809D02*
X284236069Y-113085714D01*
X283236069Y-113990476D02*
X283236069Y-114657142D01*
X283236069Y-114657142D02*
X284236069Y-114228571D01*
X283236069Y-115228571D02*
X283236069Y-115323809D01*
X283236069Y-115323809D02*
X283283688Y-115419047D01*
X283283688Y-115419047D02*
X283331307Y-115466666D01*
X283331307Y-115466666D02*
X283426545Y-115514285D01*
X283426545Y-115514285D02*
X283617021Y-115561904D01*
X283617021Y-115561904D02*
X283855116Y-115561904D01*
X283855116Y-115561904D02*
X284045592Y-115514285D01*
X284045592Y-115514285D02*
X284140830Y-115466666D01*
X284140830Y-115466666D02*
X284188450Y-115419047D01*
X284188450Y-115419047D02*
X284236069Y-115323809D01*
X284236069Y-115323809D02*
X284236069Y-115228571D01*
X284236069Y-115228571D02*
X284188450Y-115133333D01*
X284188450Y-115133333D02*
X284140830Y-115085714D01*
X284140830Y-115085714D02*
X284045592Y-115038095D01*
X284045592Y-115038095D02*
X283855116Y-114990476D01*
X283855116Y-114990476D02*
X283617021Y-114990476D01*
X283617021Y-114990476D02*
X283426545Y-115038095D01*
X283426545Y-115038095D02*
X283331307Y-115085714D01*
X283331307Y-115085714D02*
X283283688Y-115133333D01*
X283283688Y-115133333D02*
X283236069Y-115228571D01*
X191367319Y-94035714D02*
X190367319Y-94035714D01*
X190367319Y-94035714D02*
X190367319Y-94273809D01*
X190367319Y-94273809D02*
X190414938Y-94416666D01*
X190414938Y-94416666D02*
X190510176Y-94511904D01*
X190510176Y-94511904D02*
X190605414Y-94559523D01*
X190605414Y-94559523D02*
X190795890Y-94607142D01*
X190795890Y-94607142D02*
X190938747Y-94607142D01*
X190938747Y-94607142D02*
X191129223Y-94559523D01*
X191129223Y-94559523D02*
X191224461Y-94511904D01*
X191224461Y-94511904D02*
X191319700Y-94416666D01*
X191319700Y-94416666D02*
X191367319Y-94273809D01*
X191367319Y-94273809D02*
X191367319Y-94035714D01*
X190367319Y-95511904D02*
X190367319Y-95035714D01*
X190367319Y-95035714D02*
X190843509Y-94988095D01*
X190843509Y-94988095D02*
X190795890Y-95035714D01*
X190795890Y-95035714D02*
X190748271Y-95130952D01*
X190748271Y-95130952D02*
X190748271Y-95369047D01*
X190748271Y-95369047D02*
X190795890Y-95464285D01*
X190795890Y-95464285D02*
X190843509Y-95511904D01*
X190843509Y-95511904D02*
X190938747Y-95559523D01*
X190938747Y-95559523D02*
X191176842Y-95559523D01*
X191176842Y-95559523D02*
X191272080Y-95511904D01*
X191272080Y-95511904D02*
X191319700Y-95464285D01*
X191319700Y-95464285D02*
X191367319Y-95369047D01*
X191367319Y-95369047D02*
X191367319Y-95130952D01*
X191367319Y-95130952D02*
X191319700Y-95035714D01*
X191319700Y-95035714D02*
X191272080Y-94988095D01*
X190462557Y-95940476D02*
X190414938Y-95988095D01*
X190414938Y-95988095D02*
X190367319Y-96083333D01*
X190367319Y-96083333D02*
X190367319Y-96321428D01*
X190367319Y-96321428D02*
X190414938Y-96416666D01*
X190414938Y-96416666D02*
X190462557Y-96464285D01*
X190462557Y-96464285D02*
X190557795Y-96511904D01*
X190557795Y-96511904D02*
X190653033Y-96511904D01*
X190653033Y-96511904D02*
X190795890Y-96464285D01*
X190795890Y-96464285D02*
X191367319Y-95892857D01*
X191367319Y-95892857D02*
X191367319Y-96511904D01*
X243754819Y-74191964D02*
X242754819Y-74191964D01*
X242754819Y-74191964D02*
X242754819Y-74430059D01*
X242754819Y-74430059D02*
X242802438Y-74572916D01*
X242802438Y-74572916D02*
X242897676Y-74668154D01*
X242897676Y-74668154D02*
X242992914Y-74715773D01*
X242992914Y-74715773D02*
X243183390Y-74763392D01*
X243183390Y-74763392D02*
X243326247Y-74763392D01*
X243326247Y-74763392D02*
X243516723Y-74715773D01*
X243516723Y-74715773D02*
X243611961Y-74668154D01*
X243611961Y-74668154D02*
X243707200Y-74572916D01*
X243707200Y-74572916D02*
X243754819Y-74430059D01*
X243754819Y-74430059D02*
X243754819Y-74191964D01*
X243088152Y-75620535D02*
X243754819Y-75620535D01*
X242707200Y-75382440D02*
X243421485Y-75144345D01*
X243421485Y-75144345D02*
X243421485Y-75763392D01*
X242754819Y-76334821D02*
X242754819Y-76430059D01*
X242754819Y-76430059D02*
X242802438Y-76525297D01*
X242802438Y-76525297D02*
X242850057Y-76572916D01*
X242850057Y-76572916D02*
X242945295Y-76620535D01*
X242945295Y-76620535D02*
X243135771Y-76668154D01*
X243135771Y-76668154D02*
X243373866Y-76668154D01*
X243373866Y-76668154D02*
X243564342Y-76620535D01*
X243564342Y-76620535D02*
X243659580Y-76572916D01*
X243659580Y-76572916D02*
X243707200Y-76525297D01*
X243707200Y-76525297D02*
X243754819Y-76430059D01*
X243754819Y-76430059D02*
X243754819Y-76334821D01*
X243754819Y-76334821D02*
X243707200Y-76239583D01*
X243707200Y-76239583D02*
X243659580Y-76191964D01*
X243659580Y-76191964D02*
X243564342Y-76144345D01*
X243564342Y-76144345D02*
X243373866Y-76096726D01*
X243373866Y-76096726D02*
X243135771Y-76096726D01*
X243135771Y-76096726D02*
X242945295Y-76144345D01*
X242945295Y-76144345D02*
X242850057Y-76191964D01*
X242850057Y-76191964D02*
X242802438Y-76239583D01*
X242802438Y-76239583D02*
X242754819Y-76334821D01*
X123104819Y-31805655D02*
X122104819Y-31805655D01*
X122104819Y-31805655D02*
X122104819Y-32043750D01*
X122104819Y-32043750D02*
X122152438Y-32186607D01*
X122152438Y-32186607D02*
X122247676Y-32281845D01*
X122247676Y-32281845D02*
X122342914Y-32329464D01*
X122342914Y-32329464D02*
X122533390Y-32377083D01*
X122533390Y-32377083D02*
X122676247Y-32377083D01*
X122676247Y-32377083D02*
X122866723Y-32329464D01*
X122866723Y-32329464D02*
X122961961Y-32281845D01*
X122961961Y-32281845D02*
X123057200Y-32186607D01*
X123057200Y-32186607D02*
X123104819Y-32043750D01*
X123104819Y-32043750D02*
X123104819Y-31805655D01*
X122104819Y-33281845D02*
X122104819Y-32805655D01*
X122104819Y-32805655D02*
X122581009Y-32758036D01*
X122581009Y-32758036D02*
X122533390Y-32805655D01*
X122533390Y-32805655D02*
X122485771Y-32900893D01*
X122485771Y-32900893D02*
X122485771Y-33138988D01*
X122485771Y-33138988D02*
X122533390Y-33234226D01*
X122533390Y-33234226D02*
X122581009Y-33281845D01*
X122581009Y-33281845D02*
X122676247Y-33329464D01*
X122676247Y-33329464D02*
X122914342Y-33329464D01*
X122914342Y-33329464D02*
X123009580Y-33281845D01*
X123009580Y-33281845D02*
X123057200Y-33234226D01*
X123057200Y-33234226D02*
X123104819Y-33138988D01*
X123104819Y-33138988D02*
X123104819Y-32900893D01*
X123104819Y-32900893D02*
X123057200Y-32805655D01*
X123057200Y-32805655D02*
X123009580Y-32758036D01*
X172317319Y-93241964D02*
X171317319Y-93241964D01*
X171317319Y-93241964D02*
X171317319Y-93480059D01*
X171317319Y-93480059D02*
X171364938Y-93622916D01*
X171364938Y-93622916D02*
X171460176Y-93718154D01*
X171460176Y-93718154D02*
X171555414Y-93765773D01*
X171555414Y-93765773D02*
X171745890Y-93813392D01*
X171745890Y-93813392D02*
X171888747Y-93813392D01*
X171888747Y-93813392D02*
X172079223Y-93765773D01*
X172079223Y-93765773D02*
X172174461Y-93718154D01*
X172174461Y-93718154D02*
X172269700Y-93622916D01*
X172269700Y-93622916D02*
X172317319Y-93480059D01*
X172317319Y-93480059D02*
X172317319Y-93241964D01*
X171317319Y-94718154D02*
X171317319Y-94241964D01*
X171317319Y-94241964D02*
X171793509Y-94194345D01*
X171793509Y-94194345D02*
X171745890Y-94241964D01*
X171745890Y-94241964D02*
X171698271Y-94337202D01*
X171698271Y-94337202D02*
X171698271Y-94575297D01*
X171698271Y-94575297D02*
X171745890Y-94670535D01*
X171745890Y-94670535D02*
X171793509Y-94718154D01*
X171793509Y-94718154D02*
X171888747Y-94765773D01*
X171888747Y-94765773D02*
X172126842Y-94765773D01*
X172126842Y-94765773D02*
X172222080Y-94718154D01*
X172222080Y-94718154D02*
X172269700Y-94670535D01*
X172269700Y-94670535D02*
X172317319Y-94575297D01*
X172317319Y-94575297D02*
X172317319Y-94337202D01*
X172317319Y-94337202D02*
X172269700Y-94241964D01*
X172269700Y-94241964D02*
X172222080Y-94194345D01*
X172317319Y-95718154D02*
X172317319Y-95146726D01*
X172317319Y-95432440D02*
X171317319Y-95432440D01*
X171317319Y-95432440D02*
X171460176Y-95337202D01*
X171460176Y-95337202D02*
X171555414Y-95241964D01*
X171555414Y-95241964D02*
X171603033Y-95146726D01*
X327479819Y-31329464D02*
X326479819Y-31329464D01*
X326479819Y-31329464D02*
X326479819Y-31567559D01*
X326479819Y-31567559D02*
X326527438Y-31710416D01*
X326527438Y-31710416D02*
X326622676Y-31805654D01*
X326622676Y-31805654D02*
X326717914Y-31853273D01*
X326717914Y-31853273D02*
X326908390Y-31900892D01*
X326908390Y-31900892D02*
X327051247Y-31900892D01*
X327051247Y-31900892D02*
X327241723Y-31853273D01*
X327241723Y-31853273D02*
X327336961Y-31805654D01*
X327336961Y-31805654D02*
X327432200Y-31710416D01*
X327432200Y-31710416D02*
X327479819Y-31567559D01*
X327479819Y-31567559D02*
X327479819Y-31329464D01*
X327479819Y-32853273D02*
X327479819Y-32281845D01*
X327479819Y-32567559D02*
X326479819Y-32567559D01*
X326479819Y-32567559D02*
X326622676Y-32472321D01*
X326622676Y-32472321D02*
X326717914Y-32377083D01*
X326717914Y-32377083D02*
X326765533Y-32281845D01*
X326813152Y-33710416D02*
X327479819Y-33710416D01*
X326432200Y-33472321D02*
X327146485Y-33234226D01*
X327146485Y-33234226D02*
X327146485Y-33853273D01*
X210417319Y-93241964D02*
X209417319Y-93241964D01*
X209417319Y-93241964D02*
X209417319Y-93480059D01*
X209417319Y-93480059D02*
X209464938Y-93622916D01*
X209464938Y-93622916D02*
X209560176Y-93718154D01*
X209560176Y-93718154D02*
X209655414Y-93765773D01*
X209655414Y-93765773D02*
X209845890Y-93813392D01*
X209845890Y-93813392D02*
X209988747Y-93813392D01*
X209988747Y-93813392D02*
X210179223Y-93765773D01*
X210179223Y-93765773D02*
X210274461Y-93718154D01*
X210274461Y-93718154D02*
X210369700Y-93622916D01*
X210369700Y-93622916D02*
X210417319Y-93480059D01*
X210417319Y-93480059D02*
X210417319Y-93241964D01*
X209417319Y-94718154D02*
X209417319Y-94241964D01*
X209417319Y-94241964D02*
X209893509Y-94194345D01*
X209893509Y-94194345D02*
X209845890Y-94241964D01*
X209845890Y-94241964D02*
X209798271Y-94337202D01*
X209798271Y-94337202D02*
X209798271Y-94575297D01*
X209798271Y-94575297D02*
X209845890Y-94670535D01*
X209845890Y-94670535D02*
X209893509Y-94718154D01*
X209893509Y-94718154D02*
X209988747Y-94765773D01*
X209988747Y-94765773D02*
X210226842Y-94765773D01*
X210226842Y-94765773D02*
X210322080Y-94718154D01*
X210322080Y-94718154D02*
X210369700Y-94670535D01*
X210369700Y-94670535D02*
X210417319Y-94575297D01*
X210417319Y-94575297D02*
X210417319Y-94337202D01*
X210417319Y-94337202D02*
X210369700Y-94241964D01*
X210369700Y-94241964D02*
X210322080Y-94194345D01*
X209417319Y-95099107D02*
X209417319Y-95718154D01*
X209417319Y-95718154D02*
X209798271Y-95384821D01*
X209798271Y-95384821D02*
X209798271Y-95527678D01*
X209798271Y-95527678D02*
X209845890Y-95622916D01*
X209845890Y-95622916D02*
X209893509Y-95670535D01*
X209893509Y-95670535D02*
X209988747Y-95718154D01*
X209988747Y-95718154D02*
X210226842Y-95718154D01*
X210226842Y-95718154D02*
X210322080Y-95670535D01*
X210322080Y-95670535D02*
X210369700Y-95622916D01*
X210369700Y-95622916D02*
X210417319Y-95527678D01*
X210417319Y-95527678D02*
X210417319Y-95241964D01*
X210417319Y-95241964D02*
X210369700Y-95146726D01*
X210369700Y-95146726D02*
X210322080Y-95099107D01*
X81829819Y-55141964D02*
X80829819Y-55141964D01*
X80829819Y-55141964D02*
X80829819Y-55380059D01*
X80829819Y-55380059D02*
X80877438Y-55522916D01*
X80877438Y-55522916D02*
X80972676Y-55618154D01*
X80972676Y-55618154D02*
X81067914Y-55665773D01*
X81067914Y-55665773D02*
X81258390Y-55713392D01*
X81258390Y-55713392D02*
X81401247Y-55713392D01*
X81401247Y-55713392D02*
X81591723Y-55665773D01*
X81591723Y-55665773D02*
X81686961Y-55618154D01*
X81686961Y-55618154D02*
X81782200Y-55522916D01*
X81782200Y-55522916D02*
X81829819Y-55380059D01*
X81829819Y-55380059D02*
X81829819Y-55141964D01*
X81829819Y-56665773D02*
X81829819Y-56094345D01*
X81829819Y-56380059D02*
X80829819Y-56380059D01*
X80829819Y-56380059D02*
X80972676Y-56284821D01*
X80972676Y-56284821D02*
X81067914Y-56189583D01*
X81067914Y-56189583D02*
X81115533Y-56094345D01*
X80829819Y-56999107D02*
X80829819Y-57665773D01*
X80829819Y-57665773D02*
X81829819Y-57237202D01*
X298523569Y-93241964D02*
X297523569Y-93241964D01*
X297523569Y-93241964D02*
X297523569Y-93480059D01*
X297523569Y-93480059D02*
X297571188Y-93622916D01*
X297571188Y-93622916D02*
X297666426Y-93718154D01*
X297666426Y-93718154D02*
X297761664Y-93765773D01*
X297761664Y-93765773D02*
X297952140Y-93813392D01*
X297952140Y-93813392D02*
X298094997Y-93813392D01*
X298094997Y-93813392D02*
X298285473Y-93765773D01*
X298285473Y-93765773D02*
X298380711Y-93718154D01*
X298380711Y-93718154D02*
X298475950Y-93622916D01*
X298475950Y-93622916D02*
X298523569Y-93480059D01*
X298523569Y-93480059D02*
X298523569Y-93241964D01*
X297523569Y-94718154D02*
X297523569Y-94241964D01*
X297523569Y-94241964D02*
X297999759Y-94194345D01*
X297999759Y-94194345D02*
X297952140Y-94241964D01*
X297952140Y-94241964D02*
X297904521Y-94337202D01*
X297904521Y-94337202D02*
X297904521Y-94575297D01*
X297904521Y-94575297D02*
X297952140Y-94670535D01*
X297952140Y-94670535D02*
X297999759Y-94718154D01*
X297999759Y-94718154D02*
X298094997Y-94765773D01*
X298094997Y-94765773D02*
X298333092Y-94765773D01*
X298333092Y-94765773D02*
X298428330Y-94718154D01*
X298428330Y-94718154D02*
X298475950Y-94670535D01*
X298475950Y-94670535D02*
X298523569Y-94575297D01*
X298523569Y-94575297D02*
X298523569Y-94337202D01*
X298523569Y-94337202D02*
X298475950Y-94241964D01*
X298475950Y-94241964D02*
X298428330Y-94194345D01*
X297523569Y-95099107D02*
X297523569Y-95765773D01*
X297523569Y-95765773D02*
X298523569Y-95337202D01*
X241373569Y-136104464D02*
X240373569Y-136104464D01*
X240373569Y-136104464D02*
X240373569Y-136342559D01*
X240373569Y-136342559D02*
X240421188Y-136485416D01*
X240421188Y-136485416D02*
X240516426Y-136580654D01*
X240516426Y-136580654D02*
X240611664Y-136628273D01*
X240611664Y-136628273D02*
X240802140Y-136675892D01*
X240802140Y-136675892D02*
X240944997Y-136675892D01*
X240944997Y-136675892D02*
X241135473Y-136628273D01*
X241135473Y-136628273D02*
X241230711Y-136580654D01*
X241230711Y-136580654D02*
X241325950Y-136485416D01*
X241325950Y-136485416D02*
X241373569Y-136342559D01*
X241373569Y-136342559D02*
X241373569Y-136104464D01*
X240373569Y-137009226D02*
X240373569Y-137675892D01*
X240373569Y-137675892D02*
X241373569Y-137247321D01*
X240802140Y-138199702D02*
X240754521Y-138104464D01*
X240754521Y-138104464D02*
X240706902Y-138056845D01*
X240706902Y-138056845D02*
X240611664Y-138009226D01*
X240611664Y-138009226D02*
X240564045Y-138009226D01*
X240564045Y-138009226D02*
X240468807Y-138056845D01*
X240468807Y-138056845D02*
X240421188Y-138104464D01*
X240421188Y-138104464D02*
X240373569Y-138199702D01*
X240373569Y-138199702D02*
X240373569Y-138390178D01*
X240373569Y-138390178D02*
X240421188Y-138485416D01*
X240421188Y-138485416D02*
X240468807Y-138533035D01*
X240468807Y-138533035D02*
X240564045Y-138580654D01*
X240564045Y-138580654D02*
X240611664Y-138580654D01*
X240611664Y-138580654D02*
X240706902Y-138533035D01*
X240706902Y-138533035D02*
X240754521Y-138485416D01*
X240754521Y-138485416D02*
X240802140Y-138390178D01*
X240802140Y-138390178D02*
X240802140Y-138199702D01*
X240802140Y-138199702D02*
X240849759Y-138104464D01*
X240849759Y-138104464D02*
X240897378Y-138056845D01*
X240897378Y-138056845D02*
X240992616Y-138009226D01*
X240992616Y-138009226D02*
X241183092Y-138009226D01*
X241183092Y-138009226D02*
X241278330Y-138056845D01*
X241278330Y-138056845D02*
X241325950Y-138104464D01*
X241325950Y-138104464D02*
X241373569Y-138199702D01*
X241373569Y-138199702D02*
X241373569Y-138390178D01*
X241373569Y-138390178D02*
X241325950Y-138485416D01*
X241325950Y-138485416D02*
X241278330Y-138533035D01*
X241278330Y-138533035D02*
X241183092Y-138580654D01*
X241183092Y-138580654D02*
X240992616Y-138580654D01*
X240992616Y-138580654D02*
X240897378Y-138533035D01*
X240897378Y-138533035D02*
X240849759Y-138485416D01*
X240849759Y-138485416D02*
X240802140Y-138390178D01*
X143742319Y-112291964D02*
X142742319Y-112291964D01*
X142742319Y-112291964D02*
X142742319Y-112530059D01*
X142742319Y-112530059D02*
X142789938Y-112672916D01*
X142789938Y-112672916D02*
X142885176Y-112768154D01*
X142885176Y-112768154D02*
X142980414Y-112815773D01*
X142980414Y-112815773D02*
X143170890Y-112863392D01*
X143170890Y-112863392D02*
X143313747Y-112863392D01*
X143313747Y-112863392D02*
X143504223Y-112815773D01*
X143504223Y-112815773D02*
X143599461Y-112768154D01*
X143599461Y-112768154D02*
X143694700Y-112672916D01*
X143694700Y-112672916D02*
X143742319Y-112530059D01*
X143742319Y-112530059D02*
X143742319Y-112291964D01*
X142742319Y-113720535D02*
X142742319Y-113530059D01*
X142742319Y-113530059D02*
X142789938Y-113434821D01*
X142789938Y-113434821D02*
X142837557Y-113387202D01*
X142837557Y-113387202D02*
X142980414Y-113291964D01*
X142980414Y-113291964D02*
X143170890Y-113244345D01*
X143170890Y-113244345D02*
X143551842Y-113244345D01*
X143551842Y-113244345D02*
X143647080Y-113291964D01*
X143647080Y-113291964D02*
X143694700Y-113339583D01*
X143694700Y-113339583D02*
X143742319Y-113434821D01*
X143742319Y-113434821D02*
X143742319Y-113625297D01*
X143742319Y-113625297D02*
X143694700Y-113720535D01*
X143694700Y-113720535D02*
X143647080Y-113768154D01*
X143647080Y-113768154D02*
X143551842Y-113815773D01*
X143551842Y-113815773D02*
X143313747Y-113815773D01*
X143313747Y-113815773D02*
X143218509Y-113768154D01*
X143218509Y-113768154D02*
X143170890Y-113720535D01*
X143170890Y-113720535D02*
X143123271Y-113625297D01*
X143123271Y-113625297D02*
X143123271Y-113434821D01*
X143123271Y-113434821D02*
X143170890Y-113339583D01*
X143170890Y-113339583D02*
X143218509Y-113291964D01*
X143218509Y-113291964D02*
X143313747Y-113244345D01*
X142742319Y-114149107D02*
X142742319Y-114768154D01*
X142742319Y-114768154D02*
X143123271Y-114434821D01*
X143123271Y-114434821D02*
X143123271Y-114577678D01*
X143123271Y-114577678D02*
X143170890Y-114672916D01*
X143170890Y-114672916D02*
X143218509Y-114720535D01*
X143218509Y-114720535D02*
X143313747Y-114768154D01*
X143313747Y-114768154D02*
X143551842Y-114768154D01*
X143551842Y-114768154D02*
X143647080Y-114720535D01*
X143647080Y-114720535D02*
X143694700Y-114672916D01*
X143694700Y-114672916D02*
X143742319Y-114577678D01*
X143742319Y-114577678D02*
X143742319Y-114291964D01*
X143742319Y-114291964D02*
X143694700Y-114196726D01*
X143694700Y-114196726D02*
X143647080Y-114149107D01*
X202479819Y-31805655D02*
X201479819Y-31805655D01*
X201479819Y-31805655D02*
X201479819Y-32043750D01*
X201479819Y-32043750D02*
X201527438Y-32186607D01*
X201527438Y-32186607D02*
X201622676Y-32281845D01*
X201622676Y-32281845D02*
X201717914Y-32329464D01*
X201717914Y-32329464D02*
X201908390Y-32377083D01*
X201908390Y-32377083D02*
X202051247Y-32377083D01*
X202051247Y-32377083D02*
X202241723Y-32329464D01*
X202241723Y-32329464D02*
X202336961Y-32281845D01*
X202336961Y-32281845D02*
X202432200Y-32186607D01*
X202432200Y-32186607D02*
X202479819Y-32043750D01*
X202479819Y-32043750D02*
X202479819Y-31805655D01*
X202479819Y-32853274D02*
X202479819Y-33043750D01*
X202479819Y-33043750D02*
X202432200Y-33138988D01*
X202432200Y-33138988D02*
X202384580Y-33186607D01*
X202384580Y-33186607D02*
X202241723Y-33281845D01*
X202241723Y-33281845D02*
X202051247Y-33329464D01*
X202051247Y-33329464D02*
X201670295Y-33329464D01*
X201670295Y-33329464D02*
X201575057Y-33281845D01*
X201575057Y-33281845D02*
X201527438Y-33234226D01*
X201527438Y-33234226D02*
X201479819Y-33138988D01*
X201479819Y-33138988D02*
X201479819Y-32948512D01*
X201479819Y-32948512D02*
X201527438Y-32853274D01*
X201527438Y-32853274D02*
X201575057Y-32805655D01*
X201575057Y-32805655D02*
X201670295Y-32758036D01*
X201670295Y-32758036D02*
X201908390Y-32758036D01*
X201908390Y-32758036D02*
X202003628Y-32805655D01*
X202003628Y-32805655D02*
X202051247Y-32853274D01*
X202051247Y-32853274D02*
X202098866Y-32948512D01*
X202098866Y-32948512D02*
X202098866Y-33138988D01*
X202098866Y-33138988D02*
X202051247Y-33234226D01*
X202051247Y-33234226D02*
X202003628Y-33281845D01*
X202003628Y-33281845D02*
X201908390Y-33329464D01*
X224704819Y-32123214D02*
X223704819Y-32123214D01*
X223704819Y-32123214D02*
X223704819Y-32361309D01*
X223704819Y-32361309D02*
X223752438Y-32504166D01*
X223752438Y-32504166D02*
X223847676Y-32599404D01*
X223847676Y-32599404D02*
X223942914Y-32647023D01*
X223942914Y-32647023D02*
X224133390Y-32694642D01*
X224133390Y-32694642D02*
X224276247Y-32694642D01*
X224276247Y-32694642D02*
X224466723Y-32647023D01*
X224466723Y-32647023D02*
X224561961Y-32599404D01*
X224561961Y-32599404D02*
X224657200Y-32504166D01*
X224657200Y-32504166D02*
X224704819Y-32361309D01*
X224704819Y-32361309D02*
X224704819Y-32123214D01*
X224704819Y-33647023D02*
X224704819Y-33075595D01*
X224704819Y-33361309D02*
X223704819Y-33361309D01*
X223704819Y-33361309D02*
X223847676Y-33266071D01*
X223847676Y-33266071D02*
X223942914Y-33170833D01*
X223942914Y-33170833D02*
X223990533Y-33075595D01*
X223704819Y-34266071D02*
X223704819Y-34361309D01*
X223704819Y-34361309D02*
X223752438Y-34456547D01*
X223752438Y-34456547D02*
X223800057Y-34504166D01*
X223800057Y-34504166D02*
X223895295Y-34551785D01*
X223895295Y-34551785D02*
X224085771Y-34599404D01*
X224085771Y-34599404D02*
X224323866Y-34599404D01*
X224323866Y-34599404D02*
X224514342Y-34551785D01*
X224514342Y-34551785D02*
X224609580Y-34504166D01*
X224609580Y-34504166D02*
X224657200Y-34456547D01*
X224657200Y-34456547D02*
X224704819Y-34361309D01*
X224704819Y-34361309D02*
X224704819Y-34266071D01*
X224704819Y-34266071D02*
X224657200Y-34170833D01*
X224657200Y-34170833D02*
X224609580Y-34123214D01*
X224609580Y-34123214D02*
X224514342Y-34075595D01*
X224514342Y-34075595D02*
X224323866Y-34027976D01*
X224323866Y-34027976D02*
X224085771Y-34027976D01*
X224085771Y-34027976D02*
X223895295Y-34075595D01*
X223895295Y-34075595D02*
X223800057Y-34123214D01*
X223800057Y-34123214D02*
X223752438Y-34170833D01*
X223752438Y-34170833D02*
X223704819Y-34266071D01*
X153267319Y-94035714D02*
X152267319Y-94035714D01*
X152267319Y-94035714D02*
X152267319Y-94273809D01*
X152267319Y-94273809D02*
X152314938Y-94416666D01*
X152314938Y-94416666D02*
X152410176Y-94511904D01*
X152410176Y-94511904D02*
X152505414Y-94559523D01*
X152505414Y-94559523D02*
X152695890Y-94607142D01*
X152695890Y-94607142D02*
X152838747Y-94607142D01*
X152838747Y-94607142D02*
X153029223Y-94559523D01*
X153029223Y-94559523D02*
X153124461Y-94511904D01*
X153124461Y-94511904D02*
X153219700Y-94416666D01*
X153219700Y-94416666D02*
X153267319Y-94273809D01*
X153267319Y-94273809D02*
X153267319Y-94035714D01*
X152267319Y-95511904D02*
X152267319Y-95035714D01*
X152267319Y-95035714D02*
X152743509Y-94988095D01*
X152743509Y-94988095D02*
X152695890Y-95035714D01*
X152695890Y-95035714D02*
X152648271Y-95130952D01*
X152648271Y-95130952D02*
X152648271Y-95369047D01*
X152648271Y-95369047D02*
X152695890Y-95464285D01*
X152695890Y-95464285D02*
X152743509Y-95511904D01*
X152743509Y-95511904D02*
X152838747Y-95559523D01*
X152838747Y-95559523D02*
X153076842Y-95559523D01*
X153076842Y-95559523D02*
X153172080Y-95511904D01*
X153172080Y-95511904D02*
X153219700Y-95464285D01*
X153219700Y-95464285D02*
X153267319Y-95369047D01*
X153267319Y-95369047D02*
X153267319Y-95130952D01*
X153267319Y-95130952D02*
X153219700Y-95035714D01*
X153219700Y-95035714D02*
X153172080Y-94988095D01*
X152267319Y-96178571D02*
X152267319Y-96273809D01*
X152267319Y-96273809D02*
X152314938Y-96369047D01*
X152314938Y-96369047D02*
X152362557Y-96416666D01*
X152362557Y-96416666D02*
X152457795Y-96464285D01*
X152457795Y-96464285D02*
X152648271Y-96511904D01*
X152648271Y-96511904D02*
X152886366Y-96511904D01*
X152886366Y-96511904D02*
X153076842Y-96464285D01*
X153076842Y-96464285D02*
X153172080Y-96416666D01*
X153172080Y-96416666D02*
X153219700Y-96369047D01*
X153219700Y-96369047D02*
X153267319Y-96273809D01*
X153267319Y-96273809D02*
X153267319Y-96178571D01*
X153267319Y-96178571D02*
X153219700Y-96083333D01*
X153219700Y-96083333D02*
X153172080Y-96035714D01*
X153172080Y-96035714D02*
X153076842Y-95988095D01*
X153076842Y-95988095D02*
X152886366Y-95940476D01*
X152886366Y-95940476D02*
X152648271Y-95940476D01*
X152648271Y-95940476D02*
X152457795Y-95988095D01*
X152457795Y-95988095D02*
X152362557Y-96035714D01*
X152362557Y-96035714D02*
X152314938Y-96083333D01*
X152314938Y-96083333D02*
X152267319Y-96178571D01*
X243754819Y-31329464D02*
X242754819Y-31329464D01*
X242754819Y-31329464D02*
X242754819Y-31567559D01*
X242754819Y-31567559D02*
X242802438Y-31710416D01*
X242802438Y-31710416D02*
X242897676Y-31805654D01*
X242897676Y-31805654D02*
X242992914Y-31853273D01*
X242992914Y-31853273D02*
X243183390Y-31900892D01*
X243183390Y-31900892D02*
X243326247Y-31900892D01*
X243326247Y-31900892D02*
X243516723Y-31853273D01*
X243516723Y-31853273D02*
X243611961Y-31805654D01*
X243611961Y-31805654D02*
X243707200Y-31710416D01*
X243707200Y-31710416D02*
X243754819Y-31567559D01*
X243754819Y-31567559D02*
X243754819Y-31329464D01*
X243754819Y-32853273D02*
X243754819Y-32281845D01*
X243754819Y-32567559D02*
X242754819Y-32567559D01*
X242754819Y-32567559D02*
X242897676Y-32472321D01*
X242897676Y-32472321D02*
X242992914Y-32377083D01*
X242992914Y-32377083D02*
X243040533Y-32281845D01*
X243754819Y-33805654D02*
X243754819Y-33234226D01*
X243754819Y-33519940D02*
X242754819Y-33519940D01*
X242754819Y-33519940D02*
X242897676Y-33424702D01*
X242897676Y-33424702D02*
X242992914Y-33329464D01*
X242992914Y-33329464D02*
X243040533Y-33234226D01*
X305667319Y-77366964D02*
X304667319Y-77366964D01*
X304667319Y-77366964D02*
X304667319Y-77605059D01*
X304667319Y-77605059D02*
X304714938Y-77747916D01*
X304714938Y-77747916D02*
X304810176Y-77843154D01*
X304810176Y-77843154D02*
X304905414Y-77890773D01*
X304905414Y-77890773D02*
X305095890Y-77938392D01*
X305095890Y-77938392D02*
X305238747Y-77938392D01*
X305238747Y-77938392D02*
X305429223Y-77890773D01*
X305429223Y-77890773D02*
X305524461Y-77843154D01*
X305524461Y-77843154D02*
X305619700Y-77747916D01*
X305619700Y-77747916D02*
X305667319Y-77605059D01*
X305667319Y-77605059D02*
X305667319Y-77366964D01*
X305000652Y-78795535D02*
X305667319Y-78795535D01*
X304619700Y-78557440D02*
X305333985Y-78319345D01*
X305333985Y-78319345D02*
X305333985Y-78938392D01*
X304667319Y-79224107D02*
X304667319Y-79843154D01*
X304667319Y-79843154D02*
X305048271Y-79509821D01*
X305048271Y-79509821D02*
X305048271Y-79652678D01*
X305048271Y-79652678D02*
X305095890Y-79747916D01*
X305095890Y-79747916D02*
X305143509Y-79795535D01*
X305143509Y-79795535D02*
X305238747Y-79843154D01*
X305238747Y-79843154D02*
X305476842Y-79843154D01*
X305476842Y-79843154D02*
X305572080Y-79795535D01*
X305572080Y-79795535D02*
X305619700Y-79747916D01*
X305619700Y-79747916D02*
X305667319Y-79652678D01*
X305667319Y-79652678D02*
X305667319Y-79366964D01*
X305667319Y-79366964D02*
X305619700Y-79271726D01*
X305619700Y-79271726D02*
X305572080Y-79224107D01*
X200892319Y-113085714D02*
X199892319Y-113085714D01*
X199892319Y-113085714D02*
X199892319Y-113323809D01*
X199892319Y-113323809D02*
X199939938Y-113466666D01*
X199939938Y-113466666D02*
X200035176Y-113561904D01*
X200035176Y-113561904D02*
X200130414Y-113609523D01*
X200130414Y-113609523D02*
X200320890Y-113657142D01*
X200320890Y-113657142D02*
X200463747Y-113657142D01*
X200463747Y-113657142D02*
X200654223Y-113609523D01*
X200654223Y-113609523D02*
X200749461Y-113561904D01*
X200749461Y-113561904D02*
X200844700Y-113466666D01*
X200844700Y-113466666D02*
X200892319Y-113323809D01*
X200892319Y-113323809D02*
X200892319Y-113085714D01*
X199892319Y-114514285D02*
X199892319Y-114323809D01*
X199892319Y-114323809D02*
X199939938Y-114228571D01*
X199939938Y-114228571D02*
X199987557Y-114180952D01*
X199987557Y-114180952D02*
X200130414Y-114085714D01*
X200130414Y-114085714D02*
X200320890Y-114038095D01*
X200320890Y-114038095D02*
X200701842Y-114038095D01*
X200701842Y-114038095D02*
X200797080Y-114085714D01*
X200797080Y-114085714D02*
X200844700Y-114133333D01*
X200844700Y-114133333D02*
X200892319Y-114228571D01*
X200892319Y-114228571D02*
X200892319Y-114419047D01*
X200892319Y-114419047D02*
X200844700Y-114514285D01*
X200844700Y-114514285D02*
X200797080Y-114561904D01*
X200797080Y-114561904D02*
X200701842Y-114609523D01*
X200701842Y-114609523D02*
X200463747Y-114609523D01*
X200463747Y-114609523D02*
X200368509Y-114561904D01*
X200368509Y-114561904D02*
X200320890Y-114514285D01*
X200320890Y-114514285D02*
X200273271Y-114419047D01*
X200273271Y-114419047D02*
X200273271Y-114228571D01*
X200273271Y-114228571D02*
X200320890Y-114133333D01*
X200320890Y-114133333D02*
X200368509Y-114085714D01*
X200368509Y-114085714D02*
X200463747Y-114038095D01*
X199892319Y-115466666D02*
X199892319Y-115276190D01*
X199892319Y-115276190D02*
X199939938Y-115180952D01*
X199939938Y-115180952D02*
X199987557Y-115133333D01*
X199987557Y-115133333D02*
X200130414Y-115038095D01*
X200130414Y-115038095D02*
X200320890Y-114990476D01*
X200320890Y-114990476D02*
X200701842Y-114990476D01*
X200701842Y-114990476D02*
X200797080Y-115038095D01*
X200797080Y-115038095D02*
X200844700Y-115085714D01*
X200844700Y-115085714D02*
X200892319Y-115180952D01*
X200892319Y-115180952D02*
X200892319Y-115371428D01*
X200892319Y-115371428D02*
X200844700Y-115466666D01*
X200844700Y-115466666D02*
X200797080Y-115514285D01*
X200797080Y-115514285D02*
X200701842Y-115561904D01*
X200701842Y-115561904D02*
X200463747Y-115561904D01*
X200463747Y-115561904D02*
X200368509Y-115514285D01*
X200368509Y-115514285D02*
X200320890Y-115466666D01*
X200320890Y-115466666D02*
X200273271Y-115371428D01*
X200273271Y-115371428D02*
X200273271Y-115180952D01*
X200273271Y-115180952D02*
X200320890Y-115085714D01*
X200320890Y-115085714D02*
X200368509Y-115038095D01*
X200368509Y-115038095D02*
X200463747Y-114990476D01*
X310429819Y-134516964D02*
X309429819Y-134516964D01*
X309429819Y-134516964D02*
X309429819Y-134755059D01*
X309429819Y-134755059D02*
X309477438Y-134897916D01*
X309477438Y-134897916D02*
X309572676Y-134993154D01*
X309572676Y-134993154D02*
X309667914Y-135040773D01*
X309667914Y-135040773D02*
X309858390Y-135088392D01*
X309858390Y-135088392D02*
X310001247Y-135088392D01*
X310001247Y-135088392D02*
X310191723Y-135040773D01*
X310191723Y-135040773D02*
X310286961Y-134993154D01*
X310286961Y-134993154D02*
X310382200Y-134897916D01*
X310382200Y-134897916D02*
X310429819Y-134755059D01*
X310429819Y-134755059D02*
X310429819Y-134516964D01*
X309858390Y-135659821D02*
X309810771Y-135564583D01*
X309810771Y-135564583D02*
X309763152Y-135516964D01*
X309763152Y-135516964D02*
X309667914Y-135469345D01*
X309667914Y-135469345D02*
X309620295Y-135469345D01*
X309620295Y-135469345D02*
X309525057Y-135516964D01*
X309525057Y-135516964D02*
X309477438Y-135564583D01*
X309477438Y-135564583D02*
X309429819Y-135659821D01*
X309429819Y-135659821D02*
X309429819Y-135850297D01*
X309429819Y-135850297D02*
X309477438Y-135945535D01*
X309477438Y-135945535D02*
X309525057Y-135993154D01*
X309525057Y-135993154D02*
X309620295Y-136040773D01*
X309620295Y-136040773D02*
X309667914Y-136040773D01*
X309667914Y-136040773D02*
X309763152Y-135993154D01*
X309763152Y-135993154D02*
X309810771Y-135945535D01*
X309810771Y-135945535D02*
X309858390Y-135850297D01*
X309858390Y-135850297D02*
X309858390Y-135659821D01*
X309858390Y-135659821D02*
X309906009Y-135564583D01*
X309906009Y-135564583D02*
X309953628Y-135516964D01*
X309953628Y-135516964D02*
X310048866Y-135469345D01*
X310048866Y-135469345D02*
X310239342Y-135469345D01*
X310239342Y-135469345D02*
X310334580Y-135516964D01*
X310334580Y-135516964D02*
X310382200Y-135564583D01*
X310382200Y-135564583D02*
X310429819Y-135659821D01*
X310429819Y-135659821D02*
X310429819Y-135850297D01*
X310429819Y-135850297D02*
X310382200Y-135945535D01*
X310382200Y-135945535D02*
X310334580Y-135993154D01*
X310334580Y-135993154D02*
X310239342Y-136040773D01*
X310239342Y-136040773D02*
X310048866Y-136040773D01*
X310048866Y-136040773D02*
X309953628Y-135993154D01*
X309953628Y-135993154D02*
X309906009Y-135945535D01*
X309906009Y-135945535D02*
X309858390Y-135850297D01*
X309429819Y-136659821D02*
X309429819Y-136755059D01*
X309429819Y-136755059D02*
X309477438Y-136850297D01*
X309477438Y-136850297D02*
X309525057Y-136897916D01*
X309525057Y-136897916D02*
X309620295Y-136945535D01*
X309620295Y-136945535D02*
X309810771Y-136993154D01*
X309810771Y-136993154D02*
X310048866Y-136993154D01*
X310048866Y-136993154D02*
X310239342Y-136945535D01*
X310239342Y-136945535D02*
X310334580Y-136897916D01*
X310334580Y-136897916D02*
X310382200Y-136850297D01*
X310382200Y-136850297D02*
X310429819Y-136755059D01*
X310429819Y-136755059D02*
X310429819Y-136659821D01*
X310429819Y-136659821D02*
X310382200Y-136564583D01*
X310382200Y-136564583D02*
X310334580Y-136516964D01*
X310334580Y-136516964D02*
X310239342Y-136469345D01*
X310239342Y-136469345D02*
X310048866Y-136421726D01*
X310048866Y-136421726D02*
X309810771Y-136421726D01*
X309810771Y-136421726D02*
X309620295Y-136469345D01*
X309620295Y-136469345D02*
X309525057Y-136516964D01*
X309525057Y-136516964D02*
X309477438Y-136564583D01*
X309477438Y-136564583D02*
X309429819Y-136659821D01*
X229467319Y-94035714D02*
X228467319Y-94035714D01*
X228467319Y-94035714D02*
X228467319Y-94273809D01*
X228467319Y-94273809D02*
X228514938Y-94416666D01*
X228514938Y-94416666D02*
X228610176Y-94511904D01*
X228610176Y-94511904D02*
X228705414Y-94559523D01*
X228705414Y-94559523D02*
X228895890Y-94607142D01*
X228895890Y-94607142D02*
X229038747Y-94607142D01*
X229038747Y-94607142D02*
X229229223Y-94559523D01*
X229229223Y-94559523D02*
X229324461Y-94511904D01*
X229324461Y-94511904D02*
X229419700Y-94416666D01*
X229419700Y-94416666D02*
X229467319Y-94273809D01*
X229467319Y-94273809D02*
X229467319Y-94035714D01*
X228467319Y-95511904D02*
X228467319Y-95035714D01*
X228467319Y-95035714D02*
X228943509Y-94988095D01*
X228943509Y-94988095D02*
X228895890Y-95035714D01*
X228895890Y-95035714D02*
X228848271Y-95130952D01*
X228848271Y-95130952D02*
X228848271Y-95369047D01*
X228848271Y-95369047D02*
X228895890Y-95464285D01*
X228895890Y-95464285D02*
X228943509Y-95511904D01*
X228943509Y-95511904D02*
X229038747Y-95559523D01*
X229038747Y-95559523D02*
X229276842Y-95559523D01*
X229276842Y-95559523D02*
X229372080Y-95511904D01*
X229372080Y-95511904D02*
X229419700Y-95464285D01*
X229419700Y-95464285D02*
X229467319Y-95369047D01*
X229467319Y-95369047D02*
X229467319Y-95130952D01*
X229467319Y-95130952D02*
X229419700Y-95035714D01*
X229419700Y-95035714D02*
X229372080Y-94988095D01*
X228800652Y-96416666D02*
X229467319Y-96416666D01*
X228419700Y-96178571D02*
X229133985Y-95940476D01*
X229133985Y-95940476D02*
X229133985Y-96559523D01*
X272329819Y-55141964D02*
X271329819Y-55141964D01*
X271329819Y-55141964D02*
X271329819Y-55380059D01*
X271329819Y-55380059D02*
X271377438Y-55522916D01*
X271377438Y-55522916D02*
X271472676Y-55618154D01*
X271472676Y-55618154D02*
X271567914Y-55665773D01*
X271567914Y-55665773D02*
X271758390Y-55713392D01*
X271758390Y-55713392D02*
X271901247Y-55713392D01*
X271901247Y-55713392D02*
X272091723Y-55665773D01*
X272091723Y-55665773D02*
X272186961Y-55618154D01*
X272186961Y-55618154D02*
X272282200Y-55522916D01*
X272282200Y-55522916D02*
X272329819Y-55380059D01*
X272329819Y-55380059D02*
X272329819Y-55141964D01*
X271425057Y-56094345D02*
X271377438Y-56141964D01*
X271377438Y-56141964D02*
X271329819Y-56237202D01*
X271329819Y-56237202D02*
X271329819Y-56475297D01*
X271329819Y-56475297D02*
X271377438Y-56570535D01*
X271377438Y-56570535D02*
X271425057Y-56618154D01*
X271425057Y-56618154D02*
X271520295Y-56665773D01*
X271520295Y-56665773D02*
X271615533Y-56665773D01*
X271615533Y-56665773D02*
X271758390Y-56618154D01*
X271758390Y-56618154D02*
X272329819Y-56046726D01*
X272329819Y-56046726D02*
X272329819Y-56665773D01*
X271329819Y-56999107D02*
X271329819Y-57665773D01*
X271329819Y-57665773D02*
X272329819Y-57237202D01*
X146123569Y-136898214D02*
X145123569Y-136898214D01*
X145123569Y-136898214D02*
X145123569Y-137136309D01*
X145123569Y-137136309D02*
X145171188Y-137279166D01*
X145171188Y-137279166D02*
X145266426Y-137374404D01*
X145266426Y-137374404D02*
X145361664Y-137422023D01*
X145361664Y-137422023D02*
X145552140Y-137469642D01*
X145552140Y-137469642D02*
X145694997Y-137469642D01*
X145694997Y-137469642D02*
X145885473Y-137422023D01*
X145885473Y-137422023D02*
X145980711Y-137374404D01*
X145980711Y-137374404D02*
X146075950Y-137279166D01*
X146075950Y-137279166D02*
X146123569Y-137136309D01*
X146123569Y-137136309D02*
X146123569Y-136898214D01*
X145123569Y-137802976D02*
X145123569Y-138469642D01*
X145123569Y-138469642D02*
X146123569Y-138041071D01*
X145123569Y-139279166D02*
X145123569Y-139088690D01*
X145123569Y-139088690D02*
X145171188Y-138993452D01*
X145171188Y-138993452D02*
X145218807Y-138945833D01*
X145218807Y-138945833D02*
X145361664Y-138850595D01*
X145361664Y-138850595D02*
X145552140Y-138802976D01*
X145552140Y-138802976D02*
X145933092Y-138802976D01*
X145933092Y-138802976D02*
X146028330Y-138850595D01*
X146028330Y-138850595D02*
X146075950Y-138898214D01*
X146075950Y-138898214D02*
X146123569Y-138993452D01*
X146123569Y-138993452D02*
X146123569Y-139183928D01*
X146123569Y-139183928D02*
X146075950Y-139279166D01*
X146075950Y-139279166D02*
X146028330Y-139326785D01*
X146028330Y-139326785D02*
X145933092Y-139374404D01*
X145933092Y-139374404D02*
X145694997Y-139374404D01*
X145694997Y-139374404D02*
X145599759Y-139326785D01*
X145599759Y-139326785D02*
X145552140Y-139279166D01*
X145552140Y-139279166D02*
X145504521Y-139183928D01*
X145504521Y-139183928D02*
X145504521Y-138993452D01*
X145504521Y-138993452D02*
X145552140Y-138898214D01*
X145552140Y-138898214D02*
X145599759Y-138850595D01*
X145599759Y-138850595D02*
X145694997Y-138802976D01*
X205654819Y-74191964D02*
X204654819Y-74191964D01*
X204654819Y-74191964D02*
X204654819Y-74430059D01*
X204654819Y-74430059D02*
X204702438Y-74572916D01*
X204702438Y-74572916D02*
X204797676Y-74668154D01*
X204797676Y-74668154D02*
X204892914Y-74715773D01*
X204892914Y-74715773D02*
X205083390Y-74763392D01*
X205083390Y-74763392D02*
X205226247Y-74763392D01*
X205226247Y-74763392D02*
X205416723Y-74715773D01*
X205416723Y-74715773D02*
X205511961Y-74668154D01*
X205511961Y-74668154D02*
X205607200Y-74572916D01*
X205607200Y-74572916D02*
X205654819Y-74430059D01*
X205654819Y-74430059D02*
X205654819Y-74191964D01*
X204654819Y-75096726D02*
X204654819Y-75715773D01*
X204654819Y-75715773D02*
X205035771Y-75382440D01*
X205035771Y-75382440D02*
X205035771Y-75525297D01*
X205035771Y-75525297D02*
X205083390Y-75620535D01*
X205083390Y-75620535D02*
X205131009Y-75668154D01*
X205131009Y-75668154D02*
X205226247Y-75715773D01*
X205226247Y-75715773D02*
X205464342Y-75715773D01*
X205464342Y-75715773D02*
X205559580Y-75668154D01*
X205559580Y-75668154D02*
X205607200Y-75620535D01*
X205607200Y-75620535D02*
X205654819Y-75525297D01*
X205654819Y-75525297D02*
X205654819Y-75239583D01*
X205654819Y-75239583D02*
X205607200Y-75144345D01*
X205607200Y-75144345D02*
X205559580Y-75096726D01*
X205083390Y-76287202D02*
X205035771Y-76191964D01*
X205035771Y-76191964D02*
X204988152Y-76144345D01*
X204988152Y-76144345D02*
X204892914Y-76096726D01*
X204892914Y-76096726D02*
X204845295Y-76096726D01*
X204845295Y-76096726D02*
X204750057Y-76144345D01*
X204750057Y-76144345D02*
X204702438Y-76191964D01*
X204702438Y-76191964D02*
X204654819Y-76287202D01*
X204654819Y-76287202D02*
X204654819Y-76477678D01*
X204654819Y-76477678D02*
X204702438Y-76572916D01*
X204702438Y-76572916D02*
X204750057Y-76620535D01*
X204750057Y-76620535D02*
X204845295Y-76668154D01*
X204845295Y-76668154D02*
X204892914Y-76668154D01*
X204892914Y-76668154D02*
X204988152Y-76620535D01*
X204988152Y-76620535D02*
X205035771Y-76572916D01*
X205035771Y-76572916D02*
X205083390Y-76477678D01*
X205083390Y-76477678D02*
X205083390Y-76287202D01*
X205083390Y-76287202D02*
X205131009Y-76191964D01*
X205131009Y-76191964D02*
X205178628Y-76144345D01*
X205178628Y-76144345D02*
X205273866Y-76096726D01*
X205273866Y-76096726D02*
X205464342Y-76096726D01*
X205464342Y-76096726D02*
X205559580Y-76144345D01*
X205559580Y-76144345D02*
X205607200Y-76191964D01*
X205607200Y-76191964D02*
X205654819Y-76287202D01*
X205654819Y-76287202D02*
X205654819Y-76477678D01*
X205654819Y-76477678D02*
X205607200Y-76572916D01*
X205607200Y-76572916D02*
X205559580Y-76620535D01*
X205559580Y-76620535D02*
X205464342Y-76668154D01*
X205464342Y-76668154D02*
X205273866Y-76668154D01*
X205273866Y-76668154D02*
X205178628Y-76620535D01*
X205178628Y-76620535D02*
X205131009Y-76572916D01*
X205131009Y-76572916D02*
X205083390Y-76477678D01*
X224704819Y-74985714D02*
X223704819Y-74985714D01*
X223704819Y-74985714D02*
X223704819Y-75223809D01*
X223704819Y-75223809D02*
X223752438Y-75366666D01*
X223752438Y-75366666D02*
X223847676Y-75461904D01*
X223847676Y-75461904D02*
X223942914Y-75509523D01*
X223942914Y-75509523D02*
X224133390Y-75557142D01*
X224133390Y-75557142D02*
X224276247Y-75557142D01*
X224276247Y-75557142D02*
X224466723Y-75509523D01*
X224466723Y-75509523D02*
X224561961Y-75461904D01*
X224561961Y-75461904D02*
X224657200Y-75366666D01*
X224657200Y-75366666D02*
X224704819Y-75223809D01*
X224704819Y-75223809D02*
X224704819Y-74985714D01*
X223704819Y-75890476D02*
X223704819Y-76509523D01*
X223704819Y-76509523D02*
X224085771Y-76176190D01*
X224085771Y-76176190D02*
X224085771Y-76319047D01*
X224085771Y-76319047D02*
X224133390Y-76414285D01*
X224133390Y-76414285D02*
X224181009Y-76461904D01*
X224181009Y-76461904D02*
X224276247Y-76509523D01*
X224276247Y-76509523D02*
X224514342Y-76509523D01*
X224514342Y-76509523D02*
X224609580Y-76461904D01*
X224609580Y-76461904D02*
X224657200Y-76414285D01*
X224657200Y-76414285D02*
X224704819Y-76319047D01*
X224704819Y-76319047D02*
X224704819Y-76033333D01*
X224704819Y-76033333D02*
X224657200Y-75938095D01*
X224657200Y-75938095D02*
X224609580Y-75890476D01*
X224704819Y-76985714D02*
X224704819Y-77176190D01*
X224704819Y-77176190D02*
X224657200Y-77271428D01*
X224657200Y-77271428D02*
X224609580Y-77319047D01*
X224609580Y-77319047D02*
X224466723Y-77414285D01*
X224466723Y-77414285D02*
X224276247Y-77461904D01*
X224276247Y-77461904D02*
X223895295Y-77461904D01*
X223895295Y-77461904D02*
X223800057Y-77414285D01*
X223800057Y-77414285D02*
X223752438Y-77366666D01*
X223752438Y-77366666D02*
X223704819Y-77271428D01*
X223704819Y-77271428D02*
X223704819Y-77080952D01*
X223704819Y-77080952D02*
X223752438Y-76985714D01*
X223752438Y-76985714D02*
X223800057Y-76938095D01*
X223800057Y-76938095D02*
X223895295Y-76890476D01*
X223895295Y-76890476D02*
X224133390Y-76890476D01*
X224133390Y-76890476D02*
X224228628Y-76938095D01*
X224228628Y-76938095D02*
X224276247Y-76985714D01*
X224276247Y-76985714D02*
X224323866Y-77080952D01*
X224323866Y-77080952D02*
X224323866Y-77271428D01*
X224323866Y-77271428D02*
X224276247Y-77366666D01*
X224276247Y-77366666D02*
X224228628Y-77414285D01*
X224228628Y-77414285D02*
X224133390Y-77461904D01*
X129454819Y-74191964D02*
X128454819Y-74191964D01*
X128454819Y-74191964D02*
X128454819Y-74430059D01*
X128454819Y-74430059D02*
X128502438Y-74572916D01*
X128502438Y-74572916D02*
X128597676Y-74668154D01*
X128597676Y-74668154D02*
X128692914Y-74715773D01*
X128692914Y-74715773D02*
X128883390Y-74763392D01*
X128883390Y-74763392D02*
X129026247Y-74763392D01*
X129026247Y-74763392D02*
X129216723Y-74715773D01*
X129216723Y-74715773D02*
X129311961Y-74668154D01*
X129311961Y-74668154D02*
X129407200Y-74572916D01*
X129407200Y-74572916D02*
X129454819Y-74430059D01*
X129454819Y-74430059D02*
X129454819Y-74191964D01*
X128454819Y-75096726D02*
X128454819Y-75715773D01*
X128454819Y-75715773D02*
X128835771Y-75382440D01*
X128835771Y-75382440D02*
X128835771Y-75525297D01*
X128835771Y-75525297D02*
X128883390Y-75620535D01*
X128883390Y-75620535D02*
X128931009Y-75668154D01*
X128931009Y-75668154D02*
X129026247Y-75715773D01*
X129026247Y-75715773D02*
X129264342Y-75715773D01*
X129264342Y-75715773D02*
X129359580Y-75668154D01*
X129359580Y-75668154D02*
X129407200Y-75620535D01*
X129407200Y-75620535D02*
X129454819Y-75525297D01*
X129454819Y-75525297D02*
X129454819Y-75239583D01*
X129454819Y-75239583D02*
X129407200Y-75144345D01*
X129407200Y-75144345D02*
X129359580Y-75096726D01*
X128788152Y-76572916D02*
X129454819Y-76572916D01*
X128407200Y-76334821D02*
X129121485Y-76096726D01*
X129121485Y-76096726D02*
X129121485Y-76715773D01*
X54842319Y-93241964D02*
X53842319Y-93241964D01*
X53842319Y-93241964D02*
X53842319Y-93480059D01*
X53842319Y-93480059D02*
X53889938Y-93622916D01*
X53889938Y-93622916D02*
X53985176Y-93718154D01*
X53985176Y-93718154D02*
X54080414Y-93765773D01*
X54080414Y-93765773D02*
X54270890Y-93813392D01*
X54270890Y-93813392D02*
X54413747Y-93813392D01*
X54413747Y-93813392D02*
X54604223Y-93765773D01*
X54604223Y-93765773D02*
X54699461Y-93718154D01*
X54699461Y-93718154D02*
X54794700Y-93622916D01*
X54794700Y-93622916D02*
X54842319Y-93480059D01*
X54842319Y-93480059D02*
X54842319Y-93241964D01*
X54175652Y-94670535D02*
X54842319Y-94670535D01*
X53794700Y-94432440D02*
X54508985Y-94194345D01*
X54508985Y-94194345D02*
X54508985Y-94813392D01*
X53842319Y-95670535D02*
X53842319Y-95194345D01*
X53842319Y-95194345D02*
X54318509Y-95146726D01*
X54318509Y-95146726D02*
X54270890Y-95194345D01*
X54270890Y-95194345D02*
X54223271Y-95289583D01*
X54223271Y-95289583D02*
X54223271Y-95527678D01*
X54223271Y-95527678D02*
X54270890Y-95622916D01*
X54270890Y-95622916D02*
X54318509Y-95670535D01*
X54318509Y-95670535D02*
X54413747Y-95718154D01*
X54413747Y-95718154D02*
X54651842Y-95718154D01*
X54651842Y-95718154D02*
X54747080Y-95670535D01*
X54747080Y-95670535D02*
X54794700Y-95622916D01*
X54794700Y-95622916D02*
X54842319Y-95527678D01*
X54842319Y-95527678D02*
X54842319Y-95289583D01*
X54842319Y-95289583D02*
X54794700Y-95194345D01*
X54794700Y-95194345D02*
X54747080Y-95146726D01*
X291379819Y-131341964D02*
X290379819Y-131341964D01*
X290379819Y-131341964D02*
X290379819Y-131580059D01*
X290379819Y-131580059D02*
X290427438Y-131722916D01*
X290427438Y-131722916D02*
X290522676Y-131818154D01*
X290522676Y-131818154D02*
X290617914Y-131865773D01*
X290617914Y-131865773D02*
X290808390Y-131913392D01*
X290808390Y-131913392D02*
X290951247Y-131913392D01*
X290951247Y-131913392D02*
X291141723Y-131865773D01*
X291141723Y-131865773D02*
X291236961Y-131818154D01*
X291236961Y-131818154D02*
X291332200Y-131722916D01*
X291332200Y-131722916D02*
X291379819Y-131580059D01*
X291379819Y-131580059D02*
X291379819Y-131341964D01*
X290379819Y-132246726D02*
X290379819Y-132913392D01*
X290379819Y-132913392D02*
X291379819Y-132484821D01*
X291379819Y-133341964D02*
X291379819Y-133532440D01*
X291379819Y-133532440D02*
X291332200Y-133627678D01*
X291332200Y-133627678D02*
X291284580Y-133675297D01*
X291284580Y-133675297D02*
X291141723Y-133770535D01*
X291141723Y-133770535D02*
X290951247Y-133818154D01*
X290951247Y-133818154D02*
X290570295Y-133818154D01*
X290570295Y-133818154D02*
X290475057Y-133770535D01*
X290475057Y-133770535D02*
X290427438Y-133722916D01*
X290427438Y-133722916D02*
X290379819Y-133627678D01*
X290379819Y-133627678D02*
X290379819Y-133437202D01*
X290379819Y-133437202D02*
X290427438Y-133341964D01*
X290427438Y-133341964D02*
X290475057Y-133294345D01*
X290475057Y-133294345D02*
X290570295Y-133246726D01*
X290570295Y-133246726D02*
X290808390Y-133246726D01*
X290808390Y-133246726D02*
X290903628Y-133294345D01*
X290903628Y-133294345D02*
X290951247Y-133341964D01*
X290951247Y-133341964D02*
X290998866Y-133437202D01*
X290998866Y-133437202D02*
X290998866Y-133627678D01*
X290998866Y-133627678D02*
X290951247Y-133722916D01*
X290951247Y-133722916D02*
X290903628Y-133770535D01*
X290903628Y-133770535D02*
X290808390Y-133818154D01*
X76273569Y-136104464D02*
X75273569Y-136104464D01*
X75273569Y-136104464D02*
X75273569Y-136342559D01*
X75273569Y-136342559D02*
X75321188Y-136485416D01*
X75321188Y-136485416D02*
X75416426Y-136580654D01*
X75416426Y-136580654D02*
X75511664Y-136628273D01*
X75511664Y-136628273D02*
X75702140Y-136675892D01*
X75702140Y-136675892D02*
X75844997Y-136675892D01*
X75844997Y-136675892D02*
X76035473Y-136628273D01*
X76035473Y-136628273D02*
X76130711Y-136580654D01*
X76130711Y-136580654D02*
X76225950Y-136485416D01*
X76225950Y-136485416D02*
X76273569Y-136342559D01*
X76273569Y-136342559D02*
X76273569Y-136104464D01*
X75273569Y-137009226D02*
X75273569Y-137675892D01*
X75273569Y-137675892D02*
X76273569Y-137247321D01*
X75273569Y-138533035D02*
X75273569Y-138056845D01*
X75273569Y-138056845D02*
X75749759Y-138009226D01*
X75749759Y-138009226D02*
X75702140Y-138056845D01*
X75702140Y-138056845D02*
X75654521Y-138152083D01*
X75654521Y-138152083D02*
X75654521Y-138390178D01*
X75654521Y-138390178D02*
X75702140Y-138485416D01*
X75702140Y-138485416D02*
X75749759Y-138533035D01*
X75749759Y-138533035D02*
X75844997Y-138580654D01*
X75844997Y-138580654D02*
X76083092Y-138580654D01*
X76083092Y-138580654D02*
X76178330Y-138533035D01*
X76178330Y-138533035D02*
X76225950Y-138485416D01*
X76225950Y-138485416D02*
X76273569Y-138390178D01*
X76273569Y-138390178D02*
X76273569Y-138152083D01*
X76273569Y-138152083D02*
X76225950Y-138056845D01*
X76225950Y-138056845D02*
X76178330Y-138009226D01*
X96117319Y-93241964D02*
X95117319Y-93241964D01*
X95117319Y-93241964D02*
X95117319Y-93480059D01*
X95117319Y-93480059D02*
X95164938Y-93622916D01*
X95164938Y-93622916D02*
X95260176Y-93718154D01*
X95260176Y-93718154D02*
X95355414Y-93765773D01*
X95355414Y-93765773D02*
X95545890Y-93813392D01*
X95545890Y-93813392D02*
X95688747Y-93813392D01*
X95688747Y-93813392D02*
X95879223Y-93765773D01*
X95879223Y-93765773D02*
X95974461Y-93718154D01*
X95974461Y-93718154D02*
X96069700Y-93622916D01*
X96069700Y-93622916D02*
X96117319Y-93480059D01*
X96117319Y-93480059D02*
X96117319Y-93241964D01*
X95450652Y-94670535D02*
X96117319Y-94670535D01*
X95069700Y-94432440D02*
X95783985Y-94194345D01*
X95783985Y-94194345D02*
X95783985Y-94813392D01*
X95117319Y-95099107D02*
X95117319Y-95765773D01*
X95117319Y-95765773D02*
X96117319Y-95337202D01*
X100879819Y-55935714D02*
X99879819Y-55935714D01*
X99879819Y-55935714D02*
X99879819Y-56173809D01*
X99879819Y-56173809D02*
X99927438Y-56316666D01*
X99927438Y-56316666D02*
X100022676Y-56411904D01*
X100022676Y-56411904D02*
X100117914Y-56459523D01*
X100117914Y-56459523D02*
X100308390Y-56507142D01*
X100308390Y-56507142D02*
X100451247Y-56507142D01*
X100451247Y-56507142D02*
X100641723Y-56459523D01*
X100641723Y-56459523D02*
X100736961Y-56411904D01*
X100736961Y-56411904D02*
X100832200Y-56316666D01*
X100832200Y-56316666D02*
X100879819Y-56173809D01*
X100879819Y-56173809D02*
X100879819Y-55935714D01*
X100879819Y-57459523D02*
X100879819Y-56888095D01*
X100879819Y-57173809D02*
X99879819Y-57173809D01*
X99879819Y-57173809D02*
X100022676Y-57078571D01*
X100022676Y-57078571D02*
X100117914Y-56983333D01*
X100117914Y-56983333D02*
X100165533Y-56888095D01*
X100308390Y-58030952D02*
X100260771Y-57935714D01*
X100260771Y-57935714D02*
X100213152Y-57888095D01*
X100213152Y-57888095D02*
X100117914Y-57840476D01*
X100117914Y-57840476D02*
X100070295Y-57840476D01*
X100070295Y-57840476D02*
X99975057Y-57888095D01*
X99975057Y-57888095D02*
X99927438Y-57935714D01*
X99927438Y-57935714D02*
X99879819Y-58030952D01*
X99879819Y-58030952D02*
X99879819Y-58221428D01*
X99879819Y-58221428D02*
X99927438Y-58316666D01*
X99927438Y-58316666D02*
X99975057Y-58364285D01*
X99975057Y-58364285D02*
X100070295Y-58411904D01*
X100070295Y-58411904D02*
X100117914Y-58411904D01*
X100117914Y-58411904D02*
X100213152Y-58364285D01*
X100213152Y-58364285D02*
X100260771Y-58316666D01*
X100260771Y-58316666D02*
X100308390Y-58221428D01*
X100308390Y-58221428D02*
X100308390Y-58030952D01*
X100308390Y-58030952D02*
X100356009Y-57935714D01*
X100356009Y-57935714D02*
X100403628Y-57888095D01*
X100403628Y-57888095D02*
X100498866Y-57840476D01*
X100498866Y-57840476D02*
X100689342Y-57840476D01*
X100689342Y-57840476D02*
X100784580Y-57888095D01*
X100784580Y-57888095D02*
X100832200Y-57935714D01*
X100832200Y-57935714D02*
X100879819Y-58030952D01*
X100879819Y-58030952D02*
X100879819Y-58221428D01*
X100879819Y-58221428D02*
X100832200Y-58316666D01*
X100832200Y-58316666D02*
X100784580Y-58364285D01*
X100784580Y-58364285D02*
X100689342Y-58411904D01*
X100689342Y-58411904D02*
X100498866Y-58411904D01*
X100498866Y-58411904D02*
X100403628Y-58364285D01*
X100403628Y-58364285D02*
X100356009Y-58316666D01*
X100356009Y-58316666D02*
X100308390Y-58221428D01*
X43729819Y-55141964D02*
X42729819Y-55141964D01*
X42729819Y-55141964D02*
X42729819Y-55380059D01*
X42729819Y-55380059D02*
X42777438Y-55522916D01*
X42777438Y-55522916D02*
X42872676Y-55618154D01*
X42872676Y-55618154D02*
X42967914Y-55665773D01*
X42967914Y-55665773D02*
X43158390Y-55713392D01*
X43158390Y-55713392D02*
X43301247Y-55713392D01*
X43301247Y-55713392D02*
X43491723Y-55665773D01*
X43491723Y-55665773D02*
X43586961Y-55618154D01*
X43586961Y-55618154D02*
X43682200Y-55522916D01*
X43682200Y-55522916D02*
X43729819Y-55380059D01*
X43729819Y-55380059D02*
X43729819Y-55141964D01*
X43729819Y-56665773D02*
X43729819Y-56094345D01*
X43729819Y-56380059D02*
X42729819Y-56380059D01*
X42729819Y-56380059D02*
X42872676Y-56284821D01*
X42872676Y-56284821D02*
X42967914Y-56189583D01*
X42967914Y-56189583D02*
X43015533Y-56094345D01*
X42729819Y-57570535D02*
X42729819Y-57094345D01*
X42729819Y-57094345D02*
X43206009Y-57046726D01*
X43206009Y-57046726D02*
X43158390Y-57094345D01*
X43158390Y-57094345D02*
X43110771Y-57189583D01*
X43110771Y-57189583D02*
X43110771Y-57427678D01*
X43110771Y-57427678D02*
X43158390Y-57522916D01*
X43158390Y-57522916D02*
X43206009Y-57570535D01*
X43206009Y-57570535D02*
X43301247Y-57618154D01*
X43301247Y-57618154D02*
X43539342Y-57618154D01*
X43539342Y-57618154D02*
X43634580Y-57570535D01*
X43634580Y-57570535D02*
X43682200Y-57522916D01*
X43682200Y-57522916D02*
X43729819Y-57427678D01*
X43729819Y-57427678D02*
X43729819Y-57189583D01*
X43729819Y-57189583D02*
X43682200Y-57094345D01*
X43682200Y-57094345D02*
X43634580Y-57046726D01*
X177079819Y-55935714D02*
X176079819Y-55935714D01*
X176079819Y-55935714D02*
X176079819Y-56173809D01*
X176079819Y-56173809D02*
X176127438Y-56316666D01*
X176127438Y-56316666D02*
X176222676Y-56411904D01*
X176222676Y-56411904D02*
X176317914Y-56459523D01*
X176317914Y-56459523D02*
X176508390Y-56507142D01*
X176508390Y-56507142D02*
X176651247Y-56507142D01*
X176651247Y-56507142D02*
X176841723Y-56459523D01*
X176841723Y-56459523D02*
X176936961Y-56411904D01*
X176936961Y-56411904D02*
X177032200Y-56316666D01*
X177032200Y-56316666D02*
X177079819Y-56173809D01*
X177079819Y-56173809D02*
X177079819Y-55935714D01*
X176175057Y-56888095D02*
X176127438Y-56935714D01*
X176127438Y-56935714D02*
X176079819Y-57030952D01*
X176079819Y-57030952D02*
X176079819Y-57269047D01*
X176079819Y-57269047D02*
X176127438Y-57364285D01*
X176127438Y-57364285D02*
X176175057Y-57411904D01*
X176175057Y-57411904D02*
X176270295Y-57459523D01*
X176270295Y-57459523D02*
X176365533Y-57459523D01*
X176365533Y-57459523D02*
X176508390Y-57411904D01*
X176508390Y-57411904D02*
X177079819Y-56840476D01*
X177079819Y-56840476D02*
X177079819Y-57459523D01*
X176175057Y-57840476D02*
X176127438Y-57888095D01*
X176127438Y-57888095D02*
X176079819Y-57983333D01*
X176079819Y-57983333D02*
X176079819Y-58221428D01*
X176079819Y-58221428D02*
X176127438Y-58316666D01*
X176127438Y-58316666D02*
X176175057Y-58364285D01*
X176175057Y-58364285D02*
X176270295Y-58411904D01*
X176270295Y-58411904D02*
X176365533Y-58411904D01*
X176365533Y-58411904D02*
X176508390Y-58364285D01*
X176508390Y-58364285D02*
X177079819Y-57792857D01*
X177079819Y-57792857D02*
X177079819Y-58411904D01*
X327479819Y-131341964D02*
X326479819Y-131341964D01*
X326479819Y-131341964D02*
X326479819Y-131580059D01*
X326479819Y-131580059D02*
X326527438Y-131722916D01*
X326527438Y-131722916D02*
X326622676Y-131818154D01*
X326622676Y-131818154D02*
X326717914Y-131865773D01*
X326717914Y-131865773D02*
X326908390Y-131913392D01*
X326908390Y-131913392D02*
X327051247Y-131913392D01*
X327051247Y-131913392D02*
X327241723Y-131865773D01*
X327241723Y-131865773D02*
X327336961Y-131818154D01*
X327336961Y-131818154D02*
X327432200Y-131722916D01*
X327432200Y-131722916D02*
X327479819Y-131580059D01*
X327479819Y-131580059D02*
X327479819Y-131341964D01*
X326908390Y-132484821D02*
X326860771Y-132389583D01*
X326860771Y-132389583D02*
X326813152Y-132341964D01*
X326813152Y-132341964D02*
X326717914Y-132294345D01*
X326717914Y-132294345D02*
X326670295Y-132294345D01*
X326670295Y-132294345D02*
X326575057Y-132341964D01*
X326575057Y-132341964D02*
X326527438Y-132389583D01*
X326527438Y-132389583D02*
X326479819Y-132484821D01*
X326479819Y-132484821D02*
X326479819Y-132675297D01*
X326479819Y-132675297D02*
X326527438Y-132770535D01*
X326527438Y-132770535D02*
X326575057Y-132818154D01*
X326575057Y-132818154D02*
X326670295Y-132865773D01*
X326670295Y-132865773D02*
X326717914Y-132865773D01*
X326717914Y-132865773D02*
X326813152Y-132818154D01*
X326813152Y-132818154D02*
X326860771Y-132770535D01*
X326860771Y-132770535D02*
X326908390Y-132675297D01*
X326908390Y-132675297D02*
X326908390Y-132484821D01*
X326908390Y-132484821D02*
X326956009Y-132389583D01*
X326956009Y-132389583D02*
X327003628Y-132341964D01*
X327003628Y-132341964D02*
X327098866Y-132294345D01*
X327098866Y-132294345D02*
X327289342Y-132294345D01*
X327289342Y-132294345D02*
X327384580Y-132341964D01*
X327384580Y-132341964D02*
X327432200Y-132389583D01*
X327432200Y-132389583D02*
X327479819Y-132484821D01*
X327479819Y-132484821D02*
X327479819Y-132675297D01*
X327479819Y-132675297D02*
X327432200Y-132770535D01*
X327432200Y-132770535D02*
X327384580Y-132818154D01*
X327384580Y-132818154D02*
X327289342Y-132865773D01*
X327289342Y-132865773D02*
X327098866Y-132865773D01*
X327098866Y-132865773D02*
X327003628Y-132818154D01*
X327003628Y-132818154D02*
X326956009Y-132770535D01*
X326956009Y-132770535D02*
X326908390Y-132675297D01*
X327479819Y-133818154D02*
X327479819Y-133246726D01*
X327479819Y-133532440D02*
X326479819Y-133532440D01*
X326479819Y-133532440D02*
X326622676Y-133437202D01*
X326622676Y-133437202D02*
X326717914Y-133341964D01*
X326717914Y-133341964D02*
X326765533Y-133246726D01*
X306048569Y-116260714D02*
X305048569Y-116260714D01*
X305048569Y-116260714D02*
X305048569Y-116498809D01*
X305048569Y-116498809D02*
X305096188Y-116641666D01*
X305096188Y-116641666D02*
X305191426Y-116736904D01*
X305191426Y-116736904D02*
X305286664Y-116784523D01*
X305286664Y-116784523D02*
X305477140Y-116832142D01*
X305477140Y-116832142D02*
X305619997Y-116832142D01*
X305619997Y-116832142D02*
X305810473Y-116784523D01*
X305810473Y-116784523D02*
X305905711Y-116736904D01*
X305905711Y-116736904D02*
X306000950Y-116641666D01*
X306000950Y-116641666D02*
X306048569Y-116498809D01*
X306048569Y-116498809D02*
X306048569Y-116260714D01*
X305048569Y-117165476D02*
X305048569Y-117832142D01*
X305048569Y-117832142D02*
X306048569Y-117403571D01*
X306048569Y-118736904D02*
X306048569Y-118165476D01*
X306048569Y-118451190D02*
X305048569Y-118451190D01*
X305048569Y-118451190D02*
X305191426Y-118355952D01*
X305191426Y-118355952D02*
X305286664Y-118260714D01*
X305286664Y-118260714D02*
X305334283Y-118165476D01*
X238992319Y-113085714D02*
X237992319Y-113085714D01*
X237992319Y-113085714D02*
X237992319Y-113323809D01*
X237992319Y-113323809D02*
X238039938Y-113466666D01*
X238039938Y-113466666D02*
X238135176Y-113561904D01*
X238135176Y-113561904D02*
X238230414Y-113609523D01*
X238230414Y-113609523D02*
X238420890Y-113657142D01*
X238420890Y-113657142D02*
X238563747Y-113657142D01*
X238563747Y-113657142D02*
X238754223Y-113609523D01*
X238754223Y-113609523D02*
X238849461Y-113561904D01*
X238849461Y-113561904D02*
X238944700Y-113466666D01*
X238944700Y-113466666D02*
X238992319Y-113323809D01*
X238992319Y-113323809D02*
X238992319Y-113085714D01*
X237992319Y-114514285D02*
X237992319Y-114323809D01*
X237992319Y-114323809D02*
X238039938Y-114228571D01*
X238039938Y-114228571D02*
X238087557Y-114180952D01*
X238087557Y-114180952D02*
X238230414Y-114085714D01*
X238230414Y-114085714D02*
X238420890Y-114038095D01*
X238420890Y-114038095D02*
X238801842Y-114038095D01*
X238801842Y-114038095D02*
X238897080Y-114085714D01*
X238897080Y-114085714D02*
X238944700Y-114133333D01*
X238944700Y-114133333D02*
X238992319Y-114228571D01*
X238992319Y-114228571D02*
X238992319Y-114419047D01*
X238992319Y-114419047D02*
X238944700Y-114514285D01*
X238944700Y-114514285D02*
X238897080Y-114561904D01*
X238897080Y-114561904D02*
X238801842Y-114609523D01*
X238801842Y-114609523D02*
X238563747Y-114609523D01*
X238563747Y-114609523D02*
X238468509Y-114561904D01*
X238468509Y-114561904D02*
X238420890Y-114514285D01*
X238420890Y-114514285D02*
X238373271Y-114419047D01*
X238373271Y-114419047D02*
X238373271Y-114228571D01*
X238373271Y-114228571D02*
X238420890Y-114133333D01*
X238420890Y-114133333D02*
X238468509Y-114085714D01*
X238468509Y-114085714D02*
X238563747Y-114038095D01*
X238420890Y-115180952D02*
X238373271Y-115085714D01*
X238373271Y-115085714D02*
X238325652Y-115038095D01*
X238325652Y-115038095D02*
X238230414Y-114990476D01*
X238230414Y-114990476D02*
X238182795Y-114990476D01*
X238182795Y-114990476D02*
X238087557Y-115038095D01*
X238087557Y-115038095D02*
X238039938Y-115085714D01*
X238039938Y-115085714D02*
X237992319Y-115180952D01*
X237992319Y-115180952D02*
X237992319Y-115371428D01*
X237992319Y-115371428D02*
X238039938Y-115466666D01*
X238039938Y-115466666D02*
X238087557Y-115514285D01*
X238087557Y-115514285D02*
X238182795Y-115561904D01*
X238182795Y-115561904D02*
X238230414Y-115561904D01*
X238230414Y-115561904D02*
X238325652Y-115514285D01*
X238325652Y-115514285D02*
X238373271Y-115466666D01*
X238373271Y-115466666D02*
X238420890Y-115371428D01*
X238420890Y-115371428D02*
X238420890Y-115180952D01*
X238420890Y-115180952D02*
X238468509Y-115085714D01*
X238468509Y-115085714D02*
X238516128Y-115038095D01*
X238516128Y-115038095D02*
X238611366Y-114990476D01*
X238611366Y-114990476D02*
X238801842Y-114990476D01*
X238801842Y-114990476D02*
X238897080Y-115038095D01*
X238897080Y-115038095D02*
X238944700Y-115085714D01*
X238944700Y-115085714D02*
X238992319Y-115180952D01*
X238992319Y-115180952D02*
X238992319Y-115371428D01*
X238992319Y-115371428D02*
X238944700Y-115466666D01*
X238944700Y-115466666D02*
X238897080Y-115514285D01*
X238897080Y-115514285D02*
X238801842Y-115561904D01*
X238801842Y-115561904D02*
X238611366Y-115561904D01*
X238611366Y-115561904D02*
X238516128Y-115514285D01*
X238516128Y-115514285D02*
X238468509Y-115466666D01*
X238468509Y-115466666D02*
X238420890Y-115371428D01*
X327479819Y-55141964D02*
X326479819Y-55141964D01*
X326479819Y-55141964D02*
X326479819Y-55380059D01*
X326479819Y-55380059D02*
X326527438Y-55522916D01*
X326527438Y-55522916D02*
X326622676Y-55618154D01*
X326622676Y-55618154D02*
X326717914Y-55665773D01*
X326717914Y-55665773D02*
X326908390Y-55713392D01*
X326908390Y-55713392D02*
X327051247Y-55713392D01*
X327051247Y-55713392D02*
X327241723Y-55665773D01*
X327241723Y-55665773D02*
X327336961Y-55618154D01*
X327336961Y-55618154D02*
X327432200Y-55522916D01*
X327432200Y-55522916D02*
X327479819Y-55380059D01*
X327479819Y-55380059D02*
X327479819Y-55141964D01*
X326575057Y-56094345D02*
X326527438Y-56141964D01*
X326527438Y-56141964D02*
X326479819Y-56237202D01*
X326479819Y-56237202D02*
X326479819Y-56475297D01*
X326479819Y-56475297D02*
X326527438Y-56570535D01*
X326527438Y-56570535D02*
X326575057Y-56618154D01*
X326575057Y-56618154D02*
X326670295Y-56665773D01*
X326670295Y-56665773D02*
X326765533Y-56665773D01*
X326765533Y-56665773D02*
X326908390Y-56618154D01*
X326908390Y-56618154D02*
X327479819Y-56046726D01*
X327479819Y-56046726D02*
X327479819Y-56665773D01*
X327479819Y-57141964D02*
X327479819Y-57332440D01*
X327479819Y-57332440D02*
X327432200Y-57427678D01*
X327432200Y-57427678D02*
X327384580Y-57475297D01*
X327384580Y-57475297D02*
X327241723Y-57570535D01*
X327241723Y-57570535D02*
X327051247Y-57618154D01*
X327051247Y-57618154D02*
X326670295Y-57618154D01*
X326670295Y-57618154D02*
X326575057Y-57570535D01*
X326575057Y-57570535D02*
X326527438Y-57522916D01*
X326527438Y-57522916D02*
X326479819Y-57427678D01*
X326479819Y-57427678D02*
X326479819Y-57237202D01*
X326479819Y-57237202D02*
X326527438Y-57141964D01*
X326527438Y-57141964D02*
X326575057Y-57094345D01*
X326575057Y-57094345D02*
X326670295Y-57046726D01*
X326670295Y-57046726D02*
X326908390Y-57046726D01*
X326908390Y-57046726D02*
X327003628Y-57094345D01*
X327003628Y-57094345D02*
X327051247Y-57141964D01*
X327051247Y-57141964D02*
X327098866Y-57237202D01*
X327098866Y-57237202D02*
X327098866Y-57427678D01*
X327098866Y-57427678D02*
X327051247Y-57522916D01*
X327051247Y-57522916D02*
X327003628Y-57570535D01*
X327003628Y-57570535D02*
X326908390Y-57618154D01*
X281854819Y-74191964D02*
X280854819Y-74191964D01*
X280854819Y-74191964D02*
X280854819Y-74430059D01*
X280854819Y-74430059D02*
X280902438Y-74572916D01*
X280902438Y-74572916D02*
X280997676Y-74668154D01*
X280997676Y-74668154D02*
X281092914Y-74715773D01*
X281092914Y-74715773D02*
X281283390Y-74763392D01*
X281283390Y-74763392D02*
X281426247Y-74763392D01*
X281426247Y-74763392D02*
X281616723Y-74715773D01*
X281616723Y-74715773D02*
X281711961Y-74668154D01*
X281711961Y-74668154D02*
X281807200Y-74572916D01*
X281807200Y-74572916D02*
X281854819Y-74430059D01*
X281854819Y-74430059D02*
X281854819Y-74191964D01*
X281188152Y-75620535D02*
X281854819Y-75620535D01*
X280807200Y-75382440D02*
X281521485Y-75144345D01*
X281521485Y-75144345D02*
X281521485Y-75763392D01*
X280950057Y-76096726D02*
X280902438Y-76144345D01*
X280902438Y-76144345D02*
X280854819Y-76239583D01*
X280854819Y-76239583D02*
X280854819Y-76477678D01*
X280854819Y-76477678D02*
X280902438Y-76572916D01*
X280902438Y-76572916D02*
X280950057Y-76620535D01*
X280950057Y-76620535D02*
X281045295Y-76668154D01*
X281045295Y-76668154D02*
X281140533Y-76668154D01*
X281140533Y-76668154D02*
X281283390Y-76620535D01*
X281283390Y-76620535D02*
X281854819Y-76049107D01*
X281854819Y-76049107D02*
X281854819Y-76668154D01*
X186604819Y-74985714D02*
X185604819Y-74985714D01*
X185604819Y-74985714D02*
X185604819Y-75223809D01*
X185604819Y-75223809D02*
X185652438Y-75366666D01*
X185652438Y-75366666D02*
X185747676Y-75461904D01*
X185747676Y-75461904D02*
X185842914Y-75509523D01*
X185842914Y-75509523D02*
X186033390Y-75557142D01*
X186033390Y-75557142D02*
X186176247Y-75557142D01*
X186176247Y-75557142D02*
X186366723Y-75509523D01*
X186366723Y-75509523D02*
X186461961Y-75461904D01*
X186461961Y-75461904D02*
X186557200Y-75366666D01*
X186557200Y-75366666D02*
X186604819Y-75223809D01*
X186604819Y-75223809D02*
X186604819Y-74985714D01*
X185604819Y-75890476D02*
X185604819Y-76509523D01*
X185604819Y-76509523D02*
X185985771Y-76176190D01*
X185985771Y-76176190D02*
X185985771Y-76319047D01*
X185985771Y-76319047D02*
X186033390Y-76414285D01*
X186033390Y-76414285D02*
X186081009Y-76461904D01*
X186081009Y-76461904D02*
X186176247Y-76509523D01*
X186176247Y-76509523D02*
X186414342Y-76509523D01*
X186414342Y-76509523D02*
X186509580Y-76461904D01*
X186509580Y-76461904D02*
X186557200Y-76414285D01*
X186557200Y-76414285D02*
X186604819Y-76319047D01*
X186604819Y-76319047D02*
X186604819Y-76033333D01*
X186604819Y-76033333D02*
X186557200Y-75938095D01*
X186557200Y-75938095D02*
X186509580Y-75890476D01*
X185604819Y-76842857D02*
X185604819Y-77509523D01*
X185604819Y-77509523D02*
X186604819Y-77080952D01*
X218354819Y-136898214D02*
X217354819Y-136898214D01*
X217354819Y-136898214D02*
X217354819Y-137136309D01*
X217354819Y-137136309D02*
X217402438Y-137279166D01*
X217402438Y-137279166D02*
X217497676Y-137374404D01*
X217497676Y-137374404D02*
X217592914Y-137422023D01*
X217592914Y-137422023D02*
X217783390Y-137469642D01*
X217783390Y-137469642D02*
X217926247Y-137469642D01*
X217926247Y-137469642D02*
X218116723Y-137422023D01*
X218116723Y-137422023D02*
X218211961Y-137374404D01*
X218211961Y-137374404D02*
X218307200Y-137279166D01*
X218307200Y-137279166D02*
X218354819Y-137136309D01*
X218354819Y-137136309D02*
X218354819Y-136898214D01*
X217354819Y-137802976D02*
X217354819Y-138469642D01*
X217354819Y-138469642D02*
X218354819Y-138041071D01*
X217354819Y-138755357D02*
X217354819Y-139422023D01*
X217354819Y-139422023D02*
X218354819Y-138993452D01*
X248517319Y-93241964D02*
X247517319Y-93241964D01*
X247517319Y-93241964D02*
X247517319Y-93480059D01*
X247517319Y-93480059D02*
X247564938Y-93622916D01*
X247564938Y-93622916D02*
X247660176Y-93718154D01*
X247660176Y-93718154D02*
X247755414Y-93765773D01*
X247755414Y-93765773D02*
X247945890Y-93813392D01*
X247945890Y-93813392D02*
X248088747Y-93813392D01*
X248088747Y-93813392D02*
X248279223Y-93765773D01*
X248279223Y-93765773D02*
X248374461Y-93718154D01*
X248374461Y-93718154D02*
X248469700Y-93622916D01*
X248469700Y-93622916D02*
X248517319Y-93480059D01*
X248517319Y-93480059D02*
X248517319Y-93241964D01*
X247517319Y-94718154D02*
X247517319Y-94241964D01*
X247517319Y-94241964D02*
X247993509Y-94194345D01*
X247993509Y-94194345D02*
X247945890Y-94241964D01*
X247945890Y-94241964D02*
X247898271Y-94337202D01*
X247898271Y-94337202D02*
X247898271Y-94575297D01*
X247898271Y-94575297D02*
X247945890Y-94670535D01*
X247945890Y-94670535D02*
X247993509Y-94718154D01*
X247993509Y-94718154D02*
X248088747Y-94765773D01*
X248088747Y-94765773D02*
X248326842Y-94765773D01*
X248326842Y-94765773D02*
X248422080Y-94718154D01*
X248422080Y-94718154D02*
X248469700Y-94670535D01*
X248469700Y-94670535D02*
X248517319Y-94575297D01*
X248517319Y-94575297D02*
X248517319Y-94337202D01*
X248517319Y-94337202D02*
X248469700Y-94241964D01*
X248469700Y-94241964D02*
X248422080Y-94194345D01*
X247517319Y-95670535D02*
X247517319Y-95194345D01*
X247517319Y-95194345D02*
X247993509Y-95146726D01*
X247993509Y-95146726D02*
X247945890Y-95194345D01*
X247945890Y-95194345D02*
X247898271Y-95289583D01*
X247898271Y-95289583D02*
X247898271Y-95527678D01*
X247898271Y-95527678D02*
X247945890Y-95622916D01*
X247945890Y-95622916D02*
X247993509Y-95670535D01*
X247993509Y-95670535D02*
X248088747Y-95718154D01*
X248088747Y-95718154D02*
X248326842Y-95718154D01*
X248326842Y-95718154D02*
X248422080Y-95670535D01*
X248422080Y-95670535D02*
X248469700Y-95622916D01*
X248469700Y-95622916D02*
X248517319Y-95527678D01*
X248517319Y-95527678D02*
X248517319Y-95289583D01*
X248517319Y-95289583D02*
X248469700Y-95194345D01*
X248469700Y-95194345D02*
X248422080Y-95146726D01*
X55636069Y-112291964D02*
X54636069Y-112291964D01*
X54636069Y-112291964D02*
X54636069Y-112530059D01*
X54636069Y-112530059D02*
X54683688Y-112672916D01*
X54683688Y-112672916D02*
X54778926Y-112768154D01*
X54778926Y-112768154D02*
X54874164Y-112815773D01*
X54874164Y-112815773D02*
X55064640Y-112863392D01*
X55064640Y-112863392D02*
X55207497Y-112863392D01*
X55207497Y-112863392D02*
X55397973Y-112815773D01*
X55397973Y-112815773D02*
X55493211Y-112768154D01*
X55493211Y-112768154D02*
X55588450Y-112672916D01*
X55588450Y-112672916D02*
X55636069Y-112530059D01*
X55636069Y-112530059D02*
X55636069Y-112291964D01*
X54636069Y-113768154D02*
X54636069Y-113291964D01*
X54636069Y-113291964D02*
X55112259Y-113244345D01*
X55112259Y-113244345D02*
X55064640Y-113291964D01*
X55064640Y-113291964D02*
X55017021Y-113387202D01*
X55017021Y-113387202D02*
X55017021Y-113625297D01*
X55017021Y-113625297D02*
X55064640Y-113720535D01*
X55064640Y-113720535D02*
X55112259Y-113768154D01*
X55112259Y-113768154D02*
X55207497Y-113815773D01*
X55207497Y-113815773D02*
X55445592Y-113815773D01*
X55445592Y-113815773D02*
X55540830Y-113768154D01*
X55540830Y-113768154D02*
X55588450Y-113720535D01*
X55588450Y-113720535D02*
X55636069Y-113625297D01*
X55636069Y-113625297D02*
X55636069Y-113387202D01*
X55636069Y-113387202D02*
X55588450Y-113291964D01*
X55588450Y-113291964D02*
X55540830Y-113244345D01*
X55636069Y-114291964D02*
X55636069Y-114482440D01*
X55636069Y-114482440D02*
X55588450Y-114577678D01*
X55588450Y-114577678D02*
X55540830Y-114625297D01*
X55540830Y-114625297D02*
X55397973Y-114720535D01*
X55397973Y-114720535D02*
X55207497Y-114768154D01*
X55207497Y-114768154D02*
X54826545Y-114768154D01*
X54826545Y-114768154D02*
X54731307Y-114720535D01*
X54731307Y-114720535D02*
X54683688Y-114672916D01*
X54683688Y-114672916D02*
X54636069Y-114577678D01*
X54636069Y-114577678D02*
X54636069Y-114387202D01*
X54636069Y-114387202D02*
X54683688Y-114291964D01*
X54683688Y-114291964D02*
X54731307Y-114244345D01*
X54731307Y-114244345D02*
X54826545Y-114196726D01*
X54826545Y-114196726D02*
X55064640Y-114196726D01*
X55064640Y-114196726D02*
X55159878Y-114244345D01*
X55159878Y-114244345D02*
X55207497Y-114291964D01*
X55207497Y-114291964D02*
X55255116Y-114387202D01*
X55255116Y-114387202D02*
X55255116Y-114577678D01*
X55255116Y-114577678D02*
X55207497Y-114672916D01*
X55207497Y-114672916D02*
X55159878Y-114720535D01*
X55159878Y-114720535D02*
X55064640Y-114768154D01*
X115167319Y-94035714D02*
X114167319Y-94035714D01*
X114167319Y-94035714D02*
X114167319Y-94273809D01*
X114167319Y-94273809D02*
X114214938Y-94416666D01*
X114214938Y-94416666D02*
X114310176Y-94511904D01*
X114310176Y-94511904D02*
X114405414Y-94559523D01*
X114405414Y-94559523D02*
X114595890Y-94607142D01*
X114595890Y-94607142D02*
X114738747Y-94607142D01*
X114738747Y-94607142D02*
X114929223Y-94559523D01*
X114929223Y-94559523D02*
X115024461Y-94511904D01*
X115024461Y-94511904D02*
X115119700Y-94416666D01*
X115119700Y-94416666D02*
X115167319Y-94273809D01*
X115167319Y-94273809D02*
X115167319Y-94035714D01*
X114500652Y-95464285D02*
X115167319Y-95464285D01*
X114119700Y-95226190D02*
X114833985Y-94988095D01*
X114833985Y-94988095D02*
X114833985Y-95607142D01*
X114595890Y-96130952D02*
X114548271Y-96035714D01*
X114548271Y-96035714D02*
X114500652Y-95988095D01*
X114500652Y-95988095D02*
X114405414Y-95940476D01*
X114405414Y-95940476D02*
X114357795Y-95940476D01*
X114357795Y-95940476D02*
X114262557Y-95988095D01*
X114262557Y-95988095D02*
X114214938Y-96035714D01*
X114214938Y-96035714D02*
X114167319Y-96130952D01*
X114167319Y-96130952D02*
X114167319Y-96321428D01*
X114167319Y-96321428D02*
X114214938Y-96416666D01*
X114214938Y-96416666D02*
X114262557Y-96464285D01*
X114262557Y-96464285D02*
X114357795Y-96511904D01*
X114357795Y-96511904D02*
X114405414Y-96511904D01*
X114405414Y-96511904D02*
X114500652Y-96464285D01*
X114500652Y-96464285D02*
X114548271Y-96416666D01*
X114548271Y-96416666D02*
X114595890Y-96321428D01*
X114595890Y-96321428D02*
X114595890Y-96130952D01*
X114595890Y-96130952D02*
X114643509Y-96035714D01*
X114643509Y-96035714D02*
X114691128Y-95988095D01*
X114691128Y-95988095D02*
X114786366Y-95940476D01*
X114786366Y-95940476D02*
X114976842Y-95940476D01*
X114976842Y-95940476D02*
X115072080Y-95988095D01*
X115072080Y-95988095D02*
X115119700Y-96035714D01*
X115119700Y-96035714D02*
X115167319Y-96130952D01*
X115167319Y-96130952D02*
X115167319Y-96321428D01*
X115167319Y-96321428D02*
X115119700Y-96416666D01*
X115119700Y-96416666D02*
X115072080Y-96464285D01*
X115072080Y-96464285D02*
X114976842Y-96511904D01*
X114976842Y-96511904D02*
X114786366Y-96511904D01*
X114786366Y-96511904D02*
X114691128Y-96464285D01*
X114691128Y-96464285D02*
X114643509Y-96416666D01*
X114643509Y-96416666D02*
X114595890Y-96321428D01*
X110404819Y-74985714D02*
X109404819Y-74985714D01*
X109404819Y-74985714D02*
X109404819Y-75223809D01*
X109404819Y-75223809D02*
X109452438Y-75366666D01*
X109452438Y-75366666D02*
X109547676Y-75461904D01*
X109547676Y-75461904D02*
X109642914Y-75509523D01*
X109642914Y-75509523D02*
X109833390Y-75557142D01*
X109833390Y-75557142D02*
X109976247Y-75557142D01*
X109976247Y-75557142D02*
X110166723Y-75509523D01*
X110166723Y-75509523D02*
X110261961Y-75461904D01*
X110261961Y-75461904D02*
X110357200Y-75366666D01*
X110357200Y-75366666D02*
X110404819Y-75223809D01*
X110404819Y-75223809D02*
X110404819Y-74985714D01*
X109404819Y-75890476D02*
X109404819Y-76509523D01*
X109404819Y-76509523D02*
X109785771Y-76176190D01*
X109785771Y-76176190D02*
X109785771Y-76319047D01*
X109785771Y-76319047D02*
X109833390Y-76414285D01*
X109833390Y-76414285D02*
X109881009Y-76461904D01*
X109881009Y-76461904D02*
X109976247Y-76509523D01*
X109976247Y-76509523D02*
X110214342Y-76509523D01*
X110214342Y-76509523D02*
X110309580Y-76461904D01*
X110309580Y-76461904D02*
X110357200Y-76414285D01*
X110357200Y-76414285D02*
X110404819Y-76319047D01*
X110404819Y-76319047D02*
X110404819Y-76033333D01*
X110404819Y-76033333D02*
X110357200Y-75938095D01*
X110357200Y-75938095D02*
X110309580Y-75890476D01*
X109404819Y-76842857D02*
X109404819Y-77461904D01*
X109404819Y-77461904D02*
X109785771Y-77128571D01*
X109785771Y-77128571D02*
X109785771Y-77271428D01*
X109785771Y-77271428D02*
X109833390Y-77366666D01*
X109833390Y-77366666D02*
X109881009Y-77414285D01*
X109881009Y-77414285D02*
X109976247Y-77461904D01*
X109976247Y-77461904D02*
X110214342Y-77461904D01*
X110214342Y-77461904D02*
X110309580Y-77414285D01*
X110309580Y-77414285D02*
X110357200Y-77366666D01*
X110357200Y-77366666D02*
X110404819Y-77271428D01*
X110404819Y-77271428D02*
X110404819Y-76985714D01*
X110404819Y-76985714D02*
X110357200Y-76890476D01*
X110357200Y-76890476D02*
X110309580Y-76842857D01*
X145329819Y-32599405D02*
X144329819Y-32599405D01*
X144329819Y-32599405D02*
X144329819Y-32837500D01*
X144329819Y-32837500D02*
X144377438Y-32980357D01*
X144377438Y-32980357D02*
X144472676Y-33075595D01*
X144472676Y-33075595D02*
X144567914Y-33123214D01*
X144567914Y-33123214D02*
X144758390Y-33170833D01*
X144758390Y-33170833D02*
X144901247Y-33170833D01*
X144901247Y-33170833D02*
X145091723Y-33123214D01*
X145091723Y-33123214D02*
X145186961Y-33075595D01*
X145186961Y-33075595D02*
X145282200Y-32980357D01*
X145282200Y-32980357D02*
X145329819Y-32837500D01*
X145329819Y-32837500D02*
X145329819Y-32599405D01*
X144329819Y-34027976D02*
X144329819Y-33837500D01*
X144329819Y-33837500D02*
X144377438Y-33742262D01*
X144377438Y-33742262D02*
X144425057Y-33694643D01*
X144425057Y-33694643D02*
X144567914Y-33599405D01*
X144567914Y-33599405D02*
X144758390Y-33551786D01*
X144758390Y-33551786D02*
X145139342Y-33551786D01*
X145139342Y-33551786D02*
X145234580Y-33599405D01*
X145234580Y-33599405D02*
X145282200Y-33647024D01*
X145282200Y-33647024D02*
X145329819Y-33742262D01*
X145329819Y-33742262D02*
X145329819Y-33932738D01*
X145329819Y-33932738D02*
X145282200Y-34027976D01*
X145282200Y-34027976D02*
X145234580Y-34075595D01*
X145234580Y-34075595D02*
X145139342Y-34123214D01*
X145139342Y-34123214D02*
X144901247Y-34123214D01*
X144901247Y-34123214D02*
X144806009Y-34075595D01*
X144806009Y-34075595D02*
X144758390Y-34027976D01*
X144758390Y-34027976D02*
X144710771Y-33932738D01*
X144710771Y-33932738D02*
X144710771Y-33742262D01*
X144710771Y-33742262D02*
X144758390Y-33647024D01*
X144758390Y-33647024D02*
X144806009Y-33599405D01*
X144806009Y-33599405D02*
X144901247Y-33551786D01*
X86592319Y-113085714D02*
X85592319Y-113085714D01*
X85592319Y-113085714D02*
X85592319Y-113323809D01*
X85592319Y-113323809D02*
X85639938Y-113466666D01*
X85639938Y-113466666D02*
X85735176Y-113561904D01*
X85735176Y-113561904D02*
X85830414Y-113609523D01*
X85830414Y-113609523D02*
X86020890Y-113657142D01*
X86020890Y-113657142D02*
X86163747Y-113657142D01*
X86163747Y-113657142D02*
X86354223Y-113609523D01*
X86354223Y-113609523D02*
X86449461Y-113561904D01*
X86449461Y-113561904D02*
X86544700Y-113466666D01*
X86544700Y-113466666D02*
X86592319Y-113323809D01*
X86592319Y-113323809D02*
X86592319Y-113085714D01*
X85592319Y-114514285D02*
X85592319Y-114323809D01*
X85592319Y-114323809D02*
X85639938Y-114228571D01*
X85639938Y-114228571D02*
X85687557Y-114180952D01*
X85687557Y-114180952D02*
X85830414Y-114085714D01*
X85830414Y-114085714D02*
X86020890Y-114038095D01*
X86020890Y-114038095D02*
X86401842Y-114038095D01*
X86401842Y-114038095D02*
X86497080Y-114085714D01*
X86497080Y-114085714D02*
X86544700Y-114133333D01*
X86544700Y-114133333D02*
X86592319Y-114228571D01*
X86592319Y-114228571D02*
X86592319Y-114419047D01*
X86592319Y-114419047D02*
X86544700Y-114514285D01*
X86544700Y-114514285D02*
X86497080Y-114561904D01*
X86497080Y-114561904D02*
X86401842Y-114609523D01*
X86401842Y-114609523D02*
X86163747Y-114609523D01*
X86163747Y-114609523D02*
X86068509Y-114561904D01*
X86068509Y-114561904D02*
X86020890Y-114514285D01*
X86020890Y-114514285D02*
X85973271Y-114419047D01*
X85973271Y-114419047D02*
X85973271Y-114228571D01*
X85973271Y-114228571D02*
X86020890Y-114133333D01*
X86020890Y-114133333D02*
X86068509Y-114085714D01*
X86068509Y-114085714D02*
X86163747Y-114038095D01*
X85592319Y-115228571D02*
X85592319Y-115323809D01*
X85592319Y-115323809D02*
X85639938Y-115419047D01*
X85639938Y-115419047D02*
X85687557Y-115466666D01*
X85687557Y-115466666D02*
X85782795Y-115514285D01*
X85782795Y-115514285D02*
X85973271Y-115561904D01*
X85973271Y-115561904D02*
X86211366Y-115561904D01*
X86211366Y-115561904D02*
X86401842Y-115514285D01*
X86401842Y-115514285D02*
X86497080Y-115466666D01*
X86497080Y-115466666D02*
X86544700Y-115419047D01*
X86544700Y-115419047D02*
X86592319Y-115323809D01*
X86592319Y-115323809D02*
X86592319Y-115228571D01*
X86592319Y-115228571D02*
X86544700Y-115133333D01*
X86544700Y-115133333D02*
X86497080Y-115085714D01*
X86497080Y-115085714D02*
X86401842Y-115038095D01*
X86401842Y-115038095D02*
X86211366Y-114990476D01*
X86211366Y-114990476D02*
X85973271Y-114990476D01*
X85973271Y-114990476D02*
X85782795Y-115038095D01*
X85782795Y-115038095D02*
X85687557Y-115085714D01*
X85687557Y-115085714D02*
X85639938Y-115133333D01*
X85639938Y-115133333D02*
X85592319Y-115228571D01*
X167554819Y-74191964D02*
X166554819Y-74191964D01*
X166554819Y-74191964D02*
X166554819Y-74430059D01*
X166554819Y-74430059D02*
X166602438Y-74572916D01*
X166602438Y-74572916D02*
X166697676Y-74668154D01*
X166697676Y-74668154D02*
X166792914Y-74715773D01*
X166792914Y-74715773D02*
X166983390Y-74763392D01*
X166983390Y-74763392D02*
X167126247Y-74763392D01*
X167126247Y-74763392D02*
X167316723Y-74715773D01*
X167316723Y-74715773D02*
X167411961Y-74668154D01*
X167411961Y-74668154D02*
X167507200Y-74572916D01*
X167507200Y-74572916D02*
X167554819Y-74430059D01*
X167554819Y-74430059D02*
X167554819Y-74191964D01*
X166554819Y-75096726D02*
X166554819Y-75715773D01*
X166554819Y-75715773D02*
X166935771Y-75382440D01*
X166935771Y-75382440D02*
X166935771Y-75525297D01*
X166935771Y-75525297D02*
X166983390Y-75620535D01*
X166983390Y-75620535D02*
X167031009Y-75668154D01*
X167031009Y-75668154D02*
X167126247Y-75715773D01*
X167126247Y-75715773D02*
X167364342Y-75715773D01*
X167364342Y-75715773D02*
X167459580Y-75668154D01*
X167459580Y-75668154D02*
X167507200Y-75620535D01*
X167507200Y-75620535D02*
X167554819Y-75525297D01*
X167554819Y-75525297D02*
X167554819Y-75239583D01*
X167554819Y-75239583D02*
X167507200Y-75144345D01*
X167507200Y-75144345D02*
X167459580Y-75096726D01*
X166554819Y-76572916D02*
X166554819Y-76382440D01*
X166554819Y-76382440D02*
X166602438Y-76287202D01*
X166602438Y-76287202D02*
X166650057Y-76239583D01*
X166650057Y-76239583D02*
X166792914Y-76144345D01*
X166792914Y-76144345D02*
X166983390Y-76096726D01*
X166983390Y-76096726D02*
X167364342Y-76096726D01*
X167364342Y-76096726D02*
X167459580Y-76144345D01*
X167459580Y-76144345D02*
X167507200Y-76191964D01*
X167507200Y-76191964D02*
X167554819Y-76287202D01*
X167554819Y-76287202D02*
X167554819Y-76477678D01*
X167554819Y-76477678D02*
X167507200Y-76572916D01*
X167507200Y-76572916D02*
X167459580Y-76620535D01*
X167459580Y-76620535D02*
X167364342Y-76668154D01*
X167364342Y-76668154D02*
X167126247Y-76668154D01*
X167126247Y-76668154D02*
X167031009Y-76620535D01*
X167031009Y-76620535D02*
X166983390Y-76572916D01*
X166983390Y-76572916D02*
X166935771Y-76477678D01*
X166935771Y-76477678D02*
X166935771Y-76287202D01*
X166935771Y-76287202D02*
X166983390Y-76191964D01*
X166983390Y-76191964D02*
X167031009Y-76144345D01*
X167031009Y-76144345D02*
X167126247Y-76096726D01*
X138979819Y-55935714D02*
X137979819Y-55935714D01*
X137979819Y-55935714D02*
X137979819Y-56173809D01*
X137979819Y-56173809D02*
X138027438Y-56316666D01*
X138027438Y-56316666D02*
X138122676Y-56411904D01*
X138122676Y-56411904D02*
X138217914Y-56459523D01*
X138217914Y-56459523D02*
X138408390Y-56507142D01*
X138408390Y-56507142D02*
X138551247Y-56507142D01*
X138551247Y-56507142D02*
X138741723Y-56459523D01*
X138741723Y-56459523D02*
X138836961Y-56411904D01*
X138836961Y-56411904D02*
X138932200Y-56316666D01*
X138932200Y-56316666D02*
X138979819Y-56173809D01*
X138979819Y-56173809D02*
X138979819Y-55935714D01*
X138075057Y-56888095D02*
X138027438Y-56935714D01*
X138027438Y-56935714D02*
X137979819Y-57030952D01*
X137979819Y-57030952D02*
X137979819Y-57269047D01*
X137979819Y-57269047D02*
X138027438Y-57364285D01*
X138027438Y-57364285D02*
X138075057Y-57411904D01*
X138075057Y-57411904D02*
X138170295Y-57459523D01*
X138170295Y-57459523D02*
X138265533Y-57459523D01*
X138265533Y-57459523D02*
X138408390Y-57411904D01*
X138408390Y-57411904D02*
X138979819Y-56840476D01*
X138979819Y-56840476D02*
X138979819Y-57459523D01*
X137979819Y-58078571D02*
X137979819Y-58173809D01*
X137979819Y-58173809D02*
X138027438Y-58269047D01*
X138027438Y-58269047D02*
X138075057Y-58316666D01*
X138075057Y-58316666D02*
X138170295Y-58364285D01*
X138170295Y-58364285D02*
X138360771Y-58411904D01*
X138360771Y-58411904D02*
X138598866Y-58411904D01*
X138598866Y-58411904D02*
X138789342Y-58364285D01*
X138789342Y-58364285D02*
X138884580Y-58316666D01*
X138884580Y-58316666D02*
X138932200Y-58269047D01*
X138932200Y-58269047D02*
X138979819Y-58173809D01*
X138979819Y-58173809D02*
X138979819Y-58078571D01*
X138979819Y-58078571D02*
X138932200Y-57983333D01*
X138932200Y-57983333D02*
X138884580Y-57935714D01*
X138884580Y-57935714D02*
X138789342Y-57888095D01*
X138789342Y-57888095D02*
X138598866Y-57840476D01*
X138598866Y-57840476D02*
X138360771Y-57840476D01*
X138360771Y-57840476D02*
X138170295Y-57888095D01*
X138170295Y-57888095D02*
X138075057Y-57935714D01*
X138075057Y-57935714D02*
X138027438Y-57983333D01*
X138027438Y-57983333D02*
X137979819Y-58078571D01*
X234229819Y-55141964D02*
X233229819Y-55141964D01*
X233229819Y-55141964D02*
X233229819Y-55380059D01*
X233229819Y-55380059D02*
X233277438Y-55522916D01*
X233277438Y-55522916D02*
X233372676Y-55618154D01*
X233372676Y-55618154D02*
X233467914Y-55665773D01*
X233467914Y-55665773D02*
X233658390Y-55713392D01*
X233658390Y-55713392D02*
X233801247Y-55713392D01*
X233801247Y-55713392D02*
X233991723Y-55665773D01*
X233991723Y-55665773D02*
X234086961Y-55618154D01*
X234086961Y-55618154D02*
X234182200Y-55522916D01*
X234182200Y-55522916D02*
X234229819Y-55380059D01*
X234229819Y-55380059D02*
X234229819Y-55141964D01*
X233325057Y-56094345D02*
X233277438Y-56141964D01*
X233277438Y-56141964D02*
X233229819Y-56237202D01*
X233229819Y-56237202D02*
X233229819Y-56475297D01*
X233229819Y-56475297D02*
X233277438Y-56570535D01*
X233277438Y-56570535D02*
X233325057Y-56618154D01*
X233325057Y-56618154D02*
X233420295Y-56665773D01*
X233420295Y-56665773D02*
X233515533Y-56665773D01*
X233515533Y-56665773D02*
X233658390Y-56618154D01*
X233658390Y-56618154D02*
X234229819Y-56046726D01*
X234229819Y-56046726D02*
X234229819Y-56665773D01*
X233229819Y-57570535D02*
X233229819Y-57094345D01*
X233229819Y-57094345D02*
X233706009Y-57046726D01*
X233706009Y-57046726D02*
X233658390Y-57094345D01*
X233658390Y-57094345D02*
X233610771Y-57189583D01*
X233610771Y-57189583D02*
X233610771Y-57427678D01*
X233610771Y-57427678D02*
X233658390Y-57522916D01*
X233658390Y-57522916D02*
X233706009Y-57570535D01*
X233706009Y-57570535D02*
X233801247Y-57618154D01*
X233801247Y-57618154D02*
X234039342Y-57618154D01*
X234039342Y-57618154D02*
X234134580Y-57570535D01*
X234134580Y-57570535D02*
X234182200Y-57522916D01*
X234182200Y-57522916D02*
X234229819Y-57427678D01*
X234229819Y-57427678D02*
X234229819Y-57189583D01*
X234229819Y-57189583D02*
X234182200Y-57094345D01*
X234182200Y-57094345D02*
X234134580Y-57046726D01*
X327479819Y-74191964D02*
X326479819Y-74191964D01*
X326479819Y-74191964D02*
X326479819Y-74430059D01*
X326479819Y-74430059D02*
X326527438Y-74572916D01*
X326527438Y-74572916D02*
X326622676Y-74668154D01*
X326622676Y-74668154D02*
X326717914Y-74715773D01*
X326717914Y-74715773D02*
X326908390Y-74763392D01*
X326908390Y-74763392D02*
X327051247Y-74763392D01*
X327051247Y-74763392D02*
X327241723Y-74715773D01*
X327241723Y-74715773D02*
X327336961Y-74668154D01*
X327336961Y-74668154D02*
X327432200Y-74572916D01*
X327432200Y-74572916D02*
X327479819Y-74430059D01*
X327479819Y-74430059D02*
X327479819Y-74191964D01*
X326813152Y-75620535D02*
X327479819Y-75620535D01*
X326432200Y-75382440D02*
X327146485Y-75144345D01*
X327146485Y-75144345D02*
X327146485Y-75763392D01*
X326813152Y-76572916D02*
X327479819Y-76572916D01*
X326432200Y-76334821D02*
X327146485Y-76096726D01*
X327146485Y-76096726D02*
X327146485Y-76715773D01*
X262804819Y-74985714D02*
X261804819Y-74985714D01*
X261804819Y-74985714D02*
X261804819Y-75223809D01*
X261804819Y-75223809D02*
X261852438Y-75366666D01*
X261852438Y-75366666D02*
X261947676Y-75461904D01*
X261947676Y-75461904D02*
X262042914Y-75509523D01*
X262042914Y-75509523D02*
X262233390Y-75557142D01*
X262233390Y-75557142D02*
X262376247Y-75557142D01*
X262376247Y-75557142D02*
X262566723Y-75509523D01*
X262566723Y-75509523D02*
X262661961Y-75461904D01*
X262661961Y-75461904D02*
X262757200Y-75366666D01*
X262757200Y-75366666D02*
X262804819Y-75223809D01*
X262804819Y-75223809D02*
X262804819Y-74985714D01*
X262138152Y-76414285D02*
X262804819Y-76414285D01*
X261757200Y-76176190D02*
X262471485Y-75938095D01*
X262471485Y-75938095D02*
X262471485Y-76557142D01*
X262804819Y-77461904D02*
X262804819Y-76890476D01*
X262804819Y-77176190D02*
X261804819Y-77176190D01*
X261804819Y-77176190D02*
X261947676Y-77080952D01*
X261947676Y-77080952D02*
X262042914Y-76985714D01*
X262042914Y-76985714D02*
X262090533Y-76890476D01*
X164379819Y-31805655D02*
X163379819Y-31805655D01*
X163379819Y-31805655D02*
X163379819Y-32043750D01*
X163379819Y-32043750D02*
X163427438Y-32186607D01*
X163427438Y-32186607D02*
X163522676Y-32281845D01*
X163522676Y-32281845D02*
X163617914Y-32329464D01*
X163617914Y-32329464D02*
X163808390Y-32377083D01*
X163808390Y-32377083D02*
X163951247Y-32377083D01*
X163951247Y-32377083D02*
X164141723Y-32329464D01*
X164141723Y-32329464D02*
X164236961Y-32281845D01*
X164236961Y-32281845D02*
X164332200Y-32186607D01*
X164332200Y-32186607D02*
X164379819Y-32043750D01*
X164379819Y-32043750D02*
X164379819Y-31805655D01*
X163379819Y-32710417D02*
X163379819Y-33377083D01*
X163379819Y-33377083D02*
X164379819Y-32948512D01*
X51667319Y-136898214D02*
X50667319Y-136898214D01*
X50667319Y-136898214D02*
X50667319Y-137136309D01*
X50667319Y-137136309D02*
X50714938Y-137279166D01*
X50714938Y-137279166D02*
X50810176Y-137374404D01*
X50810176Y-137374404D02*
X50905414Y-137422023D01*
X50905414Y-137422023D02*
X51095890Y-137469642D01*
X51095890Y-137469642D02*
X51238747Y-137469642D01*
X51238747Y-137469642D02*
X51429223Y-137422023D01*
X51429223Y-137422023D02*
X51524461Y-137374404D01*
X51524461Y-137374404D02*
X51619700Y-137279166D01*
X51619700Y-137279166D02*
X51667319Y-137136309D01*
X51667319Y-137136309D02*
X51667319Y-136898214D01*
X50667319Y-137802976D02*
X50667319Y-138469642D01*
X50667319Y-138469642D02*
X51667319Y-138041071D01*
X51000652Y-139279166D02*
X51667319Y-139279166D01*
X50619700Y-139041071D02*
X51333985Y-138802976D01*
X51333985Y-138802976D02*
X51333985Y-139422023D01*
X43729819Y-31805655D02*
X42729819Y-31805655D01*
X42729819Y-31805655D02*
X42729819Y-32043750D01*
X42729819Y-32043750D02*
X42777438Y-32186607D01*
X42777438Y-32186607D02*
X42872676Y-32281845D01*
X42872676Y-32281845D02*
X42967914Y-32329464D01*
X42967914Y-32329464D02*
X43158390Y-32377083D01*
X43158390Y-32377083D02*
X43301247Y-32377083D01*
X43301247Y-32377083D02*
X43491723Y-32329464D01*
X43491723Y-32329464D02*
X43586961Y-32281845D01*
X43586961Y-32281845D02*
X43682200Y-32186607D01*
X43682200Y-32186607D02*
X43729819Y-32043750D01*
X43729819Y-32043750D02*
X43729819Y-31805655D01*
X43729819Y-33329464D02*
X43729819Y-32758036D01*
X43729819Y-33043750D02*
X42729819Y-33043750D01*
X42729819Y-33043750D02*
X42872676Y-32948512D01*
X42872676Y-32948512D02*
X42967914Y-32853274D01*
X42967914Y-32853274D02*
X43015533Y-32758036D01*
X104054819Y-32536905D02*
X103054819Y-32536905D01*
X103054819Y-32536905D02*
X103054819Y-32775000D01*
X103054819Y-32775000D02*
X103102438Y-32917857D01*
X103102438Y-32917857D02*
X103197676Y-33013095D01*
X103197676Y-33013095D02*
X103292914Y-33060714D01*
X103292914Y-33060714D02*
X103483390Y-33108333D01*
X103483390Y-33108333D02*
X103626247Y-33108333D01*
X103626247Y-33108333D02*
X103816723Y-33060714D01*
X103816723Y-33060714D02*
X103911961Y-33013095D01*
X103911961Y-33013095D02*
X104007200Y-32917857D01*
X104007200Y-32917857D02*
X104054819Y-32775000D01*
X104054819Y-32775000D02*
X104054819Y-32536905D01*
X103388152Y-33965476D02*
X104054819Y-33965476D01*
X103007200Y-33727381D02*
X103721485Y-33489286D01*
X103721485Y-33489286D02*
X103721485Y-34108333D01*
X301698569Y-58316964D02*
X300698569Y-58316964D01*
X300698569Y-58316964D02*
X300698569Y-58555059D01*
X300698569Y-58555059D02*
X300746188Y-58697916D01*
X300746188Y-58697916D02*
X300841426Y-58793154D01*
X300841426Y-58793154D02*
X300936664Y-58840773D01*
X300936664Y-58840773D02*
X301127140Y-58888392D01*
X301127140Y-58888392D02*
X301269997Y-58888392D01*
X301269997Y-58888392D02*
X301460473Y-58840773D01*
X301460473Y-58840773D02*
X301555711Y-58793154D01*
X301555711Y-58793154D02*
X301650950Y-58697916D01*
X301650950Y-58697916D02*
X301698569Y-58555059D01*
X301698569Y-58555059D02*
X301698569Y-58316964D01*
X300793807Y-59269345D02*
X300746188Y-59316964D01*
X300746188Y-59316964D02*
X300698569Y-59412202D01*
X300698569Y-59412202D02*
X300698569Y-59650297D01*
X300698569Y-59650297D02*
X300746188Y-59745535D01*
X300746188Y-59745535D02*
X300793807Y-59793154D01*
X300793807Y-59793154D02*
X300889045Y-59840773D01*
X300889045Y-59840773D02*
X300984283Y-59840773D01*
X300984283Y-59840773D02*
X301127140Y-59793154D01*
X301127140Y-59793154D02*
X301698569Y-59221726D01*
X301698569Y-59221726D02*
X301698569Y-59840773D01*
X301127140Y-60412202D02*
X301079521Y-60316964D01*
X301079521Y-60316964D02*
X301031902Y-60269345D01*
X301031902Y-60269345D02*
X300936664Y-60221726D01*
X300936664Y-60221726D02*
X300889045Y-60221726D01*
X300889045Y-60221726D02*
X300793807Y-60269345D01*
X300793807Y-60269345D02*
X300746188Y-60316964D01*
X300746188Y-60316964D02*
X300698569Y-60412202D01*
X300698569Y-60412202D02*
X300698569Y-60602678D01*
X300698569Y-60602678D02*
X300746188Y-60697916D01*
X300746188Y-60697916D02*
X300793807Y-60745535D01*
X300793807Y-60745535D02*
X300889045Y-60793154D01*
X300889045Y-60793154D02*
X300936664Y-60793154D01*
X300936664Y-60793154D02*
X301031902Y-60745535D01*
X301031902Y-60745535D02*
X301079521Y-60697916D01*
X301079521Y-60697916D02*
X301127140Y-60602678D01*
X301127140Y-60602678D02*
X301127140Y-60412202D01*
X301127140Y-60412202D02*
X301174759Y-60316964D01*
X301174759Y-60316964D02*
X301222378Y-60269345D01*
X301222378Y-60269345D02*
X301317616Y-60221726D01*
X301317616Y-60221726D02*
X301508092Y-60221726D01*
X301508092Y-60221726D02*
X301603330Y-60269345D01*
X301603330Y-60269345D02*
X301650950Y-60316964D01*
X301650950Y-60316964D02*
X301698569Y-60412202D01*
X301698569Y-60412202D02*
X301698569Y-60602678D01*
X301698569Y-60602678D02*
X301650950Y-60697916D01*
X301650950Y-60697916D02*
X301603330Y-60745535D01*
X301603330Y-60745535D02*
X301508092Y-60793154D01*
X301508092Y-60793154D02*
X301317616Y-60793154D01*
X301317616Y-60793154D02*
X301222378Y-60745535D01*
X301222378Y-60745535D02*
X301174759Y-60697916D01*
X301174759Y-60697916D02*
X301127140Y-60602678D01*
X119929819Y-55141964D02*
X118929819Y-55141964D01*
X118929819Y-55141964D02*
X118929819Y-55380059D01*
X118929819Y-55380059D02*
X118977438Y-55522916D01*
X118977438Y-55522916D02*
X119072676Y-55618154D01*
X119072676Y-55618154D02*
X119167914Y-55665773D01*
X119167914Y-55665773D02*
X119358390Y-55713392D01*
X119358390Y-55713392D02*
X119501247Y-55713392D01*
X119501247Y-55713392D02*
X119691723Y-55665773D01*
X119691723Y-55665773D02*
X119786961Y-55618154D01*
X119786961Y-55618154D02*
X119882200Y-55522916D01*
X119882200Y-55522916D02*
X119929819Y-55380059D01*
X119929819Y-55380059D02*
X119929819Y-55141964D01*
X119929819Y-56665773D02*
X119929819Y-56094345D01*
X119929819Y-56380059D02*
X118929819Y-56380059D01*
X118929819Y-56380059D02*
X119072676Y-56284821D01*
X119072676Y-56284821D02*
X119167914Y-56189583D01*
X119167914Y-56189583D02*
X119215533Y-56094345D01*
X119929819Y-57141964D02*
X119929819Y-57332440D01*
X119929819Y-57332440D02*
X119882200Y-57427678D01*
X119882200Y-57427678D02*
X119834580Y-57475297D01*
X119834580Y-57475297D02*
X119691723Y-57570535D01*
X119691723Y-57570535D02*
X119501247Y-57618154D01*
X119501247Y-57618154D02*
X119120295Y-57618154D01*
X119120295Y-57618154D02*
X119025057Y-57570535D01*
X119025057Y-57570535D02*
X118977438Y-57522916D01*
X118977438Y-57522916D02*
X118929819Y-57427678D01*
X118929819Y-57427678D02*
X118929819Y-57237202D01*
X118929819Y-57237202D02*
X118977438Y-57141964D01*
X118977438Y-57141964D02*
X119025057Y-57094345D01*
X119025057Y-57094345D02*
X119120295Y-57046726D01*
X119120295Y-57046726D02*
X119358390Y-57046726D01*
X119358390Y-57046726D02*
X119453628Y-57094345D01*
X119453628Y-57094345D02*
X119501247Y-57141964D01*
X119501247Y-57141964D02*
X119548866Y-57237202D01*
X119548866Y-57237202D02*
X119548866Y-57427678D01*
X119548866Y-57427678D02*
X119501247Y-57522916D01*
X119501247Y-57522916D02*
X119453628Y-57570535D01*
X119453628Y-57570535D02*
X119358390Y-57618154D01*
X134217319Y-93241964D02*
X133217319Y-93241964D01*
X133217319Y-93241964D02*
X133217319Y-93480059D01*
X133217319Y-93480059D02*
X133264938Y-93622916D01*
X133264938Y-93622916D02*
X133360176Y-93718154D01*
X133360176Y-93718154D02*
X133455414Y-93765773D01*
X133455414Y-93765773D02*
X133645890Y-93813392D01*
X133645890Y-93813392D02*
X133788747Y-93813392D01*
X133788747Y-93813392D02*
X133979223Y-93765773D01*
X133979223Y-93765773D02*
X134074461Y-93718154D01*
X134074461Y-93718154D02*
X134169700Y-93622916D01*
X134169700Y-93622916D02*
X134217319Y-93480059D01*
X134217319Y-93480059D02*
X134217319Y-93241964D01*
X133550652Y-94670535D02*
X134217319Y-94670535D01*
X133169700Y-94432440D02*
X133883985Y-94194345D01*
X133883985Y-94194345D02*
X133883985Y-94813392D01*
X134217319Y-95241964D02*
X134217319Y-95432440D01*
X134217319Y-95432440D02*
X134169700Y-95527678D01*
X134169700Y-95527678D02*
X134122080Y-95575297D01*
X134122080Y-95575297D02*
X133979223Y-95670535D01*
X133979223Y-95670535D02*
X133788747Y-95718154D01*
X133788747Y-95718154D02*
X133407795Y-95718154D01*
X133407795Y-95718154D02*
X133312557Y-95670535D01*
X133312557Y-95670535D02*
X133264938Y-95622916D01*
X133264938Y-95622916D02*
X133217319Y-95527678D01*
X133217319Y-95527678D02*
X133217319Y-95337202D01*
X133217319Y-95337202D02*
X133264938Y-95241964D01*
X133264938Y-95241964D02*
X133312557Y-95194345D01*
X133312557Y-95194345D02*
X133407795Y-95146726D01*
X133407795Y-95146726D02*
X133645890Y-95146726D01*
X133645890Y-95146726D02*
X133741128Y-95194345D01*
X133741128Y-95194345D02*
X133788747Y-95241964D01*
X133788747Y-95241964D02*
X133836366Y-95337202D01*
X133836366Y-95337202D02*
X133836366Y-95527678D01*
X133836366Y-95527678D02*
X133788747Y-95622916D01*
X133788747Y-95622916D02*
X133741128Y-95670535D01*
X133741128Y-95670535D02*
X133645890Y-95718154D01*
X258042319Y-112291964D02*
X257042319Y-112291964D01*
X257042319Y-112291964D02*
X257042319Y-112530059D01*
X257042319Y-112530059D02*
X257089938Y-112672916D01*
X257089938Y-112672916D02*
X257185176Y-112768154D01*
X257185176Y-112768154D02*
X257280414Y-112815773D01*
X257280414Y-112815773D02*
X257470890Y-112863392D01*
X257470890Y-112863392D02*
X257613747Y-112863392D01*
X257613747Y-112863392D02*
X257804223Y-112815773D01*
X257804223Y-112815773D02*
X257899461Y-112768154D01*
X257899461Y-112768154D02*
X257994700Y-112672916D01*
X257994700Y-112672916D02*
X258042319Y-112530059D01*
X258042319Y-112530059D02*
X258042319Y-112291964D01*
X257042319Y-113720535D02*
X257042319Y-113530059D01*
X257042319Y-113530059D02*
X257089938Y-113434821D01*
X257089938Y-113434821D02*
X257137557Y-113387202D01*
X257137557Y-113387202D02*
X257280414Y-113291964D01*
X257280414Y-113291964D02*
X257470890Y-113244345D01*
X257470890Y-113244345D02*
X257851842Y-113244345D01*
X257851842Y-113244345D02*
X257947080Y-113291964D01*
X257947080Y-113291964D02*
X257994700Y-113339583D01*
X257994700Y-113339583D02*
X258042319Y-113434821D01*
X258042319Y-113434821D02*
X258042319Y-113625297D01*
X258042319Y-113625297D02*
X257994700Y-113720535D01*
X257994700Y-113720535D02*
X257947080Y-113768154D01*
X257947080Y-113768154D02*
X257851842Y-113815773D01*
X257851842Y-113815773D02*
X257613747Y-113815773D01*
X257613747Y-113815773D02*
X257518509Y-113768154D01*
X257518509Y-113768154D02*
X257470890Y-113720535D01*
X257470890Y-113720535D02*
X257423271Y-113625297D01*
X257423271Y-113625297D02*
X257423271Y-113434821D01*
X257423271Y-113434821D02*
X257470890Y-113339583D01*
X257470890Y-113339583D02*
X257518509Y-113291964D01*
X257518509Y-113291964D02*
X257613747Y-113244345D01*
X258042319Y-114291964D02*
X258042319Y-114482440D01*
X258042319Y-114482440D02*
X257994700Y-114577678D01*
X257994700Y-114577678D02*
X257947080Y-114625297D01*
X257947080Y-114625297D02*
X257804223Y-114720535D01*
X257804223Y-114720535D02*
X257613747Y-114768154D01*
X257613747Y-114768154D02*
X257232795Y-114768154D01*
X257232795Y-114768154D02*
X257137557Y-114720535D01*
X257137557Y-114720535D02*
X257089938Y-114672916D01*
X257089938Y-114672916D02*
X257042319Y-114577678D01*
X257042319Y-114577678D02*
X257042319Y-114387202D01*
X257042319Y-114387202D02*
X257089938Y-114291964D01*
X257089938Y-114291964D02*
X257137557Y-114244345D01*
X257137557Y-114244345D02*
X257232795Y-114196726D01*
X257232795Y-114196726D02*
X257470890Y-114196726D01*
X257470890Y-114196726D02*
X257566128Y-114244345D01*
X257566128Y-114244345D02*
X257613747Y-114291964D01*
X257613747Y-114291964D02*
X257661366Y-114387202D01*
X257661366Y-114387202D02*
X257661366Y-114577678D01*
X257661366Y-114577678D02*
X257613747Y-114672916D01*
X257613747Y-114672916D02*
X257566128Y-114720535D01*
X257566128Y-114720535D02*
X257470890Y-114768154D01*
X62779819Y-55873214D02*
X61779819Y-55873214D01*
X61779819Y-55873214D02*
X61779819Y-56111309D01*
X61779819Y-56111309D02*
X61827438Y-56254166D01*
X61827438Y-56254166D02*
X61922676Y-56349404D01*
X61922676Y-56349404D02*
X62017914Y-56397023D01*
X62017914Y-56397023D02*
X62208390Y-56444642D01*
X62208390Y-56444642D02*
X62351247Y-56444642D01*
X62351247Y-56444642D02*
X62541723Y-56397023D01*
X62541723Y-56397023D02*
X62636961Y-56349404D01*
X62636961Y-56349404D02*
X62732200Y-56254166D01*
X62732200Y-56254166D02*
X62779819Y-56111309D01*
X62779819Y-56111309D02*
X62779819Y-55873214D01*
X62779819Y-57397023D02*
X62779819Y-56825595D01*
X62779819Y-57111309D02*
X61779819Y-57111309D01*
X61779819Y-57111309D02*
X61922676Y-57016071D01*
X61922676Y-57016071D02*
X62017914Y-56920833D01*
X62017914Y-56920833D02*
X62065533Y-56825595D01*
X61779819Y-58254166D02*
X61779819Y-58063690D01*
X61779819Y-58063690D02*
X61827438Y-57968452D01*
X61827438Y-57968452D02*
X61875057Y-57920833D01*
X61875057Y-57920833D02*
X62017914Y-57825595D01*
X62017914Y-57825595D02*
X62208390Y-57777976D01*
X62208390Y-57777976D02*
X62589342Y-57777976D01*
X62589342Y-57777976D02*
X62684580Y-57825595D01*
X62684580Y-57825595D02*
X62732200Y-57873214D01*
X62732200Y-57873214D02*
X62779819Y-57968452D01*
X62779819Y-57968452D02*
X62779819Y-58158928D01*
X62779819Y-58158928D02*
X62732200Y-58254166D01*
X62732200Y-58254166D02*
X62684580Y-58301785D01*
X62684580Y-58301785D02*
X62589342Y-58349404D01*
X62589342Y-58349404D02*
X62351247Y-58349404D01*
X62351247Y-58349404D02*
X62256009Y-58301785D01*
X62256009Y-58301785D02*
X62208390Y-58254166D01*
X62208390Y-58254166D02*
X62160771Y-58158928D01*
X62160771Y-58158928D02*
X62160771Y-57968452D01*
X62160771Y-57968452D02*
X62208390Y-57873214D01*
X62208390Y-57873214D02*
X62256009Y-57825595D01*
X62256009Y-57825595D02*
X62351247Y-57777976D01*
X281854819Y-31329464D02*
X280854819Y-31329464D01*
X280854819Y-31329464D02*
X280854819Y-31567559D01*
X280854819Y-31567559D02*
X280902438Y-31710416D01*
X280902438Y-31710416D02*
X280997676Y-31805654D01*
X280997676Y-31805654D02*
X281092914Y-31853273D01*
X281092914Y-31853273D02*
X281283390Y-31900892D01*
X281283390Y-31900892D02*
X281426247Y-31900892D01*
X281426247Y-31900892D02*
X281616723Y-31853273D01*
X281616723Y-31853273D02*
X281711961Y-31805654D01*
X281711961Y-31805654D02*
X281807200Y-31710416D01*
X281807200Y-31710416D02*
X281854819Y-31567559D01*
X281854819Y-31567559D02*
X281854819Y-31329464D01*
X281854819Y-32853273D02*
X281854819Y-32281845D01*
X281854819Y-32567559D02*
X280854819Y-32567559D01*
X280854819Y-32567559D02*
X280997676Y-32472321D01*
X280997676Y-32472321D02*
X281092914Y-32377083D01*
X281092914Y-32377083D02*
X281140533Y-32281845D01*
X280854819Y-33186607D02*
X280854819Y-33805654D01*
X280854819Y-33805654D02*
X281235771Y-33472321D01*
X281235771Y-33472321D02*
X281235771Y-33615178D01*
X281235771Y-33615178D02*
X281283390Y-33710416D01*
X281283390Y-33710416D02*
X281331009Y-33758035D01*
X281331009Y-33758035D02*
X281426247Y-33805654D01*
X281426247Y-33805654D02*
X281664342Y-33805654D01*
X281664342Y-33805654D02*
X281759580Y-33758035D01*
X281759580Y-33758035D02*
X281807200Y-33710416D01*
X281807200Y-33710416D02*
X281854819Y-33615178D01*
X281854819Y-33615178D02*
X281854819Y-33329464D01*
X281854819Y-33329464D02*
X281807200Y-33234226D01*
X281807200Y-33234226D02*
X281759580Y-33186607D01*
X85004819Y-31805655D02*
X84004819Y-31805655D01*
X84004819Y-31805655D02*
X84004819Y-32043750D01*
X84004819Y-32043750D02*
X84052438Y-32186607D01*
X84052438Y-32186607D02*
X84147676Y-32281845D01*
X84147676Y-32281845D02*
X84242914Y-32329464D01*
X84242914Y-32329464D02*
X84433390Y-32377083D01*
X84433390Y-32377083D02*
X84576247Y-32377083D01*
X84576247Y-32377083D02*
X84766723Y-32329464D01*
X84766723Y-32329464D02*
X84861961Y-32281845D01*
X84861961Y-32281845D02*
X84957200Y-32186607D01*
X84957200Y-32186607D02*
X85004819Y-32043750D01*
X85004819Y-32043750D02*
X85004819Y-31805655D01*
X84004819Y-32710417D02*
X84004819Y-33329464D01*
X84004819Y-33329464D02*
X84385771Y-32996131D01*
X84385771Y-32996131D02*
X84385771Y-33138988D01*
X84385771Y-33138988D02*
X84433390Y-33234226D01*
X84433390Y-33234226D02*
X84481009Y-33281845D01*
X84481009Y-33281845D02*
X84576247Y-33329464D01*
X84576247Y-33329464D02*
X84814342Y-33329464D01*
X84814342Y-33329464D02*
X84909580Y-33281845D01*
X84909580Y-33281845D02*
X84957200Y-33234226D01*
X84957200Y-33234226D02*
X85004819Y-33138988D01*
X85004819Y-33138988D02*
X85004819Y-32853274D01*
X85004819Y-32853274D02*
X84957200Y-32758036D01*
X84957200Y-32758036D02*
X84909580Y-32710417D01*
X29442319Y-136104464D02*
X28442319Y-136104464D01*
X28442319Y-136104464D02*
X28442319Y-136342559D01*
X28442319Y-136342559D02*
X28489938Y-136485416D01*
X28489938Y-136485416D02*
X28585176Y-136580654D01*
X28585176Y-136580654D02*
X28680414Y-136628273D01*
X28680414Y-136628273D02*
X28870890Y-136675892D01*
X28870890Y-136675892D02*
X29013747Y-136675892D01*
X29013747Y-136675892D02*
X29204223Y-136628273D01*
X29204223Y-136628273D02*
X29299461Y-136580654D01*
X29299461Y-136580654D02*
X29394700Y-136485416D01*
X29394700Y-136485416D02*
X29442319Y-136342559D01*
X29442319Y-136342559D02*
X29442319Y-136104464D01*
X28442319Y-137009226D02*
X28442319Y-137675892D01*
X28442319Y-137675892D02*
X29442319Y-137247321D01*
X28442319Y-137961607D02*
X28442319Y-138580654D01*
X28442319Y-138580654D02*
X28823271Y-138247321D01*
X28823271Y-138247321D02*
X28823271Y-138390178D01*
X28823271Y-138390178D02*
X28870890Y-138485416D01*
X28870890Y-138485416D02*
X28918509Y-138533035D01*
X28918509Y-138533035D02*
X29013747Y-138580654D01*
X29013747Y-138580654D02*
X29251842Y-138580654D01*
X29251842Y-138580654D02*
X29347080Y-138533035D01*
X29347080Y-138533035D02*
X29394700Y-138485416D01*
X29394700Y-138485416D02*
X29442319Y-138390178D01*
X29442319Y-138390178D02*
X29442319Y-138104464D01*
X29442319Y-138104464D02*
X29394700Y-138009226D01*
X29394700Y-138009226D02*
X29347080Y-137961607D01*
X267567319Y-94035714D02*
X266567319Y-94035714D01*
X266567319Y-94035714D02*
X266567319Y-94273809D01*
X266567319Y-94273809D02*
X266614938Y-94416666D01*
X266614938Y-94416666D02*
X266710176Y-94511904D01*
X266710176Y-94511904D02*
X266805414Y-94559523D01*
X266805414Y-94559523D02*
X266995890Y-94607142D01*
X266995890Y-94607142D02*
X267138747Y-94607142D01*
X267138747Y-94607142D02*
X267329223Y-94559523D01*
X267329223Y-94559523D02*
X267424461Y-94511904D01*
X267424461Y-94511904D02*
X267519700Y-94416666D01*
X267519700Y-94416666D02*
X267567319Y-94273809D01*
X267567319Y-94273809D02*
X267567319Y-94035714D01*
X266567319Y-95511904D02*
X266567319Y-95035714D01*
X266567319Y-95035714D02*
X267043509Y-94988095D01*
X267043509Y-94988095D02*
X266995890Y-95035714D01*
X266995890Y-95035714D02*
X266948271Y-95130952D01*
X266948271Y-95130952D02*
X266948271Y-95369047D01*
X266948271Y-95369047D02*
X266995890Y-95464285D01*
X266995890Y-95464285D02*
X267043509Y-95511904D01*
X267043509Y-95511904D02*
X267138747Y-95559523D01*
X267138747Y-95559523D02*
X267376842Y-95559523D01*
X267376842Y-95559523D02*
X267472080Y-95511904D01*
X267472080Y-95511904D02*
X267519700Y-95464285D01*
X267519700Y-95464285D02*
X267567319Y-95369047D01*
X267567319Y-95369047D02*
X267567319Y-95130952D01*
X267567319Y-95130952D02*
X267519700Y-95035714D01*
X267519700Y-95035714D02*
X267472080Y-94988095D01*
X266567319Y-96416666D02*
X266567319Y-96226190D01*
X266567319Y-96226190D02*
X266614938Y-96130952D01*
X266614938Y-96130952D02*
X266662557Y-96083333D01*
X266662557Y-96083333D02*
X266805414Y-95988095D01*
X266805414Y-95988095D02*
X266995890Y-95940476D01*
X266995890Y-95940476D02*
X267376842Y-95940476D01*
X267376842Y-95940476D02*
X267472080Y-95988095D01*
X267472080Y-95988095D02*
X267519700Y-96035714D01*
X267519700Y-96035714D02*
X267567319Y-96130952D01*
X267567319Y-96130952D02*
X267567319Y-96321428D01*
X267567319Y-96321428D02*
X267519700Y-96416666D01*
X267519700Y-96416666D02*
X267472080Y-96464285D01*
X267472080Y-96464285D02*
X267376842Y-96511904D01*
X267376842Y-96511904D02*
X267138747Y-96511904D01*
X267138747Y-96511904D02*
X267043509Y-96464285D01*
X267043509Y-96464285D02*
X266995890Y-96416666D01*
X266995890Y-96416666D02*
X266948271Y-96321428D01*
X266948271Y-96321428D02*
X266948271Y-96130952D01*
X266948271Y-96130952D02*
X266995890Y-96035714D01*
X266995890Y-96035714D02*
X267043509Y-95988095D01*
X267043509Y-95988095D02*
X267138747Y-95940476D01*
X65954819Y-32599405D02*
X64954819Y-32599405D01*
X64954819Y-32599405D02*
X64954819Y-32837500D01*
X64954819Y-32837500D02*
X65002438Y-32980357D01*
X65002438Y-32980357D02*
X65097676Y-33075595D01*
X65097676Y-33075595D02*
X65192914Y-33123214D01*
X65192914Y-33123214D02*
X65383390Y-33170833D01*
X65383390Y-33170833D02*
X65526247Y-33170833D01*
X65526247Y-33170833D02*
X65716723Y-33123214D01*
X65716723Y-33123214D02*
X65811961Y-33075595D01*
X65811961Y-33075595D02*
X65907200Y-32980357D01*
X65907200Y-32980357D02*
X65954819Y-32837500D01*
X65954819Y-32837500D02*
X65954819Y-32599405D01*
X65050057Y-33551786D02*
X65002438Y-33599405D01*
X65002438Y-33599405D02*
X64954819Y-33694643D01*
X64954819Y-33694643D02*
X64954819Y-33932738D01*
X64954819Y-33932738D02*
X65002438Y-34027976D01*
X65002438Y-34027976D02*
X65050057Y-34075595D01*
X65050057Y-34075595D02*
X65145295Y-34123214D01*
X65145295Y-34123214D02*
X65240533Y-34123214D01*
X65240533Y-34123214D02*
X65383390Y-34075595D01*
X65383390Y-34075595D02*
X65954819Y-33504167D01*
X65954819Y-33504167D02*
X65954819Y-34123214D01*
X215179819Y-55935714D02*
X214179819Y-55935714D01*
X214179819Y-55935714D02*
X214179819Y-56173809D01*
X214179819Y-56173809D02*
X214227438Y-56316666D01*
X214227438Y-56316666D02*
X214322676Y-56411904D01*
X214322676Y-56411904D02*
X214417914Y-56459523D01*
X214417914Y-56459523D02*
X214608390Y-56507142D01*
X214608390Y-56507142D02*
X214751247Y-56507142D01*
X214751247Y-56507142D02*
X214941723Y-56459523D01*
X214941723Y-56459523D02*
X215036961Y-56411904D01*
X215036961Y-56411904D02*
X215132200Y-56316666D01*
X215132200Y-56316666D02*
X215179819Y-56173809D01*
X215179819Y-56173809D02*
X215179819Y-55935714D01*
X214275057Y-56888095D02*
X214227438Y-56935714D01*
X214227438Y-56935714D02*
X214179819Y-57030952D01*
X214179819Y-57030952D02*
X214179819Y-57269047D01*
X214179819Y-57269047D02*
X214227438Y-57364285D01*
X214227438Y-57364285D02*
X214275057Y-57411904D01*
X214275057Y-57411904D02*
X214370295Y-57459523D01*
X214370295Y-57459523D02*
X214465533Y-57459523D01*
X214465533Y-57459523D02*
X214608390Y-57411904D01*
X214608390Y-57411904D02*
X215179819Y-56840476D01*
X215179819Y-56840476D02*
X215179819Y-57459523D01*
X214513152Y-58316666D02*
X215179819Y-58316666D01*
X214132200Y-58078571D02*
X214846485Y-57840476D01*
X214846485Y-57840476D02*
X214846485Y-58459523D01*
X262804819Y-32123214D02*
X261804819Y-32123214D01*
X261804819Y-32123214D02*
X261804819Y-32361309D01*
X261804819Y-32361309D02*
X261852438Y-32504166D01*
X261852438Y-32504166D02*
X261947676Y-32599404D01*
X261947676Y-32599404D02*
X262042914Y-32647023D01*
X262042914Y-32647023D02*
X262233390Y-32694642D01*
X262233390Y-32694642D02*
X262376247Y-32694642D01*
X262376247Y-32694642D02*
X262566723Y-32647023D01*
X262566723Y-32647023D02*
X262661961Y-32599404D01*
X262661961Y-32599404D02*
X262757200Y-32504166D01*
X262757200Y-32504166D02*
X262804819Y-32361309D01*
X262804819Y-32361309D02*
X262804819Y-32123214D01*
X262804819Y-33647023D02*
X262804819Y-33075595D01*
X262804819Y-33361309D02*
X261804819Y-33361309D01*
X261804819Y-33361309D02*
X261947676Y-33266071D01*
X261947676Y-33266071D02*
X262042914Y-33170833D01*
X262042914Y-33170833D02*
X262090533Y-33075595D01*
X261900057Y-34027976D02*
X261852438Y-34075595D01*
X261852438Y-34075595D02*
X261804819Y-34170833D01*
X261804819Y-34170833D02*
X261804819Y-34408928D01*
X261804819Y-34408928D02*
X261852438Y-34504166D01*
X261852438Y-34504166D02*
X261900057Y-34551785D01*
X261900057Y-34551785D02*
X261995295Y-34599404D01*
X261995295Y-34599404D02*
X262090533Y-34599404D01*
X262090533Y-34599404D02*
X262233390Y-34551785D01*
X262233390Y-34551785D02*
X262804819Y-33980357D01*
X262804819Y-33980357D02*
X262804819Y-34599404D01*
X148504819Y-74985714D02*
X147504819Y-74985714D01*
X147504819Y-74985714D02*
X147504819Y-75223809D01*
X147504819Y-75223809D02*
X147552438Y-75366666D01*
X147552438Y-75366666D02*
X147647676Y-75461904D01*
X147647676Y-75461904D02*
X147742914Y-75509523D01*
X147742914Y-75509523D02*
X147933390Y-75557142D01*
X147933390Y-75557142D02*
X148076247Y-75557142D01*
X148076247Y-75557142D02*
X148266723Y-75509523D01*
X148266723Y-75509523D02*
X148361961Y-75461904D01*
X148361961Y-75461904D02*
X148457200Y-75366666D01*
X148457200Y-75366666D02*
X148504819Y-75223809D01*
X148504819Y-75223809D02*
X148504819Y-74985714D01*
X147504819Y-75890476D02*
X147504819Y-76509523D01*
X147504819Y-76509523D02*
X147885771Y-76176190D01*
X147885771Y-76176190D02*
X147885771Y-76319047D01*
X147885771Y-76319047D02*
X147933390Y-76414285D01*
X147933390Y-76414285D02*
X147981009Y-76461904D01*
X147981009Y-76461904D02*
X148076247Y-76509523D01*
X148076247Y-76509523D02*
X148314342Y-76509523D01*
X148314342Y-76509523D02*
X148409580Y-76461904D01*
X148409580Y-76461904D02*
X148457200Y-76414285D01*
X148457200Y-76414285D02*
X148504819Y-76319047D01*
X148504819Y-76319047D02*
X148504819Y-76033333D01*
X148504819Y-76033333D02*
X148457200Y-75938095D01*
X148457200Y-75938095D02*
X148409580Y-75890476D01*
X147504819Y-77414285D02*
X147504819Y-76938095D01*
X147504819Y-76938095D02*
X147981009Y-76890476D01*
X147981009Y-76890476D02*
X147933390Y-76938095D01*
X147933390Y-76938095D02*
X147885771Y-77033333D01*
X147885771Y-77033333D02*
X147885771Y-77271428D01*
X147885771Y-77271428D02*
X147933390Y-77366666D01*
X147933390Y-77366666D02*
X147981009Y-77414285D01*
X147981009Y-77414285D02*
X148076247Y-77461904D01*
X148076247Y-77461904D02*
X148314342Y-77461904D01*
X148314342Y-77461904D02*
X148409580Y-77414285D01*
X148409580Y-77414285D02*
X148457200Y-77366666D01*
X148457200Y-77366666D02*
X148504819Y-77271428D01*
X148504819Y-77271428D02*
X148504819Y-77033333D01*
X148504819Y-77033333D02*
X148457200Y-76938095D01*
X148457200Y-76938095D02*
X148409580Y-76890476D01*
X253279819Y-55935714D02*
X252279819Y-55935714D01*
X252279819Y-55935714D02*
X252279819Y-56173809D01*
X252279819Y-56173809D02*
X252327438Y-56316666D01*
X252327438Y-56316666D02*
X252422676Y-56411904D01*
X252422676Y-56411904D02*
X252517914Y-56459523D01*
X252517914Y-56459523D02*
X252708390Y-56507142D01*
X252708390Y-56507142D02*
X252851247Y-56507142D01*
X252851247Y-56507142D02*
X253041723Y-56459523D01*
X253041723Y-56459523D02*
X253136961Y-56411904D01*
X253136961Y-56411904D02*
X253232200Y-56316666D01*
X253232200Y-56316666D02*
X253279819Y-56173809D01*
X253279819Y-56173809D02*
X253279819Y-55935714D01*
X252375057Y-56888095D02*
X252327438Y-56935714D01*
X252327438Y-56935714D02*
X252279819Y-57030952D01*
X252279819Y-57030952D02*
X252279819Y-57269047D01*
X252279819Y-57269047D02*
X252327438Y-57364285D01*
X252327438Y-57364285D02*
X252375057Y-57411904D01*
X252375057Y-57411904D02*
X252470295Y-57459523D01*
X252470295Y-57459523D02*
X252565533Y-57459523D01*
X252565533Y-57459523D02*
X252708390Y-57411904D01*
X252708390Y-57411904D02*
X253279819Y-56840476D01*
X253279819Y-56840476D02*
X253279819Y-57459523D01*
X252279819Y-58316666D02*
X252279819Y-58126190D01*
X252279819Y-58126190D02*
X252327438Y-58030952D01*
X252327438Y-58030952D02*
X252375057Y-57983333D01*
X252375057Y-57983333D02*
X252517914Y-57888095D01*
X252517914Y-57888095D02*
X252708390Y-57840476D01*
X252708390Y-57840476D02*
X253089342Y-57840476D01*
X253089342Y-57840476D02*
X253184580Y-57888095D01*
X253184580Y-57888095D02*
X253232200Y-57935714D01*
X253232200Y-57935714D02*
X253279819Y-58030952D01*
X253279819Y-58030952D02*
X253279819Y-58221428D01*
X253279819Y-58221428D02*
X253232200Y-58316666D01*
X253232200Y-58316666D02*
X253184580Y-58364285D01*
X253184580Y-58364285D02*
X253089342Y-58411904D01*
X253089342Y-58411904D02*
X252851247Y-58411904D01*
X252851247Y-58411904D02*
X252756009Y-58364285D01*
X252756009Y-58364285D02*
X252708390Y-58316666D01*
X252708390Y-58316666D02*
X252660771Y-58221428D01*
X252660771Y-58221428D02*
X252660771Y-58030952D01*
X252660771Y-58030952D02*
X252708390Y-57935714D01*
X252708390Y-57935714D02*
X252756009Y-57888095D01*
X252756009Y-57888095D02*
X252851247Y-57840476D01*
X91354819Y-74191964D02*
X90354819Y-74191964D01*
X90354819Y-74191964D02*
X90354819Y-74430059D01*
X90354819Y-74430059D02*
X90402438Y-74572916D01*
X90402438Y-74572916D02*
X90497676Y-74668154D01*
X90497676Y-74668154D02*
X90592914Y-74715773D01*
X90592914Y-74715773D02*
X90783390Y-74763392D01*
X90783390Y-74763392D02*
X90926247Y-74763392D01*
X90926247Y-74763392D02*
X91116723Y-74715773D01*
X91116723Y-74715773D02*
X91211961Y-74668154D01*
X91211961Y-74668154D02*
X91307200Y-74572916D01*
X91307200Y-74572916D02*
X91354819Y-74430059D01*
X91354819Y-74430059D02*
X91354819Y-74191964D01*
X90354819Y-75096726D02*
X90354819Y-75715773D01*
X90354819Y-75715773D02*
X90735771Y-75382440D01*
X90735771Y-75382440D02*
X90735771Y-75525297D01*
X90735771Y-75525297D02*
X90783390Y-75620535D01*
X90783390Y-75620535D02*
X90831009Y-75668154D01*
X90831009Y-75668154D02*
X90926247Y-75715773D01*
X90926247Y-75715773D02*
X91164342Y-75715773D01*
X91164342Y-75715773D02*
X91259580Y-75668154D01*
X91259580Y-75668154D02*
X91307200Y-75620535D01*
X91307200Y-75620535D02*
X91354819Y-75525297D01*
X91354819Y-75525297D02*
X91354819Y-75239583D01*
X91354819Y-75239583D02*
X91307200Y-75144345D01*
X91307200Y-75144345D02*
X91259580Y-75096726D01*
X90450057Y-76096726D02*
X90402438Y-76144345D01*
X90402438Y-76144345D02*
X90354819Y-76239583D01*
X90354819Y-76239583D02*
X90354819Y-76477678D01*
X90354819Y-76477678D02*
X90402438Y-76572916D01*
X90402438Y-76572916D02*
X90450057Y-76620535D01*
X90450057Y-76620535D02*
X90545295Y-76668154D01*
X90545295Y-76668154D02*
X90640533Y-76668154D01*
X90640533Y-76668154D02*
X90783390Y-76620535D01*
X90783390Y-76620535D02*
X91354819Y-76049107D01*
X91354819Y-76049107D02*
X91354819Y-76668154D01*
%TO.C,G\u002A\u002A\u002A*%
G36*
X193467380Y-132679916D02*
G01*
X193467335Y-132694126D01*
X193466667Y-132894263D01*
X193466008Y-133074176D01*
X193465339Y-133235068D01*
X193464642Y-133378142D01*
X193463899Y-133504601D01*
X193463090Y-133615647D01*
X193462198Y-133712483D01*
X193461203Y-133796313D01*
X193460088Y-133868338D01*
X193458835Y-133929761D01*
X193457423Y-133981786D01*
X193455836Y-134025615D01*
X193454055Y-134062450D01*
X193452061Y-134093494D01*
X193449836Y-134119951D01*
X193447362Y-134143023D01*
X193444619Y-134163913D01*
X193417826Y-134328059D01*
X193366890Y-134560162D01*
X193302531Y-134776742D01*
X193224216Y-134978975D01*
X193131411Y-135168034D01*
X193023582Y-135345090D01*
X192900196Y-135511319D01*
X192760720Y-135667894D01*
X192728582Y-135700589D01*
X192643173Y-135782595D01*
X192559364Y-135854698D01*
X192469959Y-135922848D01*
X192367766Y-135992999D01*
X192277131Y-136049941D01*
X192075616Y-136158564D01*
X191859995Y-136251588D01*
X191629990Y-136329112D01*
X191385326Y-136391235D01*
X191125725Y-136438056D01*
X191094268Y-136442393D01*
X191059353Y-136446387D01*
X191021990Y-136449605D01*
X190979799Y-136452115D01*
X190930397Y-136453984D01*
X190871402Y-136455282D01*
X190800430Y-136456075D01*
X190715099Y-136456431D01*
X190613028Y-136456419D01*
X190491833Y-136456105D01*
X189992361Y-136454429D01*
X189778489Y-136104937D01*
X189744850Y-136049950D01*
X189671340Y-135929676D01*
X189594710Y-135804166D01*
X189515986Y-135675104D01*
X189436192Y-135544175D01*
X189356350Y-135413064D01*
X189277484Y-135283456D01*
X189200619Y-135157036D01*
X189126779Y-135035489D01*
X189056986Y-134920499D01*
X188992265Y-134813752D01*
X188933640Y-134716933D01*
X188882134Y-134631725D01*
X188838772Y-134559815D01*
X188804576Y-134502887D01*
X188780572Y-134462626D01*
X188758501Y-134425611D01*
X188730474Y-134379449D01*
X188707524Y-134342643D01*
X188691576Y-134318266D01*
X188684553Y-134309387D01*
X188682760Y-134311788D01*
X188671371Y-134329905D01*
X188650122Y-134364821D01*
X188619698Y-134415384D01*
X188580782Y-134480441D01*
X188534059Y-134558840D01*
X188480213Y-134649430D01*
X188419929Y-134751058D01*
X188353892Y-134862572D01*
X188282785Y-134982820D01*
X188207294Y-135110650D01*
X188128102Y-135244909D01*
X188045894Y-135384446D01*
X187412716Y-136459806D01*
X186676541Y-136459806D01*
X185940366Y-136459806D01*
X185964149Y-136419480D01*
X185966529Y-136415447D01*
X185979367Y-136393696D01*
X186002309Y-136354834D01*
X186034786Y-136299819D01*
X186076234Y-136229611D01*
X186126085Y-136145168D01*
X186183774Y-136047451D01*
X186248734Y-135937418D01*
X186320399Y-135816029D01*
X186398202Y-135684242D01*
X186481578Y-135543017D01*
X186569960Y-135393313D01*
X186662782Y-135236089D01*
X186759477Y-135072305D01*
X186859480Y-134902919D01*
X186962223Y-134728891D01*
X187013582Y-134641875D01*
X187114579Y-134470618D01*
X187212314Y-134304705D01*
X187306239Y-134145078D01*
X187395803Y-133992677D01*
X187480458Y-133848442D01*
X187559654Y-133713313D01*
X187632841Y-133588231D01*
X187699471Y-133474135D01*
X187758993Y-133371967D01*
X187810859Y-133282666D01*
X187854519Y-133207172D01*
X187889423Y-133146427D01*
X187915023Y-133101370D01*
X187930768Y-133072942D01*
X187936110Y-133062083D01*
X187934337Y-133058170D01*
X187922864Y-133037325D01*
X187901209Y-132999486D01*
X187869925Y-132945588D01*
X187829565Y-132876564D01*
X187780680Y-132793346D01*
X187723824Y-132696869D01*
X187659547Y-132588065D01*
X187588402Y-132467869D01*
X187510942Y-132337214D01*
X187427718Y-132197032D01*
X187339283Y-132048258D01*
X187246189Y-131891824D01*
X187148988Y-131728665D01*
X187048233Y-131559713D01*
X186944475Y-131385902D01*
X186014723Y-129829201D01*
X187415734Y-129829201D01*
X187415739Y-129829222D01*
X187421530Y-129839273D01*
X187437958Y-129867019D01*
X187464593Y-129911742D01*
X187501004Y-129972726D01*
X187546762Y-130049252D01*
X187601435Y-130140603D01*
X187664594Y-130246062D01*
X187735809Y-130364911D01*
X187814648Y-130496432D01*
X187900683Y-130639910D01*
X187993482Y-130794625D01*
X188092616Y-130959861D01*
X188197654Y-131134901D01*
X188308166Y-131319026D01*
X188423721Y-131511519D01*
X188543890Y-131711664D01*
X188668242Y-131918742D01*
X188796348Y-132132037D01*
X188927775Y-132350830D01*
X189062096Y-132574404D01*
X189066459Y-132581666D01*
X189200683Y-132805053D01*
X189332011Y-133023604D01*
X189460014Y-133236604D01*
X189584261Y-133443336D01*
X189704321Y-133643084D01*
X189819764Y-133835134D01*
X189930160Y-134018768D01*
X190035077Y-134193272D01*
X190134086Y-134357929D01*
X190226756Y-134512023D01*
X190312656Y-134654839D01*
X190391355Y-134785661D01*
X190462425Y-134903773D01*
X190525432Y-135008459D01*
X190579948Y-135099004D01*
X190625542Y-135174691D01*
X190661783Y-135234804D01*
X190688241Y-135278629D01*
X190704485Y-135305449D01*
X190710085Y-135314548D01*
X190723646Y-135314245D01*
X190774716Y-135310239D01*
X190839075Y-135302293D01*
X190911085Y-135291311D01*
X190985109Y-135278200D01*
X191055508Y-135263866D01*
X191116646Y-135249215D01*
X191241201Y-135211815D01*
X191400852Y-135148700D01*
X191545669Y-135071953D01*
X191677431Y-134980596D01*
X191797911Y-134873650D01*
X191841793Y-134828003D01*
X191942502Y-134705064D01*
X192026755Y-134572461D01*
X192095174Y-134428751D01*
X192148384Y-134272495D01*
X192187006Y-134102252D01*
X192211663Y-133916580D01*
X192213101Y-133893001D01*
X192214679Y-133846602D01*
X192216115Y-133781885D01*
X192217408Y-133700581D01*
X192218559Y-133604421D01*
X192219567Y-133495138D01*
X192220433Y-133374463D01*
X192221157Y-133244127D01*
X192221738Y-133105862D01*
X192222176Y-132961400D01*
X192222473Y-132812471D01*
X192222626Y-132660808D01*
X192222638Y-132508141D01*
X192222506Y-132356203D01*
X192222233Y-132206726D01*
X192221817Y-132061439D01*
X192221258Y-131922076D01*
X192220558Y-131790367D01*
X192219714Y-131668044D01*
X192218728Y-131556839D01*
X192217600Y-131458483D01*
X192216330Y-131374708D01*
X192214917Y-131307244D01*
X192213361Y-131257825D01*
X192211663Y-131228180D01*
X192203666Y-131153825D01*
X192173635Y-130974343D01*
X192129397Y-130809727D01*
X192070328Y-130658536D01*
X191995806Y-130519331D01*
X191905208Y-130390669D01*
X191797911Y-130271110D01*
X191774933Y-130248692D01*
X191665096Y-130154217D01*
X191546369Y-130072719D01*
X191416501Y-130003107D01*
X191273241Y-129944293D01*
X191114337Y-129895186D01*
X190937537Y-129854697D01*
X190927178Y-129852682D01*
X190911712Y-129849815D01*
X190895865Y-129847216D01*
X190878580Y-129844869D01*
X190858802Y-129842757D01*
X190835475Y-129840865D01*
X190807540Y-129839178D01*
X190773944Y-129837681D01*
X190733628Y-129836356D01*
X190685537Y-129835190D01*
X190628615Y-129834165D01*
X190561805Y-129833268D01*
X190484051Y-129832481D01*
X190394297Y-129831791D01*
X190291486Y-129831179D01*
X190174562Y-129830633D01*
X190042468Y-129830135D01*
X189894149Y-129829670D01*
X189728548Y-129829223D01*
X189544609Y-129828777D01*
X189341275Y-129828318D01*
X189117491Y-129827830D01*
X189000034Y-129827588D01*
X188814024Y-129827254D01*
X188634643Y-129826992D01*
X188463036Y-129826803D01*
X188300347Y-129826685D01*
X188147721Y-129826636D01*
X188006301Y-129826657D01*
X187877233Y-129826746D01*
X187761661Y-129826902D01*
X187660730Y-129827125D01*
X187575583Y-129827413D01*
X187507366Y-129827765D01*
X187457222Y-129828182D01*
X187426297Y-129828660D01*
X187415734Y-129829201D01*
X186014723Y-129829201D01*
X185953244Y-129726266D01*
X185953244Y-129194856D01*
X185953244Y-128663447D01*
X188315739Y-128663447D01*
X188472100Y-128663460D01*
X188775172Y-128663570D01*
X189057870Y-128663789D01*
X189320108Y-128664117D01*
X189561798Y-128664555D01*
X189782853Y-128665101D01*
X189983186Y-128665755D01*
X190162710Y-128666518D01*
X190321338Y-128667387D01*
X190458982Y-128668364D01*
X190575554Y-128669448D01*
X190670969Y-128670637D01*
X190745139Y-128671933D01*
X190797976Y-128673334D01*
X190829393Y-128674840D01*
X191066650Y-128699030D01*
X191329825Y-128741982D01*
X191578863Y-128800657D01*
X191813545Y-128874851D01*
X192033655Y-128964358D01*
X192238975Y-129068974D01*
X192429289Y-129188494D01*
X192604380Y-129322712D01*
X192764029Y-129471424D01*
X192908021Y-129634424D01*
X193036138Y-129811508D01*
X193148162Y-130002470D01*
X193243877Y-130207106D01*
X193323066Y-130425210D01*
X193385512Y-130656577D01*
X193430997Y-130901003D01*
X193459304Y-131158282D01*
X193459318Y-131158468D01*
X193461382Y-131194948D01*
X193463181Y-131245636D01*
X193464718Y-131311196D01*
X193465998Y-131392290D01*
X193467024Y-131489583D01*
X193467799Y-131603737D01*
X193468327Y-131735417D01*
X193468611Y-131885286D01*
X193468655Y-132054006D01*
X193468462Y-132242243D01*
X193468036Y-132450658D01*
X193467872Y-132508141D01*
X193467380Y-132679916D01*
G37*
D13*
%TO.C,D82*%
X268875000Y-138091250D02*
X268875000Y-134081250D01*
X270875000Y-138091250D02*
X270875000Y-134081250D01*
X270875000Y-138091250D02*
X268875000Y-138091250D01*
%TO.C,D30*%
X45037500Y-77766250D02*
X45037500Y-73756250D01*
X47037500Y-77766250D02*
X45037500Y-77766250D01*
X47037500Y-77766250D02*
X47037500Y-73756250D01*
%TO.C,D67*%
X216487500Y-115866250D02*
X216487500Y-111856250D01*
X218487500Y-115866250D02*
X216487500Y-115866250D01*
X218487500Y-115866250D02*
X218487500Y-111856250D01*
%TO.C,D64*%
X159337500Y-116660000D02*
X159337500Y-112650000D01*
X161337500Y-116660000D02*
X159337500Y-116660000D01*
X161337500Y-116660000D02*
X161337500Y-112650000D01*
%TO.C,D65*%
X178387500Y-115866250D02*
X178387500Y-111856250D01*
X180387500Y-115866250D02*
X178387500Y-115866250D01*
X180387500Y-115866250D02*
X180387500Y-111856250D01*
%TO.C,D58*%
X326025000Y-96816250D02*
X326025000Y-92806250D01*
X328025000Y-96816250D02*
X326025000Y-96816250D01*
X328025000Y-96816250D02*
X328025000Y-92806250D01*
%TO.C,D31*%
X68850000Y-78560000D02*
X68850000Y-74550000D01*
X70850000Y-78560000D02*
X68850000Y-78560000D01*
X70850000Y-78560000D02*
X70850000Y-74550000D01*
%TO.C,D61*%
X102187500Y-115866250D02*
X102187500Y-111856250D01*
X104187500Y-115866250D02*
X102187500Y-115866250D01*
X104187500Y-115866250D02*
X104187500Y-111856250D01*
%TO.C,D21*%
X154575000Y-58716250D02*
X154575000Y-54706250D01*
X156575000Y-58716250D02*
X154575000Y-58716250D01*
X156575000Y-58716250D02*
X156575000Y-54706250D01*
%TO.C,D62*%
X121237500Y-116660000D02*
X121237500Y-112650000D01*
X123237500Y-116660000D02*
X121237500Y-116660000D01*
X123237500Y-116660000D02*
X123237500Y-112650000D01*
%TO.C,D72*%
X326025000Y-115866250D02*
X326025000Y-111856250D01*
X328025000Y-115866250D02*
X326025000Y-115866250D01*
X328025000Y-115866250D02*
X328025000Y-111856250D01*
%TO.C,D8*%
X179975000Y-35697500D02*
X179975000Y-31687500D01*
X181975000Y-35697500D02*
X179975000Y-35697500D01*
X181975000Y-35697500D02*
X181975000Y-31687500D01*
%TO.C,D23*%
X192675000Y-58716250D02*
X192675000Y-54706250D01*
X194675000Y-58716250D02*
X192675000Y-58716250D01*
X194675000Y-58716250D02*
X194675000Y-54706250D01*
%TO.C,D46*%
X73612500Y-97610000D02*
X73612500Y-93600000D01*
X75612500Y-97610000D02*
X73612500Y-97610000D01*
X75612500Y-97610000D02*
X75612500Y-93600000D01*
%TO.C,D70*%
X280781250Y-116660000D02*
X280781250Y-112650000D01*
X282781250Y-116660000D02*
X280781250Y-116660000D01*
X282781250Y-116660000D02*
X282781250Y-112650000D01*
%TO.C,D52*%
X187912500Y-97610000D02*
X187912500Y-93600000D01*
X189912500Y-97610000D02*
X187912500Y-97610000D01*
X189912500Y-97610000D02*
X189912500Y-93600000D01*
%TO.C,D40*%
X240300000Y-77766250D02*
X240300000Y-73756250D01*
X242300000Y-77766250D02*
X240300000Y-77766250D01*
X242300000Y-77766250D02*
X242300000Y-73756250D01*
%TO.C,D5*%
X119650000Y-34903750D02*
X119650000Y-30893750D01*
X121650000Y-34903750D02*
X119650000Y-34903750D01*
X121650000Y-34903750D02*
X121650000Y-30893750D01*
%TO.C,D51*%
X168862500Y-96816250D02*
X168862500Y-92806250D01*
X170862500Y-96816250D02*
X168862500Y-96816250D01*
X170862500Y-96816250D02*
X170862500Y-92806250D01*
%TO.C,D14*%
X326025000Y-34903750D02*
X326025000Y-30893750D01*
X328025000Y-34903750D02*
X326025000Y-34903750D01*
X328025000Y-34903750D02*
X328025000Y-30893750D01*
%TO.C,D53*%
X206962500Y-96816250D02*
X206962500Y-92806250D01*
X208962500Y-96816250D02*
X206962500Y-96816250D01*
X208962500Y-96816250D02*
X208962500Y-92806250D01*
%TO.C,D17*%
X78375000Y-58716250D02*
X78375000Y-54706250D01*
X80375000Y-58716250D02*
X78375000Y-58716250D01*
X80375000Y-58716250D02*
X80375000Y-54706250D01*
%TO.C,D57*%
X295068750Y-96816250D02*
X295068750Y-92806250D01*
X297068750Y-96816250D02*
X295068750Y-96816250D01*
X297068750Y-96816250D02*
X297068750Y-92806250D01*
%TO.C,D78*%
X237918750Y-139678750D02*
X237918750Y-135668750D01*
X239918750Y-139678750D02*
X237918750Y-139678750D01*
X239918750Y-139678750D02*
X239918750Y-135668750D01*
%TO.C,D63*%
X140287500Y-115866250D02*
X140287500Y-111856250D01*
X142287500Y-115866250D02*
X140287500Y-115866250D01*
X142287500Y-115866250D02*
X142287500Y-111856250D01*
%TO.C,D9*%
X199025000Y-34903750D02*
X199025000Y-30893750D01*
X201025000Y-34903750D02*
X199025000Y-34903750D01*
X201025000Y-34903750D02*
X201025000Y-30893750D01*
%TO.C,D10*%
X221250000Y-35697500D02*
X221250000Y-31687500D01*
X223250000Y-35697500D02*
X221250000Y-35697500D01*
X223250000Y-35697500D02*
X223250000Y-31687500D01*
%TO.C,D50*%
X149812500Y-97610000D02*
X149812500Y-93600000D01*
X151812500Y-97610000D02*
X149812500Y-97610000D01*
X151812500Y-97610000D02*
X151812500Y-93600000D01*
%TO.C,D11*%
X240300000Y-34903750D02*
X240300000Y-30893750D01*
X242300000Y-34903750D02*
X240300000Y-34903750D01*
X242300000Y-34903750D02*
X242300000Y-30893750D01*
%TO.C,D43*%
X302212500Y-80941250D02*
X302212500Y-76931250D01*
X304212500Y-80941250D02*
X302212500Y-80941250D01*
X304212500Y-80941250D02*
X304212500Y-76931250D01*
%TO.C,D66*%
X197437500Y-116660000D02*
X197437500Y-112650000D01*
X199437500Y-116660000D02*
X197437500Y-116660000D01*
X199437500Y-116660000D02*
X199437500Y-112650000D01*
%TO.C,D80*%
X306975000Y-138091250D02*
X306975000Y-134081250D01*
X308975000Y-138091250D02*
X306975000Y-138091250D01*
X308975000Y-138091250D02*
X308975000Y-134081250D01*
%TO.C,D54*%
X226012500Y-97610000D02*
X226012500Y-93600000D01*
X228012500Y-97610000D02*
X226012500Y-97610000D01*
X228012500Y-97610000D02*
X228012500Y-93600000D01*
%TO.C,D27*%
X268875000Y-58716250D02*
X268875000Y-54706250D01*
X270875000Y-58716250D02*
X268875000Y-58716250D01*
X270875000Y-58716250D02*
X270875000Y-54706250D01*
%TO.C,D76*%
X142668750Y-140472500D02*
X142668750Y-136462500D01*
X144668750Y-140472500D02*
X142668750Y-140472500D01*
X144668750Y-140472500D02*
X144668750Y-136462500D01*
%TO.C,D38*%
X202200000Y-77766250D02*
X202200000Y-73756250D01*
X204200000Y-77766250D02*
X202200000Y-77766250D01*
X204200000Y-77766250D02*
X204200000Y-73756250D01*
%TO.C,D39*%
X221250000Y-78560000D02*
X221250000Y-74550000D01*
X223250000Y-78560000D02*
X221250000Y-78560000D01*
X223250000Y-78560000D02*
X223250000Y-74550000D01*
%TO.C,D34*%
X126000000Y-77766250D02*
X126000000Y-73756250D01*
X128000000Y-77766250D02*
X126000000Y-77766250D01*
X128000000Y-77766250D02*
X128000000Y-73756250D01*
%TO.C,D45*%
X51387500Y-96816250D02*
X51387500Y-92806250D01*
X53387500Y-96816250D02*
X51387500Y-96816250D01*
X53387500Y-96816250D02*
X53387500Y-92806250D01*
%TO.C,D79*%
X287925000Y-134916250D02*
X287925000Y-130906250D01*
X289925000Y-134916250D02*
X287925000Y-134916250D01*
X289925000Y-134916250D02*
X289925000Y-130906250D01*
%TO.C,D75*%
X72818750Y-139678750D02*
X72818750Y-135668750D01*
X74818750Y-139678750D02*
X72818750Y-139678750D01*
X74818750Y-139678750D02*
X74818750Y-135668750D01*
%TO.C,D47*%
X92662500Y-96816250D02*
X92662500Y-92806250D01*
X94662500Y-96816250D02*
X92662500Y-96816250D01*
X94662500Y-96816250D02*
X94662500Y-92806250D01*
%TO.C,D18*%
X97425000Y-59510000D02*
X97425000Y-55500000D01*
X99425000Y-59510000D02*
X97425000Y-59510000D01*
X99425000Y-59510000D02*
X99425000Y-55500000D01*
%TO.C,D15*%
X40275000Y-58716250D02*
X40275000Y-54706250D01*
X42275000Y-58716250D02*
X40275000Y-58716250D01*
X42275000Y-58716250D02*
X42275000Y-54706250D01*
%TO.C,D22*%
X173625000Y-59510000D02*
X173625000Y-55500000D01*
X175625000Y-59510000D02*
X173625000Y-59510000D01*
X175625000Y-59510000D02*
X175625000Y-55500000D01*
%TO.C,D81*%
X326025000Y-134916250D02*
X326025000Y-130906250D01*
X328025000Y-134916250D02*
X326025000Y-134916250D01*
X328025000Y-134916250D02*
X328025000Y-130906250D01*
%TO.C,D71*%
X306975000Y-119041250D02*
X306975000Y-115031250D01*
X308975000Y-119041250D02*
X306975000Y-119041250D01*
X308975000Y-119041250D02*
X308975000Y-115031250D01*
%TO.C,D68*%
X235537500Y-116660000D02*
X235537500Y-112650000D01*
X237537500Y-116660000D02*
X235537500Y-116660000D01*
X237537500Y-116660000D02*
X237537500Y-112650000D01*
%TO.C,D29*%
X326025000Y-58716250D02*
X326025000Y-54706250D01*
X328025000Y-58716250D02*
X326025000Y-58716250D01*
X328025000Y-58716250D02*
X328025000Y-54706250D01*
%TO.C,D42*%
X278400000Y-77766250D02*
X278400000Y-73756250D01*
X280400000Y-77766250D02*
X278400000Y-77766250D01*
X280400000Y-77766250D02*
X280400000Y-73756250D01*
%TO.C,D37*%
X183150000Y-78560000D02*
X183150000Y-74550000D01*
X185150000Y-78560000D02*
X183150000Y-78560000D01*
X185150000Y-78560000D02*
X185150000Y-74550000D01*
%TO.C,D77*%
X214900000Y-140472500D02*
X214900000Y-136462500D01*
X216900000Y-140472500D02*
X214900000Y-140472500D01*
X216900000Y-140472500D02*
X216900000Y-136462500D01*
%TO.C,D55*%
X245062500Y-96816250D02*
X245062500Y-92806250D01*
X247062500Y-96816250D02*
X245062500Y-96816250D01*
X247062500Y-96816250D02*
X247062500Y-92806250D01*
%TO.C,D59*%
X52181250Y-115866250D02*
X52181250Y-111856250D01*
X54181250Y-115866250D02*
X52181250Y-115866250D01*
X54181250Y-115866250D02*
X54181250Y-111856250D01*
%TO.C,D48*%
X111712500Y-97610000D02*
X111712500Y-93600000D01*
X113712500Y-97610000D02*
X111712500Y-97610000D01*
X113712500Y-97610000D02*
X113712500Y-93600000D01*
%TO.C,D33*%
X106950000Y-78560000D02*
X106950000Y-74550000D01*
X108950000Y-78560000D02*
X106950000Y-78560000D01*
X108950000Y-78560000D02*
X108950000Y-74550000D01*
%TO.C,D6*%
X141875000Y-35697500D02*
X141875000Y-31687500D01*
X143875000Y-35697500D02*
X141875000Y-35697500D01*
X143875000Y-35697500D02*
X143875000Y-31687500D01*
%TO.C,D60*%
X83137500Y-116660000D02*
X83137500Y-112650000D01*
X85137500Y-116660000D02*
X83137500Y-116660000D01*
X85137500Y-116660000D02*
X85137500Y-112650000D01*
%TO.C,D36*%
X164100000Y-77766250D02*
X164100000Y-73756250D01*
X166100000Y-77766250D02*
X164100000Y-77766250D01*
X166100000Y-77766250D02*
X166100000Y-73756250D01*
%TO.C,D20*%
X135525000Y-59510000D02*
X135525000Y-55500000D01*
X137525000Y-59510000D02*
X135525000Y-59510000D01*
X137525000Y-59510000D02*
X137525000Y-55500000D01*
%TO.C,D25*%
X230775000Y-58716250D02*
X230775000Y-54706250D01*
X232775000Y-58716250D02*
X230775000Y-58716250D01*
X232775000Y-58716250D02*
X232775000Y-54706250D01*
%TO.C,D44*%
X326025000Y-77766250D02*
X326025000Y-73756250D01*
X328025000Y-77766250D02*
X326025000Y-77766250D01*
X328025000Y-77766250D02*
X328025000Y-73756250D01*
%TO.C,D41*%
X259350000Y-78560000D02*
X259350000Y-74550000D01*
X261350000Y-78560000D02*
X259350000Y-78560000D01*
X261350000Y-78560000D02*
X261350000Y-74550000D01*
%TO.C,D7*%
X160925000Y-34903750D02*
X160925000Y-30893750D01*
X162925000Y-34903750D02*
X160925000Y-34903750D01*
X162925000Y-34903750D02*
X162925000Y-30893750D01*
%TO.C,D74*%
X48212500Y-140472500D02*
X48212500Y-136462500D01*
X50212500Y-140472500D02*
X48212500Y-140472500D01*
X50212500Y-140472500D02*
X50212500Y-136462500D01*
%TO.C,D1*%
X40275000Y-34903750D02*
X40275000Y-30893750D01*
X42275000Y-34903750D02*
X40275000Y-34903750D01*
X42275000Y-34903750D02*
X42275000Y-30893750D01*
%TO.C,D4*%
X100600000Y-35635000D02*
X100600000Y-31625000D01*
X102600000Y-35635000D02*
X100600000Y-35635000D01*
X102600000Y-35635000D02*
X102600000Y-31625000D01*
%TO.C,D28*%
X298243750Y-61891250D02*
X298243750Y-57881250D01*
X300243750Y-61891250D02*
X298243750Y-61891250D01*
X300243750Y-61891250D02*
X300243750Y-57881250D01*
%TO.C,D19*%
X116475000Y-58716250D02*
X116475000Y-54706250D01*
X118475000Y-58716250D02*
X116475000Y-58716250D01*
X118475000Y-58716250D02*
X118475000Y-54706250D01*
%TO.C,D49*%
X130762500Y-96816250D02*
X130762500Y-92806250D01*
X132762500Y-96816250D02*
X130762500Y-96816250D01*
X132762500Y-96816250D02*
X132762500Y-92806250D01*
%TO.C,D69*%
X254587500Y-115866250D02*
X254587500Y-111856250D01*
X256587500Y-115866250D02*
X254587500Y-115866250D01*
X256587500Y-115866250D02*
X256587500Y-111856250D01*
%TO.C,D16*%
X59325000Y-59447500D02*
X59325000Y-55437500D01*
X61325000Y-59447500D02*
X59325000Y-59447500D01*
X61325000Y-59447500D02*
X61325000Y-55437500D01*
%TO.C,D13*%
X278400000Y-34903750D02*
X278400000Y-30893750D01*
X280400000Y-34903750D02*
X278400000Y-34903750D01*
X280400000Y-34903750D02*
X280400000Y-30893750D01*
%TO.C,D3*%
X81550000Y-34903750D02*
X81550000Y-30893750D01*
X83550000Y-34903750D02*
X81550000Y-34903750D01*
X83550000Y-34903750D02*
X83550000Y-30893750D01*
%TO.C,D73*%
X25987500Y-139678750D02*
X25987500Y-135668750D01*
X27987500Y-139678750D02*
X25987500Y-139678750D01*
X27987500Y-139678750D02*
X27987500Y-135668750D01*
%TO.C,D56*%
X264112500Y-97610000D02*
X264112500Y-93600000D01*
X266112500Y-97610000D02*
X264112500Y-97610000D01*
X266112500Y-97610000D02*
X266112500Y-93600000D01*
%TO.C,D2*%
X62500000Y-35697500D02*
X62500000Y-31687500D01*
X64500000Y-35697500D02*
X62500000Y-35697500D01*
X64500000Y-35697500D02*
X64500000Y-31687500D01*
%TO.C,D24*%
X211725000Y-59510000D02*
X211725000Y-55500000D01*
X213725000Y-59510000D02*
X211725000Y-59510000D01*
X213725000Y-59510000D02*
X213725000Y-55500000D01*
%TO.C,D12*%
X259350000Y-35697500D02*
X259350000Y-31687500D01*
X261350000Y-35697500D02*
X259350000Y-35697500D01*
X261350000Y-35697500D02*
X261350000Y-31687500D01*
%TO.C,D35*%
X145050000Y-78560000D02*
X145050000Y-74550000D01*
X147050000Y-78560000D02*
X145050000Y-78560000D01*
X147050000Y-78560000D02*
X147050000Y-74550000D01*
%TO.C,D26*%
X249825000Y-59510000D02*
X249825000Y-55500000D01*
X251825000Y-59510000D02*
X249825000Y-59510000D01*
X251825000Y-59510000D02*
X251825000Y-55500000D01*
%TO.C,D32*%
X87900000Y-77766250D02*
X87900000Y-73756250D01*
X89900000Y-77766250D02*
X87900000Y-77766250D01*
X89900000Y-77766250D02*
X89900000Y-73756250D01*
%TD*%
M02*
